ISO-10303-21;
HEADER;
FILE_DESCRIPTION(('FreeCAD Model'),'2;1');
FILE_NAME('/home/kenny/Coilcraft-ME3220.step','2019-04-16T10:21:56',(
    'kicad StepUp'),('ksu MCAD'),'Open CASCADE STEP processor 7.3',
  'FreeCAD','Unknown');
FILE_SCHEMA(('AUTOMOTIVE_DESIGN { 1 0 10303 214 1 1 1 1 }'));
ENDSEC;
DATA;
#1 = APPLICATION_PROTOCOL_DEFINITION('international standard',
  'automotive_design',2000,#2);
#2 = APPLICATION_CONTEXT(
  'core data for automotive mechanical design processes');
#3 = SHAPE_DEFINITION_REPRESENTATION(#4,#10);
#4 = PRODUCT_DEFINITION_SHAPE('','',#5);
#5 = PRODUCT_DEFINITION('design','',#6,#9);
#6 = PRODUCT_DEFINITION_FORMATION('','',#7);
#7 = PRODUCT('Coilcraft-ME3220','Coilcraft-ME3220','',(#8));
#8 = PRODUCT_CONTEXT('',#2,'mechanical');
#9 = PRODUCT_DEFINITION_CONTEXT('part definition',#2,'design');
#10 = ADVANCED_BREP_SHAPE_REPRESENTATION('',(#11,#15),#581);
#11 = AXIS2_PLACEMENT_3D('',#12,#13,#14);
#12 = CARTESIAN_POINT('',(0.,0.,0.));
#13 = DIRECTION('',(0.,0.,1.));
#14 = DIRECTION('',(1.,0.,-0.));
#15 = MANIFOLD_SOLID_BREP('',#16);
#16 = CLOSED_SHELL('',(#17,#57,#88,#112,#136,#153,#199,#230,#254,#278,
    #295,#341,#404,#428,#484,#501,#518,#535,#552,#569));
#17 = ADVANCED_FACE('',(#18),#52,.T.);
#18 = FACE_BOUND('',#19,.T.);
#19 = EDGE_LOOP('',(#20,#30,#38,#46));
#20 = ORIENTED_EDGE('',*,*,#21,.T.);
#21 = EDGE_CURVE('',#22,#24,#26,.T.);
#22 = VERTEX_POINT('',#23);
#23 = CARTESIAN_POINT('',(1.4,-1.41,2.4));
#24 = VERTEX_POINT('',#25);
#25 = CARTESIAN_POINT('',(1.4,1.39,2.4));
#26 = LINE('',#27,#28);
#27 = CARTESIAN_POINT('',(1.4,-1.41,2.4));
#28 = VECTOR('',#29,1.);
#29 = DIRECTION('',(4.440892098501E-16,1.,-2.22044604925E-16));
#30 = ORIENTED_EDGE('',*,*,#31,.T.);
#31 = EDGE_CURVE('',#24,#32,#34,.T.);
#32 = VERTEX_POINT('',#33);
#33 = CARTESIAN_POINT('',(-1.4,1.39,2.4));
#34 = LINE('',#35,#36);
#35 = CARTESIAN_POINT('',(-1.4,1.39,2.4));
#36 = VECTOR('',#37,1.);
#37 = DIRECTION('',(-1.,4.440892098501E-16,-2.22044604925E-16));
#38 = ORIENTED_EDGE('',*,*,#39,.T.);
#39 = EDGE_CURVE('',#32,#40,#42,.T.);
#40 = VERTEX_POINT('',#41);
#41 = CARTESIAN_POINT('',(-1.4,-1.41,2.4));
#42 = LINE('',#43,#44);
#43 = CARTESIAN_POINT('',(-1.4,-1.41,2.4));
#44 = VECTOR('',#45,1.);
#45 = DIRECTION('',(-4.440892098501E-16,-1.,2.22044604925E-16));
#46 = ORIENTED_EDGE('',*,*,#47,.T.);
#47 = EDGE_CURVE('',#40,#22,#48,.T.);
#48 = LINE('',#49,#50);
#49 = CARTESIAN_POINT('',(-1.4,-1.41,2.4));
#50 = VECTOR('',#51,1.);
#51 = DIRECTION('',(1.,-4.440892098501E-16,2.22044604925E-16));
#52 = PLANE('',#53);
#53 = AXIS2_PLACEMENT_3D('',#54,#55,#56);
#54 = CARTESIAN_POINT('',(-1.4,-1.41,2.4));
#55 = DIRECTION('',(-2.22044604925E-16,2.22044604925E-16,1.));
#56 = DIRECTION('',(-1.,4.440892098501E-16,-2.22044604925E-16));
#57 = ADVANCED_FACE('',(#58),#83,.F.);
#58 = FACE_BOUND('',#59,.T.);
#59 = EDGE_LOOP('',(#60,#68,#69,#77));
#60 = ORIENTED_EDGE('',*,*,#61,.F.);
#61 = EDGE_CURVE('',#32,#62,#64,.T.);
#62 = VERTEX_POINT('',#63);
#63 = CARTESIAN_POINT('',(-1.4,1.39,1.9));
#64 = LINE('',#65,#66);
#65 = CARTESIAN_POINT('',(-1.4,1.39,2.4));
#66 = VECTOR('',#67,1.);
#67 = DIRECTION('',(2.22044604925E-16,-2.22044604925E-16,-1.));
#68 = ORIENTED_EDGE('',*,*,#31,.F.);
#69 = ORIENTED_EDGE('',*,*,#70,.F.);
#70 = EDGE_CURVE('',#71,#24,#73,.T.);
#71 = VERTEX_POINT('',#72);
#72 = CARTESIAN_POINT('',(1.4,1.39,1.9));
#73 = LINE('',#74,#75);
#74 = CARTESIAN_POINT('',(1.4,1.39,2.4));
#75 = VECTOR('',#76,1.);
#76 = DIRECTION('',(-2.22044604925E-16,2.22044604925E-16,1.));
#77 = ORIENTED_EDGE('',*,*,#78,.F.);
#78 = EDGE_CURVE('',#62,#71,#79,.T.);
#79 = LINE('',#80,#81);
#80 = CARTESIAN_POINT('',(1.4,1.39,1.9));
#81 = VECTOR('',#82,1.);
#82 = DIRECTION('',(1.,-4.440892098501E-16,2.22044604925E-16));
#83 = PLANE('',#84);
#84 = AXIS2_PLACEMENT_3D('',#85,#86,#87);
#85 = CARTESIAN_POINT('',(1.4,1.39,2.4));
#86 = DIRECTION('',(-4.440892098501E-16,-1.,2.22044604925E-16));
#87 = DIRECTION('',(1.,-4.440892098501E-16,2.22044604925E-16));
#88 = ADVANCED_FACE('',(#89),#107,.F.);
#89 = FACE_BOUND('',#90,.T.);
#90 = EDGE_LOOP('',(#91,#92,#93,#101));
#91 = ORIENTED_EDGE('',*,*,#70,.T.);
#92 = ORIENTED_EDGE('',*,*,#21,.F.);
#93 = ORIENTED_EDGE('',*,*,#94,.F.);
#94 = EDGE_CURVE('',#95,#22,#97,.T.);
#95 = VERTEX_POINT('',#96);
#96 = CARTESIAN_POINT('',(1.4,-1.41,1.9));
#97 = LINE('',#98,#99);
#98 = CARTESIAN_POINT('',(1.4,-1.41,2.4));
#99 = VECTOR('',#100,1.);
#100 = DIRECTION('',(-2.22044604925E-16,2.22044604925E-16,1.));
#101 = ORIENTED_EDGE('',*,*,#102,.F.);
#102 = EDGE_CURVE('',#71,#95,#103,.T.);
#103 = LINE('',#104,#105);
#104 = CARTESIAN_POINT('',(1.4,-1.41,1.9));
#105 = VECTOR('',#106,1.);
#106 = DIRECTION('',(-4.440892098501E-16,-1.,2.22044604925E-16));
#107 = PLANE('',#108);
#108 = AXIS2_PLACEMENT_3D('',#109,#110,#111);
#109 = CARTESIAN_POINT('',(1.4,-1.41,2.4));
#110 = DIRECTION('',(-1.,4.440892098501E-16,-2.22044604925E-16));
#111 = DIRECTION('',(-4.440892098501E-16,-1.,2.22044604925E-16));
#112 = ADVANCED_FACE('',(#113),#131,.F.);
#113 = FACE_BOUND('',#114,.T.);
#114 = EDGE_LOOP('',(#115,#116,#117,#125));
#115 = ORIENTED_EDGE('',*,*,#94,.T.);
#116 = ORIENTED_EDGE('',*,*,#47,.F.);
#117 = ORIENTED_EDGE('',*,*,#118,.F.);
#118 = EDGE_CURVE('',#119,#40,#121,.T.);
#119 = VERTEX_POINT('',#120);
#120 = CARTESIAN_POINT('',(-1.4,-1.41,1.9));
#121 = LINE('',#122,#123);
#122 = CARTESIAN_POINT('',(-1.4,-1.41,2.4));
#123 = VECTOR('',#124,1.);
#124 = DIRECTION('',(-2.22044604925E-16,2.22044604925E-16,1.));
#125 = ORIENTED_EDGE('',*,*,#126,.F.);
#126 = EDGE_CURVE('',#95,#119,#127,.T.);
#127 = LINE('',#128,#129);
#128 = CARTESIAN_POINT('',(-1.4,-1.41,1.9));
#129 = VECTOR('',#130,1.);
#130 = DIRECTION('',(-1.,4.440892098501E-16,-2.22044604925E-16));
#131 = PLANE('',#132);
#132 = AXIS2_PLACEMENT_3D('',#133,#134,#135);
#133 = CARTESIAN_POINT('',(-1.4,-1.41,2.4));
#134 = DIRECTION('',(4.440892098501E-16,1.,-2.22044604925E-16));
#135 = DIRECTION('',(-1.,4.440892098501E-16,-2.22044604925E-16));
#136 = ADVANCED_FACE('',(#137),#148,.F.);
#137 = FACE_BOUND('',#138,.T.);
#138 = EDGE_LOOP('',(#139,#140,#141,#142));
#139 = ORIENTED_EDGE('',*,*,#118,.T.);
#140 = ORIENTED_EDGE('',*,*,#39,.F.);
#141 = ORIENTED_EDGE('',*,*,#61,.T.);
#142 = ORIENTED_EDGE('',*,*,#143,.F.);
#143 = EDGE_CURVE('',#119,#62,#144,.T.);
#144 = LINE('',#145,#146);
#145 = CARTESIAN_POINT('',(-1.4,1.39,1.9));
#146 = VECTOR('',#147,1.);
#147 = DIRECTION('',(3.666461975297E-16,1.,-2.22044604925E-16));
#148 = PLANE('',#149);
#149 = AXIS2_PLACEMENT_3D('',#150,#151,#152);
#150 = CARTESIAN_POINT('',(-1.4,1.39,2.4));
#151 = DIRECTION('',(1.,-3.666461975297E-16,2.22044604925E-16));
#152 = DIRECTION('',(3.666461975297E-16,1.,-2.22044604925E-16));
#153 = ADVANCED_FACE('',(#154,#188),#194,.F.);
#154 = FACE_BOUND('',#155,.T.);
#155 = EDGE_LOOP('',(#156,#166,#174,#182));
#156 = ORIENTED_EDGE('',*,*,#157,.F.);
#157 = EDGE_CURVE('',#158,#160,#162,.T.);
#158 = VERTEX_POINT('',#159);
#159 = CARTESIAN_POINT('',(1.15,1.14,1.9));
#160 = VERTEX_POINT('',#161);
#161 = CARTESIAN_POINT('',(1.15,-1.16,1.9));
#162 = LINE('',#163,#164);
#163 = CARTESIAN_POINT('',(1.15,-1.41,1.9));
#164 = VECTOR('',#165,1.);
#165 = DIRECTION('',(-4.440892098501E-16,-1.,2.22044604925E-16));
#166 = ORIENTED_EDGE('',*,*,#167,.F.);
#167 = EDGE_CURVE('',#168,#158,#170,.T.);
#168 = VERTEX_POINT('',#169);
#169 = CARTESIAN_POINT('',(-1.15,1.14,1.9));
#170 = LINE('',#171,#172);
#171 = CARTESIAN_POINT('',(-1.4,1.14,1.9));
#172 = VECTOR('',#173,1.);
#173 = DIRECTION('',(1.,-4.440892098501E-16,2.22044604925E-16));
#174 = ORIENTED_EDGE('',*,*,#175,.F.);
#175 = EDGE_CURVE('',#176,#168,#178,.T.);
#176 = VERTEX_POINT('',#177);
#177 = CARTESIAN_POINT('',(-1.15,-1.16,1.9));
#178 = LINE('',#179,#180);
#179 = CARTESIAN_POINT('',(-1.15,-1.41,1.9));
#180 = VECTOR('',#181,1.);
#181 = DIRECTION('',(4.440892098501E-16,1.,-2.22044604925E-16));
#182 = ORIENTED_EDGE('',*,*,#183,.F.);
#183 = EDGE_CURVE('',#160,#176,#184,.T.);
#184 = LINE('',#185,#186);
#185 = CARTESIAN_POINT('',(-1.4,-1.16,1.9));
#186 = VECTOR('',#187,1.);
#187 = DIRECTION('',(-1.,4.440892098501E-16,-2.22044604925E-16));
#188 = FACE_BOUND('',#189,.T.);
#189 = EDGE_LOOP('',(#190,#191,#192,#193));
#190 = ORIENTED_EDGE('',*,*,#78,.T.);
#191 = ORIENTED_EDGE('',*,*,#102,.T.);
#192 = ORIENTED_EDGE('',*,*,#126,.T.);
#193 = ORIENTED_EDGE('',*,*,#143,.T.);
#194 = PLANE('',#195);
#195 = AXIS2_PLACEMENT_3D('',#196,#197,#198);
#196 = CARTESIAN_POINT('',(-1.4,-1.41,1.9));
#197 = DIRECTION('',(-2.22044604925E-16,2.22044604925E-16,1.));
#198 = DIRECTION('',(-1.,4.440892098501E-16,-2.22044604925E-16));
#199 = ADVANCED_FACE('',(#200),#225,.F.);
#200 = FACE_BOUND('',#201,.T.);
#201 = EDGE_LOOP('',(#202,#210,#211,#219));
#202 = ORIENTED_EDGE('',*,*,#203,.F.);
#203 = EDGE_CURVE('',#160,#204,#206,.T.);
#204 = VERTEX_POINT('',#205);
#205 = CARTESIAN_POINT('',(1.15,-1.16,0.7));
#206 = LINE('',#207,#208);
#207 = CARTESIAN_POINT('',(1.15,-1.16,1.9));
#208 = VECTOR('',#209,1.);
#209 = DIRECTION('',(2.22044604925E-16,-2.22044604925E-16,-1.));
#210 = ORIENTED_EDGE('',*,*,#183,.T.);
#211 = ORIENTED_EDGE('',*,*,#212,.F.);
#212 = EDGE_CURVE('',#213,#176,#215,.T.);
#213 = VERTEX_POINT('',#214);
#214 = CARTESIAN_POINT('',(-1.15,-1.16,0.7));
#215 = LINE('',#216,#217);
#216 = CARTESIAN_POINT('',(-1.15,-1.16,1.9));
#217 = VECTOR('',#218,1.);
#218 = DIRECTION('',(-2.22044604925E-16,2.22044604925E-16,1.));
#219 = ORIENTED_EDGE('',*,*,#220,.F.);
#220 = EDGE_CURVE('',#204,#213,#221,.T.);
#221 = LINE('',#222,#223);
#222 = CARTESIAN_POINT('',(-1.15,-1.16,0.7));
#223 = VECTOR('',#224,1.);
#224 = DIRECTION('',(-1.,4.440892098501E-16,-2.22044604925E-16));
#225 = PLANE('',#226);
#226 = AXIS2_PLACEMENT_3D('',#227,#228,#229);
#227 = CARTESIAN_POINT('',(-1.15,-1.16,1.9));
#228 = DIRECTION('',(4.440892098501E-16,1.,-2.22044604925E-16));
#229 = DIRECTION('',(-1.,4.440892098501E-16,-2.22044604925E-16));
#230 = ADVANCED_FACE('',(#231),#249,.F.);
#231 = FACE_BOUND('',#232,.T.);
#232 = EDGE_LOOP('',(#233,#241,#242,#243));
#233 = ORIENTED_EDGE('',*,*,#234,.F.);
#234 = EDGE_CURVE('',#158,#235,#237,.T.);
#235 = VERTEX_POINT('',#236);
#236 = CARTESIAN_POINT('',(1.15,1.14,0.7));
#237 = LINE('',#238,#239);
#238 = CARTESIAN_POINT('',(1.15,1.14,1.9));
#239 = VECTOR('',#240,1.);
#240 = DIRECTION('',(2.22044604925E-16,-2.22044604925E-16,-1.));
#241 = ORIENTED_EDGE('',*,*,#157,.T.);
#242 = ORIENTED_EDGE('',*,*,#203,.T.);
#243 = ORIENTED_EDGE('',*,*,#244,.F.);
#244 = EDGE_CURVE('',#235,#204,#245,.T.);
#245 = LINE('',#246,#247);
#246 = CARTESIAN_POINT('',(1.15,1.14,0.7));
#247 = VECTOR('',#248,1.);
#248 = DIRECTION('',(-4.440892098501E-16,-1.,2.22044604925E-16));
#249 = PLANE('',#250);
#250 = AXIS2_PLACEMENT_3D('',#251,#252,#253);
#251 = CARTESIAN_POINT('',(1.15,1.14,1.9));
#252 = DIRECTION('',(-1.,4.440892098501E-16,-2.22044604925E-16));
#253 = DIRECTION('',(-4.440892098501E-16,-1.,2.22044604925E-16));
#254 = ADVANCED_FACE('',(#255),#273,.F.);
#255 = FACE_BOUND('',#256,.T.);
#256 = EDGE_LOOP('',(#257,#265,#266,#267));
#257 = ORIENTED_EDGE('',*,*,#258,.F.);
#258 = EDGE_CURVE('',#168,#259,#261,.T.);
#259 = VERTEX_POINT('',#260);
#260 = CARTESIAN_POINT('',(-1.15,1.14,0.7));
#261 = LINE('',#262,#263);
#262 = CARTESIAN_POINT('',(-1.15,1.14,1.9));
#263 = VECTOR('',#264,1.);
#264 = DIRECTION('',(2.22044604925E-16,-2.22044604925E-16,-1.));
#265 = ORIENTED_EDGE('',*,*,#167,.T.);
#266 = ORIENTED_EDGE('',*,*,#234,.T.);
#267 = ORIENTED_EDGE('',*,*,#268,.F.);
#268 = EDGE_CURVE('',#259,#235,#269,.T.);
#269 = LINE('',#270,#271);
#270 = CARTESIAN_POINT('',(-1.15,1.14,0.7));
#271 = VECTOR('',#272,1.);
#272 = DIRECTION('',(1.,-4.440892098501E-16,2.22044604925E-16));
#273 = PLANE('',#274);
#274 = AXIS2_PLACEMENT_3D('',#275,#276,#277);
#275 = CARTESIAN_POINT('',(-1.15,1.14,1.9));
#276 = DIRECTION('',(-4.440892098501E-16,-1.,2.22044604925E-16));
#277 = DIRECTION('',(1.,-4.440892098501E-16,2.22044604925E-16));
#278 = ADVANCED_FACE('',(#279),#290,.F.);
#279 = FACE_BOUND('',#280,.T.);
#280 = EDGE_LOOP('',(#281,#282,#283,#284));
#281 = ORIENTED_EDGE('',*,*,#212,.T.);
#282 = ORIENTED_EDGE('',*,*,#175,.T.);
#283 = ORIENTED_EDGE('',*,*,#258,.T.);
#284 = ORIENTED_EDGE('',*,*,#285,.F.);
#285 = EDGE_CURVE('',#213,#259,#286,.T.);
#286 = LINE('',#287,#288);
#287 = CARTESIAN_POINT('',(-1.15,1.14,0.7));
#288 = VECTOR('',#289,1.);
#289 = DIRECTION('',(4.440892098501E-16,1.,-2.22044604925E-16));
#290 = PLANE('',#291);
#291 = AXIS2_PLACEMENT_3D('',#292,#293,#294);
#292 = CARTESIAN_POINT('',(-1.15,1.14,1.9));
#293 = DIRECTION('',(1.,-4.440892098501E-16,2.22044604925E-16));
#294 = DIRECTION('',(4.440892098501E-16,1.,-2.22044604925E-16));
#295 = ADVANCED_FACE('',(#296,#302),#336,.T.);
#296 = FACE_BOUND('',#297,.T.);
#297 = EDGE_LOOP('',(#298,#299,#300,#301));
#298 = ORIENTED_EDGE('',*,*,#220,.T.);
#299 = ORIENTED_EDGE('',*,*,#285,.T.);
#300 = ORIENTED_EDGE('',*,*,#268,.T.);
#301 = ORIENTED_EDGE('',*,*,#244,.T.);
#302 = FACE_BOUND('',#303,.T.);
#303 = EDGE_LOOP('',(#304,#314,#322,#330));
#304 = ORIENTED_EDGE('',*,*,#305,.T.);
#305 = EDGE_CURVE('',#306,#308,#310,.T.);
#306 = VERTEX_POINT('',#307);
#307 = CARTESIAN_POINT('',(-1.75,1.39,0.7));
#308 = VERTEX_POINT('',#309);
#309 = CARTESIAN_POINT('',(-1.75,-1.41,0.7));
#310 = LINE('',#311,#312);
#311 = CARTESIAN_POINT('',(-1.75,-1.41,0.7));
#312 = VECTOR('',#313,1.);
#313 = DIRECTION('',(-4.440892098501E-16,-1.,2.22044604925E-16));
#314 = ORIENTED_EDGE('',*,*,#315,.T.);
#315 = EDGE_CURVE('',#308,#316,#318,.T.);
#316 = VERTEX_POINT('',#317);
#317 = CARTESIAN_POINT('',(1.75,-1.41,0.7));
#318 = LINE('',#319,#320);
#319 = CARTESIAN_POINT('',(1.75,-1.41,0.7));
#320 = VECTOR('',#321,1.);
#321 = DIRECTION('',(1.,-4.440892098501E-16,2.22044604925E-16));
#322 = ORIENTED_EDGE('',*,*,#323,.T.);
#323 = EDGE_CURVE('',#316,#324,#326,.T.);
#324 = VERTEX_POINT('',#325);
#325 = CARTESIAN_POINT('',(1.75,1.39,0.7));
#326 = LINE('',#327,#328);
#327 = CARTESIAN_POINT('',(1.75,-1.41,0.7));
#328 = VECTOR('',#329,1.);
#329 = DIRECTION('',(4.440892098501E-16,1.,-2.22044604925E-16));
#330 = ORIENTED_EDGE('',*,*,#331,.T.);
#331 = EDGE_CURVE('',#324,#306,#332,.T.);
#332 = LINE('',#333,#334);
#333 = CARTESIAN_POINT('',(1.75,1.39,0.7));
#334 = VECTOR('',#335,1.);
#335 = DIRECTION('',(-1.,4.440892098501E-16,-2.22044604925E-16));
#336 = PLANE('',#337);
#337 = AXIS2_PLACEMENT_3D('',#338,#339,#340);
#338 = CARTESIAN_POINT('',(1.75,-1.41,0.7));
#339 = DIRECTION('',(-2.22044604925E-16,2.22044604925E-16,1.));
#340 = DIRECTION('',(-1.,4.440892098501E-16,-2.22044604925E-16));
#341 = ADVANCED_FACE('',(#342),#399,.F.);
#342 = FACE_BOUND('',#343,.T.);
#343 = EDGE_LOOP('',(#344,#354,#362,#370,#378,#386,#392,#393));
#344 = ORIENTED_EDGE('',*,*,#345,.T.);
#345 = EDGE_CURVE('',#346,#348,#350,.T.);
#346 = VERTEX_POINT('',#347);
#347 = CARTESIAN_POINT('',(-1.75,-1.41,8.653892099623E-16));
#348 = VERTEX_POINT('',#349);
#349 = CARTESIAN_POINT('',(-0.65,-1.41,1.195993360607E-15));
#350 = LINE('',#351,#352);
#351 = CARTESIAN_POINT('',(-1.75,-1.41,1.075528555106E-15));
#352 = VECTOR('',#353,1.);
#353 = DIRECTION('',(1.,-4.440892098501E-16,2.22044604925E-16));
#354 = ORIENTED_EDGE('',*,*,#355,.T.);
#355 = EDGE_CURVE('',#348,#356,#358,.T.);
#356 = VERTEX_POINT('',#357);
#357 = CARTESIAN_POINT('',(-0.65,-1.41,5.E-02));
#358 = LINE('',#359,#360);
#359 = CARTESIAN_POINT('',(-0.65,-1.41,1.318389841742E-15));
#360 = VECTOR('',#361,1.);
#361 = DIRECTION('',(-2.22044604925E-16,2.22044604925E-16,1.));
#362 = ORIENTED_EDGE('',*,*,#363,.T.);
#363 = EDGE_CURVE('',#356,#364,#366,.T.);
#364 = VERTEX_POINT('',#365);
#365 = CARTESIAN_POINT('',(0.65,-1.41,5.E-02));
#366 = LINE('',#367,#368);
#367 = CARTESIAN_POINT('',(1.75,-1.41,5.E-02));
#368 = VECTOR('',#369,1.);
#369 = DIRECTION('',(1.,-4.440892098501E-16,2.22044604925E-16));
#370 = ORIENTED_EDGE('',*,*,#371,.T.);
#371 = EDGE_CURVE('',#364,#372,#374,.T.);
#372 = VERTEX_POINT('',#373);
#373 = CARTESIAN_POINT('',(0.65,-1.41,1.586707356824E-15));
#374 = LINE('',#375,#376);
#375 = CARTESIAN_POINT('',(0.65,-1.41,1.609823385706E-15));
#376 = VECTOR('',#377,1.);
#377 = DIRECTION('',(2.22044604925E-16,-2.22044604925E-16,-1.));
#378 = ORIENTED_EDGE('',*,*,#379,.F.);
#379 = EDGE_CURVE('',#380,#372,#382,.T.);
#380 = VERTEX_POINT('',#381);
#381 = CARTESIAN_POINT('',(1.75,-1.41,1.695266902545E-15));
#382 = LINE('',#383,#384);
#383 = CARTESIAN_POINT('',(1.75,-1.41,1.852684672343E-15));
#384 = VECTOR('',#385,1.);
#385 = DIRECTION('',(-1.,4.440892098501E-16,-2.22044604925E-16));
#386 = ORIENTED_EDGE('',*,*,#387,.F.);
#387 = EDGE_CURVE('',#316,#380,#388,.T.);
#388 = LINE('',#389,#390);
#389 = CARTESIAN_POINT('',(1.75,-1.41,0.7));
#390 = VECTOR('',#391,1.);
#391 = DIRECTION('',(2.22044604925E-16,-2.22044604925E-16,-1.));
#392 = ORIENTED_EDGE('',*,*,#315,.F.);
#393 = ORIENTED_EDGE('',*,*,#394,.F.);
#394 = EDGE_CURVE('',#346,#308,#395,.T.);
#395 = LINE('',#396,#397);
#396 = CARTESIAN_POINT('',(-1.75,-1.41,0.7));
#397 = VECTOR('',#398,1.);
#398 = DIRECTION('',(-2.22044604925E-16,2.22044604925E-16,1.));
#399 = PLANE('',#400);
#400 = AXIS2_PLACEMENT_3D('',#401,#402,#403);
#401 = CARTESIAN_POINT('',(-1.75,-1.41,0.7));
#402 = DIRECTION('',(4.440892098501E-16,1.,-2.22044604925E-16));
#403 = DIRECTION('',(-1.,4.440892098501E-16,-2.22044604925E-16));
#404 = ADVANCED_FACE('',(#405),#423,.F.);
#405 = FACE_BOUND('',#406,.T.);
#406 = EDGE_LOOP('',(#407,#415,#416,#417));
#407 = ORIENTED_EDGE('',*,*,#408,.F.);
#408 = EDGE_CURVE('',#346,#409,#411,.T.);
#409 = VERTEX_POINT('',#410);
#410 = CARTESIAN_POINT('',(-1.75,1.39,2.813782550293E-16));
#411 = LINE('',#412,#413);
#412 = CARTESIAN_POINT('',(-1.75,1.39,4.302114220422E-16));
#413 = VECTOR('',#414,1.);
#414 = DIRECTION('',(4.440892098501E-16,1.,-2.22044604925E-16));
#415 = ORIENTED_EDGE('',*,*,#394,.T.);
#416 = ORIENTED_EDGE('',*,*,#305,.F.);
#417 = ORIENTED_EDGE('',*,*,#418,.F.);
#418 = EDGE_CURVE('',#409,#306,#419,.T.);
#419 = LINE('',#420,#421);
#420 = CARTESIAN_POINT('',(-1.75,1.39,0.7));
#421 = VECTOR('',#422,1.);
#422 = DIRECTION('',(-2.22044604925E-16,2.22044604925E-16,1.));
#423 = PLANE('',#424);
#424 = AXIS2_PLACEMENT_3D('',#425,#426,#427);
#425 = CARTESIAN_POINT('',(-1.75,1.39,0.7));
#426 = DIRECTION('',(1.,-4.440892098501E-16,2.22044604925E-16));
#427 = DIRECTION('',(4.440892098501E-16,1.,-2.22044604925E-16));
#428 = ADVANCED_FACE('',(#429),#479,.F.);
#429 = FACE_BOUND('',#430,.T.);
#430 = EDGE_LOOP('',(#431,#441,#449,#457,#465,#471,#472,#473));
#431 = ORIENTED_EDGE('',*,*,#432,.F.);
#432 = EDGE_CURVE('',#433,#435,#437,.T.);
#433 = VERTEX_POINT('',#434);
#434 = CARTESIAN_POINT('',(0.65,1.39,7.806517969664E-16));
#435 = VERTEX_POINT('',#436);
#436 = CARTESIAN_POINT('',(1.75,1.39,1.111255947612E-15));
#437 = LINE('',#438,#439);
#438 = CARTESIAN_POINT('',(1.75,1.39,1.228184220992E-15));
#439 = VECTOR('',#440,1.);
#440 = DIRECTION('',(1.,-4.440892098501E-16,2.22044604925E-16));
#441 = ORIENTED_EDGE('',*,*,#442,.T.);
#442 = EDGE_CURVE('',#433,#443,#445,.T.);
#443 = VERTEX_POINT('',#444);
#444 = CARTESIAN_POINT('',(0.65,1.39,5.E-02));
#445 = LINE('',#446,#447);
#446 = CARTESIAN_POINT('',(0.65,1.39,9.853229343548E-16));
#447 = VECTOR('',#448,1.);
#448 = DIRECTION('',(-2.22044604925E-16,2.22044604925E-16,1.));
#449 = ORIENTED_EDGE('',*,*,#450,.T.);
#450 = EDGE_CURVE('',#443,#451,#453,.T.);
#451 = VERTEX_POINT('',#452);
#452 = CARTESIAN_POINT('',(-0.65,1.39,5.E-02));
#453 = LINE('',#454,#455);
#454 = CARTESIAN_POINT('',(1.75,1.39,5.E-02));
#455 = VECTOR('',#456,1.);
#456 = DIRECTION('',(-1.,4.440892098501E-16,-2.22044604925E-16));
#457 = ORIENTED_EDGE('',*,*,#458,.T.);
#458 = EDGE_CURVE('',#451,#459,#461,.T.);
#459 = VERTEX_POINT('',#460);
#460 = CARTESIAN_POINT('',(-0.65,1.39,6.119824056745E-16));
#461 = LINE('',#462,#463);
#462 = CARTESIAN_POINT('',(-0.65,1.39,6.938893903907E-16));
#463 = VECTOR('',#464,1.);
#464 = DIRECTION('',(2.22044604925E-16,-2.22044604925E-16,-1.));
#465 = ORIENTED_EDGE('',*,*,#466,.F.);
#466 = EDGE_CURVE('',#409,#459,#467,.T.);
#467 = LINE('',#468,#469);
#468 = CARTESIAN_POINT('',(-1.75,1.39,4.302114220422E-16));
#469 = VECTOR('',#470,1.);
#470 = DIRECTION('',(1.,-3.201803901374E-16,2.22044604925E-16));
#471 = ORIENTED_EDGE('',*,*,#418,.T.);
#472 = ORIENTED_EDGE('',*,*,#331,.F.);
#473 = ORIENTED_EDGE('',*,*,#474,.F.);
#474 = EDGE_CURVE('',#435,#324,#475,.T.);
#475 = LINE('',#476,#477);
#476 = CARTESIAN_POINT('',(1.75,1.39,0.7));
#477 = VECTOR('',#478,1.);
#478 = DIRECTION('',(-2.22044604925E-16,2.22044604925E-16,1.));
#479 = PLANE('',#480);
#480 = AXIS2_PLACEMENT_3D('',#481,#482,#483);
#481 = CARTESIAN_POINT('',(-1.75,1.39,0.7));
#482 = DIRECTION('',(-3.201803901374E-16,-1.,2.22044604925E-16));
#483 = DIRECTION('',(1.,-3.201803901374E-16,2.22044604925E-16));
#484 = ADVANCED_FACE('',(#485),#496,.F.);
#485 = FACE_BOUND('',#486,.T.);
#486 = EDGE_LOOP('',(#487,#493,#494,#495));
#487 = ORIENTED_EDGE('',*,*,#488,.F.);
#488 = EDGE_CURVE('',#435,#380,#489,.T.);
#489 = LINE('',#490,#491);
#490 = CARTESIAN_POINT('',(1.75,1.39,1.20736753928E-15));
#491 = VECTOR('',#492,1.);
#492 = DIRECTION('',(-4.440892098501E-16,-1.,2.22044604925E-16));
#493 = ORIENTED_EDGE('',*,*,#474,.T.);
#494 = ORIENTED_EDGE('',*,*,#323,.F.);
#495 = ORIENTED_EDGE('',*,*,#387,.T.);
#496 = PLANE('',#497);
#497 = AXIS2_PLACEMENT_3D('',#498,#499,#500);
#498 = CARTESIAN_POINT('',(1.75,1.39,0.7));
#499 = DIRECTION('',(-1.,4.440892098501E-16,-2.22044604925E-16));
#500 = DIRECTION('',(-4.440892098501E-16,-1.,2.22044604925E-16));
#501 = ADVANCED_FACE('',(#502),#513,.F.);
#502 = FACE_BOUND('',#503,.T.);
#503 = EDGE_LOOP('',(#504,#505,#511,#512));
#504 = ORIENTED_EDGE('',*,*,#466,.T.);
#505 = ORIENTED_EDGE('',*,*,#506,.F.);
#506 = EDGE_CURVE('',#348,#459,#507,.T.);
#507 = LINE('',#508,#509);
#508 = CARTESIAN_POINT('',(-0.65,-1.41,1.318389841742E-15));
#509 = VECTOR('',#510,1.);
#510 = DIRECTION('',(4.440892098501E-16,1.,-2.22044604925E-16));
#511 = ORIENTED_EDGE('',*,*,#345,.F.);
#512 = ORIENTED_EDGE('',*,*,#408,.T.);
#513 = PLANE('',#514);
#514 = AXIS2_PLACEMENT_3D('',#515,#516,#517);
#515 = CARTESIAN_POINT('',(-1.75,-1.41,1.075528555106E-15));
#516 = DIRECTION('',(-2.22044604925E-16,2.22044604925E-16,1.));
#517 = DIRECTION('',(-1.,4.440892098501E-16,-2.22044604925E-16));
#518 = ADVANCED_FACE('',(#519),#530,.T.);
#519 = FACE_BOUND('',#520,.T.);
#520 = EDGE_LOOP('',(#521,#527,#528,#529));
#521 = ORIENTED_EDGE('',*,*,#522,.T.);
#522 = EDGE_CURVE('',#372,#433,#523,.T.);
#523 = LINE('',#524,#525);
#524 = CARTESIAN_POINT('',(0.65,-1.41,1.609823385706E-15));
#525 = VECTOR('',#526,1.);
#526 = DIRECTION('',(4.440892098501E-16,1.,-2.22044604925E-16));
#527 = ORIENTED_EDGE('',*,*,#432,.T.);
#528 = ORIENTED_EDGE('',*,*,#488,.T.);
#529 = ORIENTED_EDGE('',*,*,#379,.T.);
#530 = PLANE('',#531);
#531 = AXIS2_PLACEMENT_3D('',#532,#533,#534);
#532 = CARTESIAN_POINT('',(1.75,-1.41,1.852684672343E-15));
#533 = DIRECTION('',(2.22044604925E-16,-2.22044604925E-16,-1.));
#534 = DIRECTION('',(1.,-4.440892098501E-16,2.22044604925E-16));
#535 = ADVANCED_FACE('',(#536),#547,.F.);
#536 = FACE_BOUND('',#537,.T.);
#537 = EDGE_LOOP('',(#538,#539,#540,#541));
#538 = ORIENTED_EDGE('',*,*,#355,.F.);
#539 = ORIENTED_EDGE('',*,*,#506,.T.);
#540 = ORIENTED_EDGE('',*,*,#458,.F.);
#541 = ORIENTED_EDGE('',*,*,#542,.F.);
#542 = EDGE_CURVE('',#356,#451,#543,.T.);
#543 = LINE('',#544,#545);
#544 = CARTESIAN_POINT('',(-0.65,1.39,5.E-02));
#545 = VECTOR('',#546,1.);
#546 = DIRECTION('',(4.440892098501E-16,1.,-2.22044604925E-16));
#547 = PLANE('',#548);
#548 = AXIS2_PLACEMENT_3D('',#549,#550,#551);
#549 = CARTESIAN_POINT('',(-0.65,1.39,6.938893903907E-16));
#550 = DIRECTION('',(-1.,4.440892098501E-16,-2.22044604925E-16));
#551 = DIRECTION('',(-4.440892098501E-16,-1.,2.22044604925E-16));
#552 = ADVANCED_FACE('',(#553),#564,.F.);
#553 = FACE_BOUND('',#554,.T.);
#554 = EDGE_LOOP('',(#555,#556,#557,#558));
#555 = ORIENTED_EDGE('',*,*,#442,.F.);
#556 = ORIENTED_EDGE('',*,*,#522,.F.);
#557 = ORIENTED_EDGE('',*,*,#371,.F.);
#558 = ORIENTED_EDGE('',*,*,#559,.F.);
#559 = EDGE_CURVE('',#443,#364,#560,.T.);
#560 = LINE('',#561,#562);
#561 = CARTESIAN_POINT('',(0.65,1.39,5.E-02));
#562 = VECTOR('',#563,1.);
#563 = DIRECTION('',(-4.440892098501E-16,-1.,2.22044604925E-16));
#564 = PLANE('',#565);
#565 = AXIS2_PLACEMENT_3D('',#566,#567,#568);
#566 = CARTESIAN_POINT('',(0.65,1.39,9.853229343548E-16));
#567 = DIRECTION('',(1.,-4.440892098501E-16,2.22044604925E-16));
#568 = DIRECTION('',(4.440892098501E-16,1.,-2.22044604925E-16));
#569 = ADVANCED_FACE('',(#570),#576,.F.);
#570 = FACE_BOUND('',#571,.T.);
#571 = EDGE_LOOP('',(#572,#573,#574,#575));
#572 = ORIENTED_EDGE('',*,*,#450,.F.);
#573 = ORIENTED_EDGE('',*,*,#559,.T.);
#574 = ORIENTED_EDGE('',*,*,#363,.F.);
#575 = ORIENTED_EDGE('',*,*,#542,.T.);
#576 = PLANE('',#577);
#577 = AXIS2_PLACEMENT_3D('',#578,#579,#580);
#578 = CARTESIAN_POINT('',(1.75,-1.41,5.E-02));
#579 = DIRECTION('',(-2.22044604925E-16,2.22044604925E-16,1.));
#580 = DIRECTION('',(-1.,4.440892098501E-16,-2.22044604925E-16));
#581 = ( GEOMETRIC_REPRESENTATION_CONTEXT(3) 
GLOBAL_UNCERTAINTY_ASSIGNED_CONTEXT((#585)) GLOBAL_UNIT_ASSIGNED_CONTEXT
((#582,#583,#584)) REPRESENTATION_CONTEXT('Context #1',
  '3D Context with UNIT and UNCERTAINTY') );
#582 = ( LENGTH_UNIT() NAMED_UNIT(*) SI_UNIT(.MILLI.,.METRE.) );
#583 = ( NAMED_UNIT(*) PLANE_ANGLE_UNIT() SI_UNIT($,.RADIAN.) );
#584 = ( NAMED_UNIT(*) SI_UNIT($,.STERADIAN.) SOLID_ANGLE_UNIT() );
#585 = UNCERTAINTY_MEASURE_WITH_UNIT(LENGTH_MEASURE(1.E-07),#582,
  'distance_accuracy_value','confusion accuracy');
#586 = PRODUCT_RELATED_PRODUCT_CATEGORY('part',$,(#7));
#587 = MECHANICAL_DESIGN_GEOMETRIC_PRESENTATION_REPRESENTATION('',(#588,
    #596,#603,#610,#617,#624,#631,#639,#646,#653,#660,#667,#674,#681,
    #688,#695,#703,#710,#717,#724),#581);
#588 = STYLED_ITEM('color',(#589),#17);
#589 = PRESENTATION_STYLE_ASSIGNMENT((#590));
#590 = SURFACE_STYLE_USAGE(.BOTH.,#591);
#591 = SURFACE_SIDE_STYLE('',(#592));
#592 = SURFACE_STYLE_FILL_AREA(#593);
#593 = FILL_AREA_STYLE('',(#594));
#594 = FILL_AREA_STYLE_COLOUR('',#595);
#595 = COLOUR_RGB('',9.803921729326E-02,9.803921729326E-02,
  9.803921729326E-02);
#596 = STYLED_ITEM('color',(#597),#57);
#597 = PRESENTATION_STYLE_ASSIGNMENT((#598));
#598 = SURFACE_STYLE_USAGE(.BOTH.,#599);
#599 = SURFACE_SIDE_STYLE('',(#600));
#600 = SURFACE_STYLE_FILL_AREA(#601);
#601 = FILL_AREA_STYLE('',(#602));
#602 = FILL_AREA_STYLE_COLOUR('',#595);
#603 = STYLED_ITEM('color',(#604),#88);
#604 = PRESENTATION_STYLE_ASSIGNMENT((#605));
#605 = SURFACE_STYLE_USAGE(.BOTH.,#606);
#606 = SURFACE_SIDE_STYLE('',(#607));
#607 = SURFACE_STYLE_FILL_AREA(#608);
#608 = FILL_AREA_STYLE('',(#609));
#609 = FILL_AREA_STYLE_COLOUR('',#595);
#610 = STYLED_ITEM('color',(#611),#112);
#611 = PRESENTATION_STYLE_ASSIGNMENT((#612));
#612 = SURFACE_STYLE_USAGE(.BOTH.,#613);
#613 = SURFACE_SIDE_STYLE('',(#614));
#614 = SURFACE_STYLE_FILL_AREA(#615);
#615 = FILL_AREA_STYLE('',(#616));
#616 = FILL_AREA_STYLE_COLOUR('',#595);
#617 = STYLED_ITEM('color',(#618),#136);
#618 = PRESENTATION_STYLE_ASSIGNMENT((#619));
#619 = SURFACE_STYLE_USAGE(.BOTH.,#620);
#620 = SURFACE_SIDE_STYLE('',(#621));
#621 = SURFACE_STYLE_FILL_AREA(#622);
#622 = FILL_AREA_STYLE('',(#623));
#623 = FILL_AREA_STYLE_COLOUR('',#595);
#624 = STYLED_ITEM('color',(#625),#153);
#625 = PRESENTATION_STYLE_ASSIGNMENT((#626));
#626 = SURFACE_STYLE_USAGE(.BOTH.,#627);
#627 = SURFACE_SIDE_STYLE('',(#628));
#628 = SURFACE_STYLE_FILL_AREA(#629);
#629 = FILL_AREA_STYLE('',(#630));
#630 = FILL_AREA_STYLE_COLOUR('',#595);
#631 = STYLED_ITEM('color',(#632),#199);
#632 = PRESENTATION_STYLE_ASSIGNMENT((#633));
#633 = SURFACE_STYLE_USAGE(.BOTH.,#634);
#634 = SURFACE_SIDE_STYLE('',(#635));
#635 = SURFACE_STYLE_FILL_AREA(#636);
#636 = FILL_AREA_STYLE('',(#637));
#637 = FILL_AREA_STYLE_COLOUR('',#638);
#638 = COLOUR_RGB('',0.537254929543,0.349019616842,0.337254911661);
#639 = STYLED_ITEM('color',(#640),#230);
#640 = PRESENTATION_STYLE_ASSIGNMENT((#641));
#641 = SURFACE_STYLE_USAGE(.BOTH.,#642);
#642 = SURFACE_SIDE_STYLE('',(#643));
#643 = SURFACE_STYLE_FILL_AREA(#644);
#644 = FILL_AREA_STYLE('',(#645));
#645 = FILL_AREA_STYLE_COLOUR('',#638);
#646 = STYLED_ITEM('color',(#647),#254);
#647 = PRESENTATION_STYLE_ASSIGNMENT((#648));
#648 = SURFACE_STYLE_USAGE(.BOTH.,#649);
#649 = SURFACE_SIDE_STYLE('',(#650));
#650 = SURFACE_STYLE_FILL_AREA(#651);
#651 = FILL_AREA_STYLE('',(#652));
#652 = FILL_AREA_STYLE_COLOUR('',#638);
#653 = STYLED_ITEM('color',(#654),#278);
#654 = PRESENTATION_STYLE_ASSIGNMENT((#655));
#655 = SURFACE_STYLE_USAGE(.BOTH.,#656);
#656 = SURFACE_SIDE_STYLE('',(#657));
#657 = SURFACE_STYLE_FILL_AREA(#658);
#658 = FILL_AREA_STYLE('',(#659));
#659 = FILL_AREA_STYLE_COLOUR('',#638);
#660 = STYLED_ITEM('color',(#661),#295);
#661 = PRESENTATION_STYLE_ASSIGNMENT((#662));
#662 = SURFACE_STYLE_USAGE(.BOTH.,#663);
#663 = SURFACE_SIDE_STYLE('',(#664));
#664 = SURFACE_STYLE_FILL_AREA(#665);
#665 = FILL_AREA_STYLE('',(#666));
#666 = FILL_AREA_STYLE_COLOUR('',#595);
#667 = STYLED_ITEM('color',(#668),#341);
#668 = PRESENTATION_STYLE_ASSIGNMENT((#669));
#669 = SURFACE_STYLE_USAGE(.BOTH.,#670);
#670 = SURFACE_SIDE_STYLE('',(#671));
#671 = SURFACE_STYLE_FILL_AREA(#672);
#672 = FILL_AREA_STYLE('',(#673));
#673 = FILL_AREA_STYLE_COLOUR('',#595);
#674 = STYLED_ITEM('color',(#675),#404);
#675 = PRESENTATION_STYLE_ASSIGNMENT((#676));
#676 = SURFACE_STYLE_USAGE(.BOTH.,#677);
#677 = SURFACE_SIDE_STYLE('',(#678));
#678 = SURFACE_STYLE_FILL_AREA(#679);
#679 = FILL_AREA_STYLE('',(#680));
#680 = FILL_AREA_STYLE_COLOUR('',#595);
#681 = STYLED_ITEM('color',(#682),#428);
#682 = PRESENTATION_STYLE_ASSIGNMENT((#683));
#683 = SURFACE_STYLE_USAGE(.BOTH.,#684);
#684 = SURFACE_SIDE_STYLE('',(#685));
#685 = SURFACE_STYLE_FILL_AREA(#686);
#686 = FILL_AREA_STYLE('',(#687));
#687 = FILL_AREA_STYLE_COLOUR('',#595);
#688 = STYLED_ITEM('color',(#689),#484);
#689 = PRESENTATION_STYLE_ASSIGNMENT((#690));
#690 = SURFACE_STYLE_USAGE(.BOTH.,#691);
#691 = SURFACE_SIDE_STYLE('',(#692));
#692 = SURFACE_STYLE_FILL_AREA(#693);
#693 = FILL_AREA_STYLE('',(#694));
#694 = FILL_AREA_STYLE_COLOUR('',#595);
#695 = STYLED_ITEM('color',(#696),#501);
#696 = PRESENTATION_STYLE_ASSIGNMENT((#697));
#697 = SURFACE_STYLE_USAGE(.BOTH.,#698);
#698 = SURFACE_SIDE_STYLE('',(#699));
#699 = SURFACE_STYLE_FILL_AREA(#700);
#700 = FILL_AREA_STYLE('',(#701));
#701 = FILL_AREA_STYLE_COLOUR('',#702);
#702 = COLOUR_RGB('',0.827450990677,0.839215695858,0.827450990677);
#703 = STYLED_ITEM('color',(#704),#518);
#704 = PRESENTATION_STYLE_ASSIGNMENT((#705));
#705 = SURFACE_STYLE_USAGE(.BOTH.,#706);
#706 = SURFACE_SIDE_STYLE('',(#707));
#707 = SURFACE_STYLE_FILL_AREA(#708);
#708 = FILL_AREA_STYLE('',(#709));
#709 = FILL_AREA_STYLE_COLOUR('',#702);
#710 = STYLED_ITEM('color',(#711),#535);
#711 = PRESENTATION_STYLE_ASSIGNMENT((#712));
#712 = SURFACE_STYLE_USAGE(.BOTH.,#713);
#713 = SURFACE_SIDE_STYLE('',(#714));
#714 = SURFACE_STYLE_FILL_AREA(#715);
#715 = FILL_AREA_STYLE('',(#716));
#716 = FILL_AREA_STYLE_COLOUR('',#702);
#717 = STYLED_ITEM('color',(#718),#552);
#718 = PRESENTATION_STYLE_ASSIGNMENT((#719));
#719 = SURFACE_STYLE_USAGE(.BOTH.,#720);
#720 = SURFACE_SIDE_STYLE('',(#721));
#721 = SURFACE_STYLE_FILL_AREA(#722);
#722 = FILL_AREA_STYLE('',(#723));
#723 = FILL_AREA_STYLE_COLOUR('',#702);
#724 = STYLED_ITEM('color',(#725),#569);
#725 = PRESENTATION_STYLE_ASSIGNMENT((#726));
#726 = SURFACE_STYLE_USAGE(.BOTH.,#727);
#727 = SURFACE_SIDE_STYLE('',(#728));
#728 = SURFACE_STYLE_FILL_AREA(#729);
#729 = FILL_AREA_STYLE('',(#730));
#730 = FILL_AREA_STYLE_COLOUR('',#595);
ENDSEC;
END-ISO-10303-21;
