#VRML V2.0 utf8
#kicad StepUp wrl exported

Shape { geometry IndexedFaceSet 
{ creaseAngle 0.50 coordIndex [0,1,2,-1,3,4,1,-1,5,0,6,-1,5,7,3,-1,5,1,0,-1,5,3,1,-1,8,7,5,-1,9,7,8,-1,10,9,11,-1,12,11,9,-1,13,9,10,-1,14,9,13,-1,15,9,14,-1,16,9,15,-1,17,18,19,-1,17,19,20,-1,17,20,21,-1,22,21,23,-1,22,17,21,-1,24,22,23,-1,25,22,24,-1,25,24,26,-1,27,25,26,-1,28,25,27,-1,29,28,27,-1,30,28,29,-1,31,30,29,-1,32,16,33,-1,32,33,34,-1,32,34,35,-1,32,35,36,-1,32,9,16,-1,37,30,31,-1,38,37,31,-1,39,7,9,-1,40,37,38,-1,41,32,36,-1,42,5,43,-1,42,8,5,-1,44,45,46,-1,47,37,40,-1,48,49,50,-1,48,50,51,-1,48,51,52,-1,53,9,32,-1,53,39,9,-1,53,32,54,-1,55,41,36,-1,56,39,53,-1,57,53,54,-1,58,59,44,-1,60,61,62,-1,60,63,61,-1,64,37,47,-1,65,46,39,-1,65,44,46,-1,65,58,44,-1,66,67,63,-1,66,63,60,-1,68,49,48,-1,69,65,39,-1,69,39,56,-1,70,48,42,-1,70,42,43,-1,70,43,67,-1,70,67,66,-1,71,69,56,-1,72,36,37,-1,72,55,36,-1,73,37,64,-1,74,72,37,-1,75,68,48,-1,76,69,71,-1,77,37,73,-1,78,57,79,-1,78,53,57,-1,80,74,37,-1,80,81,74,-1,82,37,77,-1,83,80,37,-1,83,37,82,-1,84,75,48,-1,85,79,86,-1,85,78,79,-1,87,83,82,-1,87,88,83,-1,89,90,91,-1,92,69,76,-1,93,94,88,-1,93,88,87,-1,95,78,85,-1,95,91,78,-1,96,84,48,-1,97,69,92,-1,98,91,95,-1,98,89,91,-1,99,89,98,-1,100,69,97,-1,101,69,100,-1,102,99,98,-1,103,104,105,-1,103,105,106,-1,107,106,108,-1,107,103,106,-1,109,110,111,-1,112,113,99,-1,112,99,102,-1,114,111,103,-1,114,103,107,-1,115,113,112,-1,116,109,111,-1,116,111,114,-1,117,109,116,-1,118,119,113,-1,118,113,115,-1,120,119,118,-1,121,117,116,-1,122,108,123,-1,122,123,124,-1,122,124,125,-1,122,125,126,-1,122,126,96,-1,127,128,129,-1,130,131,117,-1,130,117,121,-1,132,131,130,-1,133,127,129,-1,134,135,131,-1,134,131,132,-1,136,133,129,-1,137,135,134,-1,138,96,48,-1,138,129,122,-1,138,122,96,-1,138,48,70,-1,139,140,136,-1,139,136,129,-1,139,129,138,-1,141,139,138,-1,141,142,139,-1,141,138,143,-1,144,142,141,-1,144,145,142,-1,144,146,145,-1,147,91,90,-1,148,111,110,-1,103,85,104,-1,104,85,86,-1,149,129,128,-1,122,107,108,-1,139,69,101,-1,139,101,119,-1,139,119,120,-1,139,120,135,-1,139,135,137,-1,139,137,140,-1,9,48,150,-1,150,48,151,-1,151,48,52,-1,9,150,152,-1,9,152,153,-1,9,153,12,-1]
coord Coordinate { point [0.836708 -0.790735 1.22047,0.809397 -0.824982 1.22047,0.824982 -0.809397 1.22047,0.769932 -0.843987 1.22047,0.790735 -0.836708 1.22047,0.846455 -0.74803 1.22047,0.843987 -0.769932 1.22047,0.74803 -0.846455 1.22047,0.64853 -0.59055 1.22047,0.589475 -0.59055 1.22047,0.294857 -0.177639 1.22047,0.315468 -0.158314 1.22047,0.33141 -0.135845 1.22047,0.270324 -0.193339 1.22047,0.246717 -0.203555 1.22047,0.221246 -0.210446 1.22047,0.177465 -0.213808 1.22047,0.218393 -0.124356 1.22047,0.232589 -0.117647 1.22047,0.2449 -0.107568 1.22047,0.252069 -0.0985779 1.22047,0.257993 -0.087872 1.22047,0.200937 -0.128027 1.22047,0.262783 -0.0736899 1.22047,0.264744 -0.058855 1.22047,0.177797 -0.127341 1.22047,0.264061 -0.0435045 1.22047,0.260919 -0.0277753 1.22047,0.151303 -0.120228 1.22047,0.253222 -0.00645058 1.22047,0.1227 -0.105064 1.22047,0.240275 0.0176493 1.22047,-0.0651442 -0.253008 1.22027,0.132113 -0.206605 1.22047,0.0872415 -0.187706 1.22047,0.0628228 -0.171386 1.22047,0.0395876 -0.150747 1.22047,0.094426 -0.0800472 1.22047,0.21699 0.0491907 1.22047,-0.74803 -0.846455 1.22047,0.172163 0.093009 1.22047,-0.116035 -0.193981 1.22038,0.64853 0.59055 1.22047,0.846455 0.74803 1.22047,-0.809397 -0.824982 1.22047,-0.790735 -0.836708 1.22047,-0.769932 -0.843987 1.22047,0.12729 0.124959 1.22047,0.589475 0.59055 1.22047,0.190839 0.191774 1.22047,0.244107 0.14834 1.22047,0.288946 0.0987148 1.22047,0.321593 0.0474389 1.22047,-0.395864 -0.393042 1.22047,-0.180311 -0.253008 1.22047,-0.159348 -0.128386 1.22042,-0.430589 -0.393042 1.22027,-0.228099 -0.186024 1.22047,-0.836708 -0.790735 1.22047,-0.824982 -0.809397 1.22047,0.790735 0.836708 1.22047,0.824982 0.809397 1.22047,0.809397 0.824982 1.22047,0.836708 0.790735 1.22047,0.0800773 0.148955 1.22047,-0.843987 -0.769932 1.22047,0.769932 0.843987 1.22047,0.843987 0.769932 1.22047,0.134385 0.225249 1.22047,-0.846455 -0.74803 1.22047,0.74803 0.846455 1.22047,-0.470598 -0.362863 1.22047,-0.187241 -0.0718134 1.2204,0.0210835 0.166466 1.22047,-0.200017 -0.0331931 1.22035,0.0790139 0.246581 1.22047,-0.528414 -0.32933 1.22047,-0.0307337 0.171195 1.22047,-0.395864 -0.178526 1.22047,-0.262447 -0.12043 1.22047,-0.202618 0.0250549 1.2203,-0.204307 -0.000300956 1.22027,-0.0779104 0.165714 1.22046,-0.198388 0.0483598 1.22033,0.00916251 0.260045 1.22047,-0.395864 -0.135623 1.22047,-0.281882 -0.0623205 1.22047,-0.11624 0.152242 1.22044,-0.186429 0.0820469 1.22037,-0.54846 -0.277515 1.22047,-0.49112 -0.310092 1.22047,-0.438767 -0.178526 1.22047,-0.580778 -0.30582 1.22047,-0.146257 0.133154 1.22042,-0.168818 0.110302 1.2204,-0.430589 -0.135623 1.22027,-0.0542531 0.261375 1.22047,-0.63525 -0.287728 1.22027,-0.470598 -0.105444 1.22047,-0.619231 -0.249573 1.22047,-0.677927 -0.278343 1.22047,-0.726218 -0.272913 1.22047,-0.528414 -0.0719105 1.22047,-0.395864 0.0788934 1.22047,-0.289561 -0.00689081 1.22047,-0.286425 0.0482878 1.22047,-0.273638 0.0998146 1.22047,-0.395864 0.121797 1.22047,-0.252132 0.145519 1.22047,-0.54846 -0.0200961 1.22047,-0.49112 -0.0526729 1.22047,-0.438767 0.0788934 1.22047,-0.580778 -0.0484009 1.22047,-0.67977 -0.23488 1.22047,-0.430589 0.121797 1.22027,-0.63525 -0.0303086 1.22027,-0.470598 0.151975 1.22047,-0.619231 0.00784653 1.22047,-0.677927 -0.020924 1.22047,-0.726218 -0.23001 1.22047,-0.726218 -0.0154936 1.22047,-0.528414 0.185509 1.22047,-0.395864 0.336313 1.22047,-0.222752 0.184636 1.22047,-0.189573 0.21408 1.22047,-0.150266 0.237226 1.22047,-0.105078 0.253261 1.22047,-0.54846 0.237323 1.22047,-0.49112 0.204746 1.22047,-0.438767 0.336313 1.22047,-0.580778 0.209018 1.22047,-0.67977 0.0225395 1.22047,-0.63525 0.227111 1.22027,-0.619231 0.265266 1.22047,-0.677927 0.236495 1.22047,-0.726218 0.0274096 1.22047,-0.67977 0.279959 1.22047,-0.726218 0.241926 1.22047,-0.74803 0.846455 1.22047,-0.846455 0.74803 1.22047,-0.726218 0.284829 1.22047,-0.790735 0.836708 1.22047,-0.843987 0.769932 1.22047,-0.769932 0.843987 1.22047,-0.809397 0.824982 1.22047,-0.836708 0.790735 1.22047,-0.824982 0.809397 1.22047,-0.438767 -0.350139 1.22047,-0.438767 -0.0927194 1.22047,-0.438767 0.1647 1.22047,0.349028 -0.0497245 1.22047,0.341319 -0.0024731 1.22047,0.348027 -0.0801719 1.22047,0.341936 -0.110712 1.22047]
}}
appearance Appearance{material Material{diffuseColor 0.188235 0.203922 0.203922
transparency 0}}}
Shape { geometry IndexedFaceSet 
{ creaseAngle 0.50 coordIndex [0,1,2,-1,0,3,1,-1]
coord Coordinate { point [-0.726218 -0.23001 1.22047,-0.726218 -0.272913 1.22008,-0.726218 -0.23001 1.22008,-0.726218 -0.272913 1.22047]
}}
appearance Appearance{material Material{diffuseColor 1 1 1
transparency 0}}}
Shape { geometry IndexedFaceSet 
{ creaseAngle 0.50 coordIndex [0,1,2,-1,3,2,4,-1,3,0,2,-1]
coord Coordinate { point [-0.677927 -0.278343 1.22047,-0.63525 -0.287728 1.22027,-0.677927 -0.278343 1.22008,-0.726218 -0.272913 1.22047,-0.726218 -0.272913 1.22008]
}}
appearance Appearance{material Material{diffuseColor 1 1 1
transparency 0}}}
Shape { geometry IndexedFaceSet 
{ creaseAngle 0.50 coordIndex [0,1,2,-1,3,2,4,-1,3,0,2,-1,5,4,6,-1,5,3,4,-1,7,5,6,-1]
coord Coordinate { point [-0.470598 -0.362863 1.22047,-0.430589 -0.393042 1.22027,-0.470598 -0.362863 1.22008,-0.528414 -0.32933 1.22047,-0.528414 -0.32933 1.22008,-0.580778 -0.30582 1.22047,-0.580778 -0.30582 1.22008,-0.63525 -0.287728 1.22027]
}}
appearance Appearance{material Material{diffuseColor 1 1 1
transparency 0}}}
Shape { geometry IndexedFaceSet 
{ creaseAngle 0.50 coordIndex []
coord Coordinate { point []
}}
appearance Appearance{material Material{diffuseColor 1 1 1
transparency 0}}}
Shape { geometry IndexedFaceSet 
{ creaseAngle 0.50 coordIndex [0,1,2,-1,0,3,1,-1]
coord Coordinate { point [-0.395864 -0.393042 1.22047,-0.395864 -0.178526 1.22008,-0.395864 -0.393042 1.22008,-0.395864 -0.178526 1.22047]
}}
appearance Appearance{material Material{diffuseColor 1 1 1
transparency 0}}}
Shape { geometry IndexedFaceSet 
{ creaseAngle 0.50 coordIndex [0,1,2,-1,0,3,1,-1]
coord Coordinate { point [-0.395864 -0.178526 1.22047,-0.438767 -0.178526 1.22008,-0.395864 -0.178526 1.22008,-0.438767 -0.178526 1.22047]
}}
appearance Appearance{material Material{diffuseColor 1 1 1
transparency 0}}}
Shape { geometry IndexedFaceSet 
{ creaseAngle 0.50 coordIndex [0,1,2,-1,0,3,1,-1]
coord Coordinate { point [-0.438767 -0.178526 1.22047,-0.438767 -0.350139 1.22008,-0.438767 -0.178526 1.22008,-0.438767 -0.350139 1.22047]
}}
appearance Appearance{material Material{diffuseColor 1 1 1
transparency 0}}}
Shape { geometry IndexedFaceSet 
{ creaseAngle 0.50 coordIndex [0,1,2,-1,0,3,1,-1,4,2,5,-1,4,0,2,-1,6,5,7,-1,6,4,5,-1,8,7,9,-1,8,6,7,-1,10,9,11,-1,10,8,9,-1]
coord Coordinate { point [-0.67977 -0.23488 1.22047,-0.726218 -0.23001 1.22008,-0.67977 -0.23488 1.22008,-0.726218 -0.23001 1.22047,-0.619231 -0.249573 1.22047,-0.619231 -0.249573 1.22008,-0.54846 -0.277515 1.22047,-0.54846 -0.277515 1.22008,-0.49112 -0.310092 1.22047,-0.49112 -0.310092 1.22008,-0.438767 -0.350139 1.22047,-0.438767 -0.350139 1.22008]
}}
appearance Appearance{material Material{diffuseColor 1 1 1
transparency 0}}}
Shape { geometry IndexedFaceSet 
{ creaseAngle 0.50 coordIndex [0,1,2,-1,0,3,1,-1]
coord Coordinate { point [-0.726218 0.0274096 1.22047,-0.726218 -0.0154936 1.22008,-0.726218 0.0274096 1.22008,-0.726218 -0.0154936 1.22047]
}}
appearance Appearance{material Material{diffuseColor 1 1 1
transparency 0}}}
Shape { geometry IndexedFaceSet 
{ creaseAngle 0.50 coordIndex [0,1,2,-1,3,2,4,-1,3,0,2,-1]
coord Coordinate { point [-0.677927 -0.020924 1.22047,-0.63525 -0.0303086 1.22027,-0.677927 -0.020924 1.22008,-0.726218 -0.0154936 1.22047,-0.726218 -0.0154936 1.22008]
}}
appearance Appearance{material Material{diffuseColor 1 1 1
transparency 0}}}
Shape { geometry IndexedFaceSet 
{ creaseAngle 0.50 coordIndex [0,1,2,-1,3,2,4,-1,3,0,2,-1,5,4,6,-1,5,3,4,-1,7,5,6,-1]
coord Coordinate { point [-0.470598 -0.105444 1.22047,-0.430589 -0.135623 1.22027,-0.470598 -0.105444 1.22008,-0.528414 -0.0719105 1.22047,-0.528414 -0.0719105 1.22008,-0.580778 -0.0484009 1.22047,-0.580778 -0.0484009 1.22008,-0.63525 -0.0303086 1.22027]
}}
appearance Appearance{material Material{diffuseColor 1 1 1
transparency 0}}}
Shape { geometry IndexedFaceSet 
{ creaseAngle 0.50 coordIndex []
coord Coordinate { point []
}}
appearance Appearance{material Material{diffuseColor 1 1 1
transparency 0}}}
Shape { geometry IndexedFaceSet 
{ creaseAngle 0.50 coordIndex [0,1,2,-1,0,3,1,-1]
coord Coordinate { point [-0.395864 -0.135623 1.22047,-0.395864 0.0788934 1.22008,-0.395864 -0.135623 1.22008,-0.395864 0.0788934 1.22047]
}}
appearance Appearance{material Material{diffuseColor 1 1 1
transparency 0}}}
Shape { geometry IndexedFaceSet 
{ creaseAngle 0.50 coordIndex [0,1,2,-1,0,3,1,-1]
coord Coordinate { point [-0.395864 0.0788934 1.22047,-0.438767 0.0788934 1.22008,-0.395864 0.0788934 1.22008,-0.438767 0.0788934 1.22047]
}}
appearance Appearance{material Material{diffuseColor 1 1 1
transparency 0}}}
Shape { geometry IndexedFaceSet 
{ creaseAngle 0.50 coordIndex [0,1,2,-1,0,3,1,-1]
coord Coordinate { point [-0.438767 0.0788934 1.22047,-0.438767 -0.0927194 1.22008,-0.438767 0.0788934 1.22008,-0.438767 -0.0927194 1.22047]
}}
appearance Appearance{material Material{diffuseColor 1 1 1
transparency 0}}}
Shape { geometry IndexedFaceSet 
{ creaseAngle 0.50 coordIndex [0,1,2,-1,3,1,0,-1,4,3,0,-1,5,3,4,-1,6,5,4,-1,7,5,6,-1,8,7,6,-1,9,7,8,-1,10,9,8,-1,11,9,10,-1]
coord Coordinate { point [-0.67977 0.0225395 1.22008,-0.726218 0.0274096 1.22047,-0.726218 0.0274096 1.22008,-0.67977 0.0225395 1.22047,-0.619231 0.00784653 1.22008,-0.619231 0.00784653 1.22047,-0.54846 -0.0200961 1.22008,-0.54846 -0.0200961 1.22047,-0.49112 -0.0526729 1.22008,-0.49112 -0.0526729 1.22047,-0.438767 -0.0927194 1.22008,-0.438767 -0.0927194 1.22047]
}}
appearance Appearance{material Material{diffuseColor 1 1 1
transparency 0}}}
Shape { geometry IndexedFaceSet 
{ creaseAngle 0.50 coordIndex [0,1,2,-1,0,3,1,-1]
coord Coordinate { point [-0.726218 0.284829 1.22047,-0.726218 0.241926 1.22008,-0.726218 0.284829 1.22008,-0.726218 0.241926 1.22047]
}}
appearance Appearance{material Material{diffuseColor 1 1 1
transparency 0}}}
Shape { geometry IndexedFaceSet 
{ creaseAngle 0.50 coordIndex [0,1,2,-1,3,2,4,-1,3,0,2,-1]
coord Coordinate { point [-0.677927 0.236495 1.22047,-0.63525 0.227111 1.22027,-0.677927 0.236495 1.22008,-0.726218 0.241926 1.22047,-0.726218 0.241926 1.22008]
}}
appearance Appearance{material Material{diffuseColor 1 1 1
transparency 0}}}
Shape { geometry IndexedFaceSet 
{ creaseAngle 0.50 coordIndex [0,1,2,-1,3,2,4,-1,3,0,2,-1,5,4,6,-1,5,3,4,-1,7,5,6,-1]
coord Coordinate { point [-0.470598 0.151975 1.22047,-0.430589 0.121797 1.22027,-0.470598 0.151975 1.22008,-0.528414 0.185509 1.22047,-0.528414 0.185509 1.22008,-0.580778 0.209018 1.22047,-0.580778 0.209018 1.22008,-0.63525 0.227111 1.22027]
}}
appearance Appearance{material Material{diffuseColor 1 1 1
transparency 0}}}
Shape { geometry IndexedFaceSet 
{ creaseAngle 0.50 coordIndex []
coord Coordinate { point []
}}
appearance Appearance{material Material{diffuseColor 1 1 1
transparency 0}}}
Shape { geometry IndexedFaceSet 
{ creaseAngle 0.50 coordIndex [0,1,2,-1,0,3,1,-1]
coord Coordinate { point [-0.395864 0.121797 1.22047,-0.395864 0.336313 1.22008,-0.395864 0.121797 1.22008,-0.395864 0.336313 1.22047]
}}
appearance Appearance{material Material{diffuseColor 1 1 1
transparency 0}}}
Shape { geometry IndexedFaceSet 
{ creaseAngle 0.50 coordIndex [0,1,2,-1,0,3,1,-1]
coord Coordinate { point [-0.395864 0.336313 1.22047,-0.438767 0.336313 1.22008,-0.395864 0.336313 1.22008,-0.438767 0.336313 1.22047]
}}
appearance Appearance{material Material{diffuseColor 1 1 1
transparency 0}}}
Shape { geometry IndexedFaceSet 
{ creaseAngle 0.50 coordIndex [0,1,2,-1,0,3,1,-1]
coord Coordinate { point [-0.438767 0.336313 1.22047,-0.438767 0.1647 1.22008,-0.438767 0.336313 1.22008,-0.438767 0.1647 1.22047]
}}
appearance Appearance{material Material{diffuseColor 1 1 1
transparency 0}}}
Shape { geometry IndexedFaceSet 
{ creaseAngle 0.50 coordIndex [0,1,2,-1,3,1,0,-1,4,3,0,-1,5,3,4,-1,6,5,4,-1,7,5,6,-1,8,7,6,-1,9,7,8,-1,10,9,8,-1,11,9,10,-1]
coord Coordinate { point [-0.67977 0.279959 1.22008,-0.726218 0.284829 1.22047,-0.726218 0.284829 1.22008,-0.67977 0.279959 1.22047,-0.619231 0.265266 1.22008,-0.619231 0.265266 1.22047,-0.54846 0.237323 1.22008,-0.54846 0.237323 1.22047,-0.49112 0.204746 1.22008,-0.49112 0.204746 1.22047,-0.438767 0.1647 1.22008,-0.438767 0.1647 1.22047]
}}
appearance Appearance{material Material{diffuseColor 1 1 1
transparency 0}}}
Shape { geometry IndexedFaceSet 
{ creaseAngle 0.50 coordIndex [0,1,2,-1,0,3,1,-1]
coord Coordinate { point [-0.846455 -0.74803 1.22047,-0.846455 0.74803 0.03937,-0.846455 -0.74803 0.03937,-0.846455 0.74803 1.22047]
}}
appearance Appearance{material Material{diffuseColor 0.188235 0.203922 0.203922
transparency 0}}}
Shape { geometry IndexedFaceSet 
{ creaseAngle 0.50 coordIndex [0,1,2,-1,2,1,3,-1]
coord Coordinate { point [-0.74803 0.846455 1.22047,0.74803 0.846455 1.22047,-0.74803 0.846455 0.03937,0.74803 0.846455 0.03937]
}}
appearance Appearance{material Material{diffuseColor 0.188235 0.203922 0.203922
transparency 0}}}
Shape { geometry IndexedFaceSet 
{ creaseAngle 0.50 coordIndex [0,1,2,-1,3,1,0,-1]
coord Coordinate { point [0.846455 0.74803 0.03937,0.846455 -0.74803 1.22047,0.846455 -0.74803 0.03937,0.846455 0.74803 1.22047]
}}
appearance Appearance{material Material{diffuseColor 0.188235 0.203922 0.203922
transparency 0}}}
Shape { geometry IndexedFaceSet 
{ creaseAngle 0.50 coordIndex [0,1,2,-1,0,3,1,-1]
coord Coordinate { point [0.74803 -0.846455 1.22047,-0.74803 -0.846455 0.03937,0.74803 -0.846455 0.03937,-0.74803 -0.846455 1.22047]
}}
appearance Appearance{material Material{diffuseColor 0.188235 0.203922 0.203922
transparency 0}}}
Shape { geometry IndexedFaceSet 
{ creaseAngle 0.50 coordIndex []
coord Coordinate { point []
}}
appearance Appearance{material Material{diffuseColor 1 1 1
transparency 0}}}
Shape { geometry IndexedFaceSet 
{ creaseAngle 0.50 coordIndex [0,1,2,-1,0,3,1,-1,3,4,1,-1,3,5,4,-1,5,6,4,-1,7,8,6,-1,7,9,8,-1,5,7,6,-1]
coord Coordinate { point [-0.116035 -0.193981 1.22038,-0.116274 -0.193663 1.22017,-0.0651442 -0.253008 1.22027,-0.159348 -0.128386 1.22042,-0.159726 -0.127724 1.22013,-0.187241 -0.0718134 1.2204,-0.19032 -0.0639762 1.22015,-0.200017 -0.0331931 1.22035,-0.200826 -0.0297156 1.2202,-0.204307 -0.000300956 1.22027]
}}
appearance Appearance{material Material{diffuseColor 1 1 1
transparency 0}}}
Shape { geometry IndexedFaceSet 
{ creaseAngle 0.50 coordIndex [0,1,2,-1,0,3,1,-1,3,4,1,-1,4,5,1,-1,6,7,5,-1,8,9,7,-1,9,10,11,-1,10,12,11,-1,13,14,12,-1,15,16,14,-1,17,18,16,-1,17,19,18,-1,19,20,21,-1,17,20,19,-1,15,17,16,-1,13,15,14,-1,10,13,12,-1,8,10,9,-1,6,8,7,-1,4,6,5,-1]
coord Coordinate { point [-0.202618 0.0250549 1.2203,-0.198873 0.0463293 1.22022,-0.204307 -0.000300956 1.22027,-0.198388 0.0483598 1.22033,-0.186429 0.0820469 1.22037,-0.184712 0.085505 1.22017,-0.168818 0.110302 1.2204,-0.165433 0.114427 1.22014,-0.146257 0.133154 1.22042,-0.143488 0.135351 1.22012,-0.11624 0.152242 1.22044,-0.11781 0.151465 1.2201,-0.0889939 0.162791 1.22009,-0.0779104 0.165714 1.22046,-0.0576348 0.169354 1.22008,-0.0307337 0.171195 1.22047,-0.0243282 0.171177 1.22008,0.0210835 0.166466 1.22047,0.0220812 0.166276 1.22008,0.051055 0.159167 1.22008,0.0800773 0.148955 1.22047,0.0800773 0.148955 1.22008]
}}
appearance Appearance{material Material{diffuseColor 1 1 1
transparency 0}}}
Shape { geometry IndexedFaceSet 
{ creaseAngle 0.50 coordIndex [0,1,2,-1,1,3,2,-1,4,5,3,-1,6,7,5,-1,8,9,7,-1,8,10,9,-1,10,11,9,-1,11,12,9,-1,11,13,12,-1,13,14,12,-1,13,15,14,-1,15,16,14,-1,15,17,16,-1,17,18,16,-1,17,19,18,-1,6,8,7,-1,4,6,5,-1,1,4,3,-1]
coord Coordinate { point [0.0800773 0.148955 1.22047,0.12729 0.124959 1.22047,0.0800773 0.148955 1.22008,0.134369 0.120539 1.22008,0.172163 0.093009 1.22047,0.184902 0.082037 1.22008,0.21699 0.0491907 1.22047,0.22565 0.0385374 1.22008,0.240275 0.0176493 1.22047,0.252178 -0.00415777 1.22008,0.253222 -0.00645058 1.22047,0.260919 -0.0277753 1.22047,0.262556 -0.034559 1.22008,0.264061 -0.0435045 1.22047,0.264804 -0.0566961 1.22008,0.264744 -0.058855 1.22047,0.263014 -0.0726529 1.22008,0.262783 -0.0736899 1.22047,0.257993 -0.087872 1.22008,0.257993 -0.087872 1.22047]
}}
appearance Appearance{material Material{diffuseColor 1 1 1
transparency 0}}}
Shape { geometry IndexedFaceSet 
{ creaseAngle 0.50 coordIndex [0,1,2,-1,1,3,2,-1,1,4,3,-1,4,5,3,-1,4,6,5,-1,6,7,5,-1,6,8,7,-1,8,9,7,-1,8,10,9,-1,8,11,10,-1,11,12,10,-1,13,14,12,-1,13,15,14,-1,16,17,15,-1,18,19,17,-1,19,20,21,-1,18,20,19,-1,16,18,17,-1,13,16,15,-1,11,13,12,-1]
coord Coordinate { point [0.257993 -0.087872 1.22047,0.252069 -0.0985779 1.22047,0.257993 -0.087872 1.22008,0.250443 -0.100909 1.22008,0.2449 -0.107568 1.22047,0.241026 -0.111317 1.22008,0.232589 -0.117647 1.22047,0.230014 -0.119182 1.22008,0.218393 -0.124356 1.22047,0.217679 -0.124593 1.22008,0.204294 -0.127637 1.22008,0.200937 -0.128027 1.22047,0.190131 -0.128402 1.22008,0.177797 -0.127341 1.22047,0.175462 -0.126974 1.22008,0.155586 -0.121813 1.22008,0.151303 -0.120228 1.22047,0.133531 -0.111794 1.22008,0.1227 -0.105064 1.22047,0.112949 -0.0978122 1.22008,0.094426 -0.0800472 1.22047,0.094426 -0.0800472 1.22008]
}}
appearance Appearance{material Material{diffuseColor 1 1 1
transparency 0}}}
Shape { geometry IndexedFaceSet 
{ creaseAngle 0.50 coordIndex [0,1,2,-1,3,1,0,-1]
coord Coordinate { point [0.094426 -0.0800472 1.22008,0.0395876 -0.150747 1.22047,0.0395876 -0.150747 1.22008,0.094426 -0.0800472 1.22047]
}}
appearance Appearance{material Material{diffuseColor 1 1 1
transparency 0}}}
Shape { geometry IndexedFaceSet 
{ creaseAngle 0.50 coordIndex [0,1,2,-1,1,3,2,-1,4,5,3,-1,6,7,5,-1,8,9,7,-1,9,10,11,-1,8,10,9,-1,6,8,7,-1,4,6,5,-1,1,4,3,-1]
coord Coordinate { point [0.0395876 -0.150747 1.22047,0.0628228 -0.171386 1.22047,0.0395876 -0.150747 1.22008,0.0796497 -0.183148 1.22008,0.0872415 -0.187706 1.22047,0.122365 -0.203571 1.22008,0.132113 -0.206605 1.22047,0.165927 -0.213015 1.22008,0.177465 -0.213808 1.22047,0.194046 -0.21373 1.22008,0.221246 -0.210446 1.22047,0.221246 -0.210446 1.22008]
}}
appearance Appearance{material Material{diffuseColor 1 1 1
transparency 0}}}
Shape { geometry IndexedFaceSet 
{ creaseAngle 0.50 coordIndex [0,1,2,-1,1,3,2,-1,4,5,6,-1,6,5,3,-1,4,7,5,-1,7,8,5,-1,9,10,8,-1,10,11,12,-1,9,11,10,-1,7,9,8,-1,1,6,3,-1]
coord Coordinate { point [0.221246 -0.210446 1.22047,0.246717 -0.203555 1.22047,0.221246 -0.210446 1.22008,0.261417 -0.197678 1.22008,0.294857 -0.177639 1.22047,0.295992 -0.17675 1.22008,0.270324 -0.193339 1.22047,0.315468 -0.158314 1.22047,0.320691 -0.15199 1.22008,0.33141 -0.135845 1.22047,0.333322 -0.132293 1.22008,0.341936 -0.110712 1.22047,0.341936 -0.110712 1.22008]
}}
appearance Appearance{material Material{diffuseColor 1 1 1
transparency 0}}}
Shape { geometry IndexedFaceSet 
{ creaseAngle 0.50 coordIndex [0,1,2,-1,1,3,2,-1,4,5,3,-1,6,7,5,-1,8,9,7,-1,10,11,9,-1,10,12,11,-1,12,13,11,-1,14,15,13,-1,16,17,15,-1,17,18,19,-1,16,18,17,-1,14,16,15,-1,12,14,13,-1,8,10,9,-1,6,8,7,-1,4,6,5,-1,1,4,3,-1]
coord Coordinate { point [0.341936 -0.110712 1.22047,0.348027 -0.0801719 1.22047,0.341936 -0.110712 1.22008,0.348961 -0.0690219 1.22008,0.349028 -0.0497245 1.22047,0.346786 -0.0276477 1.22008,0.341319 -0.0024731 1.22047,0.336501 0.0128764 1.22008,0.321593 0.0474389 1.22047,0.319197 0.0520157 1.22008,0.288946 0.0987148 1.22047,0.287089 0.101124 1.22008,0.244107 0.14834 1.22047,0.240119 0.152075 1.22008,0.190839 0.191774 1.22047,0.182164 0.19769 1.22008,0.134385 0.225249 1.22047,0.129994 0.227367 1.22008,0.0790139 0.246581 1.22047,0.0790139 0.246581 1.22008]
}}
appearance Appearance{material Material{diffuseColor 1 1 1
transparency 0}}}
Shape { geometry IndexedFaceSet 
{ creaseAngle 0.50 coordIndex [0,1,2,-1,0,3,1,-1,3,4,1,-1,5,6,7,-1,7,6,4,-1,5,8,6,-1,8,9,6,-1,10,11,9,-1,12,13,11,-1,14,15,13,-1,16,17,15,-1,18,19,17,-1,19,20,21,-1,18,20,19,-1,16,18,17,-1,14,16,15,-1,12,14,13,-1,10,12,11,-1,8,10,9,-1,3,7,4,-1]
coord Coordinate { point [0.0790139 0.246581 1.22047,0.0130276 0.259609 1.22008,0.0790139 0.246581 1.22008,0.00916251 0.260045 1.22047,-0.0472631 0.261805 1.22008,-0.105078 0.253261 1.22047,-0.106628 0.252863 1.22008,-0.0542531 0.261375 1.22047,-0.150266 0.237226 1.22047,-0.158463 0.233213 1.22008,-0.189573 0.21408 1.22047,-0.202641 0.203823 1.22008,-0.222752 0.184636 1.22047,-0.238759 0.165438 1.22008,-0.252132 0.145519 1.22047,-0.266055 0.118788 1.22008,-0.273638 0.0998146 1.22047,-0.283443 0.0648635 1.22008,-0.286425 0.0482878 1.22047,-0.28861 0.0296802 1.22008,-0.289561 -0.00689081 1.22047,-0.289561 -0.00689081 1.22008]
}}
appearance Appearance{material Material{diffuseColor 1 1 1
transparency 0}}}
Shape { geometry IndexedFaceSet 
{ creaseAngle 0.50 coordIndex [0,1,2,-1,1,3,2,-1,1,4,3,-1,4,5,3,-1,6,7,5,-1,7,8,9,-1,6,8,7,-1,4,6,5,-1]
coord Coordinate { point [-0.289561 -0.00689081 1.22047,-0.281882 -0.0623205 1.22047,-0.289561 -0.00689081 1.22008,-0.28164 -0.0633265 1.22008,-0.262447 -0.12043 1.22047,-0.261547 -0.122524 1.22008,-0.228099 -0.186024 1.22047,-0.227431 -0.187101 1.22008,-0.180311 -0.253008 1.22047,-0.180311 -0.253008 1.22008]
}}
appearance Appearance{material Material{diffuseColor 1 1 1
transparency 0}}}
Shape { geometry IndexedFaceSet 
{ creaseAngle 0.50 coordIndex [0,1,2,-1,3,1,0,-1]
coord Coordinate { point [0.64853 -0.59055 1.22008,0.64853 0.59055 1.22047,0.64853 0.59055 1.22008,0.64853 -0.59055 1.22047]
}}
appearance Appearance{material Material{diffuseColor 1 1 1
transparency 0}}}
Shape { geometry IndexedFaceSet 
{ creaseAngle 0.50 coordIndex [0,1,2,-1,3,1,0,-1]
coord Coordinate { point [0.64853 0.59055 1.22008,0.589475 0.59055 1.22047,0.589475 0.59055 1.22008,0.64853 0.59055 1.22047]
}}
appearance Appearance{material Material{diffuseColor 1 1 1
transparency 0}}}
Shape { geometry IndexedFaceSet 
{ creaseAngle 0.50 coordIndex [0,1,2,-1,3,1,0,-1]
coord Coordinate { point [0.589475 0.59055 1.22008,0.589475 -0.59055 1.22047,0.589475 -0.59055 1.22008,0.589475 0.59055 1.22047]
}}
appearance Appearance{material Material{diffuseColor 1 1 1
transparency 0}}}
Shape { geometry IndexedFaceSet 
{ creaseAngle 0.50 coordIndex [0,1,2,-1,3,1,0,-1]
coord Coordinate { point [0.589475 -0.59055 1.22008,0.64853 -0.59055 1.22047,0.64853 -0.59055 1.22008,0.589475 -0.59055 1.22047]
}}
appearance Appearance{material Material{diffuseColor 1 1 1
transparency 0}}}
Shape { geometry IndexedFaceSet 
{ creaseAngle 0.50 coordIndex [0,1,2,-1,1,3,2,-1,4,5,1,-1,1,5,3,-1,6,7,4,-1,4,7,5,-1,8,9,6,-1,6,9,7,-1,8,10,9,-1,11,12,8,-1,8,12,10,-1,13,14,11,-1,11,14,12,-1,15,1,0,-1]
coord Coordinate { point [-0.395864 -0.178526 1.22008,-0.438767 -0.350139 1.22008,-0.395864 -0.393042 1.22008,-0.430589 -0.393042 1.22027,-0.49112 -0.310092 1.22008,-0.470598 -0.362863 1.22008,-0.54846 -0.277515 1.22008,-0.528414 -0.32933 1.22008,-0.619231 -0.249573 1.22008,-0.580778 -0.30582 1.22008,-0.63525 -0.287728 1.22027,-0.67977 -0.23488 1.22008,-0.677927 -0.278343 1.22008,-0.726218 -0.23001 1.22008,-0.726218 -0.272913 1.22008,-0.438767 -0.178526 1.22008]
}}
appearance Appearance{material Material{diffuseColor 1 1 1
transparency 0}}}
Shape { geometry IndexedFaceSet 
{ creaseAngle 0.50 coordIndex [0,1,2,-1,1,3,2,-1,4,5,1,-1,1,5,3,-1,6,7,4,-1,4,7,5,-1,8,9,6,-1,6,9,7,-1,8,10,9,-1,11,12,8,-1,8,12,10,-1,13,14,11,-1,11,14,12,-1,15,1,0,-1]
coord Coordinate { point [-0.395864 0.0788934 1.22008,-0.438767 -0.0927194 1.22008,-0.395864 -0.135623 1.22008,-0.430589 -0.135623 1.22027,-0.49112 -0.0526729 1.22008,-0.470598 -0.105444 1.22008,-0.54846 -0.0200961 1.22008,-0.528414 -0.0719105 1.22008,-0.619231 0.00784653 1.22008,-0.580778 -0.0484009 1.22008,-0.63525 -0.0303086 1.22027,-0.67977 0.0225395 1.22008,-0.677927 -0.020924 1.22008,-0.726218 0.0274096 1.22008,-0.726218 -0.0154936 1.22008,-0.438767 0.0788934 1.22008]
}}
appearance Appearance{material Material{diffuseColor 1 1 1
transparency 0}}}
Shape { geometry IndexedFaceSet 
{ creaseAngle 0.50 coordIndex [0,1,2,-1,1,3,2,-1,4,5,1,-1,1,5,3,-1,6,7,4,-1,4,7,5,-1,8,9,6,-1,6,9,7,-1,8,10,9,-1,11,12,8,-1,8,12,10,-1,13,14,11,-1,11,14,12,-1,15,1,0,-1]
coord Coordinate { point [-0.395864 0.336313 1.22008,-0.438767 0.1647 1.22008,-0.395864 0.121797 1.22008,-0.430589 0.121797 1.22027,-0.49112 0.204746 1.22008,-0.470598 0.151975 1.22008,-0.54846 0.237323 1.22008,-0.528414 0.185509 1.22008,-0.619231 0.265266 1.22008,-0.580778 0.209018 1.22008,-0.63525 0.227111 1.22027,-0.67977 0.279959 1.22008,-0.677927 0.236495 1.22008,-0.726218 0.284829 1.22008,-0.726218 0.241926 1.22008,-0.438767 0.336313 1.22008]
}}
appearance Appearance{material Material{diffuseColor 1 1 1
transparency 0}}}
Shape { geometry IndexedFaceSet 
{ creaseAngle 0.50 coordIndex [0,1,2,-1,2,1,3,-1,3,1,4,-1,5,6,7,-1,8,1,9,-1,7,6,10,-1,9,1,0,-1,1,11,4,-1,12,13,6,-1,10,14,15,-1,6,14,10,-1,13,14,6,-1,13,16,14,-1,13,17,16,-1,13,18,17,-1,17,18,19,-1,16,20,14,-1,21,22,23,-1,23,22,18,-1,18,24,19,-1,16,25,20,-1,26,27,22,-1,28,29,30,-1,30,29,31,-1,32,33,28,-1,28,33,29,-1,34,35,27,-1,18,35,24,-1,22,35,18,-1,27,35,22,-1,20,36,32,-1,25,36,20,-1,32,36,33,-1,25,37,36,-1,17,38,37,-1,19,38,17,-1,24,0,39,-1,35,0,24,-1,0,2,39,-1,39,2,38,-1,38,2,37,-1,37,2,36,-1]
coord Coordinate { point [-0.846455 0.74803 0.03937,-0.824982 0.809397 0.03937,-0.74803 0.846455 0.03937,-0.769932 0.843987 0.03937,-0.790735 0.836708 0.03937,0.809397 -0.824982 0.03937,0.790735 -0.836708 0.03937,0.824982 -0.809397 0.03937,-0.836708 0.790735 0.03937,-0.843987 0.769932 0.03937,0.836708 -0.790735 0.03937,-0.809397 0.824982 0.03937,0.769932 -0.843987 0.03937,0.74803 -0.846455 0.03937,0.846455 -0.74803 0.03937,0.843987 -0.769932 0.03937,0.631888 -0.639762 0.03937,0.309054 -0.639762 0.03937,-0.74803 -0.846455 0.03937,-0.309054 -0.639762 0.03937,0.846455 0.74803 0.03937,-0.790735 -0.836708 0.03937,-0.809397 -0.824982 0.03937,-0.769932 -0.843987 0.03937,-0.631888 -0.639762 0.03937,0.631889 0.639763 0.03937,-0.824982 -0.809397 0.03937,-0.836708 -0.790735 0.03937,0.836708 0.790735 0.03937,0.790735 0.836708 0.03937,0.824982 0.809397 0.03937,0.809397 0.824982 0.03937,0.843987 0.769932 0.03937,0.769932 0.843987 0.03937,-0.843987 -0.769932 0.03937,-0.846455 -0.74803 0.03937,0.74803 0.846455 0.03937,0.309055 0.639763 0.03937,-0.309054 0.639763 0.03937,-0.631888 0.639763 0.03937]
}}
appearance Appearance{material Material{diffuseColor 0.188235 0.203922 0.203922
transparency 0}}}
Shape { geometry IndexedFaceSet 
{ creaseAngle 0.50 coordIndex [0,1,2,-1,3,2,4,-1,3,0,2,-1,5,4,6,-1,5,3,4,-1,7,6,8,-1,7,5,6,-1,9,8,10,-1,9,7,8,-1,11,10,12,-1,11,9,10,-1,13,12,14,-1,13,11,12,-1,15,13,14,-1]
coord Coordinate { point [-0.74803 -0.846455 0.03937,-0.74803 -0.846455 1.22047,-0.769932 -0.843987 1.22047,-0.769932 -0.843987 0.03937,-0.790735 -0.836708 1.22047,-0.790735 -0.836708 0.03937,-0.809397 -0.824982 1.22047,-0.809397 -0.824982 0.03937,-0.824982 -0.809397 1.22047,-0.824982 -0.809397 0.03937,-0.836708 -0.790735 1.22047,-0.836708 -0.790735 0.03937,-0.843987 -0.769932 1.22047,-0.843987 -0.769932 0.03937,-0.846455 -0.74803 1.22047,-0.846455 -0.74803 0.03937]
}}
appearance Appearance{material Material{diffuseColor 0.188235 0.203922 0.203922
transparency 0}}}
Shape { geometry IndexedFaceSet 
{ creaseAngle 0.50 coordIndex [0,1,2,-1,3,0,2,-1,4,2,5,-1,4,5,6,-1,4,3,2,-1,7,6,8,-1,7,4,6,-1,9,8,10,-1,9,7,8,-1,11,10,12,-1,11,9,10,-1,13,12,14,-1,13,11,12,-1,15,13,14,-1]
coord Coordinate { point [-0.846455 0.74803 0.03937,-0.846455 0.74803 1.22047,-0.843987 0.769932 1.22047,-0.843987 0.769932 0.03937,-0.836708 0.790735 0.03937,-0.836708 0.790735 1.22047,-0.824982 0.809397 1.22047,-0.824982 0.809397 0.03937,-0.809397 0.824982 1.22047,-0.809397 0.824982 0.03937,-0.790735 0.836708 1.22047,-0.790735 0.836708 0.03937,-0.769932 0.843987 1.22047,-0.769932 0.843987 0.03937,-0.74803 0.846455 1.22047,-0.74803 0.846455 0.03937]
}}
appearance Appearance{material Material{diffuseColor 0.188235 0.203922 0.203922
transparency 0}}}
Shape { geometry IndexedFaceSet 
{ creaseAngle 0.50 coordIndex [0,1,2,-1,0,2,3,-1,0,3,4,-1,5,4,6,-1,5,0,4,-1,7,6,8,-1,7,5,6,-1,9,7,8,-1,10,8,11,-1,10,9,8,-1,12,11,13,-1,12,10,11,-1,14,13,15,-1,14,12,13,-1]
coord Coordinate { point [0.769932 0.843987 0.03937,0.74803 0.846455 0.03937,0.74803 0.846455 1.22047,0.769932 0.843987 1.22047,0.790735 0.836708 1.22047,0.790735 0.836708 0.03937,0.809397 0.824982 1.22047,0.809397 0.824982 0.03937,0.824982 0.809397 1.22047,0.824982 0.809397 0.03937,0.836708 0.790735 0.03937,0.836708 0.790735 1.22047,0.843987 0.769932 0.03937,0.843987 0.769932 1.22047,0.846455 0.74803 0.03937,0.846455 0.74803 1.22047]
}}
appearance Appearance{material Material{diffuseColor 0.188235 0.203922 0.203922
transparency 0}}}
Shape { geometry IndexedFaceSet 
{ creaseAngle 0.50 coordIndex [0,1,2,-1,3,2,4,-1,3,0,2,-1,5,4,6,-1,5,3,4,-1,7,5,6,-1,8,6,9,-1,8,7,6,-1,10,9,11,-1,10,8,9,-1,12,11,13,-1,12,10,11,-1,14,13,15,-1,14,12,13,-1]
coord Coordinate { point [0.846455 -0.74803 0.03937,0.846455 -0.74803 1.22047,0.843987 -0.769932 1.22047,0.843987 -0.769932 0.03937,0.836708 -0.790735 1.22047,0.836708 -0.790735 0.03937,0.824982 -0.809397 1.22047,0.824982 -0.809397 0.03937,0.809397 -0.824982 0.03937,0.809397 -0.824982 1.22047,0.790735 -0.836708 0.03937,0.790735 -0.836708 1.22047,0.769932 -0.843987 0.03937,0.769932 -0.843987 1.22047,0.74803 -0.846455 0.03937,0.74803 -0.846455 1.22047]
}}
appearance Appearance{material Material{diffuseColor 0.188235 0.203922 0.203922
transparency 0}}}
Shape { geometry IndexedFaceSet 
{ creaseAngle 0.50 coordIndex [0,1,2,-1,3,4,5,-1,6,3,5,-1,7,0,2,-1,7,2,8,-1,9,10,3,-1,9,3,6,-1,11,8,12,-1,11,7,8,-1,13,14,15,-1,13,15,10,-1,13,10,9,-1,16,17,18,-1,16,18,19,-1,16,20,17,-1,21,22,17,-1,21,17,20,-1,23,19,24,-1,25,12,26,-1,23,16,19,-1,25,11,12,-1,27,28,22,-1,27,22,21,-1,29,24,30,-1,31,32,14,-1,29,23,24,-1,31,14,13,-1,33,34,28,-1,33,28,27,-1,35,29,30,-1,35,30,36,-1,37,26,38,-1,39,40,34,-1,37,25,26,-1,39,34,33,-1,41,40,39,-1,42,36,43,-1,44,45,32,-1,44,32,31,-1,42,35,36,-1,46,38,47,-1,48,40,41,-1,48,49,40,-1,46,37,38,-1,50,46,47,-1,51,43,52,-1,53,54,45,-1,51,42,43,-1,55,49,48,-1,53,45,44,-1,55,56,49,-1,57,47,58,-1,59,56,55,-1,57,50,47,-1,60,56,59,-1,61,62,63,-1,61,63,54,-1,61,54,53,-1,64,51,52,-1,65,57,58,-1,65,58,66,-1,67,62,61,-1,68,64,52,-1,67,65,66,-1,67,66,62,-1,69,60,59,-1,4,64,68,-1,5,4,68,-1]
coord Coordinate { point [-0.180311 -0.253008 1.22008,-0.0651442 -0.253008 1.22027,-0.116274 -0.193663 1.22017,0.134369 0.120539 1.22008,0.184902 0.082037 1.22008,0.240119 0.152075 1.22008,0.182164 0.19769 1.22008,-0.227431 -0.187101 1.22008,-0.159726 -0.127724 1.22013,0.129994 0.227367 1.22008,0.0800773 0.148955 1.22008,-0.261547 -0.122524 1.22008,-0.19032 -0.0639762 1.22015,0.0790139 0.246581 1.22008,0.0220812 0.166276 1.22008,0.051055 0.159167 1.22008,0.250443 -0.100909 1.22008,0.295992 -0.17675 1.22008,0.320691 -0.15199 1.22008,0.333322 -0.132293 1.22008,0.241026 -0.111317 1.22008,0.230014 -0.119182 1.22008,0.261417 -0.197678 1.22008,0.257993 -0.087872 1.22008,0.341936 -0.110712 1.22008,-0.28164 -0.0633265 1.22008,-0.200826 -0.0297156 1.2202,0.217679 -0.124593 1.22008,0.221246 -0.210446 1.22008,0.263014 -0.0726529 1.22008,0.348961 -0.0690219 1.22008,0.0130276 0.259609 1.22008,-0.0243282 0.171177 1.22008,0.204294 -0.127637 1.22008,0.194046 -0.21373 1.22008,0.264804 -0.0566961 1.22008,0.346786 -0.0276477 1.22008,-0.289561 -0.00689081 1.22008,-0.204307 -0.000300956 1.22027,0.190131 -0.128402 1.22008,0.165927 -0.213015 1.22008,0.175462 -0.126974 1.22008,0.262556 -0.034559 1.22008,0.336501 0.0128764 1.22008,-0.0472631 0.261805 1.22008,-0.0576348 0.169354 1.22008,-0.28861 0.0296802 1.22008,-0.198873 0.0463293 1.22022,0.155586 -0.121813 1.22008,0.122365 -0.203571 1.22008,-0.283443 0.0648635 1.22008,0.252178 -0.00415777 1.22008,0.319197 0.0520157 1.22008,-0.106628 0.252863 1.22008,-0.0889939 0.162791 1.22009,0.133531 -0.111794 1.22008,0.0796497 -0.183148 1.22008,-0.266055 0.118788 1.22008,-0.184712 0.085505 1.22017,0.112949 -0.0978122 1.22008,0.0395876 -0.150747 1.22008,-0.158463 0.233213 1.22008,-0.143488 0.135351 1.22012,-0.11781 0.151465 1.2201,0.22565 0.0385374 1.22008,-0.238759 0.165438 1.22008,-0.165433 0.114427 1.22014,-0.202641 0.203823 1.22008,0.287089 0.101124 1.22008,0.094426 -0.0800472 1.22008]
}}
appearance Appearance{material Material{diffuseColor 1 1 1
transparency 0}}}
Shape { geometry IndexedFaceSet 
{ creaseAngle 0.50 coordIndex [0,1,2,-1,3,1,0,-1]
coord Coordinate { point [0.64853 0.59055 1.22008,0.589475 -0.59055 1.22008,0.64853 -0.59055 1.22008,0.589475 0.59055 1.22008]
}}
appearance Appearance{material Material{diffuseColor 1 1 1
transparency 0}}}
Shape { geometry IndexedFaceSet 
{ creaseAngle 0.50 coordIndex [0,1,2,-1,3,1,0,-1]
coord Coordinate { point [0.309055 0.639763 -9.61609e-16,0.631889 0.639763 0.03937,0.631889 0.639763 -9.61609e-16,0.309055 0.639763 0.03937]
}}
appearance Appearance{material Material{diffuseColor 0.827451 0.839216 0.827451
transparency 0}}}
Shape { geometry IndexedFaceSet 
{ creaseAngle 0.50 coordIndex [0,1,2,-1,3,1,0,-1]
coord Coordinate { point [0.309054 -0.639762 -6.99352e-16,0.309055 0.639763 0.03937,0.309055 0.639763 -9.61609e-16,0.309054 -0.639762 0.03937]
}}
appearance Appearance{material Material{diffuseColor 0.827451 0.839216 0.827451
transparency 0}}}
Shape { geometry IndexedFaceSet 
{ creaseAngle 0.50 coordIndex [0,1,2,-1,3,1,0,-1]
coord Coordinate { point [0.631888 -0.639762 -6.99352e-16,0.309054 -0.639762 0.03937,0.309054 -0.639762 -6.99352e-16,0.631888 -0.639762 0.03937]
}}
appearance Appearance{material Material{diffuseColor 0.827451 0.839216 0.827451
transparency 0}}}
Shape { geometry IndexedFaceSet 
{ creaseAngle 0.50 coordIndex [0,1,2,-1,3,1,0,-1]
coord Coordinate { point [0.631889 0.639763 -9.61609e-16,0.631888 -0.639762 0.03937,0.631888 -0.639762 -6.99352e-16,0.631889 0.639763 0.03937]
}}
appearance Appearance{material Material{diffuseColor 0.827451 0.839216 0.827451
transparency 0}}}
Shape { geometry IndexedFaceSet 
{ creaseAngle 0.50 coordIndex [0,1,2,-1,3,1,0,-1]
coord Coordinate { point [-0.631888 0.639763 -9.61609e-16,-0.309054 0.639763 0.03937,-0.309054 0.639763 -9.61609e-16,-0.631888 0.639763 0.03937]
}}
appearance Appearance{material Material{diffuseColor 0.827451 0.839216 0.827451
transparency 0}}}
Shape { geometry IndexedFaceSet 
{ creaseAngle 0.50 coordIndex [0,1,2,-1,3,1,0,-1]
coord Coordinate { point [-0.631888 -0.639762 -6.99352e-16,-0.631888 0.639763 0.03937,-0.631888 0.639763 -9.61609e-16,-0.631888 -0.639762 0.03937]
}}
appearance Appearance{material Material{diffuseColor 0.827451 0.839216 0.827451
transparency 0}}}
Shape { geometry IndexedFaceSet 
{ creaseAngle 0.50 coordIndex [0,1,2,-1,3,1,0,-1]
coord Coordinate { point [-0.309054 -0.639762 -6.99352e-16,-0.631888 -0.639762 0.03937,-0.631888 -0.639762 -6.99352e-16,-0.309054 -0.639762 0.03937]
}}
appearance Appearance{material Material{diffuseColor 0.827451 0.839216 0.827451
transparency 0}}}
Shape { geometry IndexedFaceSet 
{ creaseAngle 0.50 coordIndex [0,1,2,-1,3,1,0,-1]
coord Coordinate { point [-0.309054 0.639763 -9.61609e-16,-0.309054 -0.639762 0.03937,-0.309054 -0.639762 -6.99352e-16,-0.309054 0.639763 0.03937]
}}
appearance Appearance{material Material{diffuseColor 0.827451 0.839216 0.827451
transparency 0}}}
Shape { geometry IndexedFaceSet 
{ creaseAngle 0.50 coordIndex [0,1,2,-1,3,1,0,-1]
coord Coordinate { point [0.631888 -0.639762 -6.99352e-16,0.309055 0.639763 -9.61609e-16,0.631889 0.639763 -9.61609e-16,0.309054 -0.639762 -6.99352e-16]
}}
appearance Appearance{material Material{diffuseColor 0.827451 0.839216 0.827451
transparency 0}}}
Shape { geometry IndexedFaceSet 
{ creaseAngle 0.50 coordIndex [0,1,2,-1,0,2,3,-1]
coord Coordinate { point [-0.631888 -0.639762 -6.99352e-16,-0.631888 0.639763 -9.61609e-16,-0.309054 0.639763 -9.61609e-16,-0.309054 -0.639762 -6.99352e-16]
}}
appearance Appearance{material Material{diffuseColor 0.827451 0.839216 0.827451
transparency 0}}}
