#VRML V2.0 utf8
#kicad StepUp wrl exported

Shape { geometry IndexedFaceSet 
{ creaseAngle 0.50 coordIndex [0,1,2,-1,2,1,3,-1]
coord Coordinate { point [-0.649605 0.442912 -9.83463e-17,-0.492125 0.442912 -9.83463e-17,-0.649605 0.324802 -7.21206e-17,-0.492125 0.324802 -7.21206e-17]
}}
appearance Appearance{material Material{diffuseColor 0.827451 0.329412 0.070588
transparency 0}}}
Shape { geometry IndexedFaceSet 
{ creaseAngle 0.50 coordIndex [0,1,2,-1,0,3,1,-1]
coord Coordinate { point [-0.649605 0.324802 0.07874,-0.649605 0.442912 -9.83463e-17,-0.649605 0.324802 -7.21206e-17,-0.649605 0.442912 0.07874]
}}
appearance Appearance{material Material{diffuseColor 0.827451 0.329412 0.070588
transparency 0}}}
Shape { geometry IndexedFaceSet 
{ creaseAngle 0.50 coordIndex [0,1,2,-1,0,3,1,-1]
coord Coordinate { point [-0.649605 0.442912 0.07874,-0.492125 0.442912 -9.83463e-17,-0.649605 0.442912 -9.83463e-17,-0.492125 0.442912 0.07874]
}}
appearance Appearance{material Material{diffuseColor 0.827451 0.329412 0.070588
transparency 0}}}
Shape { geometry IndexedFaceSet 
{ creaseAngle 0.50 coordIndex [0,1,2,-1,0,3,1,-1]
coord Coordinate { point [-0.492125 0.442912 0.07874,-0.492125 0.324802 -7.21206e-17,-0.492125 0.442912 -9.83463e-17,-0.492125 0.324802 0.07874]
}}
appearance Appearance{material Material{diffuseColor 0.827451 0.329412 0.070588
transparency 0}}}
Shape { geometry IndexedFaceSet 
{ creaseAngle 0.50 coordIndex [0,1,2,-1,0,3,1,-1]
coord Coordinate { point [-0.492125 0.324802 0.07874,-0.649605 0.324802 -7.21206e-17,-0.492125 0.324802 -7.21206e-17,-0.649605 0.324802 0.07874]
}}
appearance Appearance{material Material{diffuseColor 0.827451 0.329412 0.070588
transparency 0}}}
Shape { geometry IndexedFaceSet 
{ creaseAngle 0.50 coordIndex [0,1,2,-1,0,2,3,-1]
coord Coordinate { point [-0.492125 0.442912 0.07874,-0.649605 0.442912 0.07874,-0.649605 0.324802 0.07874,-0.492125 0.324802 0.07874]
}}
appearance Appearance{material Material{diffuseColor 0.827451 0.329412 0.070588
transparency 0}}}
Shape { geometry IndexedFaceSet 
{ creaseAngle 0.50 coordIndex [0,1,2,-1,2,1,3,-1]
coord Coordinate { point [-0.649605 0.187007 -4.1524e-17,-0.492125 0.187007 -4.1524e-17,-0.649605 0.0688975 -1.52983e-17,-0.492125 0.0688975 -1.52983e-17]
}}
appearance Appearance{material Material{diffuseColor 0.827451 0.329412 0.070588
transparency 0}}}
Shape { geometry IndexedFaceSet 
{ creaseAngle 0.50 coordIndex [0,1,2,-1,0,3,1,-1]
coord Coordinate { point [-0.649605 0.0688975 0.07874,-0.649605 0.187007 -4.1524e-17,-0.649605 0.0688975 -1.52983e-17,-0.649605 0.187008 0.07874]
}}
appearance Appearance{material Material{diffuseColor 0.827451 0.329412 0.070588
transparency 0}}}
Shape { geometry IndexedFaceSet 
{ creaseAngle 0.50 coordIndex [0,1,2,-1,0,3,1,-1]
coord Coordinate { point [-0.649605 0.187008 0.07874,-0.492125 0.187007 -4.1524e-17,-0.649605 0.187007 -4.1524e-17,-0.492125 0.187008 0.07874]
}}
appearance Appearance{material Material{diffuseColor 0.827451 0.329412 0.070588
transparency 0}}}
Shape { geometry IndexedFaceSet 
{ creaseAngle 0.50 coordIndex [0,1,2,-1,0,3,1,-1]
coord Coordinate { point [-0.492125 0.187008 0.07874,-0.492125 0.0688975 -1.52983e-17,-0.492125 0.187007 -4.1524e-17,-0.492125 0.0688975 0.07874]
}}
appearance Appearance{material Material{diffuseColor 0.827451 0.329412 0.070588
transparency 0}}}
Shape { geometry IndexedFaceSet 
{ creaseAngle 0.50 coordIndex [0,1,2,-1,0,3,1,-1]
coord Coordinate { point [-0.492125 0.0688975 0.07874,-0.649605 0.0688975 -1.52983e-17,-0.492125 0.0688975 -1.52983e-17,-0.649605 0.0688975 0.07874]
}}
appearance Appearance{material Material{diffuseColor 0.827451 0.329412 0.070588
transparency 0}}}
Shape { geometry IndexedFaceSet 
{ creaseAngle 0.50 coordIndex [0,1,2,-1,0,2,3,-1]
coord Coordinate { point [-0.492125 0.187008 0.07874,-0.649605 0.187008 0.07874,-0.649605 0.0688975 0.07874,-0.492125 0.0688975 0.07874]
}}
appearance Appearance{material Material{diffuseColor 0.827451 0.329412 0.070588
transparency 0}}}
Shape { geometry IndexedFaceSet 
{ creaseAngle 0.50 coordIndex [0,1,2,-1,2,1,3,-1]
coord Coordinate { point [-0.649605 -0.0688975 1.52983e-17,-0.492125 -0.0688975 1.52983e-17,-0.649605 -0.187007 4.1524e-17,-0.492125 -0.187007 4.1524e-17]
}}
appearance Appearance{material Material{diffuseColor 0.827451 0.329412 0.070588
transparency 0}}}
Shape { geometry IndexedFaceSet 
{ creaseAngle 0.50 coordIndex [0,1,2,-1,0,3,1,-1]
coord Coordinate { point [-0.649605 -0.187007 0.07874,-0.649605 -0.0688975 1.52983e-17,-0.649605 -0.187007 4.1524e-17,-0.649605 -0.0688975 0.07874]
}}
appearance Appearance{material Material{diffuseColor 0.827451 0.329412 0.070588
transparency 0}}}
Shape { geometry IndexedFaceSet 
{ creaseAngle 0.50 coordIndex [0,1,2,-1,0,3,1,-1]
coord Coordinate { point [-0.649605 -0.0688975 0.07874,-0.492125 -0.0688975 1.52983e-17,-0.649605 -0.0688975 1.52983e-17,-0.492125 -0.0688975 0.07874]
}}
appearance Appearance{material Material{diffuseColor 0.827451 0.329412 0.070588
transparency 0}}}
Shape { geometry IndexedFaceSet 
{ creaseAngle 0.50 coordIndex [0,1,2,-1,0,3,1,-1]
coord Coordinate { point [-0.492125 -0.0688975 0.07874,-0.492125 -0.187007 4.1524e-17,-0.492125 -0.0688975 1.52983e-17,-0.492125 -0.187007 0.07874]
}}
appearance Appearance{material Material{diffuseColor 0.827451 0.329412 0.070588
transparency 0}}}
Shape { geometry IndexedFaceSet 
{ creaseAngle 0.50 coordIndex [0,1,2,-1,0,3,1,-1]
coord Coordinate { point [-0.492125 -0.187007 0.07874,-0.649605 -0.187007 4.1524e-17,-0.492125 -0.187007 4.1524e-17,-0.649605 -0.187007 0.07874]
}}
appearance Appearance{material Material{diffuseColor 0.827451 0.329412 0.070588
transparency 0}}}
Shape { geometry IndexedFaceSet 
{ creaseAngle 0.50 coordIndex [0,1,2,-1,0,2,3,-1]
coord Coordinate { point [-0.492125 -0.0688975 0.07874,-0.649605 -0.0688975 0.07874,-0.649605 -0.187007 0.07874,-0.492125 -0.187007 0.07874]
}}
appearance Appearance{material Material{diffuseColor 0.827451 0.329412 0.070588
transparency 0}}}
Shape { geometry IndexedFaceSet 
{ creaseAngle 0.50 coordIndex [0,1,2,-1,2,1,3,-1]
coord Coordinate { point [-0.649605 -0.324802 7.21206e-17,-0.492125 -0.324802 7.21206e-17,-0.649605 -0.442912 9.83463e-17,-0.492125 -0.442912 9.83463e-17]
}}
appearance Appearance{material Material{diffuseColor 0.827451 0.329412 0.070588
transparency 0}}}
Shape { geometry IndexedFaceSet 
{ creaseAngle 0.50 coordIndex [0,1,2,-1,0,3,1,-1]
coord Coordinate { point [-0.649605 -0.442912 0.07874,-0.649605 -0.324802 7.21206e-17,-0.649605 -0.442912 9.83463e-17,-0.649605 -0.324802 0.07874]
}}
appearance Appearance{material Material{diffuseColor 0.827451 0.329412 0.070588
transparency 0}}}
Shape { geometry IndexedFaceSet 
{ creaseAngle 0.50 coordIndex [0,1,2,-1,0,3,1,-1]
coord Coordinate { point [-0.649605 -0.324802 0.07874,-0.492125 -0.324802 7.21206e-17,-0.649605 -0.324802 7.21206e-17,-0.492125 -0.324802 0.07874]
}}
appearance Appearance{material Material{diffuseColor 0.827451 0.329412 0.070588
transparency 0}}}
Shape { geometry IndexedFaceSet 
{ creaseAngle 0.50 coordIndex [0,1,2,-1,0,3,1,-1]
coord Coordinate { point [-0.492125 -0.324802 0.07874,-0.492125 -0.442912 9.83463e-17,-0.492125 -0.324802 7.21206e-17,-0.492125 -0.442912 0.07874]
}}
appearance Appearance{material Material{diffuseColor 0.827451 0.329412 0.070588
transparency 0}}}
Shape { geometry IndexedFaceSet 
{ creaseAngle 0.50 coordIndex [0,1,2,-1,0,3,1,-1]
coord Coordinate { point [-0.492125 -0.442912 0.07874,-0.649605 -0.442912 9.83463e-17,-0.492125 -0.442912 9.83463e-17,-0.649605 -0.442912 0.07874]
}}
appearance Appearance{material Material{diffuseColor 0.827451 0.329412 0.070588
transparency 0}}}
Shape { geometry IndexedFaceSet 
{ creaseAngle 0.50 coordIndex [0,1,2,-1,0,2,3,-1]
coord Coordinate { point [-0.492125 -0.324802 0.07874,-0.649605 -0.324802 0.07874,-0.649605 -0.442912 0.07874,-0.492125 -0.442912 0.07874]
}}
appearance Appearance{material Material{diffuseColor 0.827451 0.329412 0.070588
transparency 0}}}
Shape { geometry IndexedFaceSet 
{ creaseAngle 0.50 coordIndex [0,1,2,-1,0,3,1,-1]
coord Coordinate { point [0.03937 0.505904 0.07874,0.07874 0.505904 -1.12333e-16,0.03937 0.505904 -1.12333e-16,0.07874 0.505904 0.07874]
}}
appearance Appearance{material Material{diffuseColor 0.827451 0.329412 0.070588
transparency 0}}}
Shape { geometry IndexedFaceSet 
{ creaseAngle 0.50 coordIndex [0,1,2,-1,0,3,1,-1,0,2,4,-1,5,6,7,-1,5,8,6,-1,9,10,11,-1,12,10,9,-1,12,13,10,-1,12,14,13,-1,15,16,5,-1,15,5,7,-1,17,0,4,-1,17,12,9,-1,17,9,0,-1,17,18,12,-1,19,20,17,-1,21,22,23,-1,24,25,26,-1,21,4,22,-1,21,17,4,-1,21,19,17,-1,21,27,19,-1,28,27,21,-1,29,19,27,-1,29,30,19,-1,31,7,32,-1,31,24,15,-1,33,23,34,-1,33,21,23,-1,31,15,7,-1,35,36,25,-1,35,37,36,-1,38,31,39,-1,22,40,35,-1,22,25,24,-1,22,35,25,-1,22,24,31,-1,41,42,43,-1,41,38,42,-1,4,2,44,-1,23,41,45,-1,23,31,38,-1,23,38,41,-1,23,22,31,-1,1,46,2,-1,1,47,46,-1]
coord Coordinate { point [0.460629 0.206693 -4.5895e-17,0.484251 0.187007 -4.1524e-17,0.484251 0.0688975 -1.52983e-17,0.484251 0.206693 -4.5895e-17,0.460629 0.0492125 -1.09274e-17,0.484251 -0.324802 7.21206e-17,0.649605 -0.442912 9.83463e-17,0.484251 -0.442912 9.83463e-17,0.649605 -0.324802 7.21206e-17,0.460629 0.305117 -6.77497e-17,0.484251 0.324802 -7.21206e-17,0.484251 0.305117 -6.77497e-17,0.484251 0.442912 -9.83463e-17,0.649605 0.324802 -7.21206e-17,0.649605 0.442912 -9.83463e-17,0.460629 -0.305117 6.77497e-17,0.484251 -0.305117 6.77497e-17,0.07874 0.482283 -1.07088e-16,0.484251 0.482283 -1.07088e-16,0.03937 0.505904 -1.12333e-16,0.07874 0.505904 -1.12333e-16,-0.07874 0.482283 -1.07088e-16,0.460629 -0.0492125 1.09274e-17,-0.07874 -0.482283 1.07088e-16,0.460629 -0.206693 4.5895e-17,0.484251 -0.187007 4.1524e-17,0.484251 -0.206693 4.5895e-17,-0.03937 0.505904 -1.12333e-16,-0.07874 0.505904 -1.12333e-16,-0.03937 0.651574 -1.44678e-16,0.03937 0.651574 -1.44678e-16,0.07874 -0.482283 1.07088e-16,0.484251 -0.482283 1.07088e-16,-0.22244 0.482283 -1.07088e-16,-0.22244 -0.482283 1.07088e-16,0.484251 -0.0688975 1.52983e-17,0.649605 -0.187007 4.1524e-17,0.649605 -0.0688975 1.52983e-17,0.03937 -0.505904 1.12333e-16,0.07874 -0.505904 1.12333e-16,0.484251 -0.0492125 1.09274e-17,-0.03937 -0.505904 1.12333e-16,0.03937 -0.651574 1.44678e-16,-0.03937 -0.651574 1.44678e-16,0.484251 0.0492125 -1.09274e-17,-0.07874 -0.505904 1.12333e-16,0.649605 0.0688975 -1.52983e-17,0.649605 0.187007 -4.1524e-17]
}}
appearance Appearance{material Material{diffuseColor 0.827451 0.329412 0.070588
transparency 0}}}
Shape { geometry IndexedFaceSet 
{ creaseAngle 0.50 coordIndex [0,1,2,-1,0,2,3,-1]
coord Coordinate { point [0.484251 -0.482283 0.07874,0.07874 -0.482283 0.07874,0.07874 -0.482283 1.07088e-16,0.484251 -0.482283 1.07088e-16]
}}
appearance Appearance{material Material{diffuseColor 0.827451 0.329412 0.070588
transparency 0}}}
Shape { geometry IndexedFaceSet 
{ creaseAngle 0.50 coordIndex [0,1,2,-1,0,3,1,-1]
coord Coordinate { point [-0.07874 -0.482283 0.07874,-0.22244 -0.482283 1.07088e-16,-0.07874 -0.482283 1.07088e-16,-0.22244 -0.482283 0.07874]
}}
appearance Appearance{material Material{diffuseColor 0.827451 0.329412 0.070588
transparency 0}}}
Shape { geometry IndexedFaceSet 
{ creaseAngle 0.50 coordIndex [0,1,2,-1,3,1,0,-1]
coord Coordinate { point [0.07874 -0.482283 1.07088e-16,0.07874 -0.505904 0.07874,0.07874 -0.505904 1.12333e-16,0.07874 -0.482283 0.07874]
}}
appearance Appearance{material Material{diffuseColor 0.827451 0.329412 0.070588
transparency 0}}}
Shape { geometry IndexedFaceSet 
{ creaseAngle 0.50 coordIndex [0,1,2,-1,3,1,0,-1]
coord Coordinate { point [0.07874 -0.505904 1.12333e-16,0.03937 -0.505904 0.07874,0.03937 -0.505904 1.12333e-16,0.07874 -0.505904 0.07874]
}}
appearance Appearance{material Material{diffuseColor 0.827451 0.329412 0.070588
transparency 0}}}
Shape { geometry IndexedFaceSet 
{ creaseAngle 0.50 coordIndex [0,1,2,-1,3,1,0,-1]
coord Coordinate { point [0.03937 -0.505904 1.12333e-16,0.03937 -0.651574 0.07874,0.03937 -0.651574 1.44678e-16,0.03937 -0.505904 0.07874]
}}
appearance Appearance{material Material{diffuseColor 0.827451 0.329412 0.070588
transparency 0}}}
Shape { geometry IndexedFaceSet 
{ creaseAngle 0.50 coordIndex [0,1,2,-1,3,1,0,-1]
coord Coordinate { point [0.03937 -0.651574 1.44678e-16,-0.03937 -0.651574 0.07874,-0.03937 -0.651574 1.44678e-16,0.03937 -0.651574 0.07874]
}}
appearance Appearance{material Material{diffuseColor 0.827451 0.329412 0.070588
transparency 0}}}
Shape { geometry IndexedFaceSet 
{ creaseAngle 0.50 coordIndex [0,1,2,-1,3,1,0,-1]
coord Coordinate { point [-0.03937 -0.651574 1.44678e-16,-0.03937 -0.505904 0.07874,-0.03937 -0.505904 1.12333e-16,-0.03937 -0.651574 0.07874]
}}
appearance Appearance{material Material{diffuseColor 0.827451 0.329412 0.070588
transparency 0}}}
Shape { geometry IndexedFaceSet 
{ creaseAngle 0.50 coordIndex [0,1,2,-1,3,1,0,-1]
coord Coordinate { point [-0.03937 -0.505904 1.12333e-16,-0.07874 -0.505904 0.07874,-0.07874 -0.505904 1.12333e-16,-0.03937 -0.505904 0.07874]
}}
appearance Appearance{material Material{diffuseColor 0.827451 0.329412 0.070588
transparency 0}}}
Shape { geometry IndexedFaceSet 
{ creaseAngle 0.50 coordIndex [0,1,2,-1,3,1,0,-1]
coord Coordinate { point [-0.07874 -0.505904 1.12333e-16,-0.07874 -0.482283 0.07874,-0.07874 -0.482283 1.07088e-16,-0.07874 -0.505904 0.07874]
}}
appearance Appearance{material Material{diffuseColor 0.827451 0.329412 0.070588
transparency 0}}}
Shape { geometry IndexedFaceSet 
{ creaseAngle 0.50 coordIndex [0,1,2,-1,3,1,0,-1,2,1,4,-1,5,6,7,-1,7,6,8,-1,9,10,11,-1,9,12,10,-1,13,12,14,-1,14,12,9,-1,15,16,6,-1,6,16,8,-1,17,18,12,-1,12,18,10,-1,10,18,1,-1,1,18,4,-1,19,20,18,-1,21,22,23,-1,24,25,26,-1,18,22,4,-1,4,22,21,-1,20,22,18,-1,27,22,20,-1,27,28,22,-1,29,30,20,-1,20,30,27,-1,25,31,16,-1,8,31,32,-1,23,33,34,-1,16,31,8,-1,22,33,23,-1,35,36,37,-1,37,36,24,-1,31,38,39,-1,40,21,36,-1,24,21,25,-1,25,21,31,-1,36,21,24,-1,38,41,42,-1,42,41,43,-1,2,4,44,-1,41,23,45,-1,38,23,41,-1,31,23,38,-1,21,23,31,-1,46,0,47,-1,47,0,2,-1]
coord Coordinate { point [0.484251 0.187008 0.07874,0.460629 0.206693 0.07874,0.484251 0.0688975 0.07874,0.484251 0.206693 0.07874,0.460629 0.0492125 0.07874,0.649605 -0.324802 0.07874,0.484251 -0.324802 0.07874,0.649605 -0.442912 0.07874,0.484251 -0.442912 0.07874,0.484251 0.324802 0.07874,0.460629 0.305117 0.07874,0.484251 0.305117 0.07874,0.484251 0.442912 0.07874,0.649605 0.442912 0.07874,0.649605 0.324802 0.07874,0.484251 -0.305117 0.07874,0.460629 -0.305117 0.07874,0.484251 0.482283 0.07874,0.07874 0.482283 0.07874,0.07874 0.505904 0.07874,0.03937 0.505904 0.07874,0.460629 -0.0492125 0.07874,-0.07874 0.482283 0.07874,-0.07874 -0.482283 0.07874,0.484251 -0.187007 0.07874,0.460629 -0.206693 0.07874,0.484251 -0.206693 0.07874,-0.03937 0.505904 0.07874,-0.07874 0.505904 0.07874,0.03937 0.651574 0.07874,-0.03937 0.651574 0.07874,0.07874 -0.482283 0.07874,0.484251 -0.482283 0.07874,-0.22244 0.482283 0.07874,-0.22244 -0.482283 0.07874,0.649605 -0.0688975 0.07874,0.484251 -0.0688975 0.07874,0.649605 -0.187007 0.07874,0.03937 -0.505904 0.07874,0.07874 -0.505904 0.07874,0.484251 -0.0492125 0.07874,-0.03937 -0.505904 0.07874,0.03937 -0.651574 0.07874,-0.03937 -0.651574 0.07874,0.484251 0.0492125 0.07874,-0.07874 -0.505904 0.07874,0.649605 0.187008 0.07874,0.649605 0.0688975 0.07874]
}}
appearance Appearance{material Material{diffuseColor 0.827451 0.329412 0.070588
transparency 0}}}
Shape { geometry IndexedFaceSet 
{ creaseAngle 0.50 coordIndex [0,1,2,-1,0,3,1,-1]
coord Coordinate { point [-0.22244 -0.482283 0.07874,-0.22244 0.482283 -1.07088e-16,-0.22244 -0.482283 1.07088e-16,-0.22244 0.482283 0.07874]
}}
appearance Appearance{material Material{diffuseColor 0.827451 0.329412 0.070588
transparency 0}}}
Shape { geometry IndexedFaceSet 
{ creaseAngle 0.50 coordIndex [0,1,2,-1,0,3,1,-1]
coord Coordinate { point [0.07874 0.482283 0.07874,0.484251 0.482283 -1.07088e-16,0.07874 0.482283 -1.07088e-16,0.484251 0.482283 0.07874]
}}
appearance Appearance{material Material{diffuseColor 0.827451 0.329412 0.070588
transparency 0}}}
Shape { geometry IndexedFaceSet 
{ creaseAngle 0.50 coordIndex [0,1,2,-1,0,2,3,-1]
coord Coordinate { point [-0.22244 0.482283 0.07874,-0.07874 0.482283 0.07874,-0.07874 0.482283 -1.07088e-16,-0.22244 0.482283 -1.07088e-16]
}}
appearance Appearance{material Material{diffuseColor 0.827451 0.329412 0.070588
transparency 0}}}
Shape { geometry IndexedFaceSet 
{ creaseAngle 0.50 coordIndex [0,1,2,-1,0,2,3,-1]
coord Coordinate { point [0.07874 0.505904 0.07874,0.07874 0.482283 0.07874,0.07874 0.482283 -1.07088e-16,0.07874 0.505904 -1.12333e-16]
}}
appearance Appearance{material Material{diffuseColor 0.827451 0.329412 0.070588
transparency 0}}}
Shape { geometry IndexedFaceSet 
{ creaseAngle 0.50 coordIndex [0,1,2,-1,0,3,1,-1]
coord Coordinate { point [0.484251 0.482283 0.07874,0.484251 0.442912 -9.83463e-17,0.484251 0.482283 -1.07088e-16,0.484251 0.442912 0.07874]
}}
appearance Appearance{material Material{diffuseColor 0.827451 0.329412 0.070588
transparency 0}}}
Shape { geometry IndexedFaceSet 
{ creaseAngle 0.50 coordIndex [0,1,2,-1,2,1,3,-1]
coord Coordinate { point [0.484251 0.442912 0.07874,0.649605 0.442912 0.07874,0.484251 0.442912 -9.83463e-17,0.649605 0.442912 -9.83463e-17]
}}
appearance Appearance{material Material{diffuseColor 0.827451 0.329412 0.070588
transparency 0}}}
Shape { geometry IndexedFaceSet 
{ creaseAngle 0.50 coordIndex [0,1,2,-1,3,1,0,-1]
coord Coordinate { point [0.649605 0.442912 -9.83463e-17,0.649605 0.324802 0.07874,0.649605 0.324802 -7.21206e-17,0.649605 0.442912 0.07874]
}}
appearance Appearance{material Material{diffuseColor 0.827451 0.329412 0.070588
transparency 0}}}
Shape { geometry IndexedFaceSet 
{ creaseAngle 0.50 coordIndex [0,1,2,-1,3,1,0,-1]
coord Coordinate { point [0.649605 0.324802 -7.21206e-17,0.484251 0.324802 0.07874,0.484251 0.324802 -7.21206e-17,0.649605 0.324802 0.07874]
}}
appearance Appearance{material Material{diffuseColor 0.827451 0.329412 0.070588
transparency 0}}}
Shape { geometry IndexedFaceSet 
{ creaseAngle 0.50 coordIndex [0,1,2,-1,0,3,1,-1]
coord Coordinate { point [0.484251 0.324802 0.07874,0.484251 0.305117 -6.77497e-17,0.484251 0.324802 -7.21206e-17,0.484251 0.305117 0.07874]
}}
appearance Appearance{material Material{diffuseColor 0.827451 0.329412 0.070588
transparency 0}}}
Shape { geometry IndexedFaceSet 
{ creaseAngle 0.50 coordIndex [0,1,2,-1,0,2,3,-1]
coord Coordinate { point [0.484251 0.305117 0.07874,0.460629 0.305117 0.07874,0.460629 0.305117 -6.77497e-17,0.484251 0.305117 -6.77497e-17]
}}
appearance Appearance{material Material{diffuseColor 0.827451 0.329412 0.070588
transparency 0}}}
Shape { geometry IndexedFaceSet 
{ creaseAngle 0.50 coordIndex [0,1,2,-1,0,3,1,-1]
coord Coordinate { point [0.460629 -0.206693 0.07874,0.460629 -0.305117 6.77497e-17,0.460629 -0.206693 4.5895e-17,0.460629 -0.305117 0.07874]
}}
appearance Appearance{material Material{diffuseColor 0.827451 0.329412 0.070588
transparency 0}}}
Shape { geometry IndexedFaceSet 
{ creaseAngle 0.50 coordIndex [0,1,2,-1,0,3,1,-1]
coord Coordinate { point [0.460629 0.0492125 0.07874,0.460629 -0.0492125 1.09274e-17,0.460629 0.0492125 -1.09274e-17,0.460629 -0.0492125 0.07874]
}}
appearance Appearance{material Material{diffuseColor 0.827451 0.329412 0.070588
transparency 0}}}
Shape { geometry IndexedFaceSet 
{ creaseAngle 0.50 coordIndex [0,1,2,-1,0,3,1,-1]
coord Coordinate { point [0.460629 0.305117 0.07874,0.460629 0.206693 -4.5895e-17,0.460629 0.305117 -6.77497e-17,0.460629 0.206693 0.07874]
}}
appearance Appearance{material Material{diffuseColor 0.827451 0.329412 0.070588
transparency 0}}}
Shape { geometry IndexedFaceSet 
{ creaseAngle 0.50 coordIndex [0,1,2,-1,0,2,3,-1]
coord Coordinate { point [0.484251 -0.206693 0.07874,0.460629 -0.206693 0.07874,0.460629 -0.206693 4.5895e-17,0.484251 -0.206693 4.5895e-17]
}}
appearance Appearance{material Material{diffuseColor 0.827451 0.329412 0.070588
transparency 0}}}
Shape { geometry IndexedFaceSet 
{ creaseAngle 0.50 coordIndex [0,1,2,-1,0,3,1,-1]
coord Coordinate { point [0.484251 -0.187007 0.07874,0.484251 -0.206693 4.5895e-17,0.484251 -0.187007 4.1524e-17,0.484251 -0.206693 0.07874]
}}
appearance Appearance{material Material{diffuseColor 0.827451 0.329412 0.070588
transparency 0}}}
Shape { geometry IndexedFaceSet 
{ creaseAngle 0.50 coordIndex [0,1,2,-1,3,1,0,-1]
coord Coordinate { point [0.649605 -0.187007 4.1524e-17,0.484251 -0.187007 0.07874,0.484251 -0.187007 4.1524e-17,0.649605 -0.187007 0.07874]
}}
appearance Appearance{material Material{diffuseColor 0.827451 0.329412 0.070588
transparency 0}}}
Shape { geometry IndexedFaceSet 
{ creaseAngle 0.50 coordIndex [0,1,2,-1,3,1,0,-1]
coord Coordinate { point [0.649605 -0.0688975 1.52983e-17,0.649605 -0.187007 0.07874,0.649605 -0.187007 4.1524e-17,0.649605 -0.0688975 0.07874]
}}
appearance Appearance{material Material{diffuseColor 0.827451 0.329412 0.070588
transparency 0}}}
Shape { geometry IndexedFaceSet 
{ creaseAngle 0.50 coordIndex [0,1,2,-1,2,1,3,-1]
coord Coordinate { point [0.484251 -0.0688975 0.07874,0.649605 -0.0688975 0.07874,0.484251 -0.0688975 1.52983e-17,0.649605 -0.0688975 1.52983e-17]
}}
appearance Appearance{material Material{diffuseColor 0.827451 0.329412 0.070588
transparency 0}}}
Shape { geometry IndexedFaceSet 
{ creaseAngle 0.50 coordIndex [0,1,2,-1,0,3,1,-1]
coord Coordinate { point [0.484251 -0.0492125 0.07874,0.484251 -0.0688975 1.52983e-17,0.484251 -0.0492125 1.09274e-17,0.484251 -0.0688975 0.07874]
}}
appearance Appearance{material Material{diffuseColor 0.827451 0.329412 0.070588
transparency 0}}}
Shape { geometry IndexedFaceSet 
{ creaseAngle 0.50 coordIndex [0,1,2,-1,0,3,1,-1]
coord Coordinate { point [0.460629 -0.0492125 0.07874,0.484251 -0.0492125 1.09274e-17,0.460629 -0.0492125 1.09274e-17,0.484251 -0.0492125 0.07874]
}}
appearance Appearance{material Material{diffuseColor 0.827451 0.329412 0.070588
transparency 0}}}
Shape { geometry IndexedFaceSet 
{ creaseAngle 0.50 coordIndex [0,1,2,-1,0,3,1,-1]
coord Coordinate { point [0.460629 -0.305117 0.07874,0.484251 -0.305117 6.77497e-17,0.460629 -0.305117 6.77497e-17,0.484251 -0.305117 0.07874]
}}
appearance Appearance{material Material{diffuseColor 0.827451 0.329412 0.070588
transparency 0}}}
Shape { geometry IndexedFaceSet 
{ creaseAngle 0.50 coordIndex [0,1,2,-1,0,3,1,-1]
coord Coordinate { point [0.484251 -0.305117 0.07874,0.484251 -0.324802 7.21206e-17,0.484251 -0.305117 6.77497e-17,0.484251 -0.324802 0.07874]
}}
appearance Appearance{material Material{diffuseColor 0.827451 0.329412 0.070588
transparency 0}}}
Shape { geometry IndexedFaceSet 
{ creaseAngle 0.50 coordIndex [0,1,2,-1,2,1,3,-1]
coord Coordinate { point [0.484251 -0.324802 0.07874,0.649605 -0.324802 0.07874,0.484251 -0.324802 7.21206e-17,0.649605 -0.324802 7.21206e-17]
}}
appearance Appearance{material Material{diffuseColor 0.827451 0.329412 0.070588
transparency 0}}}
Shape { geometry IndexedFaceSet 
{ creaseAngle 0.50 coordIndex [0,1,2,-1,3,1,0,-1]
coord Coordinate { point [0.649605 -0.324802 7.21206e-17,0.649605 -0.442912 0.07874,0.649605 -0.442912 9.83463e-17,0.649605 -0.324802 0.07874]
}}
appearance Appearance{material Material{diffuseColor 0.827451 0.329412 0.070588
transparency 0}}}
Shape { geometry IndexedFaceSet 
{ creaseAngle 0.50 coordIndex [0,1,2,-1,3,1,0,-1]
coord Coordinate { point [0.649605 -0.442912 9.83463e-17,0.484251 -0.442912 0.07874,0.484251 -0.442912 9.83463e-17,0.649605 -0.442912 0.07874]
}}
appearance Appearance{material Material{diffuseColor 0.827451 0.329412 0.070588
transparency 0}}}
Shape { geometry IndexedFaceSet 
{ creaseAngle 0.50 coordIndex [0,1,2,-1,0,3,1,-1]
coord Coordinate { point [0.484251 -0.442912 0.07874,0.484251 -0.482283 1.07088e-16,0.484251 -0.442912 9.83463e-17,0.484251 -0.482283 0.07874]
}}
appearance Appearance{material Material{diffuseColor 0.827451 0.329412 0.070588
transparency 0}}}
Shape { geometry IndexedFaceSet 
{ creaseAngle 0.50 coordIndex [0,1,2,-1,0,2,3,-1]
coord Coordinate { point [0.484251 0.0492125 0.07874,0.460629 0.0492125 0.07874,0.460629 0.0492125 -1.09274e-17,0.484251 0.0492125 -1.09274e-17]
}}
appearance Appearance{material Material{diffuseColor 0.827451 0.329412 0.070588
transparency 0}}}
Shape { geometry IndexedFaceSet 
{ creaseAngle 0.50 coordIndex [0,1,2,-1,0,3,1,-1]
coord Coordinate { point [0.484251 0.0688975 0.07874,0.484251 0.0492125 -1.09274e-17,0.484251 0.0688975 -1.52983e-17,0.484251 0.0492125 0.07874]
}}
appearance Appearance{material Material{diffuseColor 0.827451 0.329412 0.070588
transparency 0}}}
Shape { geometry IndexedFaceSet 
{ creaseAngle 0.50 coordIndex [0,1,2,-1,3,1,0,-1]
coord Coordinate { point [0.649605 0.0688975 -1.52983e-17,0.484251 0.0688975 0.07874,0.484251 0.0688975 -1.52983e-17,0.649605 0.0688975 0.07874]
}}
appearance Appearance{material Material{diffuseColor 0.827451 0.329412 0.070588
transparency 0}}}
Shape { geometry IndexedFaceSet 
{ creaseAngle 0.50 coordIndex [0,1,2,-1,3,1,0,-1]
coord Coordinate { point [0.649605 0.187007 -4.1524e-17,0.649605 0.0688975 0.07874,0.649605 0.0688975 -1.52983e-17,0.649605 0.187008 0.07874]
}}
appearance Appearance{material Material{diffuseColor 0.827451 0.329412 0.070588
transparency 0}}}
Shape { geometry IndexedFaceSet 
{ creaseAngle 0.50 coordIndex [0,1,2,-1,2,1,3,-1]
coord Coordinate { point [0.484251 0.187008 0.07874,0.649605 0.187008 0.07874,0.484251 0.187007 -4.1524e-17,0.649605 0.187007 -4.1524e-17]
}}
appearance Appearance{material Material{diffuseColor 0.827451 0.329412 0.070588
transparency 0}}}
Shape { geometry IndexedFaceSet 
{ creaseAngle 0.50 coordIndex [0,1,2,-1,0,3,1,-1]
coord Coordinate { point [0.484251 0.206693 0.07874,0.484251 0.187007 -4.1524e-17,0.484251 0.206693 -4.5895e-17,0.484251 0.187008 0.07874]
}}
appearance Appearance{material Material{diffuseColor 0.827451 0.329412 0.070588
transparency 0}}}
Shape { geometry IndexedFaceSet 
{ creaseAngle 0.50 coordIndex [0,1,2,-1,0,3,1,-1]
coord Coordinate { point [0.460629 0.206693 0.07874,0.484251 0.206693 -4.5895e-17,0.460629 0.206693 -4.5895e-17,0.484251 0.206693 0.07874]
}}
appearance Appearance{material Material{diffuseColor 0.827451 0.329412 0.070588
transparency 0}}}
Shape { geometry IndexedFaceSet 
{ creaseAngle 0.50 coordIndex [0,1,2,-1,0,3,1,-1]
coord Coordinate { point [-0.07874 0.482283 0.07874,-0.07874 0.505904 -1.12333e-16,-0.07874 0.482283 -1.07088e-16,-0.07874 0.505904 0.07874]
}}
appearance Appearance{material Material{diffuseColor 0.827451 0.329412 0.070588
transparency 0}}}
Shape { geometry IndexedFaceSet 
{ creaseAngle 0.50 coordIndex [0,1,2,-1,0,3,1,-1]
coord Coordinate { point [-0.07874 0.505904 0.07874,-0.03937 0.505904 -1.12333e-16,-0.07874 0.505904 -1.12333e-16,-0.03937 0.505904 0.07874]
}}
appearance Appearance{material Material{diffuseColor 0.827451 0.329412 0.070588
transparency 0}}}
Shape { geometry IndexedFaceSet 
{ creaseAngle 0.50 coordIndex [0,1,2,-1,0,3,1,-1]
coord Coordinate { point [-0.03937 0.505904 0.07874,-0.03937 0.651574 -1.44678e-16,-0.03937 0.505904 -1.12333e-16,-0.03937 0.651574 0.07874]
}}
appearance Appearance{material Material{diffuseColor 0.827451 0.329412 0.070588
transparency 0}}}
Shape { geometry IndexedFaceSet 
{ creaseAngle 0.50 coordIndex [0,1,2,-1,0,3,1,-1]
coord Coordinate { point [-0.03937 0.651574 0.07874,0.03937 0.651574 -1.44678e-16,-0.03937 0.651574 -1.44678e-16,0.03937 0.651574 0.07874]
}}
appearance Appearance{material Material{diffuseColor 0.827451 0.329412 0.070588
transparency 0}}}
Shape { geometry IndexedFaceSet 
{ creaseAngle 0.50 coordIndex [0,1,2,-1,0,3,1,-1]
coord Coordinate { point [0.03937 0.651574 0.07874,0.03937 0.505904 -1.12333e-16,0.03937 0.651574 -1.44678e-16,0.03937 0.505904 0.07874]
}}
appearance Appearance{material Material{diffuseColor 0.827451 0.329412 0.070588
transparency 0}}}
Shape { geometry IndexedFaceSet 
{ creaseAngle 0.50 coordIndex [0,1,2,-1,3,4,1,-1,2,4,5,-1,1,4,2,-1,6,7,4,-1,4,7,5,-1]
coord Coordinate { point [0.03937 -0.505904 0.019685,0.07874 -0.505904 0.019685,0.03937 -0.620077 0.019685,0.07874 -0.482283 0.019685,0.484251 -0.482283 0.019685,0.59055 -0.620077 0.019685,0.484251 -0.442912 0.019685,0.59055 -0.442912 0.019685]
}}
appearance Appearance{material Material{diffuseColor 0.27451 0.27451 0.27451
transparency 0}}}
Shape { geometry IndexedFaceSet 
{ creaseAngle 0.50 coordIndex [0,1,2,-1,3,4,5,-1,5,4,0,-1,6,7,4,-1,4,7,0,-1,0,7,1,-1]
coord Coordinate { point [0.484251 -0.305117 0.019685,0.59055 -0.324802 0.019685,0.484251 -0.324802 0.019685,0.460629 -0.206693 0.019685,0.484251 -0.206693 0.019685,0.460629 -0.305117 0.019685,0.484251 -0.187007 0.019685,0.59055 -0.187007 0.019685]
}}
appearance Appearance{material Material{diffuseColor 0.27451 0.27451 0.27451
transparency 0}}}
Shape { geometry IndexedFaceSet 
{ creaseAngle 0.50 coordIndex [0,1,2,-1,3,4,1,-1,1,4,2,-1,5,6,7,-1,7,6,3,-1,3,6,4,-1,4,8,2,-1,4,9,8,-1,4,10,9,-1,9,11,8,-1,12,13,14,-1,14,13,15,-1,16,17,18,-1,18,17,19,-1,20,21,22,-1,22,23,17,-1,17,23,19,-1,21,23,22,-1,23,24,25,-1,24,26,27,-1,23,26,24,-1,21,26,23,-1,23,4,19,-1,19,4,13,-1,13,4,15,-1,15,4,6,-1]
coord Coordinate { point [-0.59055 -0.442912 0.019685,-0.492125 -0.442912 0.019685,-0.59055 -0.620077 0.019685,-0.492125 -0.324802 0.019685,-0.22244 -0.482283 0.019685,-0.59055 -0.187007 0.019685,-0.492125 -0.187007 0.019685,-0.59055 -0.324802 0.019685,-0.03937 -0.620077 0.019685,-0.07874 -0.505904 0.019685,-0.07874 -0.482283 0.019685,-0.03937 -0.505904 0.019685,-0.59055 0.0688975 0.019685,-0.492125 0.0688975 0.019685,-0.59055 -0.0688975 0.019685,-0.492125 -0.0688975 0.019685,-0.59055 0.324802 0.019685,-0.492125 0.324802 0.019685,-0.59055 0.187007 0.019685,-0.492125 0.187007 0.019685,-0.59055 0.442912 0.019685,-0.59055 0.620077 0.019685,-0.492125 0.442912 0.019685,-0.22244 0.482283 0.019685,-0.07874 0.505904 0.019685,-0.07874 0.482283 0.019685,-0.03937 0.620077 0.019685,-0.03937 0.505904 0.019685]
}}
appearance Appearance{material Material{diffuseColor 0.27451 0.27451 0.27451
transparency 0}}}
Shape { geometry IndexedFaceSet 
{ creaseAngle 0.50 coordIndex [0,1,2,-1,2,3,4,-1,1,3,2,-1,3,5,6,-1,3,7,5,-1,1,7,3,-1]
coord Coordinate { point [0.03937 0.505904 0.019685,0.03937 0.620077 0.019685,0.07874 0.505904 0.019685,0.484251 0.482283 0.019685,0.07874 0.482283 0.019685,0.59055 0.442912 0.019685,0.484251 0.442912 0.019685,0.59055 0.620077 0.019685]
}}
appearance Appearance{material Material{diffuseColor 0.27451 0.27451 0.27451
transparency 0}}}
Shape { geometry IndexedFaceSet 
{ creaseAngle 0.50 coordIndex [0,1,2,-1,3,4,5,-1,5,4,0,-1,6,7,4,-1,4,7,0,-1,0,7,1,-1]
coord Coordinate { point [0.484251 -0.0492125 0.019685,0.59055 -0.0688975 0.019685,0.484251 -0.0688975 0.019685,0.460629 0.0492125 0.019685,0.484251 0.0492125 0.019685,0.460629 -0.0492125 0.019685,0.484251 0.0688975 0.019685,0.59055 0.0688975 0.019685]
}}
appearance Appearance{material Material{diffuseColor 0.27451 0.27451 0.27451
transparency 0}}}
Shape { geometry IndexedFaceSet 
{ creaseAngle 0.50 coordIndex [0,1,2,-1,3,4,5,-1,5,4,0,-1,6,7,4,-1,4,7,0,-1,0,7,1,-1]
coord Coordinate { point [0.484251 0.206693 0.019685,0.59055 0.187007 0.019685,0.484251 0.187007 0.019685,0.460629 0.305117 0.019685,0.484251 0.305117 0.019685,0.460629 0.206693 0.019685,0.484251 0.324802 0.019685,0.59055 0.324802 0.019685]
}}
appearance Appearance{material Material{diffuseColor 0.27451 0.27451 0.27451
transparency 0}}}
Shape { geometry IndexedFaceSet 
{ creaseAngle 0.50 coordIndex [0,1,2,-1,3,1,0,-1]
coord Coordinate { point [0.484251 -0.442912 0.019685,0.580137 -0.442912 0.07874,0.59055 -0.442912 0.019685,0.484251 -0.442912 0.07874]
}}
appearance Appearance{material Material{diffuseColor 0.27451 0.27451 0.27451
transparency 0}}}
Shape { geometry IndexedFaceSet 
{ creaseAngle 0.50 coordIndex [0,1,2,-1,3,1,0,-1,4,3,0,-1,5,6,7,-1,5,4,6,-1,5,3,4,-1,8,3,5,-1,9,10,11,-1,9,8,10,-1,12,13,14,-1,12,15,13,-1,16,17,18,-1,19,12,17,-1,19,9,15,-1,19,15,12,-1,19,17,16,-1,19,3,8,-1,19,8,9,-1]
coord Coordinate { point [0.580137 -0.442912 0.07874,0.59055 -0.620077 0.019685,0.59055 -0.442912 0.019685,0.543016 -0.572544 0.289263,0.580137 -0.324802 0.07874,0.580137 -0.187007 0.07874,0.59055 -0.324802 0.019685,0.59055 -0.187007 0.019685,0.580137 -0.0688975 0.07874,0.580137 0.0688975 0.07874,0.59055 -0.0688975 0.019685,0.59055 0.0688975 0.019685,0.580137 0.324802 0.07874,0.59055 0.187007 0.019685,0.59055 0.324802 0.019685,0.580137 0.187008 0.07874,0.59055 0.620077 0.019685,0.580137 0.442912 0.07874,0.59055 0.442912 0.019685,0.543016 0.572544 0.289263]
}}
appearance Appearance{material Material{diffuseColor 0.27451 0.27451 0.27451
transparency 0}}}
Shape { geometry IndexedFaceSet 
{ creaseAngle 0.50 coordIndex [0,1,2,-1,0,3,1,-1,4,5,6,-1,7,5,4,-1,7,3,0,-1,7,0,5,-1]
coord Coordinate { point [-0.03937 -0.609665 0.07874,-0.59055 -0.620077 0.019685,-0.03937 -0.620077 0.019685,-0.543016 -0.572544 0.289263,0.59055 -0.620077 0.019685,0.03937 -0.609665 0.07874,0.03937 -0.620077 0.019685,0.543016 -0.572544 0.289263]
}}
appearance Appearance{material Material{diffuseColor 0.27451 0.27451 0.27451
transparency 0}}}
Shape { geometry IndexedFaceSet 
{ creaseAngle 0.50 coordIndex [0,1,2,-1,3,1,0,-1,3,4,1,-1,3,5,4,-1,6,7,8,-1,6,9,7,-1,10,11,12,-1,10,3,0,-1,10,0,11,-1,10,13,3,-1,14,15,6,-1,14,6,8,-1,16,17,10,-1,18,10,12,-1,18,12,19,-1,18,20,16,-1,18,16,10,-1,21,22,23,-1,18,19,24,-1,25,20,18,-1,26,16,20,-1,26,27,16,-1,28,18,24,-1,28,24,29,-1,30,8,31,-1,30,21,14,-1,30,14,8,-1,32,33,22,-1,32,34,33,-1,35,30,36,-1,19,37,32,-1,19,21,30,-1,19,22,21,-1,19,32,22,-1,38,39,40,-1,38,35,39,-1,12,41,42,-1,24,38,43,-1,24,35,38,-1,24,30,35,-1,24,19,30,-1,44,45,41,-1,44,46,45,-1,11,44,41,-1,11,47,44,-1,11,41,12,-1]
coord Coordinate { point [0.460629 0.305117 0.07874,0.484251 0.324802 0.07874,0.484251 0.305117 0.07874,0.484251 0.442912 0.07874,0.580137 0.324802 0.07874,0.580137 0.442912 0.07874,0.484251 -0.324802 0.07874,0.580137 -0.442912 0.07874,0.484251 -0.442912 0.07874,0.580137 -0.324802 0.07874,0.07874 0.482283 0.07874,0.460629 0.206693 0.07874,0.460629 0.0492125 0.07874,0.484251 0.482283 0.07874,0.460629 -0.305117 0.07874,0.484251 -0.305117 0.07874,0.03937 0.505904 0.07874,0.07874 0.505904 0.07874,-0.07874 0.482283 0.07874,0.460629 -0.0492125 0.07874,-0.03937 0.505904 0.07874,0.460629 -0.206693 0.07874,0.484251 -0.187007 0.07874,0.484251 -0.206693 0.07874,-0.07874 -0.482283 0.07874,-0.07874 0.505904 0.07874,-0.03937 0.609665 0.07874,0.03937 0.609665 0.07874,-0.22244 0.482283 0.07874,-0.22244 -0.482283 0.07874,0.07874 -0.482283 0.07874,0.484251 -0.482283 0.07874,0.484251 -0.0688975 0.07874,0.580137 -0.187007 0.07874,0.580137 -0.0688975 0.07874,0.03937 -0.505904 0.07874,0.07874 -0.505904 0.07874,0.484251 -0.0492125 0.07874,-0.03937 -0.505904 0.07874,0.03937 -0.609665 0.07874,-0.03937 -0.609665 0.07874,0.484251 0.0688975 0.07874,0.484251 0.0492125 0.07874,-0.07874 -0.505904 0.07874,0.484251 0.187008 0.07874,0.580137 0.0688975 0.07874,0.580137 0.187008 0.07874,0.484251 0.206693 0.07874]
}}
appearance Appearance{material Material{diffuseColor 0.27451 0.27451 0.27451
transparency 0}}}
Shape { geometry IndexedFaceSet 
{ creaseAngle 0.50 coordIndex [0,1,2,-1,0,3,1,-1]
coord Coordinate { point [0.03937 -0.609665 0.07874,0.03937 -0.505904 0.019685,0.03937 -0.620077 0.019685,0.03937 -0.505904 0.07874]
}}
appearance Appearance{material Material{diffuseColor 0.27451 0.27451 0.27451
transparency 0}}}
Shape { geometry IndexedFaceSet 
{ creaseAngle 0.50 coordIndex [0,1,2,-1,0,3,1,-1]
coord Coordinate { point [0.03937 -0.505904 0.07874,0.07874 -0.505904 0.019685,0.03937 -0.505904 0.019685,0.07874 -0.505904 0.07874]
}}
appearance Appearance{material Material{diffuseColor 0.27451 0.27451 0.27451
transparency 0}}}
Shape { geometry IndexedFaceSet 
{ creaseAngle 0.50 coordIndex [0,1,2,-1,0,3,1,-1]
coord Coordinate { point [0.07874 -0.505904 0.07874,0.07874 -0.482283 0.019685,0.07874 -0.505904 0.019685,0.07874 -0.482283 0.07874]
}}
appearance Appearance{material Material{diffuseColor 0.27451 0.27451 0.27451
transparency 0}}}
Shape { geometry IndexedFaceSet 
{ creaseAngle 0.50 coordIndex [0,1,2,-1,3,1,0,-1]
coord Coordinate { point [-0.22244 -0.482283 0.019685,-0.07874 -0.482283 0.07874,-0.07874 -0.482283 0.019685,-0.22244 -0.482283 0.07874]
}}
appearance Appearance{material Material{diffuseColor 0.27451 0.27451 0.27451
transparency 0}}}
Shape { geometry IndexedFaceSet 
{ creaseAngle 0.50 coordIndex [0,1,2,-1,3,1,0,-1]
coord Coordinate { point [0.07874 -0.482283 0.019685,0.484251 -0.482283 0.07874,0.484251 -0.482283 0.019685,0.07874 -0.482283 0.07874]
}}
appearance Appearance{material Material{diffuseColor 0.27451 0.27451 0.27451
transparency 0}}}
Shape { geometry IndexedFaceSet 
{ creaseAngle 0.50 coordIndex [0,1,2,-1,0,3,1,-1]
coord Coordinate { point [-0.07874 -0.482283 0.07874,-0.07874 -0.505904 0.019685,-0.07874 -0.482283 0.019685,-0.07874 -0.505904 0.07874]
}}
appearance Appearance{material Material{diffuseColor 0.27451 0.27451 0.27451
transparency 0}}}
Shape { geometry IndexedFaceSet 
{ creaseAngle 0.50 coordIndex [0,1,2,-1,0,3,1,-1]
coord Coordinate { point [-0.07874 -0.505904 0.07874,-0.03937 -0.505904 0.019685,-0.07874 -0.505904 0.019685,-0.03937 -0.505904 0.07874]
}}
appearance Appearance{material Material{diffuseColor 0.27451 0.27451 0.27451
transparency 0}}}
Shape { geometry IndexedFaceSet 
{ creaseAngle 0.50 coordIndex [0,1,2,-1,3,1,0,-1]
coord Coordinate { point [-0.03937 -0.505904 0.019685,-0.03937 -0.609665 0.07874,-0.03937 -0.620077 0.019685,-0.03937 -0.505904 0.07874]
}}
appearance Appearance{material Material{diffuseColor 0.27451 0.27451 0.27451
transparency 0}}}
Shape { geometry IndexedFaceSet 
{ creaseAngle 0.50 coordIndex [0,1,2,-1,3,1,0,-1]
coord Coordinate { point [-0.22244 0.482283 0.019685,-0.22244 -0.482283 0.07874,-0.22244 -0.482283 0.019685,-0.22244 0.482283 0.07874]
}}
appearance Appearance{material Material{diffuseColor 0.27451 0.27451 0.27451
transparency 0}}}
Shape { geometry IndexedFaceSet 
{ creaseAngle 0.50 coordIndex [0,1,2,-1,3,1,0,-1]
coord Coordinate { point [0.484251 0.482283 0.019685,0.07874 0.482283 0.07874,0.07874 0.482283 0.019685,0.484251 0.482283 0.07874]
}}
appearance Appearance{material Material{diffuseColor 0.27451 0.27451 0.27451
transparency 0}}}
Shape { geometry IndexedFaceSet 
{ creaseAngle 0.50 coordIndex [0,1,2,-1,3,1,0,-1]
coord Coordinate { point [-0.07874 0.482283 0.019685,-0.22244 0.482283 0.07874,-0.22244 0.482283 0.019685,-0.07874 0.482283 0.07874]
}}
appearance Appearance{material Material{diffuseColor 0.27451 0.27451 0.27451
transparency 0}}}
Shape { geometry IndexedFaceSet 
{ creaseAngle 0.50 coordIndex [0,1,2,-1,3,1,0,-1]
coord Coordinate { point [0.07874 0.482283 0.019685,0.07874 0.505904 0.07874,0.07874 0.505904 0.019685,0.07874 0.482283 0.07874]
}}
appearance Appearance{material Material{diffuseColor 0.27451 0.27451 0.27451
transparency 0}}}
Shape { geometry IndexedFaceSet 
{ creaseAngle 0.50 coordIndex [0,1,2,-1,3,1,0,-1]
coord Coordinate { point [0.07874 0.505904 0.019685,0.03937 0.505904 0.07874,0.03937 0.505904 0.019685,0.07874 0.505904 0.07874]
}}
appearance Appearance{material Material{diffuseColor 0.27451 0.27451 0.27451
transparency 0}}}
Shape { geometry IndexedFaceSet 
{ creaseAngle 0.50 coordIndex [0,1,2,-1,3,1,0,-1]
coord Coordinate { point [0.03937 0.505904 0.019685,0.03937 0.609665 0.07874,0.03937 0.620077 0.019685,0.03937 0.505904 0.07874]
}}
appearance Appearance{material Material{diffuseColor 0.27451 0.27451 0.27451
transparency 0}}}
Shape { geometry IndexedFaceSet 
{ creaseAngle 0.50 coordIndex [0,1,2,-1,0,3,1,-1,4,5,6,-1,7,5,4,-1,7,3,0,-1,7,0,5,-1]
coord Coordinate { point [0.03937 0.609665 0.07874,0.59055 0.620077 0.019685,0.03937 0.620077 0.019685,0.543016 0.572544 0.289263,-0.59055 0.620077 0.019685,-0.03937 0.609665 0.07874,-0.03937 0.620077 0.019685,-0.543016 0.572544 0.289263]
}}
appearance Appearance{material Material{diffuseColor 0.27451 0.27451 0.27451
transparency 0}}}
Shape { geometry IndexedFaceSet 
{ creaseAngle 0.50 coordIndex [0,1,2,-1,0,3,1,-1,4,5,6,-1,4,2,5,-1,4,0,2,-1,7,4,6,-1,8,9,10,-1,8,6,9,-1,8,7,6,-1,11,10,12,-1,11,8,10,-1,13,11,12,-1,14,15,16,-1,14,12,15,-1,14,13,12,-1,17,14,16,-1]
coord Coordinate { point [-0.47885 0.508378 0.353185,0.465472 0.495 0.35433,0.47885 0.508378 0.353185,-0.465472 0.495 0.35433,-0.492225 0.521753 0.349646,0.492225 0.521753 0.349646,0.506594 0.536122 0.342739,-0.506594 0.536122 0.342739,-0.518481 0.548009 0.333814,0.518481 0.548009 0.333814,0.526552 0.556079 0.325282,-0.526552 0.556079 0.325282,0.533603 0.563131 0.315063,-0.533603 0.563131 0.315063,-0.539266 0.568794 0.303057,0.539266 0.568794 0.303057,0.543016 0.572544 0.289263,-0.543016 0.572544 0.289263]
}}
appearance Appearance{material Material{diffuseColor 0.27451 0.27451 0.27451
transparency 0}}}
Shape { geometry IndexedFaceSet 
{ creaseAngle 0.50 coordIndex [0,1,2,-1,0,3,1,-1]
coord Coordinate { point [0.465472 0.495 0.35433,-0.465472 -0.495 0.35433,0.465472 -0.495 0.35433,-0.465472 0.495 0.35433]
}}
appearance Appearance{material Material{diffuseColor 0.27451 0.27451 0.27451
transparency 0}}}
Shape { geometry IndexedFaceSet 
{ creaseAngle 0.50 coordIndex [0,1,2,-1,0,3,4,-1,0,2,3,-1,5,4,6,-1,5,0,4,-1,7,5,6,-1,8,9,10,-1,8,6,9,-1,8,7,6,-1,11,8,10,-1,12,13,14,-1,12,10,13,-1,12,11,10,-1,15,12,14,-1,16,14,17,-1,16,15,14,-1]
coord Coordinate { point [0.47885 0.508378 0.353185,0.465472 0.495 0.35433,0.465472 -0.495 0.35433,0.47885 -0.508378 0.353185,0.492225 -0.521753 0.349646,0.492225 0.521753 0.349646,0.506594 -0.536122 0.342739,0.506594 0.536122 0.342739,0.518481 0.548009 0.333814,0.518481 -0.548009 0.333814,0.526552 -0.556079 0.325282,0.526552 0.556079 0.325282,0.533603 0.563131 0.315063,0.533603 -0.563131 0.315063,0.539266 -0.568794 0.303057,0.539266 0.568794 0.303057,0.543016 0.572544 0.289263,0.543016 -0.572544 0.289263]
}}
appearance Appearance{material Material{diffuseColor 0.27451 0.27451 0.27451
transparency 0}}}
Shape { geometry IndexedFaceSet 
{ creaseAngle 0.50 coordIndex [0,1,2,-1,0,2,3,-1,4,5,6,-1,4,3,5,-1,4,0,3,-1,7,4,6,-1,8,9,10,-1,8,6,9,-1,8,7,6,-1,11,10,12,-1,11,8,10,-1,13,11,12,-1,14,12,15,-1,14,13,12,-1,16,15,17,-1,16,14,15,-1]
coord Coordinate { point [0.47885 -0.508378 0.353185,0.465472 -0.495 0.35433,-0.465472 -0.495 0.35433,-0.47885 -0.508378 0.353185,0.492225 -0.521753 0.349646,-0.492225 -0.521753 0.349646,-0.506594 -0.536122 0.342739,0.506594 -0.536122 0.342739,0.518481 -0.548009 0.333814,-0.518481 -0.548009 0.333814,-0.526552 -0.556079 0.325282,0.526552 -0.556079 0.325282,-0.533603 -0.563131 0.315063,0.533603 -0.563131 0.315063,0.539266 -0.568794 0.303057,-0.539266 -0.568794 0.303057,0.543016 -0.572544 0.289263,-0.543016 -0.572544 0.289263]
}}
appearance Appearance{material Material{diffuseColor 0.27451 0.27451 0.27451
transparency 0}}}
Shape { geometry IndexedFaceSet 
{ creaseAngle 0.50 coordIndex [0,1,2,-1,0,3,4,-1,0,2,3,-1,5,4,6,-1,5,0,4,-1,7,5,6,-1,8,9,10,-1,8,6,9,-1,8,7,6,-1,11,8,10,-1,12,13,14,-1,12,10,13,-1,12,11,10,-1,15,12,14,-1,16,14,17,-1,16,15,14,-1]
coord Coordinate { point [-0.47885 -0.508378 0.353185,-0.465472 -0.495 0.35433,-0.465472 0.495 0.35433,-0.47885 0.508378 0.353185,-0.492225 0.521753 0.349646,-0.492225 -0.521753 0.349646,-0.506594 0.536122 0.342739,-0.506594 -0.536122 0.342739,-0.518481 -0.548009 0.333814,-0.518481 0.548009 0.333814,-0.526552 0.556079 0.325282,-0.526552 -0.556079 0.325282,-0.533603 -0.563131 0.315063,-0.533603 0.563131 0.315063,-0.539266 0.568794 0.303057,-0.539266 -0.568794 0.303057,-0.543016 -0.572544 0.289263,-0.543016 0.572544 0.289263]
}}
appearance Appearance{material Material{diffuseColor 0.27451 0.27451 0.27451
transparency 0}}}
Shape { geometry IndexedFaceSet 
{ creaseAngle 0.50 coordIndex [0,1,2,-1,3,1,0,-1,4,3,0,-1,5,4,6,-1,7,4,5,-1,7,3,4,-1,8,3,7,-1,9,10,11,-1,9,8,10,-1,12,13,14,-1,12,15,13,-1,16,17,18,-1,19,12,17,-1,19,9,15,-1,19,15,12,-1,19,17,16,-1,19,3,8,-1,19,8,9,-1]
coord Coordinate { point [-0.580137 0.442912 0.07874,-0.59055 0.620077 0.019685,-0.59055 0.442912 0.019685,-0.543016 0.572544 0.289263,-0.580137 0.324802 0.07874,-0.59055 0.187007 0.019685,-0.59055 0.324802 0.019685,-0.580137 0.187008 0.07874,-0.580137 0.0688975 0.07874,-0.580137 -0.0688975 0.07874,-0.59055 0.0688975 0.019685,-0.59055 -0.0688975 0.019685,-0.580137 -0.324802 0.07874,-0.59055 -0.187007 0.019685,-0.59055 -0.324802 0.019685,-0.580137 -0.187007 0.07874,-0.59055 -0.620077 0.019685,-0.580137 -0.442912 0.07874,-0.59055 -0.442912 0.019685,-0.543016 -0.572544 0.289263]
}}
appearance Appearance{material Material{diffuseColor 0.27451 0.27451 0.27451
transparency 0}}}
Shape { geometry IndexedFaceSet 
{ creaseAngle 0.50 coordIndex [0,1,2,-1,2,1,3,-1]
coord Coordinate { point [-0.580137 0.442912 0.07874,-0.492125 0.442912 0.07874,-0.580137 0.324802 0.07874,-0.492125 0.324802 0.07874]
}}
appearance Appearance{material Material{diffuseColor 0.27451 0.27451 0.27451
transparency 0}}}
Shape { geometry IndexedFaceSet 
{ creaseAngle 0.50 coordIndex [0,1,2,-1,0,3,1,-1]
coord Coordinate { point [-0.580137 0.324802 0.07874,-0.492125 0.324802 0.019685,-0.59055 0.324802 0.019685,-0.492125 0.324802 0.07874]
}}
appearance Appearance{material Material{diffuseColor 0.27451 0.27451 0.27451
transparency 0}}}
Shape { geometry IndexedFaceSet 
{ creaseAngle 0.50 coordIndex [0,1,2,-1,3,1,0,-1]
coord Coordinate { point [-0.492125 0.324802 0.019685,-0.492125 0.442912 0.07874,-0.492125 0.442912 0.019685,-0.492125 0.324802 0.07874]
}}
appearance Appearance{material Material{diffuseColor 0.27451 0.27451 0.27451
transparency 0}}}
Shape { geometry IndexedFaceSet 
{ creaseAngle 0.50 coordIndex [0,1,2,-1,3,1,0,-1]
coord Coordinate { point [-0.492125 0.442912 0.019685,-0.580137 0.442912 0.07874,-0.59055 0.442912 0.019685,-0.492125 0.442912 0.07874]
}}
appearance Appearance{material Material{diffuseColor 0.27451 0.27451 0.27451
transparency 0}}}
Shape { geometry IndexedFaceSet 
{ creaseAngle 0.50 coordIndex [0,1,2,-1,0,3,1,-1]
coord Coordinate { point [-0.580137 -0.442912 0.07874,-0.492125 -0.442912 0.019685,-0.59055 -0.442912 0.019685,-0.492125 -0.442912 0.07874]
}}
appearance Appearance{material Material{diffuseColor 0.27451 0.27451 0.27451
transparency 0}}}
Shape { geometry IndexedFaceSet 
{ creaseAngle 0.50 coordIndex [0,1,2,-1,3,1,0,-1]
coord Coordinate { point [-0.492125 -0.442912 0.019685,-0.492125 -0.324802 0.07874,-0.492125 -0.324802 0.019685,-0.492125 -0.442912 0.07874]
}}
appearance Appearance{material Material{diffuseColor 0.27451 0.27451 0.27451
transparency 0}}}
Shape { geometry IndexedFaceSet 
{ creaseAngle 0.50 coordIndex [0,1,2,-1,3,1,0,-1]
coord Coordinate { point [-0.492125 -0.324802 0.019685,-0.580137 -0.324802 0.07874,-0.59055 -0.324802 0.019685,-0.492125 -0.324802 0.07874]
}}
appearance Appearance{material Material{diffuseColor 0.27451 0.27451 0.27451
transparency 0}}}
Shape { geometry IndexedFaceSet 
{ creaseAngle 0.50 coordIndex [0,1,2,-1,2,1,3,-1]
coord Coordinate { point [-0.580137 -0.324802 0.07874,-0.492125 -0.324802 0.07874,-0.580137 -0.442912 0.07874,-0.492125 -0.442912 0.07874]
}}
appearance Appearance{material Material{diffuseColor 0.27451 0.27451 0.27451
transparency 0}}}
Shape { geometry IndexedFaceSet 
{ creaseAngle 0.50 coordIndex [0,1,2,-1,0,3,1,-1]
coord Coordinate { point [-0.580137 -0.187007 0.07874,-0.492125 -0.187007 0.019685,-0.59055 -0.187007 0.019685,-0.492125 -0.187007 0.07874]
}}
appearance Appearance{material Material{diffuseColor 0.27451 0.27451 0.27451
transparency 0}}}
Shape { geometry IndexedFaceSet 
{ creaseAngle 0.50 coordIndex [0,1,2,-1,3,1,0,-1]
coord Coordinate { point [-0.492125 -0.187007 0.019685,-0.492125 -0.0688975 0.07874,-0.492125 -0.0688975 0.019685,-0.492125 -0.187007 0.07874]
}}
appearance Appearance{material Material{diffuseColor 0.27451 0.27451 0.27451
transparency 0}}}
Shape { geometry IndexedFaceSet 
{ creaseAngle 0.50 coordIndex [0,1,2,-1,3,1,0,-1]
coord Coordinate { point [-0.492125 -0.0688975 0.019685,-0.580137 -0.0688975 0.07874,-0.59055 -0.0688975 0.019685,-0.492125 -0.0688975 0.07874]
}}
appearance Appearance{material Material{diffuseColor 0.27451 0.27451 0.27451
transparency 0}}}
Shape { geometry IndexedFaceSet 
{ creaseAngle 0.50 coordIndex [0,1,2,-1,2,1,3,-1]
coord Coordinate { point [-0.580137 -0.0688975 0.07874,-0.492125 -0.0688975 0.07874,-0.580137 -0.187007 0.07874,-0.492125 -0.187007 0.07874]
}}
appearance Appearance{material Material{diffuseColor 0.27451 0.27451 0.27451
transparency 0}}}
Shape { geometry IndexedFaceSet 
{ creaseAngle 0.50 coordIndex [0,1,2,-1,0,3,1,-1]
coord Coordinate { point [-0.580137 0.0688975 0.07874,-0.492125 0.0688975 0.019685,-0.59055 0.0688975 0.019685,-0.492125 0.0688975 0.07874]
}}
appearance Appearance{material Material{diffuseColor 0.27451 0.27451 0.27451
transparency 0}}}
Shape { geometry IndexedFaceSet 
{ creaseAngle 0.50 coordIndex [0,1,2,-1,3,1,0,-1]
coord Coordinate { point [-0.492125 0.0688975 0.019685,-0.492125 0.187008 0.07874,-0.492125 0.187007 0.019685,-0.492125 0.0688975 0.07874]
}}
appearance Appearance{material Material{diffuseColor 0.27451 0.27451 0.27451
transparency 0}}}
Shape { geometry IndexedFaceSet 
{ creaseAngle 0.50 coordIndex [0,1,2,-1,3,1,0,-1]
coord Coordinate { point [-0.492125 0.187007 0.019685,-0.580137 0.187008 0.07874,-0.59055 0.187007 0.019685,-0.492125 0.187008 0.07874]
}}
appearance Appearance{material Material{diffuseColor 0.27451 0.27451 0.27451
transparency 0}}}
Shape { geometry IndexedFaceSet 
{ creaseAngle 0.50 coordIndex [0,1,2,-1,2,1,3,-1]
coord Coordinate { point [-0.580137 0.187008 0.07874,-0.492125 0.187008 0.07874,-0.580137 0.0688975 0.07874,-0.492125 0.0688975 0.07874]
}}
appearance Appearance{material Material{diffuseColor 0.27451 0.27451 0.27451
transparency 0}}}
Shape { geometry IndexedFaceSet 
{ creaseAngle 0.50 coordIndex [0,1,2,-1,0,3,1,-1]
coord Coordinate { point [-0.03937 0.609665 0.07874,-0.03937 0.505904 0.019685,-0.03937 0.620077 0.019685,-0.03937 0.505904 0.07874]
}}
appearance Appearance{material Material{diffuseColor 0.27451 0.27451 0.27451
transparency 0}}}
Shape { geometry IndexedFaceSet 
{ creaseAngle 0.50 coordIndex [0,1,2,-1,3,1,0,-1]
coord Coordinate { point [-0.03937 0.505904 0.019685,-0.07874 0.505904 0.07874,-0.07874 0.505904 0.019685,-0.03937 0.505904 0.07874]
}}
appearance Appearance{material Material{diffuseColor 0.27451 0.27451 0.27451
transparency 0}}}
Shape { geometry IndexedFaceSet 
{ creaseAngle 0.50 coordIndex [0,1,2,-1,3,1,0,-1]
coord Coordinate { point [-0.07874 0.505904 0.019685,-0.07874 0.482283 0.07874,-0.07874 0.482283 0.019685,-0.07874 0.505904 0.07874]
}}
appearance Appearance{material Material{diffuseColor 0.27451 0.27451 0.27451
transparency 0}}}
Shape { geometry IndexedFaceSet 
{ creaseAngle 0.50 coordIndex [0,1,2,-1,3,1,0,-1]
coord Coordinate { point [0.484251 0.442912 0.019685,0.484251 0.482283 0.07874,0.484251 0.482283 0.019685,0.484251 0.442912 0.07874]
}}
appearance Appearance{material Material{diffuseColor 0.27451 0.27451 0.27451
transparency 0}}}
Shape { geometry IndexedFaceSet 
{ creaseAngle 0.50 coordIndex [0,1,2,-1,0,3,1,-1]
coord Coordinate { point [0.580137 0.442912 0.07874,0.484251 0.442912 0.019685,0.59055 0.442912 0.019685,0.484251 0.442912 0.07874]
}}
appearance Appearance{material Material{diffuseColor 0.27451 0.27451 0.27451
transparency 0}}}
Shape { geometry IndexedFaceSet 
{ creaseAngle 0.50 coordIndex [0,1,2,-1,3,1,0,-1]
coord Coordinate { point [0.484251 -0.482283 0.019685,0.484251 -0.442912 0.07874,0.484251 -0.442912 0.019685,0.484251 -0.482283 0.07874]
}}
appearance Appearance{material Material{diffuseColor 0.27451 0.27451 0.27451
transparency 0}}}
Shape { geometry IndexedFaceSet 
{ creaseAngle 0.50 coordIndex [0,1,2,-1,0,3,1,-1]
coord Coordinate { point [0.580137 -0.324802 0.07874,0.484251 -0.324802 0.019685,0.59055 -0.324802 0.019685,0.484251 -0.324802 0.07874]
}}
appearance Appearance{material Material{diffuseColor 0.27451 0.27451 0.27451
transparency 0}}}
Shape { geometry IndexedFaceSet 
{ creaseAngle 0.50 coordIndex [0,1,2,-1,3,1,0,-1]
coord Coordinate { point [0.484251 -0.324802 0.019685,0.484251 -0.305117 0.07874,0.484251 -0.305117 0.019685,0.484251 -0.324802 0.07874]
}}
appearance Appearance{material Material{diffuseColor 0.27451 0.27451 0.27451
transparency 0}}}
Shape { geometry IndexedFaceSet 
{ creaseAngle 0.50 coordIndex [0,1,2,-1,3,1,0,-1]
coord Coordinate { point [0.484251 -0.305117 0.019685,0.460629 -0.305117 0.07874,0.460629 -0.305117 0.019685,0.484251 -0.305117 0.07874]
}}
appearance Appearance{material Material{diffuseColor 0.27451 0.27451 0.27451
transparency 0}}}
Shape { geometry IndexedFaceSet 
{ creaseAngle 0.50 coordIndex [0,1,2,-1,3,1,0,-1]
coord Coordinate { point [0.460629 -0.305117 0.019685,0.460629 -0.206693 0.07874,0.460629 -0.206693 0.019685,0.460629 -0.305117 0.07874]
}}
appearance Appearance{material Material{diffuseColor 0.27451 0.27451 0.27451
transparency 0}}}
Shape { geometry IndexedFaceSet 
{ creaseAngle 0.50 coordIndex [0,1,2,-1,3,1,0,-1]
coord Coordinate { point [0.460629 -0.0492125 0.019685,0.460629 0.0492125 0.07874,0.460629 0.0492125 0.019685,0.460629 -0.0492125 0.07874]
}}
appearance Appearance{material Material{diffuseColor 0.27451 0.27451 0.27451
transparency 0}}}
Shape { geometry IndexedFaceSet 
{ creaseAngle 0.50 coordIndex [0,1,2,-1,3,1,0,-1]
coord Coordinate { point [0.460629 0.206693 0.019685,0.460629 0.305117 0.07874,0.460629 0.305117 0.019685,0.460629 0.206693 0.07874]
}}
appearance Appearance{material Material{diffuseColor 0.27451 0.27451 0.27451
transparency 0}}}
Shape { geometry IndexedFaceSet 
{ creaseAngle 0.50 coordIndex [0,1,2,-1,3,1,0,-1]
coord Coordinate { point [0.460629 -0.206693 0.019685,0.484251 -0.206693 0.07874,0.484251 -0.206693 0.019685,0.460629 -0.206693 0.07874]
}}
appearance Appearance{material Material{diffuseColor 0.27451 0.27451 0.27451
transparency 0}}}
Shape { geometry IndexedFaceSet 
{ creaseAngle 0.50 coordIndex [0,1,2,-1,3,1,0,-1]
coord Coordinate { point [0.484251 -0.206693 0.019685,0.484251 -0.187007 0.07874,0.484251 -0.187007 0.019685,0.484251 -0.206693 0.07874]
}}
appearance Appearance{material Material{diffuseColor 0.27451 0.27451 0.27451
transparency 0}}}
Shape { geometry IndexedFaceSet 
{ creaseAngle 0.50 coordIndex [0,1,2,-1,3,1,0,-1]
coord Coordinate { point [0.484251 -0.187007 0.019685,0.580137 -0.187007 0.07874,0.59055 -0.187007 0.019685,0.484251 -0.187007 0.07874]
}}
appearance Appearance{material Material{diffuseColor 0.27451 0.27451 0.27451
transparency 0}}}
Shape { geometry IndexedFaceSet 
{ creaseAngle 0.50 coordIndex [0,1,2,-1,3,1,0,-1]
coord Coordinate { point [0.460629 0.0492125 0.019685,0.484251 0.0492125 0.07874,0.484251 0.0492125 0.019685,0.460629 0.0492125 0.07874]
}}
appearance Appearance{material Material{diffuseColor 0.27451 0.27451 0.27451
transparency 0}}}
Shape { geometry IndexedFaceSet 
{ creaseAngle 0.50 coordIndex [0,1,2,-1,3,1,0,-1]
coord Coordinate { point [0.484251 0.0492125 0.019685,0.484251 0.0688975 0.07874,0.484251 0.0688975 0.019685,0.484251 0.0492125 0.07874]
}}
appearance Appearance{material Material{diffuseColor 0.27451 0.27451 0.27451
transparency 0}}}
Shape { geometry IndexedFaceSet 
{ creaseAngle 0.50 coordIndex [0,1,2,-1,3,1,0,-1]
coord Coordinate { point [0.484251 0.0688975 0.019685,0.580137 0.0688975 0.07874,0.59055 0.0688975 0.019685,0.484251 0.0688975 0.07874]
}}
appearance Appearance{material Material{diffuseColor 0.27451 0.27451 0.27451
transparency 0}}}
Shape { geometry IndexedFaceSet 
{ creaseAngle 0.50 coordIndex [0,1,2,-1,3,1,0,-1]
coord Coordinate { point [0.484251 -0.0492125 0.019685,0.460629 -0.0492125 0.07874,0.460629 -0.0492125 0.019685,0.484251 -0.0492125 0.07874]
}}
appearance Appearance{material Material{diffuseColor 0.27451 0.27451 0.27451
transparency 0}}}
Shape { geometry IndexedFaceSet 
{ creaseAngle 0.50 coordIndex [0,1,2,-1,3,1,0,-1]
coord Coordinate { point [0.484251 -0.0688975 0.019685,0.484251 -0.0492125 0.07874,0.484251 -0.0492125 0.019685,0.484251 -0.0688975 0.07874]
}}
appearance Appearance{material Material{diffuseColor 0.27451 0.27451 0.27451
transparency 0}}}
Shape { geometry IndexedFaceSet 
{ creaseAngle 0.50 coordIndex [0,1,2,-1,0,3,1,-1]
coord Coordinate { point [0.580137 -0.0688975 0.07874,0.484251 -0.0688975 0.019685,0.59055 -0.0688975 0.019685,0.484251 -0.0688975 0.07874]
}}
appearance Appearance{material Material{diffuseColor 0.27451 0.27451 0.27451
transparency 0}}}
Shape { geometry IndexedFaceSet 
{ creaseAngle 0.50 coordIndex [0,1,2,-1,3,1,0,-1]
coord Coordinate { point [0.460629 0.305117 0.019685,0.484251 0.305117 0.07874,0.484251 0.305117 0.019685,0.460629 0.305117 0.07874]
}}
appearance Appearance{material Material{diffuseColor 0.27451 0.27451 0.27451
transparency 0}}}
Shape { geometry IndexedFaceSet 
{ creaseAngle 0.50 coordIndex [0,1,2,-1,3,1,0,-1]
coord Coordinate { point [0.484251 0.305117 0.019685,0.484251 0.324802 0.07874,0.484251 0.324802 0.019685,0.484251 0.305117 0.07874]
}}
appearance Appearance{material Material{diffuseColor 0.27451 0.27451 0.27451
transparency 0}}}
Shape { geometry IndexedFaceSet 
{ creaseAngle 0.50 coordIndex [0,1,2,-1,3,1,0,-1]
coord Coordinate { point [0.484251 0.324802 0.019685,0.580137 0.324802 0.07874,0.59055 0.324802 0.019685,0.484251 0.324802 0.07874]
}}
appearance Appearance{material Material{diffuseColor 0.27451 0.27451 0.27451
transparency 0}}}
Shape { geometry IndexedFaceSet 
{ creaseAngle 0.50 coordIndex [0,1,2,-1,3,1,0,-1]
coord Coordinate { point [0.484251 0.206693 0.019685,0.460629 0.206693 0.07874,0.460629 0.206693 0.019685,0.484251 0.206693 0.07874]
}}
appearance Appearance{material Material{diffuseColor 0.27451 0.27451 0.27451
transparency 0}}}
Shape { geometry IndexedFaceSet 
{ creaseAngle 0.50 coordIndex [0,1,2,-1,3,1,0,-1]
coord Coordinate { point [0.484251 0.187007 0.019685,0.484251 0.206693 0.07874,0.484251 0.206693 0.019685,0.484251 0.187008 0.07874]
}}
appearance Appearance{material Material{diffuseColor 0.27451 0.27451 0.27451
transparency 0}}}
Shape { geometry IndexedFaceSet 
{ creaseAngle 0.50 coordIndex [0,1,2,-1,0,3,1,-1]
coord Coordinate { point [0.580137 0.187008 0.07874,0.484251 0.187007 0.019685,0.59055 0.187007 0.019685,0.484251 0.187008 0.07874]
}}
appearance Appearance{material Material{diffuseColor 0.27451 0.27451 0.27451
transparency 0}}}
