#VRML V2.0 utf8
#kicad StepUp wrl exported

Shape { geometry IndexedFaceSet 
{ creaseAngle 0.50 coordIndex [0,1,2,-1,0,3,1,-1,4,5,6,-1,5,7,6,-1,3,7,1,-1,1,7,5,-1]
coord Coordinate { point [-0.26496 0.344881 0,-0.520078 0.344881 0.0098425,-0.26496 0.344881 0.0098425,-0.52992 0.344881 0,-0.26496 0.344881 0.37992,-0.520078 0.344881 0.37992,-0.26496 0.344881 0.390157,-0.52992 0.344881 0.390157]
}}
appearance Appearance{material Material{diffuseColor 0.725 0.725 0.725
transparency 0}}}
Shape { geometry IndexedFaceSet 
{ creaseAngle 0.50 coordIndex [0,1,2,-1,3,1,0,-1]
coord Coordinate { point [0.520078 -0.435038 0.0098425,-0.520078 0.435038 0.0098425,0.520078 0.435038 0.0098425,-0.520078 -0.435038 0.0098425]
}}
appearance Appearance{material Material{diffuseColor 0.196 0.196 0.196
transparency 0}}}
Shape { geometry IndexedFaceSet 
{ creaseAngle 0.50 coordIndex [0,1,2,-1,2,1,3,-1]
coord Coordinate { point [0.520078 -0.435038 0.37992,0.520078 0.435038 0.37992,-0.520078 -0.435038 0.37992,-0.520078 0.435038 0.37992]
}}
appearance Appearance{material Material{diffuseColor 0.196 0.196 0.196
transparency 0}}}
Shape { geometry IndexedFaceSet 
{ creaseAngle 0.50 coordIndex [0,1,2,-1,2,1,3,-1]
coord Coordinate { point [0.520078 -0.435038 0.0098425,0.520078 -0.435038 0.37992,-0.520078 -0.435038 0.0098425,-0.520078 -0.435038 0.37992]
}}
appearance Appearance{material Material{diffuseColor 0.196 0.196 0.196
transparency 0}}}
Shape { geometry IndexedFaceSet 
{ creaseAngle 0.50 coordIndex [0,1,2,-1,2,1,3,-1]
coord Coordinate { point [0.520078 0.435038 0.0098425,0.520078 0.435038 0.37992,0.520078 -0.435038 0.0098425,0.520078 -0.435038 0.37992]
}}
appearance Appearance{material Material{diffuseColor 0.196 0.196 0.196
transparency 0}}}
Shape { geometry IndexedFaceSet 
{ creaseAngle 0.50 coordIndex [0,1,2,-1,2,1,3,-1]
coord Coordinate { point [-0.520078 0.435038 0.0098425,-0.520078 0.435038 0.37992,0.520078 0.435038 0.0098425,0.520078 0.435038 0.37992]
}}
appearance Appearance{material Material{diffuseColor 0.196 0.196 0.196
transparency 0}}}
Shape { geometry IndexedFaceSet 
{ creaseAngle 0.50 coordIndex [0,1,2,-1,2,1,3,-1]
coord Coordinate { point [-0.520078 -0.435038 0.0098425,-0.520078 -0.435038 0.37992,-0.520078 0.435038 0.0098425,-0.520078 0.435038 0.37992]
}}
appearance Appearance{material Material{diffuseColor 0.196 0.196 0.196
transparency 0}}}
Shape { geometry IndexedFaceSet 
{ creaseAngle 0.50 coordIndex [0,1,2,-1,3,1,0,-1]
coord Coordinate { point [-0.159055 -0.435826 0.0090551,-0.211811 0.435826 0.0090551,-0.159055 0.435826 0.0090551,-0.211811 -0.435826 0.0090551]
}}
appearance Appearance{material Material{diffuseColor 0.98 0.706 0.176
transparency 0}}}
Shape { geometry IndexedFaceSet 
{ creaseAngle 0.50 coordIndex [0,1,2,-1,2,1,3,-1]
coord Coordinate { point [-0.159055 -0.435826 0.0090551,-0.159055 -0.435826 0.381102,-0.211811 -0.435826 0.0090551,-0.211811 -0.435826 0.381102]
}}
appearance Appearance{material Material{diffuseColor 0.98 0.706 0.176
transparency 0}}}
Shape { geometry IndexedFaceSet 
{ creaseAngle 0.50 coordIndex [0,1,2,-1,2,1,3,-1]
coord Coordinate { point [-0.211811 0.435826 0.0090551,-0.211811 0.435826 0.381102,-0.159055 0.435826 0.0090551,-0.159055 0.435826 0.381102]
}}
appearance Appearance{material Material{diffuseColor 0.98 0.706 0.176
transparency 0}}}
Shape { geometry IndexedFaceSet 
{ creaseAngle 0.50 coordIndex [0,1,2,-1,2,1,3,-1]
coord Coordinate { point [-0.159055 -0.435826 0.381102,-0.159055 0.435826 0.381102,-0.211811 -0.435826 0.381102,-0.211811 0.435826 0.381102]
}}
appearance Appearance{material Material{diffuseColor 0.98 0.706 0.176
transparency 0}}}
Shape { geometry IndexedFaceSet 
{ creaseAngle 0.50 coordIndex [0,1,2,-1,2,1,3,-1,1,4,3,-1,1,5,4,-1]
coord Coordinate { point [-0.159055 -0.435826 0.0090551,-0.159055 0.435826 0.0090551,-0.159055 -0.435038 0.0098425,-0.159055 0.435038 0.0098425,-0.159055 0.435038 0.37992,-0.159055 0.435826 0.381102]
}}
appearance Appearance{material Material{diffuseColor 0.98 0.706 0.176
transparency 0}}}
Shape { geometry IndexedFaceSet 
{ creaseAngle 0.50 coordIndex [0,1,2,-1,1,3,2,-1,4,5,1,-1,1,5,3,-1]
coord Coordinate { point [-0.159055 -0.435038 0.0098425,-0.159055 -0.435038 0.37992,-0.159055 -0.435826 0.0090551,-0.159055 -0.435826 0.381102,-0.159055 0.435038 0.37992,-0.159055 0.435826 0.381102]
}}
appearance Appearance{material Material{diffuseColor 0.98 0.706 0.176
transparency 0}}}
Shape { geometry IndexedFaceSet 
{ creaseAngle 0.50 coordIndex [0,1,2,-1,1,3,2,-1,4,5,2,-1,2,5,0,-1]
coord Coordinate { point [-0.211811 0.435038 0.0098425,-0.211811 0.435038 0.37992,-0.211811 0.435826 0.0090551,-0.211811 0.435826 0.381102,-0.211811 -0.435826 0.0090551,-0.211811 -0.435038 0.0098425]
}}
appearance Appearance{material Material{diffuseColor 0.98 0.706 0.176
transparency 0}}}
Shape { geometry IndexedFaceSet 
{ creaseAngle 0.50 coordIndex [0,1,2,-1,1,3,2,-1,4,5,1,-1,1,5,3,-1]
coord Coordinate { point [-0.211811 -0.435038 0.0098425,-0.211811 -0.435038 0.37992,-0.211811 -0.435826 0.0090551,-0.211811 -0.435826 0.381102,-0.211811 0.435038 0.37992,-0.211811 0.435826 0.381102]
}}
appearance Appearance{material Material{diffuseColor 0.98 0.706 0.176
transparency 0}}}
Shape { geometry IndexedFaceSet 
{ creaseAngle 0.50 coordIndex [0,1,2,-1,2,1,3,-1]
coord Coordinate { point [-0.159055 0.435038 0.0098425,-0.159055 0.435038 0.37992,-0.211811 0.435038 0.0098425,-0.211811 0.435038 0.37992]
}}
appearance Appearance{material Material{diffuseColor 0.98 0.706 0.176
transparency 0}}}
Shape { geometry IndexedFaceSet 
{ creaseAngle 0.50 coordIndex [0,1,2,-1,2,1,3,-1]
coord Coordinate { point [-0.211811 -0.435038 0.0098425,-0.211811 -0.435038 0.37992,-0.159055 -0.435038 0.0098425,-0.159055 -0.435038 0.37992]
}}
appearance Appearance{material Material{diffuseColor 0.98 0.706 0.176
transparency 0}}}
Shape { geometry IndexedFaceSet 
{ creaseAngle 0.50 coordIndex [0,1,2,-1,2,1,3,-1]
coord Coordinate { point [-0.159055 -0.435038 0.0098425,-0.159055 0.435038 0.0098425,-0.211811 -0.435038 0.0098425,-0.211811 0.435038 0.0098425]
}}
appearance Appearance{material Material{diffuseColor 0.98 0.706 0.176
transparency 0}}}
Shape { geometry IndexedFaceSet 
{ creaseAngle 0.50 coordIndex [0,1,2,-1,2,1,3,-1]
coord Coordinate { point [-0.211811 -0.435038 0.37992,-0.211811 0.435038 0.37992,-0.159055 -0.435038 0.37992,-0.159055 0.435038 0.37992]
}}
appearance Appearance{material Material{diffuseColor 0.98 0.706 0.176
transparency 0}}}
Shape { geometry IndexedFaceSet 
{ creaseAngle 0.50 coordIndex [0,1,2,-1,3,1,0,-1]
coord Coordinate { point [0.26496 -0.344881 0.390157,0.52992 0.344881 0.390157,0.26496 0.344881 0.390157,0.52992 -0.344881 0.390157]
}}
appearance Appearance{material Material{diffuseColor 0.725 0.725 0.725
transparency 0}}}
Shape { geometry IndexedFaceSet 
{ creaseAngle 0.50 coordIndex [0,1,2,-1,3,1,0,-1]
coord Coordinate { point [0.26496 -0.344881 0.0098425,0.520078 0.344881 0.0098425,0.26496 0.344881 0.0098425,0.520078 -0.344881 0.0098425]
}}
appearance Appearance{material Material{diffuseColor 0.725 0.725 0.725
transparency 0}}}
Shape { geometry IndexedFaceSet 
{ creaseAngle 0.50 coordIndex [0,1,2,-1,2,1,3,-1]
coord Coordinate { point [0.52992 0.344881 0,0.52992 0.344881 0.390157,0.52992 -0.344881 0,0.52992 -0.344881 0.390157]
}}
appearance Appearance{material Material{diffuseColor 0.725 0.725 0.725
transparency 0}}}
Shape { geometry IndexedFaceSet 
{ creaseAngle 0.50 coordIndex [0,1,2,-1,2,1,3,-1]
coord Coordinate { point [0.26496 -0.344881 0.37992,0.26496 -0.344881 0.390157,0.26496 0.344881 0.37992,0.26496 0.344881 0.390157]
}}
appearance Appearance{material Material{diffuseColor 0.725 0.725 0.725
transparency 0}}}
Shape { geometry IndexedFaceSet 
{ creaseAngle 0.50 coordIndex [0,1,2,-1,2,1,3,-1]
coord Coordinate { point [0.26496 -0.344881 0,0.26496 -0.344881 0.0098425,0.26496 0.344881 0,0.26496 0.344881 0.0098425]
}}
appearance Appearance{material Material{diffuseColor 0.725 0.725 0.725
transparency 0}}}
Shape { geometry IndexedFaceSet 
{ creaseAngle 0.50 coordIndex [0,1,2,-1,2,1,3,-1]
coord Coordinate { point [0.520078 -0.344881 0.0098425,0.520078 -0.344881 0.37992,0.520078 0.344881 0.0098425,0.520078 0.344881 0.37992]
}}
appearance Appearance{material Material{diffuseColor 0.725 0.725 0.725
transparency 0}}}
Shape { geometry IndexedFaceSet 
{ creaseAngle 0.50 coordIndex [0,1,2,-1,2,1,3,-1]
coord Coordinate { point [0.26496 -0.344881 0.37992,0.26496 0.344881 0.37992,0.520078 -0.344881 0.37992,0.520078 0.344881 0.37992]
}}
appearance Appearance{material Material{diffuseColor 0.725 0.725 0.725
transparency 0}}}
Shape { geometry IndexedFaceSet 
{ creaseAngle 0.50 coordIndex [0,1,2,-1,2,1,3,-1]
coord Coordinate { point [0.26496 -0.344881 0,0.26496 0.344881 0,0.52992 -0.344881 0,0.52992 0.344881 0]
}}
appearance Appearance{material Material{diffuseColor 0.725 0.725 0.725
transparency 0}}}
Shape { geometry IndexedFaceSet 
{ creaseAngle 0.50 coordIndex [0,1,2,-1,1,3,2,-1,2,4,0,-1,4,5,0,-1,6,7,4,-1,4,7,5,-1]
coord Coordinate { point [0.52992 0.344881 0,0.26496 0.344881 0,0.520078 0.344881 0.0098425,0.26496 0.344881 0.0098425,0.520078 0.344881 0.37992,0.52992 0.344881 0.390157,0.26496 0.344881 0.37992,0.26496 0.344881 0.390157]
}}
appearance Appearance{material Material{diffuseColor 0.725 0.725 0.725
transparency 0}}}
Shape { geometry IndexedFaceSet 
{ creaseAngle 0.50 coordIndex [0,1,2,-1,0,3,1,-1,4,5,6,-1,5,7,6,-1,3,7,1,-1,1,7,5,-1]
coord Coordinate { point [0.26496 -0.344881 0,0.520078 -0.344881 0.0098425,0.26496 -0.344881 0.0098425,0.52992 -0.344881 0,0.26496 -0.344881 0.37992,0.520078 -0.344881 0.37992,0.26496 -0.344881 0.390157,0.52992 -0.344881 0.390157]
}}
appearance Appearance{material Material{diffuseColor 0.725 0.725 0.725
transparency 0}}}
Shape { geometry IndexedFaceSet 
{ creaseAngle 0.50 coordIndex [0,1,2,-1,2,1,3,-1]
coord Coordinate { point [-0.26496 -0.344881 0.390157,-0.26496 0.344881 0.390157,-0.52992 -0.344881 0.390157,-0.52992 0.344881 0.390157]
}}
appearance Appearance{material Material{diffuseColor 0.725 0.725 0.725
transparency 0}}}
Shape { geometry IndexedFaceSet 
{ creaseAngle 0.50 coordIndex [0,1,2,-1,2,1,3,-1]
coord Coordinate { point [-0.26496 -0.344881 0.0098425,-0.26496 0.344881 0.0098425,-0.520078 -0.344881 0.0098425,-0.520078 0.344881 0.0098425]
}}
appearance Appearance{material Material{diffuseColor 0.725 0.725 0.725
transparency 0}}}
Shape { geometry IndexedFaceSet 
{ creaseAngle 0.50 coordIndex [0,1,2,-1,2,1,3,-1]
coord Coordinate { point [-0.52992 -0.344881 0,-0.52992 -0.344881 0.390157,-0.52992 0.344881 0,-0.52992 0.344881 0.390157]
}}
appearance Appearance{material Material{diffuseColor 0.725 0.725 0.725
transparency 0}}}
Shape { geometry IndexedFaceSet 
{ creaseAngle 0.50 coordIndex [0,1,2,-1,2,1,3,-1]
coord Coordinate { point [-0.26496 0.344881 0.37992,-0.26496 0.344881 0.390157,-0.26496 -0.344881 0.37992,-0.26496 -0.344881 0.390157]
}}
appearance Appearance{material Material{diffuseColor 0.725 0.725 0.725
transparency 0}}}
Shape { geometry IndexedFaceSet 
{ creaseAngle 0.50 coordIndex [0,1,2,-1,2,1,3,-1]
coord Coordinate { point [-0.26496 0.344881 0,-0.26496 0.344881 0.0098425,-0.26496 -0.344881 0,-0.26496 -0.344881 0.0098425]
}}
appearance Appearance{material Material{diffuseColor 0.725 0.725 0.725
transparency 0}}}
Shape { geometry IndexedFaceSet 
{ creaseAngle 0.50 coordIndex [0,1,2,-1,2,1,3,-1]
coord Coordinate { point [-0.520078 0.344881 0.0098425,-0.520078 0.344881 0.37992,-0.520078 -0.344881 0.0098425,-0.520078 -0.344881 0.37992]
}}
appearance Appearance{material Material{diffuseColor 0.725 0.725 0.725
transparency 0}}}
Shape { geometry IndexedFaceSet 
{ creaseAngle 0.50 coordIndex [0,1,2,-1,3,1,0,-1]
coord Coordinate { point [-0.26496 -0.344881 0.37992,-0.520078 0.344881 0.37992,-0.26496 0.344881 0.37992,-0.520078 -0.344881 0.37992]
}}
appearance Appearance{material Material{diffuseColor 0.725 0.725 0.725
transparency 0}}}
Shape { geometry IndexedFaceSet 
{ creaseAngle 0.50 coordIndex [0,1,2,-1,3,1,0,-1]
coord Coordinate { point [-0.26496 -0.344881 0,-0.52992 0.344881 0,-0.26496 0.344881 0,-0.52992 -0.344881 0]
}}
appearance Appearance{material Material{diffuseColor 0.725 0.725 0.725
transparency 0}}}
Shape { geometry IndexedFaceSet 
{ creaseAngle 0.50 coordIndex [0,1,2,-1,1,3,2,-1,2,4,0,-1,4,5,0,-1,6,7,4,-1,4,7,5,-1]
coord Coordinate { point [-0.52992 -0.344881 0,-0.26496 -0.344881 0,-0.520078 -0.344881 0.0098425,-0.26496 -0.344881 0.0098425,-0.520078 -0.344881 0.37992,-0.52992 -0.344881 0.390157,-0.26496 -0.344881 0.37992,-0.26496 -0.344881 0.390157]
}}
appearance Appearance{material Material{diffuseColor 0.725 0.725 0.725
transparency 0}}}
