#VRML V2.0 utf8
#kicad StepUp wrl exported

Shape { geometry IndexedFaceSet 
{ creaseAngle 0.50 coordIndex [0,1,2,-1,0,3,1,-1,4,5,6,-1,1,7,4,-1,3,7,1,-1,4,7,5,-1]
coord Coordinate { point [-0.279921 0.140157 0,-0.659841 0.140157 0.0499999,-0.279921 0.140157 0.0499999,-0.709841 0.140157 0,-0.659841 0.140157 0.270078,-0.647636 0.140157 0.320078,-0.647636 0.140157 0.270078,-0.709841 0.140157 0.320078]
}}
appearance Appearance{material Material{diffuseColor 0.725 0.725 0.725
transparency 0}}}
Shape { geometry IndexedFaceSet 
{ creaseAngle 0.50 coordIndex [0,1,2,-1,3,1,0,-1]
coord Coordinate { point [-0.362598 -0.603936 0.590156,-0.621652 0.603936 0.590156,-0.362598 0.603936 0.590156,-0.621652 -0.603936 0.590156]
}}
appearance Appearance{material Material{diffuseColor 0.459 0.345 0.176
transparency 0}}}
Shape { geometry IndexedFaceSet 
{ creaseAngle 0.50 coordIndex [0,1,2,-1,2,1,3,-1]
coord Coordinate { point [-0.362598 -0.603936 0.609841,-0.362598 0.603936 0.609841,-0.621652 -0.603936 0.609841,-0.621652 0.603936 0.609841]
}}
appearance Appearance{material Material{diffuseColor 0.459 0.345 0.176
transparency 0}}}
Shape { geometry IndexedFaceSet 
{ creaseAngle 0.50 coordIndex [0,1,2,-1,2,1,3,-1]
coord Coordinate { point [-0.362598 -0.603936 0.590156,-0.362598 -0.603936 0.609841,-0.621652 -0.603936 0.590156,-0.621652 -0.603936 0.609841]
}}
appearance Appearance{material Material{diffuseColor 0.459 0.345 0.176
transparency 0}}}
Shape { geometry IndexedFaceSet 
{ creaseAngle 0.50 coordIndex [0,1,2,-1,2,1,3,-1]
coord Coordinate { point [-0.362598 0.603936 0.590156,-0.362598 0.603936 0.609841,-0.362598 -0.603936 0.590156,-0.362598 -0.603936 0.609841]
}}
appearance Appearance{material Material{diffuseColor 0.459 0.345 0.176
transparency 0}}}
Shape { geometry IndexedFaceSet 
{ creaseAngle 0.50 coordIndex [0,1,2,-1,2,1,3,-1]
coord Coordinate { point [-0.621652 0.603936 0.590156,-0.621652 0.603936 0.609841,-0.362598 0.603936 0.590156,-0.362598 0.603936 0.609841]
}}
appearance Appearance{material Material{diffuseColor 0.459 0.345 0.176
transparency 0}}}
Shape { geometry IndexedFaceSet 
{ creaseAngle 0.50 coordIndex [0,1,2,-1,2,1,3,-1]
coord Coordinate { point [-0.621652 -0.603936 0.590156,-0.621652 -0.603936 0.609841,-0.621652 0.603936 0.590156,-0.621652 0.603936 0.609841]
}}
appearance Appearance{material Material{diffuseColor 0.459 0.345 0.176
transparency 0}}}
Shape { geometry IndexedFaceSet 
{ creaseAngle 0.50 coordIndex [0,1,2,-1,2,1,3,-1]
coord Coordinate { point [0.647636 -0.62992 0.590156,0.647636 0.62992 0.590156,-0.647636 -0.62992 0.590156,-0.647636 0.62992 0.590156]
}}
appearance Appearance{material Material{diffuseColor 0.784 0.686 0.51
transparency 0}}}
Shape { geometry IndexedFaceSet 
{ creaseAngle 0.50 coordIndex [0,1,2,-1,2,1,3,-1]
coord Coordinate { point [0.647636 0.62992 0.240157,0.647636 0.62992 0.590156,0.647636 -0.62992 0.240157,0.647636 -0.62992 0.590156]
}}
appearance Appearance{material Material{diffuseColor 0.784 0.686 0.51
transparency 0}}}
Shape { geometry IndexedFaceSet 
{ creaseAngle 0.50 coordIndex [0,1,2,-1,2,1,3,-1]
coord Coordinate { point [-0.647636 0.62992 0.240157,-0.647636 0.62992 0.590156,0.647636 0.62992 0.240157,0.647636 0.62992 0.590156]
}}
appearance Appearance{material Material{diffuseColor 0.784 0.686 0.51
transparency 0}}}
Shape { geometry IndexedFaceSet 
{ creaseAngle 0.50 coordIndex [0,1,2,-1,2,1,3,-1]
coord Coordinate { point [-0.647636 -0.62992 0.240157,-0.647636 -0.62992 0.590156,-0.647636 0.62992 0.240157,-0.647636 0.62992 0.590156]
}}
appearance Appearance{material Material{diffuseColor 0.784 0.686 0.51
transparency 0}}}
Shape { geometry IndexedFaceSet 
{ creaseAngle 0.50 coordIndex [0,1,2,-1,2,1,3,-1]
coord Coordinate { point [0.647636 -0.62992 0.240157,0.647636 -0.62992 0.590156,-0.647636 -0.62992 0.240157,-0.647636 -0.62992 0.590156]
}}
appearance Appearance{material Material{diffuseColor 0.784 0.686 0.51
transparency 0}}}
Shape { geometry IndexedFaceSet 
{ creaseAngle 0.50 coordIndex [0,1,2,-1,1,3,2,-1]
coord Coordinate { point [0.61614 -0.598818 0.0700786,0.61614 0.598818 0.0700786,0.647636 -0.62992 0.240157,0.647636 0.62992 0.240157]
}}
appearance Appearance{material Material{diffuseColor 0.784 0.686 0.51
transparency 0}}}
Shape { geometry IndexedFaceSet 
{ creaseAngle 0.50 coordIndex [0,1,2,-1,3,1,0,-1]
coord Coordinate { point [0.61614 0.598818 0.0700786,-0.647636 0.62992 0.240157,0.647636 0.62992 0.240157,-0.61614 0.598818 0.0700786]
}}
appearance Appearance{material Material{diffuseColor 0.784 0.686 0.51
transparency 0}}}
Shape { geometry IndexedFaceSet 
{ creaseAngle 0.50 coordIndex [0,1,2,-1,1,3,2,-1]
coord Coordinate { point [-0.61614 0.598818 0.0700786,-0.61614 -0.598818 0.0700786,-0.647636 0.62992 0.240157,-0.647636 -0.62992 0.240157]
}}
appearance Appearance{material Material{diffuseColor 0.784 0.686 0.51
transparency 0}}}
Shape { geometry IndexedFaceSet 
{ creaseAngle 0.50 coordIndex [0,1,2,-1,3,1,0,-1]
coord Coordinate { point [-0.61614 -0.598818 0.0700786,0.647636 -0.62992 0.240157,-0.647636 -0.62992 0.240157,0.61614 -0.598818 0.0700786]
}}
appearance Appearance{material Material{diffuseColor 0.784 0.686 0.51
transparency 0}}}
Shape { geometry IndexedFaceSet 
{ creaseAngle 0.50 coordIndex [0,1,2,-1,2,1,3,-1]
coord Coordinate { point [0.251968 0.598818 0,0.251968 0.598818 0.0700786,0.251968 -0.598818 0,0.251968 -0.598818 0.0700786]
}}
appearance Appearance{material Material{diffuseColor 0.784 0.686 0.51
transparency 0}}}
Shape { geometry IndexedFaceSet 
{ creaseAngle 0.50 coordIndex [0,1,2,-1,2,1,3,-1]
coord Coordinate { point [-0.251968 -0.598818 0,-0.251968 -0.598818 0.0700786,-0.251968 0.598818 0,-0.251968 0.598818 0.0700786]
}}
appearance Appearance{material Material{diffuseColor 0.784 0.686 0.51
transparency 0}}}
Shape { geometry IndexedFaceSet 
{ creaseAngle 0.50 coordIndex [0,1,2,-1,3,1,0,-1]
coord Coordinate { point [0.251968 -0.598818 0,-0.251968 0.598818 0,0.251968 0.598818 0,-0.251968 -0.598818 0]
}}
appearance Appearance{material Material{diffuseColor 0.784 0.686 0.51
transparency 0}}}
Shape { geometry IndexedFaceSet 
{ creaseAngle 0.50 coordIndex [0,1,2,-1,3,1,0,-1]
coord Coordinate { point [-0.251968 -0.598818 0.0700786,-0.61614 0.598818 0.0700786,-0.251968 0.598818 0.0700786,-0.61614 -0.598818 0.0700786]
}}
appearance Appearance{material Material{diffuseColor 0.784 0.686 0.51
transparency 0}}}
Shape { geometry IndexedFaceSet 
{ creaseAngle 0.50 coordIndex [0,1,2,-1,3,1,0,-1]
coord Coordinate { point [0.61614 -0.598818 0.0700786,0.251968 0.598818 0.0700786,0.61614 0.598818 0.0700786,0.251968 -0.598818 0.0700786]
}}
appearance Appearance{material Material{diffuseColor 0.784 0.686 0.51
transparency 0}}}
Shape { geometry IndexedFaceSet 
{ creaseAngle 0.50 coordIndex [0,1,2,-1,2,1,3,-1]
coord Coordinate { point [0.251968 -0.598818 0,0.251968 -0.598818 0.0700786,-0.251968 -0.598818 0,-0.251968 -0.598818 0.0700786]
}}
appearance Appearance{material Material{diffuseColor 0.784 0.686 0.51
transparency 0}}}
Shape { geometry IndexedFaceSet 
{ creaseAngle 0.50 coordIndex [0,1,2,-1,2,1,3,-1]
coord Coordinate { point [-0.251968 0.598818 0,-0.251968 0.598818 0.0700786,0.251968 0.598818 0,0.251968 0.598818 0.0700786]
}}
appearance Appearance{material Material{diffuseColor 0.784 0.686 0.51
transparency 0}}}
Shape { geometry IndexedFaceSet 
{ creaseAngle 0.50 coordIndex [0,1,2,-1,3,1,0,-1]
coord Coordinate { point [0.647636 -0.140157 0.320078,0.709841 0.140157 0.320078,0.647636 0.140157 0.320078,0.709841 -0.140157 0.320078]
}}
appearance Appearance{material Material{diffuseColor 0.725 0.725 0.725
transparency 0}}}
Shape { geometry IndexedFaceSet 
{ creaseAngle 0.50 coordIndex [0,1,2,-1,3,1,0,-1]
coord Coordinate { point [0.279921 -0.140157 0.0499999,0.659841 0.140157 0.0499999,0.279921 0.140157 0.0499999,0.659841 -0.140157 0.0499999]
}}
appearance Appearance{material Material{diffuseColor 0.725 0.725 0.725
transparency 0}}}
Shape { geometry IndexedFaceSet 
{ creaseAngle 0.50 coordIndex [0,1,2,-1,2,1,3,-1]
coord Coordinate { point [0.709841 0.140157 0,0.709841 0.140157 0.320078,0.709841 -0.140157 0,0.709841 -0.140157 0.320078]
}}
appearance Appearance{material Material{diffuseColor 0.725 0.725 0.725
transparency 0}}}
Shape { geometry IndexedFaceSet 
{ creaseAngle 0.50 coordIndex [0,1,2,-1,2,1,3,-1]
coord Coordinate { point [0.647636 -0.140157 0.270078,0.647636 -0.140157 0.320078,0.647636 0.140157 0.270078,0.647636 0.140157 0.320078]
}}
appearance Appearance{material Material{diffuseColor 0.725 0.725 0.725
transparency 0}}}
Shape { geometry IndexedFaceSet 
{ creaseAngle 0.50 coordIndex [0,1,2,-1,2,1,3,-1]
coord Coordinate { point [0.279921 -0.140157 0,0.279921 -0.140157 0.0499999,0.279921 0.140157 0,0.279921 0.140157 0.0499999]
}}
appearance Appearance{material Material{diffuseColor 0.725 0.725 0.725
transparency 0}}}
Shape { geometry IndexedFaceSet 
{ creaseAngle 0.50 coordIndex [0,1,2,-1,2,1,3,-1]
coord Coordinate { point [0.659841 -0.140157 0.0499999,0.659841 -0.140157 0.270078,0.659841 0.140157 0.0499999,0.659841 0.140157 0.270078]
}}
appearance Appearance{material Material{diffuseColor 0.725 0.725 0.725
transparency 0}}}
Shape { geometry IndexedFaceSet 
{ creaseAngle 0.50 coordIndex [0,1,2,-1,2,1,3,-1]
coord Coordinate { point [0.647636 -0.140157 0.270078,0.647636 0.140157 0.270078,0.659841 -0.140157 0.270078,0.659841 0.140157 0.270078]
}}
appearance Appearance{material Material{diffuseColor 0.725 0.725 0.725
transparency 0}}}
Shape { geometry IndexedFaceSet 
{ creaseAngle 0.50 coordIndex [0,1,2,-1,2,1,3,-1]
coord Coordinate { point [0.279921 -0.140157 0,0.279921 0.140157 0,0.709841 -0.140157 0,0.709841 0.140157 0]
}}
appearance Appearance{material Material{diffuseColor 0.725 0.725 0.725
transparency 0}}}
Shape { geometry IndexedFaceSet 
{ creaseAngle 0.50 coordIndex [0,1,2,-1,3,1,0,-1,4,5,1,-1,1,5,2,-1,0,6,3,-1,6,7,3,-1]
coord Coordinate { point [0.709841 0.140157 0,0.659841 0.140157 0.270078,0.709841 0.140157 0.320078,0.659841 0.140157 0.0499999,0.647636 0.140157 0.270078,0.647636 0.140157 0.320078,0.279921 0.140157 0,0.279921 0.140157 0.0499999]
}}
appearance Appearance{material Material{diffuseColor 0.725 0.725 0.725
transparency 0}}}
Shape { geometry IndexedFaceSet 
{ creaseAngle 0.50 coordIndex [0,1,2,-1,0,3,1,-1,4,5,6,-1,1,7,4,-1,3,7,1,-1,4,7,5,-1]
coord Coordinate { point [0.279921 -0.140157 0,0.659841 -0.140157 0.0499999,0.279921 -0.140157 0.0499999,0.709841 -0.140157 0,0.659841 -0.140157 0.270078,0.647636 -0.140157 0.320078,0.647636 -0.140157 0.270078,0.709841 -0.140157 0.320078]
}}
appearance Appearance{material Material{diffuseColor 0.725 0.725 0.725
transparency 0}}}
Shape { geometry IndexedFaceSet 
{ creaseAngle 0.50 coordIndex [0,1,2,-1,2,1,3,-1]
coord Coordinate { point [-0.647636 -0.140157 0.320078,-0.647636 0.140157 0.320078,-0.709841 -0.140157 0.320078,-0.709841 0.140157 0.320078]
}}
appearance Appearance{material Material{diffuseColor 0.725 0.725 0.725
transparency 0}}}
Shape { geometry IndexedFaceSet 
{ creaseAngle 0.50 coordIndex [0,1,2,-1,2,1,3,-1]
coord Coordinate { point [-0.279921 -0.140157 0.0499999,-0.279921 0.140157 0.0499999,-0.659841 -0.140157 0.0499999,-0.659841 0.140157 0.0499999]
}}
appearance Appearance{material Material{diffuseColor 0.725 0.725 0.725
transparency 0}}}
Shape { geometry IndexedFaceSet 
{ creaseAngle 0.50 coordIndex [0,1,2,-1,2,1,3,-1]
coord Coordinate { point [-0.709841 -0.140157 0,-0.709841 -0.140157 0.320078,-0.709841 0.140157 0,-0.709841 0.140157 0.320078]
}}
appearance Appearance{material Material{diffuseColor 0.725 0.725 0.725
transparency 0}}}
Shape { geometry IndexedFaceSet 
{ creaseAngle 0.50 coordIndex [0,1,2,-1,2,1,3,-1]
coord Coordinate { point [-0.647636 0.140157 0.270078,-0.647636 0.140157 0.320078,-0.647636 -0.140157 0.270078,-0.647636 -0.140157 0.320078]
}}
appearance Appearance{material Material{diffuseColor 0.725 0.725 0.725
transparency 0}}}
Shape { geometry IndexedFaceSet 
{ creaseAngle 0.50 coordIndex [0,1,2,-1,2,1,3,-1]
coord Coordinate { point [-0.279921 0.140157 0,-0.279921 0.140157 0.0499999,-0.279921 -0.140157 0,-0.279921 -0.140157 0.0499999]
}}
appearance Appearance{material Material{diffuseColor 0.725 0.725 0.725
transparency 0}}}
Shape { geometry IndexedFaceSet 
{ creaseAngle 0.50 coordIndex [0,1,2,-1,2,1,3,-1]
coord Coordinate { point [-0.659841 0.140157 0.0499999,-0.659841 0.140157 0.270078,-0.659841 -0.140157 0.0499999,-0.659841 -0.140157 0.270078]
}}
appearance Appearance{material Material{diffuseColor 0.725 0.725 0.725
transparency 0}}}
Shape { geometry IndexedFaceSet 
{ creaseAngle 0.50 coordIndex [0,1,2,-1,3,1,0,-1]
coord Coordinate { point [-0.647636 -0.140157 0.270078,-0.659841 0.140157 0.270078,-0.647636 0.140157 0.270078,-0.659841 -0.140157 0.270078]
}}
appearance Appearance{material Material{diffuseColor 0.725 0.725 0.725
transparency 0}}}
Shape { geometry IndexedFaceSet 
{ creaseAngle 0.50 coordIndex [0,1,2,-1,3,1,0,-1]
coord Coordinate { point [-0.279921 -0.140157 0,-0.709841 0.140157 0,-0.279921 0.140157 0,-0.709841 -0.140157 0]
}}
appearance Appearance{material Material{diffuseColor 0.725 0.725 0.725
transparency 0}}}
Shape { geometry IndexedFaceSet 
{ creaseAngle 0.50 coordIndex [0,1,2,-1,3,1,0,-1,4,5,1,-1,1,5,2,-1,0,6,3,-1,6,7,3,-1]
coord Coordinate { point [-0.709841 -0.140157 0,-0.659841 -0.140157 0.270078,-0.709841 -0.140157 0.320078,-0.659841 -0.140157 0.0499999,-0.647636 -0.140157 0.270078,-0.647636 -0.140157 0.320078,-0.279921 -0.140157 0,-0.279921 -0.140157 0.0499999]
}}
appearance Appearance{material Material{diffuseColor 0.725 0.725 0.725
transparency 0}}}
