#VRML V2.0 utf8
#kicad StepUp wrl exported

Shape { geometry IndexedFaceSet 
{ creaseAngle 0.50 coordIndex [0,1,2,-1,2,1,3,-1,3,4,5,-1,1,4,3,-1,5,6,7,-1,4,6,5,-1,7,8,9,-1,6,8,7,-1,9,10,11,-1,8,10,9,-1,11,12,13,-1,10,12,11,-1,13,14,15,-1,12,14,13,-1,15,16,17,-1,14,16,15,-1,17,18,19,-1,16,18,17,-1,19,20,21,-1,18,20,19,-1,21,22,23,-1,20,22,21,-1,23,24,25,-1,22,24,23,-1,25,26,27,-1,24,26,25,-1]
coord Coordinate { point [-0.295275 0.3937 0.31496,-0.298135 0.417255 0.31496,-0.295275 0.3937 0.307086,-0.298135 0.417255 0.307086,-0.306549 0.43944 0.31496,-0.306549 0.43944 0.307086,-0.320028 0.458968 0.31496,-0.320028 0.458968 0.307086,-0.337788 0.474702 0.31496,-0.337788 0.474702 0.307086,-0.358798 0.485729 0.31496,-0.358798 0.485729 0.307086,-0.381836 0.491407 0.31496,-0.381836 0.491407 0.307086,-0.405564 0.491407 0.31496,-0.405564 0.491407 0.307086,-0.428602 0.485729 0.31496,-0.428602 0.485729 0.307086,-0.449612 0.474702 0.31496,-0.449612 0.474702 0.307086,-0.467372 0.458968 0.31496,-0.467372 0.458968 0.307086,-0.480851 0.43944 0.31496,-0.480851 0.43944 0.307086,-0.489265 0.417255 0.31496,-0.489265 0.417255 0.307086,-0.492125 0.3937 0.31496,-0.492125 0.3937 0.307086]
}}
appearance Appearance{material Material{diffuseColor 1 1 1
transparency 0}}}
Shape { geometry IndexedFaceSet 
{ creaseAngle 0.50 coordIndex [0,1,2,-1,0,3,1,-1,4,2,5,-1,4,0,2,-1,6,5,7,-1,6,4,5,-1,8,7,9,-1,8,6,7,-1,10,9,11,-1,10,8,9,-1,12,11,13,-1,12,10,11,-1,14,13,15,-1,14,12,13,-1]
coord Coordinate { point [-0.467395 0.343254 4.20402e-16,-0.478345 0.344488 0.007874,-0.467395 0.343254 0.007874,-0.478345 0.344488 4.56559e-16,-0.456993 0.339614 4.17284e-16,-0.456993 0.339614 0.007874,-0.447662 0.333751 4.13911e-16,-0.447662 0.333751 0.007874,-0.43987 0.325958 4.1045e-16,-0.43987 0.325958 0.007874,-0.434007 0.316628 4.07076e-16,-0.434007 0.316628 0.007874,-0.430367 0.306226 4.03959e-16,-0.430367 0.306226 0.007874,-0.429133 0.295275 3.91658e-16,-0.429133 0.295275 0.007874]
}}
appearance Appearance{material Material{diffuseColor 0.752941 0.752941 0.752941
transparency 0}}}
Shape { geometry IndexedFaceSet 
{ creaseAngle 0.50 coordIndex [0,1,2,-1,0,3,1,-1,4,2,5,-1,4,0,2,-1,6,5,7,-1,6,4,5,-1,8,7,9,-1,8,6,7,-1,10,9,11,-1,10,8,9,-1,12,11,13,-1,12,10,11,-1,14,13,15,-1,14,12,13,-1]
coord Coordinate { point [-0.467395 0.146404 3.76693e-16,-0.478345 0.147638 0.007874,-0.467395 0.146404 0.007874,-0.478345 0.147638 4.15501e-16,-0.456993 0.142764 3.73575e-16,-0.456993 0.142764 0.007874,-0.447662 0.136901 3.70201e-16,-0.447662 0.136901 0.007874,-0.43987 0.129108 3.66741e-16,-0.43987 0.129108 0.007874,-0.434007 0.119778 3.63367e-16,-0.434007 0.119778 0.007874,-0.430367 0.109376 3.60249e-16,-0.430367 0.109376 0.007874,-0.429133 0.098425 3.506e-16,-0.429133 0.098425 0.007874]
}}
appearance Appearance{material Material{diffuseColor 0.752941 0.752941 0.752941
transparency 0}}}
Shape { geometry IndexedFaceSet 
{ creaseAngle 0.50 coordIndex [0,1,2,-1,0,3,1,-1,4,2,5,-1,4,0,2,-1,6,5,7,-1,6,4,5,-1,8,7,9,-1,8,6,7,-1,10,9,11,-1,10,8,9,-1,12,11,13,-1,12,10,11,-1,14,13,15,-1,14,12,13,-1]
coord Coordinate { point [-0.467395 -0.0504464 3.32983e-16,-0.478345 -0.0492125 0.007874,-0.467395 -0.0504464 0.007874,-0.478345 -0.0492125 3.74443e-16,-0.456993 -0.0540861 3.29865e-16,-0.456993 -0.0540861 0.007874,-0.447662 -0.0599491 3.26492e-16,-0.447662 -0.0599491 0.007874,-0.43987 -0.0677415 3.23031e-16,-0.43987 -0.0677415 0.007874,-0.434007 -0.0770725 3.19657e-16,-0.434007 -0.0770725 0.007874,-0.430367 -0.0874742 3.1654e-16,-0.430367 -0.0874742 0.007874,-0.429133 -0.098425 3.09542e-16,-0.429133 -0.098425 0.007874]
}}
appearance Appearance{material Material{diffuseColor 0.752941 0.752941 0.752941
transparency 0}}}
Shape { geometry IndexedFaceSet 
{ creaseAngle 0.50 coordIndex [0,1,2,-1,0,3,1,-1,4,2,5,-1,4,0,2,-1,6,5,7,-1,6,4,5,-1,8,7,9,-1,8,6,7,-1,10,9,11,-1,10,8,9,-1,12,11,13,-1,12,10,11,-1,14,13,15,-1,14,12,13,-1]
coord Coordinate { point [-0.467395 -0.247296 2.89274e-16,-0.478345 -0.246062 0.007874,-0.467395 -0.247296 0.007874,-0.478345 -0.246062 3.33385e-16,-0.456993 -0.250936 2.86156e-16,-0.456993 -0.250936 0.007874,-0.447662 -0.256799 2.82782e-16,-0.447662 -0.256799 0.007874,-0.43987 -0.264592 2.79322e-16,-0.43987 -0.264592 0.007874,-0.434007 -0.273922 2.75948e-16,-0.434007 -0.273922 0.007874,-0.430367 -0.284324 2.7283e-16,-0.430367 -0.284324 0.007874,-0.429133 -0.295275 2.68484e-16,-0.429133 -0.295275 0.007874]
}}
appearance Appearance{material Material{diffuseColor 0.752941 0.752941 0.752941
transparency 0}}}
Shape { geometry IndexedFaceSet 
{ creaseAngle 0.50 coordIndex [0,1,2,-1,3,4,5,-1,3,5,6,-1,7,2,1,-1,3,6,8,-1,3,8,9,-1,3,9,10,-1,3,10,11,-1,3,11,12,-1,3,12,13,-1,14,0,2,-1,3,15,4,-1,3,13,16,-1,17,2,7,-1,18,2,17,-1,19,2,18,-1,20,2,19,-1,16,21,22,-1,16,22,23,-1,16,23,24,-1,16,24,14,-1,16,14,2,-1,15,20,25,-1,15,2,20,-1,26,21,16,-1,4,15,25,-1,27,26,16,-1,28,27,16,-1,29,28,16,-1,13,29,16,-1]
coord Coordinate { point [-0.337788 0.474702 0.31496,-0.320028 0.458968 0.31496,0.59055 0.59055 0.31496,-0.59055 -0.59055 0.31496,-0.337788 0.312698 0.31496,-0.358798 0.301671 0.31496,-0.381836 0.295993 0.31496,-0.306549 0.43944 0.31496,-0.405564 0.295993 0.31496,-0.428602 0.301671 0.31496,-0.449612 0.312698 0.31496,-0.467372 0.328432 0.31496,-0.480851 0.34796 0.31496,-0.489265 0.370145 0.31496,-0.358798 0.485729 0.31496,0.59055 -0.59055 0.31496,-0.59055 0.59055 0.31496,-0.298135 0.417255 0.31496,-0.295275 0.3937 0.31496,-0.298135 0.370145 0.31496,-0.306549 0.34796 0.31496,-0.449612 0.474702 0.31496,-0.428602 0.485729 0.31496,-0.405564 0.491407 0.31496,-0.381836 0.491407 0.31496,-0.320028 0.328432 0.31496,-0.467372 0.458968 0.31496,-0.480851 0.43944 0.31496,-0.489265 0.417255 0.31496,-0.492125 0.3937 0.31496]
}}
appearance Appearance{material Material{diffuseColor 0.25098 0.25098 0.25098
transparency 0}}}
Shape { geometry IndexedFaceSet 
{ creaseAngle 0.50 coordIndex [0,1,2,-1,3,1,0,-1,3,4,1,-1,5,6,7,-1,4,6,5,-1,3,6,4,-1,3,8,6,-1,9,10,11,-1,8,10,9,-1,12,13,14,-1,15,13,12,-1,16,17,18,-1,10,19,15,-1,13,19,16,-1,15,19,13,-1,16,19,17,-1,3,19,8,-1,8,19,10,-1]
coord Coordinate { point [0.59055 0.59055 0.007874,0.59055 0.344487 0.07874,0.59055 0.344487 0.007874,0.59055 0.59055 0.31496,0.59055 0.246062 0.07874,0.59055 0.246062 0.007874,0.59055 0.147637 0.07874,0.59055 0.147637 0.007874,0.59055 0.0492125 0.07874,0.59055 0.0492125 0.007874,0.59055 -0.0492125 0.07874,0.59055 -0.0492125 0.007874,0.59055 -0.147638 0.007874,0.59055 -0.246063 0.07874,0.59055 -0.246063 0.007874,0.59055 -0.147638 0.07874,0.59055 -0.344488 0.07874,0.59055 -0.59055 0.007874,0.59055 -0.344488 0.007874,0.59055 -0.59055 0.31496]
}}
appearance Appearance{material Material{diffuseColor 0.25098 0.25098 0.25098
transparency 0}}}
Shape { geometry IndexedFaceSet 
{ creaseAngle 0.50 coordIndex [0,1,2,-1,2,1,3,-1]
coord Coordinate { point [0.59055 -0.59055 0.31496,-0.59055 -0.59055 0.31496,0.59055 -0.59055 0.007874,-0.59055 -0.59055 0.007874]
}}
appearance Appearance{material Material{diffuseColor 0.25098 0.25098 0.25098
transparency 0}}}
Shape { geometry IndexedFaceSet 
{ creaseAngle 0.50 coordIndex [0,1,2,-1,3,1,0,-1,3,4,1,-1,5,6,7,-1,4,6,5,-1,3,6,4,-1,3,8,6,-1,9,10,11,-1,8,10,9,-1,12,13,14,-1,15,13,12,-1,16,17,18,-1,13,19,16,-1,10,19,15,-1,15,19,13,-1,16,19,17,-1,3,19,8,-1,8,19,10,-1]
coord Coordinate { point [-0.59055 -0.59055 0.007874,-0.59055 -0.344487 0.07874,-0.59055 -0.344487 0.007874,-0.59055 -0.59055 0.31496,-0.59055 -0.246062 0.07874,-0.59055 -0.246062 0.007874,-0.59055 -0.147637 0.07874,-0.59055 -0.147637 0.007874,-0.59055 -0.0492125 0.07874,-0.59055 -0.0492125 0.007874,-0.59055 0.0492125 0.07874,-0.59055 0.0492125 0.007874,-0.59055 0.147638 0.007874,-0.59055 0.246063 0.07874,-0.59055 0.246063 0.007874,-0.59055 0.147638 0.07874,-0.59055 0.344488 0.07874,-0.59055 0.59055 0.007874,-0.59055 0.344488 0.007874,-0.59055 0.59055 0.31496]
}}
appearance Appearance{material Material{diffuseColor 0.25098 0.25098 0.25098
transparency 0}}}
Shape { geometry IndexedFaceSet 
{ creaseAngle 0.50 coordIndex [0,1,2,-1,2,1,3,-1]
coord Coordinate { point [-0.59055 0.59055 0.31496,0.59055 0.59055 0.31496,-0.59055 0.59055 0.007874,0.59055 0.59055 0.007874]
}}
appearance Appearance{material Material{diffuseColor 0.25098 0.25098 0.25098
transparency 0}}}
Shape { geometry IndexedFaceSet 
{ creaseAngle 0.50 coordIndex [0,1,2,-1,2,1,3,-1,3,4,5,-1,1,4,3,-1,5,6,7,-1,4,6,5,-1,7,8,9,-1,6,8,7,-1,9,10,11,-1,8,10,9,-1,11,12,13,-1,10,12,11,-1,13,14,15,-1,12,14,13,-1,15,16,17,-1,14,16,15,-1,17,18,19,-1,16,18,17,-1,19,20,21,-1,18,20,19,-1,21,22,23,-1,20,22,21,-1,23,24,25,-1,22,24,23,-1,25,26,27,-1,24,26,25,-1]
coord Coordinate { point [-0.492125 0.3937 0.31496,-0.489265 0.370145 0.31496,-0.492125 0.3937 0.307086,-0.489265 0.370145 0.307086,-0.480851 0.34796 0.31496,-0.480851 0.34796 0.307086,-0.467372 0.328432 0.31496,-0.467372 0.328432 0.307086,-0.449612 0.312698 0.31496,-0.449612 0.312698 0.307086,-0.428602 0.301671 0.31496,-0.428602 0.301671 0.307086,-0.405564 0.295993 0.31496,-0.405564 0.295993 0.307086,-0.381836 0.295993 0.31496,-0.381836 0.295993 0.307086,-0.358798 0.301671 0.31496,-0.358798 0.301671 0.307086,-0.337788 0.312698 0.31496,-0.337788 0.312698 0.307086,-0.320028 0.328432 0.31496,-0.320028 0.328432 0.307086,-0.306549 0.34796 0.31496,-0.306549 0.34796 0.307086,-0.298135 0.370145 0.31496,-0.298135 0.370145 0.307086,-0.295275 0.3937 0.31496,-0.295275 0.3937 0.307086]
}}
appearance Appearance{material Material{diffuseColor 1 1 1
transparency 0}}}
Shape { geometry IndexedFaceSet 
{ creaseAngle 0.50 coordIndex [0,1,2,-1,3,1,0,-1,4,5,1,-1,1,5,2,-1]
coord Coordinate { point [0.478346 -0.246063 1.14838e-16,0.59055 -0.246063 0.007874,0.594487 -0.246063 9.29831e-17,0.478346 -0.246063 0.007874,0.59055 -0.246063 0.07874,0.594487 -0.246063 0.07874]
}}
appearance Appearance{material Material{diffuseColor 0.752941 0.752941 0.752941
transparency 0}}}
Shape { geometry IndexedFaceSet 
{ creaseAngle 0.50 coordIndex [0,1,2,-1,1,3,2,-1,2,4,0,-1,2,5,4,-1]
coord Coordinate { point [0.594487 -0.147638 1.13512e-16,0.594487 -0.147638 0.07874,0.59055 -0.147638 0.007874,0.59055 -0.147638 0.07874,0.478346 -0.147638 1.35367e-16,0.478346 -0.147638 0.007874]
}}
appearance Appearance{material Material{diffuseColor 0.752941 0.752941 0.752941
transparency 0}}}
Shape { geometry IndexedFaceSet 
{ creaseAngle 0.50 coordIndex [0,1,2,-1,2,1,3,-1]
coord Coordinate { point [0.59055 -0.147638 0.07874,0.594487 -0.147638 0.07874,0.59055 -0.0492125 0.07874,0.594487 -0.0492125 0.07874]
}}
appearance Appearance{material Material{diffuseColor 0.752941 0.752941 0.752941
transparency 0}}}
Shape { geometry IndexedFaceSet 
{ creaseAngle 0.50 coordIndex [0,1,2,-1,3,1,0,-1,4,5,1,-1,1,5,2,-1]
coord Coordinate { point [0.478346 -0.0492125 1.55896e-16,0.59055 -0.0492125 0.007874,0.594487 -0.0492125 1.34041e-16,0.478346 -0.0492125 0.007874,0.59055 -0.0492125 0.07874,0.594487 -0.0492125 0.07874]
}}
appearance Appearance{material Material{diffuseColor 0.752941 0.752941 0.752941
transparency 0}}}
Shape { geometry IndexedFaceSet 
{ creaseAngle 0.50 coordIndex [0,1,2,-1,1,3,2,-1,2,4,0,-1,2,5,4,-1]
coord Coordinate { point [0.594487 0.0492125 1.5457e-16,0.594487 0.0492125 0.07874,0.59055 0.0492125 0.007874,0.59055 0.0492125 0.07874,0.478346 0.0492125 1.76425e-16,0.478346 0.0492125 0.007874]
}}
appearance Appearance{material Material{diffuseColor 0.752941 0.752941 0.752941
transparency 0}}}
Shape { geometry IndexedFaceSet 
{ creaseAngle 0.50 coordIndex [0,1,2,-1,2,1,3,-1]
coord Coordinate { point [0.59055 0.0492125 0.07874,0.594487 0.0492125 0.07874,0.59055 0.147637 0.07874,0.594487 0.147637 0.07874]
}}
appearance Appearance{material Material{diffuseColor 0.752941 0.752941 0.752941
transparency 0}}}
Shape { geometry IndexedFaceSet 
{ creaseAngle 0.50 coordIndex [0,1,2,-1,3,1,0,-1,4,5,1,-1,1,5,2,-1]
coord Coordinate { point [0.478346 0.147637 1.96954e-16,0.59055 0.147637 0.007874,0.594487 0.147637 1.75099e-16,0.478346 0.147637 0.007874,0.59055 0.147637 0.07874,0.594487 0.147637 0.07874]
}}
appearance Appearance{material Material{diffuseColor 0.752941 0.752941 0.752941
transparency 0}}}
Shape { geometry IndexedFaceSet 
{ creaseAngle 0.50 coordIndex [0,1,2,-1,1,3,2,-1,2,4,0,-1,2,5,4,-1]
coord Coordinate { point [0.594487 0.246062 1.95628e-16,0.594487 0.246062 0.07874,0.59055 0.246062 0.007874,0.59055 0.246062 0.07874,0.478346 0.246062 2.17483e-16,0.478346 0.246062 0.007874]
}}
appearance Appearance{material Material{diffuseColor 0.752941 0.752941 0.752941
transparency 0}}}
Shape { geometry IndexedFaceSet 
{ creaseAngle 0.50 coordIndex [0,1,2,-1,2,1,3,-1]
coord Coordinate { point [0.59055 0.246062 0.07874,0.594487 0.246062 0.07874,0.59055 0.344487 0.07874,0.594487 0.344487 0.07874]
}}
appearance Appearance{material Material{diffuseColor 0.752941 0.752941 0.752941
transparency 0}}}
Shape { geometry IndexedFaceSet 
{ creaseAngle 0.50 coordIndex [0,1,2,-1,3,1,0,-1,4,5,1,-1,1,5,2,-1]
coord Coordinate { point [0.478346 0.344487 2.38012e-16,0.59055 0.344487 0.007874,0.594487 0.344487 2.16157e-16,0.478346 0.344487 0.007874,0.59055 0.344487 0.07874,0.594487 0.344487 0.07874]
}}
appearance Appearance{material Material{diffuseColor 0.752941 0.752941 0.752941
transparency 0}}}
Shape { geometry IndexedFaceSet 
{ creaseAngle 0.50 coordIndex [0,1,2,-1,1,3,2,-1,2,4,0,-1,2,5,4,-1]
coord Coordinate { point [0.594487 -0.344488 7.2454e-17,0.594487 -0.344488 0.07874,0.59055 -0.344488 0.007874,0.59055 -0.344488 0.07874,0.478346 -0.344488 9.43088e-17,0.478346 -0.344488 0.007874]
}}
appearance Appearance{material Material{diffuseColor 0.752941 0.752941 0.752941
transparency 0}}}
Shape { geometry IndexedFaceSet 
{ creaseAngle 0.50 coordIndex [0,1,2,-1,2,1,3,-1]
coord Coordinate { point [0.59055 -0.344488 0.07874,0.594487 -0.344488 0.07874,0.59055 -0.246063 0.07874,0.594487 -0.246063 0.07874]
}}
appearance Appearance{material Material{diffuseColor 0.752941 0.752941 0.752941
transparency 0}}}
Shape { geometry IndexedFaceSet 
{ creaseAngle 0.50 coordIndex [0,1,2,-1,3,4,5,-1,3,5,6,-1,7,1,8,-1,9,10,11,-1,7,2,1,-1,12,1,0,-1,13,8,14,-1,13,7,8,-1,15,16,4,-1,15,17,16,-1,15,4,3,-1,18,1,12,-1,19,20,11,-1,21,14,22,-1,21,13,14,-1,23,11,20,-1,24,17,15,-1,23,25,9,-1,23,9,11,-1,26,19,11,-1,27,1,18,-1,28,25,23,-1,29,17,24,-1,28,30,25,-1,31,26,11,-1,32,1,27,-1,33,17,29,-1,34,35,30,-1,36,17,33,-1,34,30,28,-1,37,31,11,-1,38,17,36,-1,39,40,41,-1,39,41,35,-1,39,35,34,-1,42,21,22,-1,43,44,45,-1,43,46,44,-1,47,45,44,-1,47,44,48,-1,49,46,43,-1,49,32,46,-1,49,1,32,-1,50,47,48,-1,50,48,51,-1,52,1,49,-1,53,51,54,-1,53,50,51,-1,55,56,57,-1,55,57,58,-1,59,58,60,-1,59,55,58,-1,61,54,62,-1,61,53,54,-1,63,60,64,-1,63,59,60,-1,65,40,39,-1,65,66,67,-1,65,67,68,-1,65,68,69,-1,65,69,70,-1,71,72,73,-1,65,70,40,-1,71,74,75,-1,71,75,72,-1,76,73,72,-1,76,72,77,-1,78,74,71,-1,79,64,80,-1,79,63,64,-1,81,76,77,-1,81,77,82,-1,81,82,83,-1,84,85,74,-1,84,74,78,-1,86,81,83,-1,87,39,88,-1,87,88,89,-1,87,89,90,-1,87,90,91,-1,87,91,92,-1,87,92,93,-1,87,93,94,-1,87,94,95,-1,87,95,96,-1,87,97,98,-1,87,98,65,-1,87,65,39,-1,99,80,66,-1,99,66,65,-1,99,79,80,-1,100,99,65,-1,101,100,65,-1,102,83,103,-1,102,86,83,-1,104,105,106,-1,104,106,107,-1,104,107,108,-1,109,107,110,-1,109,108,107,-1,111,105,104,-1,112,110,113,-1,112,109,110,-1,114,112,113,-1,114,113,115,-1,116,105,111,-1,116,117,105,-1,116,111,118,-1,119,120,121,-1,116,118,122,-1,119,121,123,-1,124,123,125,-1,124,119,123,-1,126,116,122,-1,127,124,125,-1,127,125,128,-1,129,128,130,-1,129,127,128,-1,131,129,130,-1,131,130,132,-1,133,116,126,-1,134,131,132,-1,134,132,135,-1,136,116,133,-1,137,134,135,-1,138,139,116,-1,138,116,136,-1,137,135,140,-1,141,142,139,-1,141,139,138,-1,143,142,141,-1,144,115,145,-1,144,114,115,-1,146,147,148,-1,146,148,149,-1,146,149,150,-1,146,150,151,-1,146,151,142,-1,146,142,143,-1,146,143,152,-1,65,6,153,-1,65,153,137,-1,65,137,140,-1,65,140,154,-1,65,154,101,-1,116,1,52,-1,116,52,85,-1,116,85,84,-1,116,84,117,-1,146,17,38,-1,146,38,147,-1,155,156,157,-1,155,157,158,-1,159,155,158,-1,159,158,160,-1,161,159,160,-1,161,160,162,-1,163,161,162,-1,163,162,164,-1,165,37,11,-1,166,163,164,-1,166,164,167,-1,168,166,167,-1,168,167,169,-1,170,168,169,-1,170,169,171,-1,17,172,16,-1,22,14,173,-1,22,173,174,-1,22,174,175,-1,22,175,176,-1,22,176,165,-1,22,165,11,-1,6,170,171,-1,6,5,177,-1,6,177,178,-1,6,178,179,-1,6,179,180,-1,6,180,181,-1,6,181,170,-1,6,171,153,-1]
coord Coordinate { point [0.437844 0.323231 0.007874,0.31496 0.421259 0.007874,0.445712 0.332111 0.007874,-0.313973 -0.43002 0.007874,-0.467395 -0.343254 0.007874,-0.456993 -0.339614 0.007874,-0.31496 -0.421259 0.007874,0.455475 0.338851 0.007874,0.313973 0.43002 0.007874,-0.478345 0.344488 0.007874,-0.59055 0.344488 0.007874,-0.59055 0.59055 0.007874,0.432331 0.312726 0.007874,0.466568 0.343057 0.007874,0.311061 0.438341 0.007874,-0.311061 -0.438341 0.007874,-0.478345 -0.344487 0.007874,-0.59055 -0.59055 0.007874,0.429492 0.301207 0.007874,-0.300137 0.45204 0.007874,-0.306371 0.445806 0.007874,0.478346 0.344487 0.007874,0.59055 0.59055 0.007874,-0.311061 0.438341 0.007874,-0.306371 -0.445806 0.007874,-0.467395 0.343254 0.007874,-0.292672 0.45673 0.007874,0.429492 0.289343 0.007874,-0.313973 0.43002 0.007874,-0.300137 -0.45204 0.007874,-0.456993 0.339614 0.007874,-0.284351 0.459642 0.007874,0.432331 0.277824 0.007874,-0.292672 -0.45673 0.007874,-0.31496 0.421259 0.007874,-0.447662 0.333751 0.007874,-0.284351 -0.459642 0.007874,-0.27559 0.460629 0.007874,-0.27559 -0.460629 0.007874,-0.31496 0.401574 0.007874,-0.434007 0.316628 0.007874,-0.43987 0.325958 0.007874,0.59055 0.344487 0.007874,0.437844 0.126381 0.007874,0.445712 0.258439 0.007874,0.445712 0.135261 0.007874,0.437844 0.267319 0.007874,0.455475 0.142001 0.007874,0.455475 0.251699 0.007874,0.432331 0.115876 0.007874,0.466568 0.146207 0.007874,0.466568 0.247493 0.007874,0.429492 0.104357 0.007874,0.478346 0.147637 0.007874,0.478346 0.246062 0.007874,-0.478345 0.147638 0.007874,-0.59055 0.147638 0.007874,-0.59055 0.246063 0.007874,-0.478345 0.246063 0.007874,-0.467395 0.146404 0.007874,-0.467395 0.247296 0.007874,0.59055 0.147637 0.007874,0.59055 0.246062 0.007874,-0.456993 0.142764 0.007874,-0.456993 0.250936 0.007874,-0.31496 0.283464 0.007874,-0.43987 0.264592 0.007874,-0.434007 0.273922 0.007874,-0.430367 0.284324 0.007874,-0.429133 0.295275 0.007874,-0.430367 0.306226 0.007874,0.437844 -0.0704691 0.007874,0.445712 0.0615889 0.007874,0.445712 -0.0615889 0.007874,0.432331 0.080974 0.007874,0.437844 0.0704691 0.007874,0.455475 -0.0548495 0.007874,0.455475 0.0548495 0.007874,0.432331 -0.080974 0.007874,-0.447662 0.136901 0.007874,-0.447662 0.256799 0.007874,0.466568 -0.0506425 0.007874,0.466568 0.0506425 0.007874,0.478346 0.0492125 0.007874,0.429492 -0.0924931 0.007874,0.429492 0.0924931 0.007874,0.478346 -0.0492125 0.007874,-0.275799 0.298316 0.007874,-0.300827 0.399858 0.007874,-0.287516 0.39481 0.007874,-0.275799 0.386722 0.007874,-0.266359 0.376066 0.007874,-0.259743 0.36346 0.007874,-0.256336 0.349637 0.007874,-0.256336 0.335401 0.007874,-0.259743 0.321578 0.007874,-0.266359 0.308972 0.007874,-0.287516 0.290228 0.007874,-0.300827 0.28518 0.007874,-0.43987 0.129108 0.007874,-0.434007 0.119778 0.007874,-0.430367 0.109376 0.007874,0.59055 -0.0492125 0.007874,0.59055 0.0492125 0.007874,0.437844 -0.267319 0.007874,0.432331 -0.115876 0.007874,0.437844 -0.126381 0.007874,0.445712 -0.135261 0.007874,0.445712 -0.258439 0.007874,0.455475 -0.251699 0.007874,0.455475 -0.142001 0.007874,0.432331 -0.277824 0.007874,0.466568 -0.247493 0.007874,0.466568 -0.146207 0.007874,0.478346 -0.246063 0.007874,0.478346 -0.147638 0.007874,0.31496 -0.421259 0.007874,0.429492 -0.104357 0.007874,0.429492 -0.289343 0.007874,-0.478345 -0.0492125 0.007874,-0.59055 -0.0492125 0.007874,-0.59055 0.0492125 0.007874,0.429492 -0.301207 0.007874,-0.478345 0.0492125 0.007874,-0.467395 -0.0504464 0.007874,-0.467395 0.0504464 0.007874,0.432331 -0.312726 0.007874,-0.456993 -0.0540861 0.007874,-0.456993 0.0540861 0.007874,-0.447662 -0.0599491 0.007874,-0.447662 0.0599491 0.007874,-0.43987 -0.0677415 0.007874,-0.43987 0.0677415 0.007874,0.437844 -0.323231 0.007874,-0.434007 -0.0770725 0.007874,-0.434007 0.0770725 0.007874,0.445712 -0.332111 0.007874,-0.430367 -0.0874742 0.007874,0.455475 -0.338851 0.007874,0.313973 -0.43002 0.007874,-0.430367 0.0874742 0.007874,0.466568 -0.343057 0.007874,0.311061 -0.438341 0.007874,0.478346 -0.344488 0.007874,0.59055 -0.246063 0.007874,0.59055 -0.147638 0.007874,0.59055 -0.59055 0.007874,0.27559 -0.460629 0.007874,0.284351 -0.459642 0.007874,0.292672 -0.45673 0.007874,0.300137 -0.45204 0.007874,0.306371 -0.445806 0.007874,0.59055 -0.344488 0.007874,-0.429133 -0.098425 0.007874,-0.429133 0.098425 0.007874,-0.478345 -0.246062 0.007874,-0.59055 -0.246062 0.007874,-0.59055 -0.147637 0.007874,-0.478345 -0.147637 0.007874,-0.467395 -0.247296 0.007874,-0.467395 -0.146404 0.007874,-0.456993 -0.250936 0.007874,-0.456993 -0.142764 0.007874,-0.447662 -0.256799 0.007874,-0.447662 -0.136901 0.007874,0.27559 0.460629 0.007874,-0.43987 -0.264592 0.007874,-0.43987 -0.129108 0.007874,-0.434007 -0.273922 0.007874,-0.434007 -0.119778 0.007874,-0.430367 -0.284324 0.007874,-0.430367 -0.109376 0.007874,-0.59055 -0.344487 0.007874,0.306371 0.445806 0.007874,0.300137 0.45204 0.007874,0.292672 0.45673 0.007874,0.284351 0.459642 0.007874,-0.447662 -0.333751 0.007874,-0.43987 -0.325958 0.007874,-0.434007 -0.316628 0.007874,-0.430367 -0.306226 0.007874,-0.429133 -0.295275 0.007874]
}}
appearance Appearance{material Material{diffuseColor 0.25098 0.25098 0.25098
transparency 0}}}
Shape { geometry IndexedFaceSet 
{ creaseAngle 0.50 coordIndex [0,1,2,-1,3,1,0,-1]
coord Coordinate { point [-0.594487 -0.246062 0.07874,-0.59055 -0.344487 0.07874,-0.59055 -0.246062 0.07874,-0.594487 -0.344487 0.07874]
}}
appearance Appearance{material Material{diffuseColor 0.752941 0.752941 0.752941
transparency 0}}}
Shape { geometry IndexedFaceSet 
{ creaseAngle 0.50 coordIndex [0,1,2,-1,3,0,2,-1,4,2,1,-1,5,2,4,-1]
coord Coordinate { point [-0.594487 -0.344487 0.07874,-0.594487 -0.344487 3.12856e-16,-0.59055 -0.344487 0.007874,-0.59055 -0.344487 0.07874,-0.478345 -0.344487 3.12856e-16,-0.478345 -0.344487 0.007874]
}}
appearance Appearance{material Material{diffuseColor 0.752941 0.752941 0.752941
transparency 0}}}
Shape { geometry IndexedFaceSet 
{ creaseAngle 0.50 coordIndex [0,1,2,-1,0,2,3,-1,4,5,0,-1,4,0,3,-1]
coord Coordinate { point [-0.59055 0.344488 0.007874,-0.478345 0.344488 0.007874,-0.478345 0.344488 4.56559e-16,-0.594487 0.344488 4.56559e-16,-0.594487 0.344488 0.07874,-0.59055 0.344488 0.07874]
}}
appearance Appearance{material Material{diffuseColor 0.752941 0.752941 0.752941
transparency 0}}}
Shape { geometry IndexedFaceSet 
{ creaseAngle 0.50 coordIndex [0,1,2,-1,3,1,0,-1]
coord Coordinate { point [-0.594487 0.344488 0.07874,-0.59055 0.246063 0.07874,-0.59055 0.344488 0.07874,-0.594487 0.246063 0.07874]
}}
appearance Appearance{material Material{diffuseColor 0.752941 0.752941 0.752941
transparency 0}}}
Shape { geometry IndexedFaceSet 
{ creaseAngle 0.50 coordIndex [0,1,2,-1,3,0,2,-1,4,2,1,-1,5,2,4,-1]
coord Coordinate { point [-0.594487 0.246063 0.07874,-0.594487 0.246063 4.3603e-16,-0.59055 0.246063 0.007874,-0.59055 0.246063 0.07874,-0.478345 0.246063 4.3603e-16,-0.478345 0.246063 0.007874]
}}
appearance Appearance{material Material{diffuseColor 0.752941 0.752941 0.752941
transparency 0}}}
Shape { geometry IndexedFaceSet 
{ creaseAngle 0.50 coordIndex [0,1,2,-1,0,2,3,-1,4,5,0,-1,4,0,3,-1]
coord Coordinate { point [-0.59055 0.147638 0.007874,-0.478345 0.147638 0.007874,-0.478345 0.147638 4.15501e-16,-0.594487 0.147638 4.15501e-16,-0.594487 0.147638 0.07874,-0.59055 0.147638 0.07874]
}}
appearance Appearance{material Material{diffuseColor 0.752941 0.752941 0.752941
transparency 0}}}
Shape { geometry IndexedFaceSet 
{ creaseAngle 0.50 coordIndex [0,1,2,-1,3,1,0,-1]
coord Coordinate { point [-0.594487 0.147638 0.07874,-0.59055 0.0492125 0.07874,-0.59055 0.147638 0.07874,-0.594487 0.0492125 0.07874]
}}
appearance Appearance{material Material{diffuseColor 0.752941 0.752941 0.752941
transparency 0}}}
Shape { geometry IndexedFaceSet 
{ creaseAngle 0.50 coordIndex [0,1,2,-1,3,0,2,-1,4,2,1,-1,5,2,4,-1]
coord Coordinate { point [-0.594487 0.0492125 0.07874,-0.594487 0.0492125 3.94972e-16,-0.59055 0.0492125 0.007874,-0.59055 0.0492125 0.07874,-0.478345 0.0492125 3.94972e-16,-0.478345 0.0492125 0.007874]
}}
appearance Appearance{material Material{diffuseColor 0.752941 0.752941 0.752941
transparency 0}}}
Shape { geometry IndexedFaceSet 
{ creaseAngle 0.50 coordIndex [0,1,2,-1,0,2,3,-1,4,5,0,-1,4,0,3,-1]
coord Coordinate { point [-0.59055 -0.0492125 0.007874,-0.478345 -0.0492125 0.007874,-0.478345 -0.0492125 3.74443e-16,-0.594487 -0.0492125 3.74443e-16,-0.594487 -0.0492125 0.07874,-0.59055 -0.0492125 0.07874]
}}
appearance Appearance{material Material{diffuseColor 0.752941 0.752941 0.752941
transparency 0}}}
Shape { geometry IndexedFaceSet 
{ creaseAngle 0.50 coordIndex [0,1,2,-1,3,1,0,-1]
coord Coordinate { point [-0.594487 -0.0492125 0.07874,-0.59055 -0.147637 0.07874,-0.59055 -0.0492125 0.07874,-0.594487 -0.147637 0.07874]
}}
appearance Appearance{material Material{diffuseColor 0.752941 0.752941 0.752941
transparency 0}}}
Shape { geometry IndexedFaceSet 
{ creaseAngle 0.50 coordIndex [0,1,2,-1,3,0,2,-1,4,2,1,-1,5,2,4,-1]
coord Coordinate { point [-0.594487 -0.147637 0.07874,-0.594487 -0.147637 3.53914e-16,-0.59055 -0.147637 0.007874,-0.59055 -0.147637 0.07874,-0.478345 -0.147637 3.53914e-16,-0.478345 -0.147637 0.007874]
}}
appearance Appearance{material Material{diffuseColor 0.752941 0.752941 0.752941
transparency 0}}}
Shape { geometry IndexedFaceSet 
{ creaseAngle 0.50 coordIndex [0,1,2,-1,0,2,3,-1,4,5,0,-1,4,0,3,-1]
coord Coordinate { point [-0.59055 -0.246062 0.007874,-0.478345 -0.246062 0.007874,-0.478345 -0.246062 3.33385e-16,-0.594487 -0.246062 3.33385e-16,-0.594487 -0.246062 0.07874,-0.59055 -0.246062 0.07874]
}}
appearance Appearance{material Material{diffuseColor 0.752941 0.752941 0.752941
transparency 0}}}
Shape { geometry IndexedFaceSet 
{ creaseAngle 0.50 coordIndex [0,1,2,-1,0,2,3,-1,0,4,5,-1,0,5,6,-1,0,6,7,-1,0,7,8,-1,0,8,9,-1,0,9,10,-1,0,10,11,-1,0,11,12,-1,0,12,13,-1,0,13,14,-1,0,14,15,-1,0,15,16,-1,0,16,17,-1,0,17,18,-1,0,18,19,-1,0,19,20,-1,0,20,21,-1,0,21,22,-1,0,22,23,-1,0,23,24,-1,0,24,25,-1,0,25,1,-1]
coord Coordinate { point [-0.467372 0.328432 0.307086,-0.492125 0.3937 0.307086,-0.489265 0.370145 0.307086,-0.480851 0.34796 0.307086,-0.449612 0.312698 0.307086,-0.428602 0.301671 0.307086,-0.405564 0.295993 0.307086,-0.381836 0.295993 0.307086,-0.358798 0.301671 0.307086,-0.337788 0.312698 0.307086,-0.320028 0.328432 0.307086,-0.306549 0.34796 0.307086,-0.298135 0.370145 0.307086,-0.295275 0.3937 0.307086,-0.298135 0.417255 0.307086,-0.306549 0.43944 0.307086,-0.320028 0.458968 0.307086,-0.337788 0.474702 0.307086,-0.358798 0.485729 0.307086,-0.381836 0.491407 0.307086,-0.405564 0.491407 0.307086,-0.428602 0.485729 0.307086,-0.449612 0.474702 0.307086,-0.467372 0.458968 0.307086,-0.480851 0.43944 0.307086,-0.489265 0.417255 0.307086]
}}
appearance Appearance{material Material{diffuseColor 1 1 1
transparency 0}}}
Shape { geometry IndexedFaceSet 
{ creaseAngle 0.50 coordIndex [0,1,2,-1,2,1,3,-1]
coord Coordinate { point [0.594487 -0.246063 0.07874,0.594487 -0.344488 0.07874,0.594487 -0.246063 9.29831e-17,0.594487 -0.344488 7.2454e-17]
}}
appearance Appearance{material Material{diffuseColor 0.752941 0.752941 0.752941
transparency 0}}}
Shape { geometry IndexedFaceSet 
{ creaseAngle 0.50 coordIndex [0,1,2,-1,0,2,3,-1,0,3,4,-1,0,4,5,-1,0,5,6,-1,0,6,7,-1,0,7,8,-1,0,8,9,-1,0,9,10,-1,0,10,11,-1,0,11,12,-1,0,12,13,-1,14,13,15,-1,14,0,13,-1]
coord Coordinate { point [0.478346 -0.344488 9.43088e-17,0.466568 -0.343057 6.06291e-17,0.455475 -0.338851 6.40264e-17,0.445712 -0.332111 6.76908e-17,0.437844 -0.323231 7.14095e-17,0.432331 -0.312726 7.49663e-17,0.429492 -0.301207 7.81544e-17,0.429492 -0.289343 8.07887e-17,0.432331 -0.277824 8.27161e-17,0.437844 -0.267319 8.38244e-17,0.445712 -0.258439 8.40493e-17,0.455475 -0.251699 8.33778e-17,0.466568 -0.247493 8.18488e-17,0.478346 -0.246063 1.14838e-16,0.594487 -0.344488 7.2454e-17,0.594487 -0.246063 9.29831e-17]
}}
appearance Appearance{material Material{diffuseColor 0.752941 0.752941 0.752941
transparency 0}}}
Shape { geometry IndexedFaceSet 
{ creaseAngle 0.50 coordIndex [0,1,2,-1,0,2,3,-1,4,3,5,-1,4,0,3,-1,6,5,7,-1,6,4,5,-1,8,7,9,-1,8,6,7,-1,10,9,11,-1,10,8,9,-1,12,11,13,-1,12,10,11,-1,14,13,15,-1,14,12,13,-1,16,15,17,-1,16,14,15,-1,18,17,19,-1,18,16,17,-1,20,19,21,-1,20,18,19,-1,22,21,23,-1,22,20,21,-1,24,23,25,-1,24,22,23,-1,26,25,27,-1,26,24,25,-1]
coord Coordinate { point [0.466568 -0.343057 6.06291e-17,0.478346 -0.344488 9.43088e-17,0.478346 -0.344488 0.007874,0.466568 -0.343057 0.007874,0.455475 -0.338851 6.40264e-17,0.455475 -0.338851 0.007874,0.445712 -0.332111 6.76908e-17,0.445712 -0.332111 0.007874,0.437844 -0.323231 7.14095e-17,0.437844 -0.323231 0.007874,0.432331 -0.312726 7.49663e-17,0.432331 -0.312726 0.007874,0.429492 -0.301207 7.81544e-17,0.429492 -0.301207 0.007874,0.429492 -0.289343 8.07887e-17,0.429492 -0.289343 0.007874,0.432331 -0.277824 8.27161e-17,0.432331 -0.277824 0.007874,0.437844 -0.267319 8.38244e-17,0.437844 -0.267319 0.007874,0.445712 -0.258439 8.40493e-17,0.445712 -0.258439 0.007874,0.455475 -0.251699 8.33778e-17,0.455475 -0.251699 0.007874,0.466568 -0.247493 8.18488e-17,0.466568 -0.247493 0.007874,0.478346 -0.246063 1.14838e-16,0.478346 -0.246063 0.007874]
}}
appearance Appearance{material Material{diffuseColor 0.752941 0.752941 0.752941
transparency 0}}}
Shape { geometry IndexedFaceSet 
{ creaseAngle 0.50 coordIndex [0,1,2,-1,0,2,3,-1,4,3,5,-1,4,0,3,-1,6,5,7,-1,6,4,5,-1,8,7,9,-1,8,6,7,-1,10,9,11,-1,10,8,9,-1,12,11,13,-1,12,10,11,-1,14,13,15,-1,14,12,13,-1,16,15,17,-1,16,14,15,-1,18,17,19,-1,18,16,17,-1,20,19,21,-1,20,18,19,-1,22,21,23,-1,22,20,21,-1,24,23,25,-1,24,22,23,-1,26,25,27,-1,26,24,25,-1]
coord Coordinate { point [0.466568 -0.146207 1.04339e-16,0.478346 -0.147638 1.35367e-16,0.478346 -0.147638 0.007874,0.466568 -0.146207 0.007874,0.455475 -0.142001 1.07736e-16,0.455475 -0.142001 0.007874,0.445712 -0.135261 1.114e-16,0.445712 -0.135261 0.007874,0.437844 -0.126381 1.15119e-16,0.437844 -0.126381 0.007874,0.432331 -0.115876 1.18676e-16,0.432331 -0.115876 0.007874,0.429492 -0.104357 1.21864e-16,0.429492 -0.104357 0.007874,0.429492 -0.0924931 1.24498e-16,0.429492 -0.0924931 0.007874,0.432331 -0.080974 1.26426e-16,0.432331 -0.080974 0.007874,0.437844 -0.0704691 1.27534e-16,0.437844 -0.0704691 0.007874,0.445712 -0.0615889 1.27759e-16,0.445712 -0.0615889 0.007874,0.455475 -0.0548495 1.27087e-16,0.455475 -0.0548495 0.007874,0.466568 -0.0506425 1.25558e-16,0.466568 -0.0506425 0.007874,0.478346 -0.0492125 1.55896e-16,0.478346 -0.0492125 0.007874]
}}
appearance Appearance{material Material{diffuseColor 0.752941 0.752941 0.752941
transparency 0}}}
Shape { geometry IndexedFaceSet 
{ creaseAngle 0.50 coordIndex [0,1,2,-1,0,3,1,-1,0,4,3,-1,0,5,4,-1,0,6,5,-1,0,7,6,-1,0,8,7,-1,0,9,8,-1,0,10,9,-1,0,11,10,-1,0,12,11,-1,0,13,12,-1,14,2,15,-1,14,0,2,-1]
coord Coordinate { point [0.478346 -0.147638 1.35367e-16,0.466568 -0.0506425 1.25558e-16,0.478346 -0.0492125 1.55896e-16,0.455475 -0.0548495 1.27087e-16,0.445712 -0.0615889 1.27759e-16,0.437844 -0.0704691 1.27534e-16,0.432331 -0.080974 1.26426e-16,0.429492 -0.0924931 1.24498e-16,0.429492 -0.104357 1.21864e-16,0.432331 -0.115876 1.18676e-16,0.437844 -0.126381 1.15119e-16,0.445712 -0.135261 1.114e-16,0.455475 -0.142001 1.07736e-16,0.466568 -0.146207 1.04339e-16,0.594487 -0.147638 1.13512e-16,0.594487 -0.0492125 1.34041e-16]
}}
appearance Appearance{material Material{diffuseColor 0.752941 0.752941 0.752941
transparency 0}}}
Shape { geometry IndexedFaceSet 
{ creaseAngle 0.50 coordIndex [0,1,2,-1,2,1,3,-1]
coord Coordinate { point [0.594487 -0.0492125 0.07874,0.594487 -0.147638 0.07874,0.594487 -0.0492125 1.34041e-16,0.594487 -0.147638 1.13512e-16]
}}
appearance Appearance{material Material{diffuseColor 0.752941 0.752941 0.752941
transparency 0}}}
Shape { geometry IndexedFaceSet 
{ creaseAngle 0.50 coordIndex [0,1,2,-1,0,2,3,-1,4,3,5,-1,4,0,3,-1,6,5,7,-1,6,4,5,-1,8,7,9,-1,8,6,7,-1,10,9,11,-1,10,8,9,-1,12,11,13,-1,12,10,11,-1,14,13,15,-1,14,12,13,-1,16,15,17,-1,16,14,15,-1,18,17,19,-1,18,16,17,-1,20,19,21,-1,20,18,19,-1,22,21,23,-1,22,20,21,-1,24,23,25,-1,24,22,23,-1,26,25,27,-1,26,24,25,-1]
coord Coordinate { point [0.466568 0.0506425 1.48048e-16,0.478346 0.0492125 1.76425e-16,0.478346 0.0492125 0.007874,0.466568 0.0506425 0.007874,0.455475 0.0548495 1.51445e-16,0.455475 0.0548495 0.007874,0.445712 0.0615889 1.5511e-16,0.445712 0.0615889 0.007874,0.437844 0.0704691 1.58828e-16,0.437844 0.0704691 0.007874,0.432331 0.080974 1.62385e-16,0.432331 0.080974 0.007874,0.429492 0.0924931 1.65573e-16,0.429492 0.0924931 0.007874,0.429492 0.104357 1.68208e-16,0.429492 0.104357 0.007874,0.432331 0.115876 1.70135e-16,0.432331 0.115876 0.007874,0.437844 0.126381 1.71243e-16,0.437844 0.126381 0.007874,0.445712 0.135261 1.71468e-16,0.445712 0.135261 0.007874,0.455475 0.142001 1.70797e-16,0.455475 0.142001 0.007874,0.466568 0.146207 1.69268e-16,0.466568 0.146207 0.007874,0.478346 0.147637 1.96954e-16,0.478346 0.147637 0.007874]
}}
appearance Appearance{material Material{diffuseColor 0.752941 0.752941 0.752941
transparency 0}}}
Shape { geometry IndexedFaceSet 
{ creaseAngle 0.50 coordIndex [0,1,2,-1,0,3,1,-1,0,4,3,-1,0,5,4,-1,0,6,5,-1,0,7,6,-1,0,8,7,-1,0,9,8,-1,0,10,9,-1,0,11,10,-1,0,12,11,-1,0,13,12,-1,14,2,15,-1,14,0,2,-1]
coord Coordinate { point [0.478346 0.0492125 1.76425e-16,0.466568 0.146207 1.69268e-16,0.478346 0.147637 1.96954e-16,0.455475 0.142001 1.70797e-16,0.445712 0.135261 1.71468e-16,0.437844 0.126381 1.71243e-16,0.432331 0.115876 1.70135e-16,0.429492 0.104357 1.68208e-16,0.429492 0.0924931 1.65573e-16,0.432331 0.080974 1.62385e-16,0.437844 0.0704691 1.58828e-16,0.445712 0.0615889 1.5511e-16,0.455475 0.0548495 1.51445e-16,0.466568 0.0506425 1.48048e-16,0.594487 0.0492125 1.5457e-16,0.594487 0.147637 1.75099e-16]
}}
appearance Appearance{material Material{diffuseColor 0.752941 0.752941 0.752941
transparency 0}}}
Shape { geometry IndexedFaceSet 
{ creaseAngle 0.50 coordIndex [0,1,2,-1,2,1,3,-1]
coord Coordinate { point [0.594487 0.147637 0.07874,0.594487 0.0492125 0.07874,0.594487 0.147637 1.75099e-16,0.594487 0.0492125 1.5457e-16]
}}
appearance Appearance{material Material{diffuseColor 0.752941 0.752941 0.752941
transparency 0}}}
Shape { geometry IndexedFaceSet 
{ creaseAngle 0.50 coordIndex [0,1,2,-1,0,2,3,-1,4,3,5,-1,4,0,3,-1,6,5,7,-1,6,4,5,-1,8,7,9,-1,8,6,7,-1,10,9,11,-1,10,8,9,-1,12,11,13,-1,12,10,11,-1,14,13,15,-1,14,12,13,-1,16,15,17,-1,16,14,15,-1,18,17,19,-1,18,16,17,-1,20,19,21,-1,20,18,19,-1,22,21,23,-1,22,20,21,-1,24,23,25,-1,24,22,23,-1,26,25,27,-1,26,24,25,-1]
coord Coordinate { point [0.466568 0.247493 1.91758e-16,0.478346 0.246062 2.17483e-16,0.478346 0.246062 0.007874,0.466568 0.247493 0.007874,0.455475 0.251699 1.95155e-16,0.455475 0.251699 0.007874,0.445712 0.258439 1.98819e-16,0.445712 0.258439 0.007874,0.437844 0.267319 2.02538e-16,0.437844 0.267319 0.007874,0.432331 0.277824 2.06095e-16,0.432331 0.277824 0.007874,0.429492 0.289343 2.09283e-16,0.429492 0.289343 0.007874,0.429492 0.301207 2.11917e-16,0.429492 0.301207 0.007874,0.432331 0.312726 2.13844e-16,0.432331 0.312726 0.007874,0.437844 0.323231 2.14953e-16,0.437844 0.323231 0.007874,0.445712 0.332111 2.15178e-16,0.445712 0.332111 0.007874,0.455475 0.338851 2.14506e-16,0.455475 0.338851 0.007874,0.466568 0.343057 2.12977e-16,0.466568 0.343057 0.007874,0.478346 0.344487 2.38012e-16,0.478346 0.344487 0.007874]
}}
appearance Appearance{material Material{diffuseColor 0.752941 0.752941 0.752941
transparency 0}}}
Shape { geometry IndexedFaceSet 
{ creaseAngle 0.50 coordIndex [0,1,2,-1,0,3,1,-1,0,4,3,-1,0,5,4,-1,0,6,5,-1,0,7,6,-1,0,8,7,-1,0,9,8,-1,0,10,9,-1,0,11,10,-1,0,12,11,-1,0,13,12,-1,14,2,15,-1,14,0,2,-1]
coord Coordinate { point [0.478346 0.246062 2.17483e-16,0.466568 0.343057 2.12977e-16,0.478346 0.344487 2.38012e-16,0.455475 0.338851 2.14506e-16,0.445712 0.332111 2.15178e-16,0.437844 0.323231 2.14953e-16,0.432331 0.312726 2.13844e-16,0.429492 0.301207 2.11917e-16,0.429492 0.289343 2.09283e-16,0.432331 0.277824 2.06095e-16,0.437844 0.267319 2.02538e-16,0.445712 0.258439 1.98819e-16,0.455475 0.251699 1.95155e-16,0.466568 0.247493 1.91758e-16,0.594487 0.246062 1.95628e-16,0.594487 0.344487 2.16157e-16]
}}
appearance Appearance{material Material{diffuseColor 0.752941 0.752941 0.752941
transparency 0}}}
Shape { geometry IndexedFaceSet 
{ creaseAngle 0.50 coordIndex [0,1,2,-1,2,1,3,-1]
coord Coordinate { point [0.594487 0.344487 0.07874,0.594487 0.246062 0.07874,0.594487 0.344487 2.16157e-16,0.594487 0.246062 1.95628e-16]
}}
appearance Appearance{material Material{diffuseColor 0.752941 0.752941 0.752941
transparency 0}}}
Shape { geometry IndexedFaceSet 
{ creaseAngle 0.50 coordIndex [0,1,2,-1,0,3,1,-1,4,2,5,-1,4,0,2,-1,6,5,7,-1,6,4,5,-1,8,7,9,-1,8,6,7,-1,10,9,11,-1,10,8,9,-1,12,11,13,-1,12,10,11,-1,14,13,15,-1,14,12,13,-1]
coord Coordinate { point [-0.313973 -0.43002 0.007874,-0.31496 -0.421259 2.48326e-16,-0.313973 -0.43002 2.14635e-16,-0.31496 -0.421259 0.007874,-0.311061 -0.438341 0.007874,-0.311061 -0.438341 2.1214e-16,-0.306371 -0.445806 0.007874,-0.306371 -0.445806 2.09441e-16,-0.300137 -0.45204 0.007874,-0.300137 -0.45204 2.06673e-16,-0.292672 -0.45673 0.007874,-0.292672 -0.45673 2.03974e-16,-0.284351 -0.459642 0.007874,-0.284351 -0.459642 2.0148e-16,-0.27559 -0.460629 0.007874,-0.27559 -0.460629 2.27002e-16]
}}
appearance Appearance{material Material{diffuseColor 0.752941 0.752941 0.752941
transparency 0}}}
Shape { geometry IndexedFaceSet 
{ creaseAngle 0.50 coordIndex [0,1,2,-1,3,1,0,-1]
coord Coordinate { point [-0.31496 -0.421259 2.48326e-16,-0.31496 0.283464 0.007874,-0.31496 0.283464 3.91817e-16,-0.31496 -0.421259 0.007874]
}}
appearance Appearance{material Material{diffuseColor 0.752941 0.752941 0.752941
transparency 0}}}
Shape { geometry IndexedFaceSet 
{ creaseAngle 0.50 coordIndex [0,1,2,-1,2,1,3,-1,3,4,5,-1,1,4,3,-1,5,6,7,-1,4,6,5,-1,7,8,9,-1,6,8,7,-1,9,10,11,-1,8,10,9,-1,11,12,13,-1,10,12,11,-1,13,14,15,-1,12,14,13,-1,15,16,17,-1,14,16,15,-1,17,18,19,-1,16,18,17,-1,19,20,21,-1,18,20,19,-1,21,22,23,-1,20,22,21,-1,23,24,25,-1,22,24,23,-1,25,26,27,-1,24,26,25,-1]
coord Coordinate { point [-0.31496 0.283464 0.007874,-0.300827 0.28518 0.007874,-0.31496 0.283464 3.91817e-16,-0.300827 0.28518 3.70522e-16,-0.287516 0.290228 0.007874,-0.287516 0.290228 3.68687e-16,-0.275799 0.298316 0.007874,-0.275799 0.298316 3.67881e-16,-0.266359 0.308972 0.007874,-0.266359 0.308972 3.68151e-16,-0.259743 0.321578 0.007874,-0.259743 0.321578 3.69481e-16,-0.256336 0.335401 0.007874,-0.256336 0.335401 3.71794e-16,-0.256336 0.349637 0.007874,-0.256336 0.349637 3.74955e-16,-0.259743 0.36346 0.007874,-0.259743 0.36346 3.78781e-16,-0.266359 0.376066 0.007874,-0.266359 0.376066 3.83049e-16,-0.275799 0.386722 0.007874,-0.275799 0.386722 3.87511e-16,-0.287516 0.39481 0.007874,-0.287516 0.39481 3.91909e-16,-0.300827 0.399858 0.007874,-0.300827 0.399858 3.95986e-16,-0.31496 0.401574 0.007874,-0.31496 0.401574 4.12081e-16]
}}
appearance Appearance{material Material{diffuseColor 0.752941 0.752941 0.752941
transparency 0}}}
Shape { geometry IndexedFaceSet 
{ creaseAngle 0.50 coordIndex [0,1,2,-1,3,1,0,-1]
coord Coordinate { point [-0.31496 0.401574 4.12081e-16,-0.31496 0.421259 0.007874,-0.31496 0.421259 4.11816e-16,-0.31496 0.401574 0.007874]
}}
appearance Appearance{material Material{diffuseColor 0.752941 0.752941 0.752941
transparency 0}}}
Shape { geometry IndexedFaceSet 
{ creaseAngle 0.50 coordIndex [0,1,2,-1,0,3,1,-1,4,2,5,-1,4,0,2,-1,6,5,7,-1,6,4,5,-1,8,7,9,-1,8,6,7,-1,10,9,11,-1,10,8,9,-1,12,11,13,-1,12,10,11,-1,14,13,15,-1,14,12,13,-1]
coord Coordinate { point [-0.284351 0.459642 0.007874,-0.27559 0.460629 4.3314e-16,-0.284351 0.459642 4.05602e-16,-0.27559 0.460629 0.007874,-0.292672 0.45673 0.007874,-0.292672 0.45673 4.06803e-16,-0.300137 0.45204 0.007874,-0.300137 0.45204 4.07419e-16,-0.306371 0.445806 0.007874,-0.306371 0.445806 4.07419e-16,-0.311061 0.438341 0.007874,-0.311061 0.438341 4.06803e-16,-0.313973 0.43002 0.007874,-0.313973 0.43002 4.05602e-16,-0.31496 0.421259 0.007874,-0.31496 0.421259 4.11816e-16]
}}
appearance Appearance{material Material{diffuseColor 0.752941 0.752941 0.752941
transparency 0}}}
Shape { geometry IndexedFaceSet 
{ creaseAngle 0.50 coordIndex [0,1,2,-1,3,1,0,-1]
coord Coordinate { point [-0.27559 0.460629 4.3314e-16,0.27559 0.460629 0.007874,0.27559 0.460629 3.02012e-16,-0.27559 0.460629 0.007874]
}}
appearance Appearance{material Material{diffuseColor 0.752941 0.752941 0.752941
transparency 0}}}
Shape { geometry IndexedFaceSet 
{ creaseAngle 0.50 coordIndex [0,1,2,-1,0,3,1,-1,4,2,5,-1,4,0,2,-1,6,5,7,-1,6,4,5,-1,8,7,9,-1,8,6,7,-1,10,9,11,-1,10,8,9,-1,12,11,13,-1,12,10,11,-1,14,13,15,-1,14,12,13,-1]
coord Coordinate { point [0.313973 0.43002 0.007874,0.31496 0.421259 2.80687e-16,0.313973 0.43002 2.6617e-16,0.31496 0.421259 0.007874,0.311061 0.438341 0.007874,0.311061 0.438341 2.68664e-16,0.306371 0.445806 0.007874,0.306371 0.445806 2.71363e-16,0.300137 0.45204 0.007874,0.300137 0.45204 2.74131e-16,0.292672 0.45673 0.007874,0.292672 0.45673 2.7683e-16,0.284351 0.459642 0.007874,0.284351 0.459642 2.79325e-16,0.27559 0.460629 0.007874,0.27559 0.460629 3.02012e-16]
}}
appearance Appearance{material Material{diffuseColor 0.752941 0.752941 0.752941
transparency 0}}}
Shape { geometry IndexedFaceSet 
{ creaseAngle 0.50 coordIndex [0,1,2,-1,3,1,0,-1]
coord Coordinate { point [0.31496 0.421259 2.80687e-16,0.31496 -0.421259 0.007874,0.31496 -0.421259 1.17198e-16,0.31496 0.421259 0.007874]
}}
appearance Appearance{material Material{diffuseColor 0.752941 0.752941 0.752941
transparency 0}}}
Shape { geometry IndexedFaceSet 
{ creaseAngle 0.50 coordIndex [0,1,2,-1,0,3,1,-1,4,2,5,-1,4,0,2,-1,6,5,7,-1,6,4,5,-1,8,7,9,-1,8,6,7,-1,10,9,11,-1,10,8,9,-1,12,11,13,-1,12,10,11,-1,14,13,15,-1,14,12,13,-1]
coord Coordinate { point [0.284351 -0.459642 0.007874,0.27559 -0.460629 9.58731e-17,0.284351 -0.459642 7.52026e-17,0.27559 -0.460629 0.007874,0.292672 -0.45673 0.007874,0.292672 -0.45673 7.40014e-17,0.300137 -0.45204 0.007874,0.300137 -0.45204 7.33854e-17,0.306371 -0.445806 0.007874,0.306371 -0.445806 7.33854e-17,0.311061 -0.438341 0.007874,0.311061 -0.438341 7.40014e-17,0.313973 -0.43002 0.007874,0.313973 -0.43002 7.52026e-17,0.31496 -0.421259 0.007874,0.31496 -0.421259 1.17198e-16]
}}
appearance Appearance{material Material{diffuseColor 0.752941 0.752941 0.752941
transparency 0}}}
Shape { geometry IndexedFaceSet 
{ creaseAngle 0.50 coordIndex [0,1,2,-1,3,1,0,-1]
coord Coordinate { point [0.27559 -0.460629 9.58731e-17,-0.27559 -0.460629 0.007874,-0.27559 -0.460629 2.27002e-16,0.27559 -0.460629 0.007874]
}}
appearance Appearance{material Material{diffuseColor 0.752941 0.752941 0.752941
transparency 0}}}
Shape { geometry IndexedFaceSet 
{ creaseAngle 0.50 coordIndex [0,1,2,-1,0,2,3,-1,4,3,5,-1,4,0,3,-1,6,5,7,-1,6,4,5,-1,8,7,9,-1,8,6,7,-1,10,9,11,-1,10,8,9,-1,12,11,13,-1,12,10,11,-1,14,13,15,-1,14,12,13,-1]
coord Coordinate { point [-0.430367 0.284324 3.99095e-16,-0.429133 0.295275 3.91658e-16,-0.429133 0.295275 0.007874,-0.430367 0.284324 0.007874,-0.434007 0.273922 3.97594e-16,-0.434007 0.273922 0.007874,-0.43987 0.264592 3.96824e-16,-0.43987 0.264592 0.007874,-0.447662 0.256799 3.96824e-16,-0.447662 0.256799 0.007874,-0.456993 0.250936 3.97594e-16,-0.456993 0.250936 0.007874,-0.467395 0.247296 3.99095e-16,-0.467395 0.247296 0.007874,-0.478345 0.246063 4.3603e-16,-0.478345 0.246063 0.007874]
}}
appearance Appearance{material Material{diffuseColor 0.752941 0.752941 0.752941
transparency 0}}}
Shape { geometry IndexedFaceSet 
{ creaseAngle 0.50 coordIndex [0,1,2,-1,0,2,3,-1,4,3,5,-1,4,0,3,-1,6,5,7,-1,6,4,5,-1,8,7,9,-1,8,6,7,-1,10,9,11,-1,10,8,9,-1,12,11,13,-1,12,10,11,-1,14,13,15,-1,14,12,13,-1]
coord Coordinate { point [-0.430367 0.0874742 3.55386e-16,-0.429133 0.098425 3.506e-16,-0.429133 0.098425 0.007874,-0.430367 0.0874742 0.007874,-0.434007 0.0770725 3.53884e-16,-0.434007 0.0770725 0.007874,-0.43987 0.0677415 3.53114e-16,-0.43987 0.0677415 0.007874,-0.447662 0.0599491 3.53114e-16,-0.447662 0.0599491 0.007874,-0.456993 0.0540861 3.53884e-16,-0.456993 0.0540861 0.007874,-0.467395 0.0504464 3.55386e-16,-0.467395 0.0504464 0.007874,-0.478345 0.0492125 3.94972e-16,-0.478345 0.0492125 0.007874]
}}
appearance Appearance{material Material{diffuseColor 0.752941 0.752941 0.752941
transparency 0}}}
Shape { geometry IndexedFaceSet 
{ creaseAngle 0.50 coordIndex [0,1,2,-1,0,2,3,-1,4,3,5,-1,4,0,3,-1,6,5,7,-1,6,4,5,-1,8,7,9,-1,8,6,7,-1,10,9,11,-1,10,8,9,-1,12,11,13,-1,12,10,11,-1,14,13,15,-1,14,12,13,-1]
coord Coordinate { point [-0.430367 -0.109376 3.11676e-16,-0.429133 -0.098425 3.09542e-16,-0.429133 -0.098425 0.007874,-0.430367 -0.109376 0.007874,-0.434007 -0.119778 3.10175e-16,-0.434007 -0.119778 0.007874,-0.43987 -0.129108 3.09405e-16,-0.43987 -0.129108 0.007874,-0.447662 -0.136901 3.09405e-16,-0.447662 -0.136901 0.007874,-0.456993 -0.142764 3.10175e-16,-0.456993 -0.142764 0.007874,-0.467395 -0.146404 3.11676e-16,-0.467395 -0.146404 0.007874,-0.478345 -0.147637 3.53914e-16,-0.478345 -0.147637 0.007874]
}}
appearance Appearance{material Material{diffuseColor 0.752941 0.752941 0.752941
transparency 0}}}
Shape { geometry IndexedFaceSet 
{ creaseAngle 0.50 coordIndex [0,1,2,-1,0,2,3,-1,4,3,5,-1,4,0,3,-1,6,5,7,-1,6,4,5,-1,8,7,9,-1,8,6,7,-1,10,9,11,-1,10,8,9,-1,12,11,13,-1,12,10,11,-1,14,13,15,-1,14,12,13,-1]
coord Coordinate { point [-0.430367 -0.306226 2.67967e-16,-0.429133 -0.295275 2.68484e-16,-0.429133 -0.295275 0.007874,-0.430367 -0.306226 0.007874,-0.434007 -0.316628 2.66466e-16,-0.434007 -0.316628 0.007874,-0.43987 -0.325958 2.65695e-16,-0.43987 -0.325958 0.007874,-0.447662 -0.333751 2.65695e-16,-0.447662 -0.333751 0.007874,-0.456993 -0.339614 2.66466e-16,-0.456993 -0.339614 0.007874,-0.467395 -0.343254 2.67967e-16,-0.467395 -0.343254 0.007874,-0.478345 -0.344487 3.12856e-16,-0.478345 -0.344487 0.007874]
}}
appearance Appearance{material Material{diffuseColor 0.752941 0.752941 0.752941
transparency 0}}}
Shape { geometry IndexedFaceSet 
{ creaseAngle 0.50 coordIndex [0,1,2,-1,0,2,3,-1]
coord Coordinate { point [-0.594487 -0.344487 0.07874,-0.594487 -0.246062 0.07874,-0.594487 -0.246062 3.33385e-16,-0.594487 -0.344487 3.12856e-16]
}}
appearance Appearance{material Material{diffuseColor 0.752941 0.752941 0.752941
transparency 0}}}
Shape { geometry IndexedFaceSet 
{ creaseAngle 0.50 coordIndex [0,1,2,-1,0,2,3,-1,4,5,0,-1,4,6,5,-1,4,7,6,-1,4,8,9,-1,4,10,8,-1,4,11,10,-1,4,12,11,-1,4,13,12,-1,4,14,13,-1,4,15,14,-1,4,16,15,-1,4,3,16,-1,4,0,3,-1]
coord Coordinate { point [-0.478345 -0.344487 3.12856e-16,-0.594487 -0.344487 3.12856e-16,-0.594487 -0.246062 3.33385e-16,-0.478345 -0.246062 3.33385e-16,-0.43987 -0.325958 2.65695e-16,-0.467395 -0.343254 2.67967e-16,-0.456993 -0.339614 2.66466e-16,-0.447662 -0.333751 2.65695e-16,-0.430367 -0.306226 2.67967e-16,-0.434007 -0.316628 2.66466e-16,-0.429133 -0.295275 2.68484e-16,-0.430367 -0.284324 2.7283e-16,-0.434007 -0.273922 2.75948e-16,-0.43987 -0.264592 2.79322e-16,-0.447662 -0.256799 2.82782e-16,-0.456993 -0.250936 2.86156e-16,-0.467395 -0.247296 2.89274e-16]
}}
appearance Appearance{material Material{diffuseColor 0.752941 0.752941 0.752941
transparency 0}}}
Shape { geometry IndexedFaceSet 
{ creaseAngle 0.50 coordIndex [0,1,2,-1,0,2,3,-1]
coord Coordinate { point [-0.594487 0.246063 0.07874,-0.594487 0.344488 0.07874,-0.594487 0.344488 4.56559e-16,-0.594487 0.246063 4.3603e-16]
}}
appearance Appearance{material Material{diffuseColor 0.752941 0.752941 0.752941
transparency 0}}}
Shape { geometry IndexedFaceSet 
{ creaseAngle 0.50 coordIndex [0,1,2,-1,0,2,3,-1,4,5,0,-1,4,6,5,-1,4,7,6,-1,4,8,9,-1,4,10,8,-1,4,11,10,-1,4,12,11,-1,4,13,12,-1,4,14,13,-1,4,15,14,-1,4,16,15,-1,4,3,16,-1,4,0,3,-1]
coord Coordinate { point [-0.478345 0.246063 4.3603e-16,-0.594487 0.246063 4.3603e-16,-0.594487 0.344488 4.56559e-16,-0.478345 0.344488 4.56559e-16,-0.43987 0.264592 3.96824e-16,-0.467395 0.247296 3.99095e-16,-0.456993 0.250936 3.97594e-16,-0.447662 0.256799 3.96824e-16,-0.430367 0.284324 3.99095e-16,-0.434007 0.273922 3.97594e-16,-0.429133 0.295275 3.91658e-16,-0.430367 0.306226 4.03959e-16,-0.434007 0.316628 4.07076e-16,-0.43987 0.325958 4.1045e-16,-0.447662 0.333751 4.13911e-16,-0.456993 0.339614 4.17284e-16,-0.467395 0.343254 4.20402e-16]
}}
appearance Appearance{material Material{diffuseColor 0.752941 0.752941 0.752941
transparency 0}}}
Shape { geometry IndexedFaceSet 
{ creaseAngle 0.50 coordIndex [0,1,2,-1,0,2,3,-1]
coord Coordinate { point [-0.594487 0.0492125 0.07874,-0.594487 0.147638 0.07874,-0.594487 0.147638 4.15501e-16,-0.594487 0.0492125 3.94972e-16]
}}
appearance Appearance{material Material{diffuseColor 0.752941 0.752941 0.752941
transparency 0}}}
Shape { geometry IndexedFaceSet 
{ creaseAngle 0.50 coordIndex [0,1,2,-1,0,2,3,-1,4,5,0,-1,4,6,5,-1,4,7,6,-1,4,8,9,-1,4,10,8,-1,4,11,10,-1,4,12,11,-1,4,13,12,-1,4,14,13,-1,4,15,14,-1,4,16,15,-1,4,3,16,-1,4,0,3,-1]
coord Coordinate { point [-0.478345 0.0492125 3.94972e-16,-0.594487 0.0492125 3.94972e-16,-0.594487 0.147638 4.15501e-16,-0.478345 0.147638 4.15501e-16,-0.43987 0.0677415 3.53114e-16,-0.467395 0.0504464 3.55386e-16,-0.456993 0.0540861 3.53884e-16,-0.447662 0.0599491 3.53114e-16,-0.430367 0.0874742 3.55386e-16,-0.434007 0.0770725 3.53884e-16,-0.429133 0.098425 3.506e-16,-0.430367 0.109376 3.60249e-16,-0.434007 0.119778 3.63367e-16,-0.43987 0.129108 3.66741e-16,-0.447662 0.136901 3.70201e-16,-0.456993 0.142764 3.73575e-16,-0.467395 0.146404 3.76693e-16]
}}
appearance Appearance{material Material{diffuseColor 0.752941 0.752941 0.752941
transparency 0}}}
Shape { geometry IndexedFaceSet 
{ creaseAngle 0.50 coordIndex [0,1,2,-1,0,2,3,-1]
coord Coordinate { point [-0.594487 -0.147637 0.07874,-0.594487 -0.0492125 0.07874,-0.594487 -0.0492125 3.74443e-16,-0.594487 -0.147637 3.53914e-16]
}}
appearance Appearance{material Material{diffuseColor 0.752941 0.752941 0.752941
transparency 0}}}
Shape { geometry IndexedFaceSet 
{ creaseAngle 0.50 coordIndex [0,1,2,-1,0,2,3,-1,4,5,0,-1,4,6,5,-1,4,7,6,-1,4,8,9,-1,4,10,8,-1,4,11,10,-1,4,12,11,-1,4,13,12,-1,4,14,13,-1,4,15,14,-1,4,16,15,-1,4,3,16,-1,4,0,3,-1]
coord Coordinate { point [-0.478345 -0.147637 3.53914e-16,-0.594487 -0.147637 3.53914e-16,-0.594487 -0.0492125 3.74443e-16,-0.478345 -0.0492125 3.74443e-16,-0.43987 -0.129108 3.09405e-16,-0.467395 -0.146404 3.11676e-16,-0.456993 -0.142764 3.10175e-16,-0.447662 -0.136901 3.09405e-16,-0.430367 -0.109376 3.11676e-16,-0.434007 -0.119778 3.10175e-16,-0.429133 -0.098425 3.09542e-16,-0.430367 -0.0874742 3.1654e-16,-0.434007 -0.0770725 3.19657e-16,-0.43987 -0.0677415 3.23031e-16,-0.447662 -0.0599491 3.26492e-16,-0.456993 -0.0540861 3.29865e-16,-0.467395 -0.0504464 3.32983e-16]
}}
appearance Appearance{material Material{diffuseColor 0.752941 0.752941 0.752941
transparency 0}}}
Shape { geometry IndexedFaceSet 
{ creaseAngle 0.50 coordIndex [0,1,2,-1,0,3,1,-1,0,4,3,-1,0,5,4,-1,0,6,5,-1,0,7,6,-1,0,8,9,-1,0,9,7,-1,10,11,12,-1,10,12,13,-1,10,13,14,-1,15,16,17,-1,18,19,20,-1,15,21,22,-1,15,17,21,-1,23,24,25,-1,23,26,24,-1,23,27,26,-1,23,28,27,-1,23,22,28,-1,23,15,22,-1,29,23,25,-1,30,18,20,-1,30,31,32,-1,30,32,33,-1,30,33,18,-1,34,29,25,-1,30,20,10,-1,35,14,8,-1,36,34,25,-1,35,10,14,-1,35,8,0,-1,37,10,35,-1,37,30,10,-1,38,39,37,-1,38,40,39,-1,38,41,40,-1,38,42,43,-1,38,35,42,-1,38,37,35,-1,7,9,44,-1,7,44,45,-1,7,45,36,-1,7,36,25,-1]
coord Coordinate { point [0.31496 0.421259 2.80687e-16,0.311061 0.438341 2.68664e-16,0.313973 0.43002 2.6617e-16,0.306371 0.445806 2.71363e-16,0.300137 0.45204 2.74131e-16,0.292672 0.45673 2.7683e-16,0.284351 0.459642 2.79325e-16,0.27559 0.460629 3.02012e-16,-0.266359 0.308972 3.68151e-16,-0.259743 0.321578 3.69481e-16,-0.31496 -0.421259 2.48326e-16,-0.31496 0.283464 3.91817e-16,-0.300827 0.28518 3.70522e-16,-0.287516 0.290228 3.68687e-16,-0.275799 0.298316 3.67881e-16,-0.300827 0.399858 3.95986e-16,-0.31496 0.401574 4.12081e-16,-0.31496 0.421259 4.11816e-16,-0.306371 -0.445806 2.09441e-16,-0.311061 -0.438341 2.1214e-16,-0.313973 -0.43002 2.14635e-16,-0.313973 0.43002 4.05602e-16,-0.311061 0.438341 4.06803e-16,-0.287516 0.39481 3.91909e-16,-0.284351 0.459642 4.05602e-16,-0.27559 0.460629 4.3314e-16,-0.292672 0.45673 4.06803e-16,-0.300137 0.45204 4.07419e-16,-0.306371 0.445806 4.07419e-16,-0.275799 0.386722 3.87511e-16,-0.27559 -0.460629 2.27002e-16,-0.284351 -0.459642 2.0148e-16,-0.292672 -0.45673 2.03974e-16,-0.300137 -0.45204 2.06673e-16,-0.266359 0.376066 3.83049e-16,0.31496 -0.421259 1.17198e-16,-0.259743 0.36346 3.78781e-16,0.27559 -0.460629 9.58731e-17,0.306371 -0.445806 7.33854e-17,0.284351 -0.459642 7.52026e-17,0.292672 -0.45673 7.40014e-17,0.300137 -0.45204 7.33854e-17,0.313973 -0.43002 7.52026e-17,0.311061 -0.438341 7.40014e-17,-0.256336 0.335401 3.71794e-16,-0.256336 0.349637 3.74955e-16]
}}
appearance Appearance{material Material{diffuseColor 0.752941 0.752941 0.752941
transparency 0}}}
