#VRML V2.0 utf8
#kicad StepUp wrl exported

Shape { geometry IndexedFaceSet 
{ creaseAngle 0.50 coordIndex [0,1,2,-1,3,0,2,-1,3,2,4,-1,5,4,6,-1,5,3,4,-1,7,8,9,-1,7,9,10,-1,11,6,12,-1,11,5,6,-1,13,10,14,-1,15,12,16,-1,13,7,10,-1,15,11,12,-1,17,14,18,-1,19,16,20,-1,17,13,14,-1,19,15,16,-1,21,18,22,-1,23,20,24,-1,21,17,18,-1,23,19,20,-1,25,22,26,-1,27,24,28,-1,25,21,22,-1,27,23,24,-1,29,28,30,-1,29,27,28,-1,31,26,32,-1,8,30,9,-1,31,25,26,-1,8,29,30,-1,33,32,34,-1,33,31,32,-1,35,34,36,-1,35,33,34,-1,37,36,38,-1,37,35,36,-1,39,38,40,-1,39,37,38,-1,41,39,40,-1,41,40,42,-1,43,41,42,-1,43,42,44,-1,45,43,44,-1,45,44,46,-1,47,45,46,-1,47,46,48,-1,49,47,48,-1,49,48,50,-1,51,49,50,-1,51,50,1,-1,0,51,1,-1]
coord Coordinate { point [-0.288204 0.271282 0.0405511,-0.284832 0.268295 0.03937,-0.288204 0.271282 0.03937,-0.292193 0.273376 0.0405511,-0.292193 0.273376 0.03937,-0.296566 0.274454 0.0405511,-0.296566 0.274454 0.03937,-0.31696 0.251433 0.0405511,-0.317716 0.255905 0.0405511,-0.317716 0.255905 0.03937,-0.31696 0.251433 0.03937,-0.301071 0.274454 0.0405511,-0.301071 0.274454 0.03937,-0.315363 0.247222 0.0405511,-0.315363 0.247222 0.03937,-0.305444 0.273376 0.0405511,-0.305444 0.273376 0.03937,-0.312804 0.243515 0.0405511,-0.312804 0.243515 0.03937,-0.309433 0.271282 0.0405511,-0.309433 0.271282 0.03937,-0.309433 0.240528 0.0405511,-0.309433 0.240528 0.03937,-0.312804 0.268295 0.0405511,-0.312804 0.268295 0.03937,-0.305444 0.238434 0.0405511,-0.305444 0.238434 0.03937,-0.315363 0.264588 0.0405511,-0.315363 0.264588 0.03937,-0.31696 0.260377 0.0405511,-0.31696 0.260377 0.03937,-0.301071 0.237356 0.0405511,-0.301071 0.237356 0.03937,-0.296566 0.237356 0.0405511,-0.296566 0.237356 0.03937,-0.292193 0.238434 0.0405511,-0.292193 0.238434 0.03937,-0.288204 0.240528 0.0405511,-0.288204 0.240528 0.03937,-0.284832 0.243515 0.0405511,-0.284832 0.243515 0.03937,-0.282274 0.247222 0.0405511,-0.282274 0.247222 0.03937,-0.280676 0.251433 0.0405511,-0.280676 0.251433 0.03937,-0.280133 0.255905 0.0405511,-0.280133 0.255905 0.03937,-0.280676 0.260377 0.0405511,-0.280676 0.260377 0.03937,-0.282274 0.264588 0.0405511,-0.282274 0.264588 0.03937,-0.284832 0.268295 0.0405511]
}}
appearance Appearance{material Material{diffuseColor 0.588 0.588 0.588
transparency 0}}}
Shape { geometry IndexedFaceSet 
{ creaseAngle 0.50 coordIndex [0,1,2,-1,3,1,0,-1,4,1,5,-1,6,1,4,-1,7,1,6,-1,8,1,7,-1,9,1,8,-1,10,1,9,-1,11,1,10,-1,12,1,11,-1,13,1,12,-1,14,1,13,-1,15,1,14,-1,16,1,15,-1,17,1,16,-1,18,1,17,-1,19,1,18,-1,20,1,19,-1,21,1,20,-1,22,1,21,-1,23,1,22,-1,24,1,23,-1,25,1,24,-1,2,1,25,-1]
coord Coordinate { point [-0.31696 0.260377 0.03937,-0.312804 0.268295 0.03937,-0.317716 0.255905 0.03937,-0.315363 0.264588 0.03937,-0.305444 0.273376 0.03937,-0.309433 0.271282 0.03937,-0.301071 0.274454 0.03937,-0.296566 0.274454 0.03937,-0.292193 0.273376 0.03937,-0.288204 0.271282 0.03937,-0.284832 0.268295 0.03937,-0.282274 0.264588 0.03937,-0.280676 0.260377 0.03937,-0.280133 0.255905 0.03937,-0.280676 0.251433 0.03937,-0.282274 0.247222 0.03937,-0.284832 0.243515 0.03937,-0.288204 0.240528 0.03937,-0.292193 0.238434 0.03937,-0.296566 0.237356 0.03937,-0.301071 0.237356 0.03937,-0.305444 0.238434 0.03937,-0.309433 0.240528 0.03937,-0.312804 0.243515 0.03937,-0.315363 0.247222 0.03937,-0.31696 0.251433 0.03937]
}}
appearance Appearance{material Material{diffuseColor 0.588 0.588 0.588
transparency 0}}}
Shape { geometry IndexedFaceSet 
{ creaseAngle 0.50 coordIndex [0,1,2,-1,0,2,3,-1,0,3,4,-1,0,4,5,-1,0,5,6,-1,0,6,7,-1,0,7,8,-1,0,8,9,-1,0,9,10,-1,0,10,11,-1,0,11,12,-1,0,12,13,-1,0,13,14,-1,0,14,15,-1,0,15,16,-1,0,16,17,-1,0,17,18,-1,0,18,19,-1,0,19,20,-1,0,20,21,-1,0,21,22,-1,0,22,23,-1,0,24,25,-1,0,25,1,-1]
coord Coordinate { point [-0.312804 0.268295 0.0405511,-0.317716 0.255905 0.0405511,-0.31696 0.251433 0.0405511,-0.315363 0.247222 0.0405511,-0.312804 0.243515 0.0405511,-0.309433 0.240528 0.0405511,-0.305444 0.238434 0.0405511,-0.301071 0.237356 0.0405511,-0.296566 0.237356 0.0405511,-0.292193 0.238434 0.0405511,-0.288204 0.240528 0.0405511,-0.284832 0.243515 0.0405511,-0.282274 0.247222 0.0405511,-0.280676 0.251433 0.0405511,-0.280133 0.255905 0.0405511,-0.280676 0.260377 0.0405511,-0.282274 0.264588 0.0405511,-0.284832 0.268295 0.0405511,-0.288204 0.271282 0.0405511,-0.292193 0.273376 0.0405511,-0.296566 0.274454 0.0405511,-0.301071 0.274454 0.0405511,-0.305444 0.273376 0.0405511,-0.309433 0.271282 0.0405511,-0.315363 0.264588 0.0405511,-0.31696 0.260377 0.0405511]
}}
appearance Appearance{material Material{diffuseColor 0.588 0.588 0.588
transparency 0}}}
Shape { geometry IndexedFaceSet 
{ creaseAngle 0.50 coordIndex [0,1,2,-1,3,1,0,-1]
coord Coordinate { point [-0.226377 0.187007 0,-0.3937 0.324802 0,-0.226377 0.324802 0,-0.3937 0.187007 0]
}}
appearance Appearance{material Material{diffuseColor 0.725 0.725 0.725
transparency 0}}}
Shape { geometry IndexedFaceSet 
{ creaseAngle 0.50 coordIndex [0,1,2,-1,3,1,0,-1]
coord Coordinate { point [0.373621 -0.3937 0.0200787,-0.373621 0.3937 0.0200787,0.373621 0.3937 0.0200787,-0.373621 -0.3937 0.0200787]
}}
appearance Appearance{material Material{diffuseColor 0.196 0.196 0.196
transparency 0}}}
Shape { geometry IndexedFaceSet 
{ creaseAngle 0.50 coordIndex [0,1,2,-1,2,1,3,-1]
coord Coordinate { point [0.373621 -0.3937 0.03937,0.373621 0.3937 0.03937,-0.373621 -0.3937 0.03937,-0.373621 0.3937 0.03937]
}}
appearance Appearance{material Material{diffuseColor 0.196 0.196 0.196
transparency 0}}}
Shape { geometry IndexedFaceSet 
{ creaseAngle 0.50 coordIndex [0,1,2,-1,2,1,3,-1]
coord Coordinate { point [0.373621 -0.3937 0.0200787,0.373621 -0.3937 0.03937,-0.373621 -0.3937 0.0200787,-0.373621 -0.3937 0.03937]
}}
appearance Appearance{material Material{diffuseColor 0.196 0.196 0.196
transparency 0}}}
Shape { geometry IndexedFaceSet 
{ creaseAngle 0.50 coordIndex [0,1,2,-1,2,1,3,-1]
coord Coordinate { point [0.373621 0.3937 0.0200787,0.373621 0.3937 0.03937,0.373621 -0.3937 0.0200787,0.373621 -0.3937 0.03937]
}}
appearance Appearance{material Material{diffuseColor 0.196 0.196 0.196
transparency 0}}}
Shape { geometry IndexedFaceSet 
{ creaseAngle 0.50 coordIndex [0,1,2,-1,2,1,3,-1]
coord Coordinate { point [-0.373621 0.3937 0.0200787,-0.373621 0.3937 0.03937,0.373621 0.3937 0.0200787,0.373621 0.3937 0.03937]
}}
appearance Appearance{material Material{diffuseColor 0.196 0.196 0.196
transparency 0}}}
Shape { geometry IndexedFaceSet 
{ creaseAngle 0.50 coordIndex [0,1,2,-1,2,1,3,-1]
coord Coordinate { point [-0.373621 -0.3937 0.0200787,-0.373621 -0.3937 0.03937,-0.373621 0.3937 0.0200787,-0.373621 0.3937 0.03937]
}}
appearance Appearance{material Material{diffuseColor 0.196 0.196 0.196
transparency 0}}}
Shape { geometry IndexedFaceSet 
{ creaseAngle 0.50 coordIndex [0,1,2,-1,3,1,0,-1]
coord Coordinate { point [0.19685 -0.31496 0,-0.19685 0.31496 0,0.19685 0.31496 0,-0.19685 -0.31496 0]
}}
appearance Appearance{material Material{diffuseColor 0.588 0.588 0.588
transparency 0}}}
Shape { geometry IndexedFaceSet 
{ creaseAngle 0.50 coordIndex [0,1,2,-1,2,1,3,-1]
coord Coordinate { point [0.19685 -0.31496 0.0200787,0.19685 0.31496 0.0200787,-0.19685 -0.31496 0.0200787,-0.19685 0.31496 0.0200787]
}}
appearance Appearance{material Material{diffuseColor 0.588 0.588 0.588
transparency 0}}}
Shape { geometry IndexedFaceSet 
{ creaseAngle 0.50 coordIndex [0,1,2,-1,2,1,3,-1]
coord Coordinate { point [0.19685 -0.31496 0,0.19685 -0.31496 0.0200787,-0.19685 -0.31496 0,-0.19685 -0.31496 0.0200787]
}}
appearance Appearance{material Material{diffuseColor 0.588 0.588 0.588
transparency 0}}}
Shape { geometry IndexedFaceSet 
{ creaseAngle 0.50 coordIndex [0,1,2,-1,2,1,3,-1]
coord Coordinate { point [0.19685 0.31496 0,0.19685 0.31496 0.0200787,0.19685 -0.31496 0,0.19685 -0.31496 0.0200787]
}}
appearance Appearance{material Material{diffuseColor 0.588 0.588 0.588
transparency 0}}}
Shape { geometry IndexedFaceSet 
{ creaseAngle 0.50 coordIndex [0,1,2,-1,2,1,3,-1]
coord Coordinate { point [-0.19685 0.31496 0,-0.19685 0.31496 0.0200787,0.19685 0.31496 0,0.19685 0.31496 0.0200787]
}}
appearance Appearance{material Material{diffuseColor 0.588 0.588 0.588
transparency 0}}}
Shape { geometry IndexedFaceSet 
{ creaseAngle 0.50 coordIndex [0,1,2,-1,2,1,3,-1]
coord Coordinate { point [-0.19685 -0.31496 0,-0.19685 -0.31496 0.0200787,-0.19685 0.31496 0,-0.19685 0.31496 0.0200787]
}}
appearance Appearance{material Material{diffuseColor 0.588 0.588 0.588
transparency 0}}}
Shape { geometry IndexedFaceSet 
{ creaseAngle 0.50 coordIndex [0,1,2,-1,0,3,1,-1,1,4,5,-1,3,4,1,-1]
coord Coordinate { point [0.3937 0.324802 0,0.373621 0.324802 0.019685,0.3937 0.324802 0.019685,0.226377 0.324802 0,0.226377 0.324802 0.0200787,0.373621 0.324802 0.0200787]
}}
appearance Appearance{material Material{diffuseColor 0.725 0.725 0.725
transparency 0}}}
Shape { geometry IndexedFaceSet 
{ creaseAngle 0.50 coordIndex [0,1,2,-1,1,3,2,-1,0,4,1,-1,4,5,1,-1]
coord Coordinate { point [0.226377 0.187007 0,0.373621 0.187007 0.019685,0.226377 0.187007 0.0200787,0.373621 0.187007 0.0200787,0.3937 0.187007 0,0.3937 0.187007 0.019685]
}}
appearance Appearance{material Material{diffuseColor 0.725 0.725 0.725
transparency 0}}}
Shape { geometry IndexedFaceSet 
{ creaseAngle 0.50 coordIndex [0,1,2,-1,3,1,0,-1]
coord Coordinate { point [0.373621 0.187007 0.019685,0.3937 0.324802 0.019685,0.373621 0.324802 0.019685,0.3937 0.187007 0.019685]
}}
appearance Appearance{material Material{diffuseColor 0.725 0.725 0.725
transparency 0}}}
Shape { geometry IndexedFaceSet 
{ creaseAngle 0.50 coordIndex [0,1,2,-1,3,1,0,-1]
coord Coordinate { point [0.226377 0.187007 0.0200787,0.373621 0.324802 0.0200787,0.226377 0.324802 0.0200787,0.373621 0.187007 0.0200787]
}}
appearance Appearance{material Material{diffuseColor 0.725 0.725 0.725
transparency 0}}}
Shape { geometry IndexedFaceSet 
{ creaseAngle 0.50 coordIndex [0,1,2,-1,2,1,3,-1]
coord Coordinate { point [0.3937 0.324802 0,0.3937 0.324802 0.019685,0.3937 0.187007 0,0.3937 0.187007 0.019685]
}}
appearance Appearance{material Material{diffuseColor 0.725 0.725 0.725
transparency 0}}}
Shape { geometry IndexedFaceSet 
{ creaseAngle 0.50 coordIndex [0,1,2,-1,2,1,3,-1]
coord Coordinate { point [0.226377 0.187007 0,0.226377 0.187007 0.0200787,0.226377 0.324802 0,0.226377 0.324802 0.0200787]
}}
appearance Appearance{material Material{diffuseColor 0.725 0.725 0.725
transparency 0}}}
Shape { geometry IndexedFaceSet 
{ creaseAngle 0.50 coordIndex [0,1,2,-1,3,1,0,-1]
coord Coordinate { point [0.373621 0.187007 0.019685,0.373621 0.324802 0.0200787,0.373621 0.187007 0.0200787,0.373621 0.324802 0.019685]
}}
appearance Appearance{material Material{diffuseColor 0.725 0.725 0.725
transparency 0}}}
Shape { geometry IndexedFaceSet 
{ creaseAngle 0.50 coordIndex [0,1,2,-1,2,1,3,-1]
coord Coordinate { point [0.226377 0.187007 0,0.226377 0.324802 0,0.3937 0.187007 0,0.3937 0.324802 0]
}}
appearance Appearance{material Material{diffuseColor 0.725 0.725 0.725
transparency 0}}}
Shape { geometry IndexedFaceSet 
{ creaseAngle 0.50 coordIndex [0,1,2,-1,0,3,1,-1,1,4,5,-1,3,4,1,-1]
coord Coordinate { point [0.3937 0.0688975 0,0.373621 0.0688975 0.019685,0.3937 0.0688975 0.019685,0.226377 0.0688975 0,0.226377 0.0688975 0.0200787,0.373621 0.0688975 0.0200787]
}}
appearance Appearance{material Material{diffuseColor 0.725 0.725 0.725
transparency 0}}}
Shape { geometry IndexedFaceSet 
{ creaseAngle 0.50 coordIndex [0,1,2,-1,1,3,2,-1,0,4,1,-1,4,5,1,-1]
coord Coordinate { point [0.226377 -0.0688975 0,0.373621 -0.0688975 0.019685,0.226377 -0.0688975 0.0200787,0.373621 -0.0688975 0.0200787,0.3937 -0.0688975 0,0.3937 -0.0688975 0.019685]
}}
appearance Appearance{material Material{diffuseColor 0.725 0.725 0.725
transparency 0}}}
Shape { geometry IndexedFaceSet 
{ creaseAngle 0.50 coordIndex [0,1,2,-1,3,1,0,-1]
coord Coordinate { point [0.373621 -0.0688975 0.019685,0.3937 0.0688975 0.019685,0.373621 0.0688975 0.019685,0.3937 -0.0688975 0.019685]
}}
appearance Appearance{material Material{diffuseColor 0.725 0.725 0.725
transparency 0}}}
Shape { geometry IndexedFaceSet 
{ creaseAngle 0.50 coordIndex [0,1,2,-1,3,1,0,-1]
coord Coordinate { point [0.226377 -0.0688975 0.0200787,0.373621 0.0688975 0.0200787,0.226377 0.0688975 0.0200787,0.373621 -0.0688975 0.0200787]
}}
appearance Appearance{material Material{diffuseColor 0.725 0.725 0.725
transparency 0}}}
Shape { geometry IndexedFaceSet 
{ creaseAngle 0.50 coordIndex [0,1,2,-1,2,1,3,-1]
coord Coordinate { point [0.3937 0.0688975 0,0.3937 0.0688975 0.019685,0.3937 -0.0688975 0,0.3937 -0.0688975 0.019685]
}}
appearance Appearance{material Material{diffuseColor 0.725 0.725 0.725
transparency 0}}}
Shape { geometry IndexedFaceSet 
{ creaseAngle 0.50 coordIndex [0,1,2,-1,2,1,3,-1]
coord Coordinate { point [0.226377 -0.0688975 0,0.226377 -0.0688975 0.0200787,0.226377 0.0688975 0,0.226377 0.0688975 0.0200787]
}}
appearance Appearance{material Material{diffuseColor 0.725 0.725 0.725
transparency 0}}}
Shape { geometry IndexedFaceSet 
{ creaseAngle 0.50 coordIndex [0,1,2,-1,3,1,0,-1]
coord Coordinate { point [0.373621 -0.0688975 0.019685,0.373621 0.0688975 0.0200787,0.373621 -0.0688975 0.0200787,0.373621 0.0688975 0.019685]
}}
appearance Appearance{material Material{diffuseColor 0.725 0.725 0.725
transparency 0}}}
Shape { geometry IndexedFaceSet 
{ creaseAngle 0.50 coordIndex [0,1,2,-1,2,1,3,-1]
coord Coordinate { point [0.226377 -0.0688975 0,0.226377 0.0688975 0,0.3937 -0.0688975 0,0.3937 0.0688975 0]
}}
appearance Appearance{material Material{diffuseColor 0.725 0.725 0.725
transparency 0}}}
Shape { geometry IndexedFaceSet 
{ creaseAngle 0.50 coordIndex [0,1,2,-1,0,3,1,-1,1,4,5,-1,3,4,1,-1]
coord Coordinate { point [0.3937 -0.187007 0,0.373621 -0.187007 0.019685,0.3937 -0.187007 0.019685,0.226377 -0.187007 0,0.226377 -0.187007 0.0200787,0.373621 -0.187007 0.0200787]
}}
appearance Appearance{material Material{diffuseColor 0.725 0.725 0.725
transparency 0}}}
Shape { geometry IndexedFaceSet 
{ creaseAngle 0.50 coordIndex [0,1,2,-1,1,3,2,-1,0,4,1,-1,4,5,1,-1]
coord Coordinate { point [0.226377 -0.324802 0,0.373621 -0.324802 0.019685,0.226377 -0.324802 0.0200787,0.373621 -0.324802 0.0200787,0.3937 -0.324802 0,0.3937 -0.324802 0.019685]
}}
appearance Appearance{material Material{diffuseColor 0.725 0.725 0.725
transparency 0}}}
Shape { geometry IndexedFaceSet 
{ creaseAngle 0.50 coordIndex [0,1,2,-1,3,1,0,-1]
coord Coordinate { point [0.373621 -0.324802 0.019685,0.3937 -0.187007 0.019685,0.373621 -0.187007 0.019685,0.3937 -0.324802 0.019685]
}}
appearance Appearance{material Material{diffuseColor 0.725 0.725 0.725
transparency 0}}}
Shape { geometry IndexedFaceSet 
{ creaseAngle 0.50 coordIndex [0,1,2,-1,3,1,0,-1]
coord Coordinate { point [0.226377 -0.324802 0.0200787,0.373621 -0.187007 0.0200787,0.226377 -0.187007 0.0200787,0.373621 -0.324802 0.0200787]
}}
appearance Appearance{material Material{diffuseColor 0.725 0.725 0.725
transparency 0}}}
Shape { geometry IndexedFaceSet 
{ creaseAngle 0.50 coordIndex [0,1,2,-1,2,1,3,-1]
coord Coordinate { point [0.3937 -0.187007 0,0.3937 -0.187007 0.019685,0.3937 -0.324802 0,0.3937 -0.324802 0.019685]
}}
appearance Appearance{material Material{diffuseColor 0.725 0.725 0.725
transparency 0}}}
Shape { geometry IndexedFaceSet 
{ creaseAngle 0.50 coordIndex [0,1,2,-1,2,1,3,-1]
coord Coordinate { point [0.226377 -0.324802 0,0.226377 -0.324802 0.0200787,0.226377 -0.187007 0,0.226377 -0.187007 0.0200787]
}}
appearance Appearance{material Material{diffuseColor 0.725 0.725 0.725
transparency 0}}}
Shape { geometry IndexedFaceSet 
{ creaseAngle 0.50 coordIndex [0,1,2,-1,3,1,0,-1]
coord Coordinate { point [0.373621 -0.324802 0.019685,0.373621 -0.187007 0.0200787,0.373621 -0.324802 0.0200787,0.373621 -0.187007 0.019685]
}}
appearance Appearance{material Material{diffuseColor 0.725 0.725 0.725
transparency 0}}}
Shape { geometry IndexedFaceSet 
{ creaseAngle 0.50 coordIndex [0,1,2,-1,2,1,3,-1]
coord Coordinate { point [0.226377 -0.324802 0,0.226377 -0.187007 0,0.3937 -0.324802 0,0.3937 -0.187007 0]
}}
appearance Appearance{material Material{diffuseColor 0.725 0.725 0.725
transparency 0}}}
Shape { geometry IndexedFaceSet 
{ creaseAngle 0.50 coordIndex [0,1,2,-1,0,3,1,-1,1,4,5,-1,3,4,1,-1]
coord Coordinate { point [-0.3937 -0.324802 0,-0.373621 -0.324802 0.019685,-0.3937 -0.324802 0.019685,-0.226377 -0.324802 0,-0.226377 -0.324802 0.0200787,-0.373621 -0.324802 0.0200787]
}}
appearance Appearance{material Material{diffuseColor 0.725 0.725 0.725
transparency 0}}}
Shape { geometry IndexedFaceSet 
{ creaseAngle 0.50 coordIndex [0,1,2,-1,1,3,2,-1,0,4,1,-1,4,5,1,-1]
coord Coordinate { point [-0.226377 -0.187007 0,-0.373621 -0.187007 0.019685,-0.226377 -0.187007 0.0200787,-0.373621 -0.187007 0.0200787,-0.3937 -0.187007 0,-0.3937 -0.187007 0.019685]
}}
appearance Appearance{material Material{diffuseColor 0.725 0.725 0.725
transparency 0}}}
Shape { geometry IndexedFaceSet 
{ creaseAngle 0.50 coordIndex [0,1,2,-1,2,1,3,-1]
coord Coordinate { point [-0.373621 -0.324802 0.019685,-0.373621 -0.187007 0.019685,-0.3937 -0.324802 0.019685,-0.3937 -0.187007 0.019685]
}}
appearance Appearance{material Material{diffuseColor 0.725 0.725 0.725
transparency 0}}}
Shape { geometry IndexedFaceSet 
{ creaseAngle 0.50 coordIndex [0,1,2,-1,2,1,3,-1]
coord Coordinate { point [-0.226377 -0.324802 0.0200787,-0.226377 -0.187007 0.0200787,-0.373621 -0.324802 0.0200787,-0.373621 -0.187007 0.0200787]
}}
appearance Appearance{material Material{diffuseColor 0.725 0.725 0.725
transparency 0}}}
Shape { geometry IndexedFaceSet 
{ creaseAngle 0.50 coordIndex [0,1,2,-1,2,1,3,-1]
coord Coordinate { point [-0.3937 -0.324802 0,-0.3937 -0.324802 0.019685,-0.3937 -0.187007 0,-0.3937 -0.187007 0.019685]
}}
appearance Appearance{material Material{diffuseColor 0.725 0.725 0.725
transparency 0}}}
Shape { geometry IndexedFaceSet 
{ creaseAngle 0.50 coordIndex [0,1,2,-1,2,1,3,-1]
coord Coordinate { point [-0.226377 -0.187007 0,-0.226377 -0.187007 0.0200787,-0.226377 -0.324802 0,-0.226377 -0.324802 0.0200787]
}}
appearance Appearance{material Material{diffuseColor 0.725 0.725 0.725
transparency 0}}}
Shape { geometry IndexedFaceSet 
{ creaseAngle 0.50 coordIndex [0,1,2,-1,3,1,0,-1]
coord Coordinate { point [-0.373621 -0.187007 0.019685,-0.373621 -0.324802 0.0200787,-0.373621 -0.187007 0.0200787,-0.373621 -0.324802 0.019685]
}}
appearance Appearance{material Material{diffuseColor 0.725 0.725 0.725
transparency 0}}}
Shape { geometry IndexedFaceSet 
{ creaseAngle 0.50 coordIndex [0,1,2,-1,3,1,0,-1]
coord Coordinate { point [-0.226377 -0.324802 0,-0.3937 -0.187007 0,-0.226377 -0.187007 0,-0.3937 -0.324802 0]
}}
appearance Appearance{material Material{diffuseColor 0.725 0.725 0.725
transparency 0}}}
Shape { geometry IndexedFaceSet 
{ creaseAngle 0.50 coordIndex [0,1,2,-1,0,3,1,-1,1,4,5,-1,3,4,1,-1]
coord Coordinate { point [-0.3937 -0.0688975 0,-0.373621 -0.0688975 0.019685,-0.3937 -0.0688975 0.019685,-0.226377 -0.0688975 0,-0.226377 -0.0688975 0.0200787,-0.373621 -0.0688975 0.0200787]
}}
appearance Appearance{material Material{diffuseColor 0.725 0.725 0.725
transparency 0}}}
Shape { geometry IndexedFaceSet 
{ creaseAngle 0.50 coordIndex [0,1,2,-1,1,3,2,-1,0,4,1,-1,4,5,1,-1]
coord Coordinate { point [-0.226377 0.0688975 0,-0.373621 0.0688975 0.019685,-0.226377 0.0688975 0.0200787,-0.373621 0.0688975 0.0200787,-0.3937 0.0688975 0,-0.3937 0.0688975 0.019685]
}}
appearance Appearance{material Material{diffuseColor 0.725 0.725 0.725
transparency 0}}}
Shape { geometry IndexedFaceSet 
{ creaseAngle 0.50 coordIndex [0,1,2,-1,2,1,3,-1]
coord Coordinate { point [-0.373621 -0.0688975 0.019685,-0.373621 0.0688975 0.019685,-0.3937 -0.0688975 0.019685,-0.3937 0.0688975 0.019685]
}}
appearance Appearance{material Material{diffuseColor 0.725 0.725 0.725
transparency 0}}}
Shape { geometry IndexedFaceSet 
{ creaseAngle 0.50 coordIndex [0,1,2,-1,2,1,3,-1]
coord Coordinate { point [-0.226377 -0.0688975 0.0200787,-0.226377 0.0688975 0.0200787,-0.373621 -0.0688975 0.0200787,-0.373621 0.0688975 0.0200787]
}}
appearance Appearance{material Material{diffuseColor 0.725 0.725 0.725
transparency 0}}}
Shape { geometry IndexedFaceSet 
{ creaseAngle 0.50 coordIndex [0,1,2,-1,2,1,3,-1]
coord Coordinate { point [-0.3937 -0.0688975 0,-0.3937 -0.0688975 0.019685,-0.3937 0.0688975 0,-0.3937 0.0688975 0.019685]
}}
appearance Appearance{material Material{diffuseColor 0.725 0.725 0.725
transparency 0}}}
Shape { geometry IndexedFaceSet 
{ creaseAngle 0.50 coordIndex [0,1,2,-1,2,1,3,-1]
coord Coordinate { point [-0.226377 0.0688975 0,-0.226377 0.0688975 0.0200787,-0.226377 -0.0688975 0,-0.226377 -0.0688975 0.0200787]
}}
appearance Appearance{material Material{diffuseColor 0.725 0.725 0.725
transparency 0}}}
Shape { geometry IndexedFaceSet 
{ creaseAngle 0.50 coordIndex [0,1,2,-1,3,1,0,-1]
coord Coordinate { point [-0.373621 0.0688975 0.019685,-0.373621 -0.0688975 0.0200787,-0.373621 0.0688975 0.0200787,-0.373621 -0.0688975 0.019685]
}}
appearance Appearance{material Material{diffuseColor 0.725 0.725 0.725
transparency 0}}}
Shape { geometry IndexedFaceSet 
{ creaseAngle 0.50 coordIndex [0,1,2,-1,3,1,0,-1]
coord Coordinate { point [-0.226377 -0.0688975 0,-0.3937 0.0688975 0,-0.226377 0.0688975 0,-0.3937 -0.0688975 0]
}}
appearance Appearance{material Material{diffuseColor 0.725 0.725 0.725
transparency 0}}}
Shape { geometry IndexedFaceSet 
{ creaseAngle 0.50 coordIndex [0,1,2,-1,0,3,1,-1,1,4,5,-1,3,4,1,-1]
coord Coordinate { point [-0.3937 0.187007 0,-0.373621 0.187007 0.019685,-0.3937 0.187007 0.019685,-0.226377 0.187007 0,-0.226377 0.187007 0.0200787,-0.373621 0.187007 0.0200787]
}}
appearance Appearance{material Material{diffuseColor 0.725 0.725 0.725
transparency 0}}}
Shape { geometry IndexedFaceSet 
{ creaseAngle 0.50 coordIndex [0,1,2,-1,1,3,2,-1,0,4,1,-1,4,5,1,-1]
coord Coordinate { point [-0.226377 0.324802 0,-0.373621 0.324802 0.019685,-0.226377 0.324802 0.0200787,-0.373621 0.324802 0.0200787,-0.3937 0.324802 0,-0.3937 0.324802 0.019685]
}}
appearance Appearance{material Material{diffuseColor 0.725 0.725 0.725
transparency 0}}}
Shape { geometry IndexedFaceSet 
{ creaseAngle 0.50 coordIndex [0,1,2,-1,2,1,3,-1]
coord Coordinate { point [-0.373621 0.187007 0.019685,-0.373621 0.324802 0.019685,-0.3937 0.187007 0.019685,-0.3937 0.324802 0.019685]
}}
appearance Appearance{material Material{diffuseColor 0.725 0.725 0.725
transparency 0}}}
Shape { geometry IndexedFaceSet 
{ creaseAngle 0.50 coordIndex [0,1,2,-1,2,1,3,-1]
coord Coordinate { point [-0.226377 0.187007 0.0200787,-0.226377 0.324802 0.0200787,-0.373621 0.187007 0.0200787,-0.373621 0.324802 0.0200787]
}}
appearance Appearance{material Material{diffuseColor 0.725 0.725 0.725
transparency 0}}}
Shape { geometry IndexedFaceSet 
{ creaseAngle 0.50 coordIndex [0,1,2,-1,2,1,3,-1]
coord Coordinate { point [-0.3937 0.187007 0,-0.3937 0.187007 0.019685,-0.3937 0.324802 0,-0.3937 0.324802 0.019685]
}}
appearance Appearance{material Material{diffuseColor 0.725 0.725 0.725
transparency 0}}}
Shape { geometry IndexedFaceSet 
{ creaseAngle 0.50 coordIndex [0,1,2,-1,2,1,3,-1]
coord Coordinate { point [-0.226377 0.324802 0,-0.226377 0.324802 0.0200787,-0.226377 0.187007 0,-0.226377 0.187007 0.0200787]
}}
appearance Appearance{material Material{diffuseColor 0.725 0.725 0.725
transparency 0}}}
Shape { geometry IndexedFaceSet 
{ creaseAngle 0.50 coordIndex [0,1,2,-1,3,1,0,-1]
coord Coordinate { point [-0.373621 0.324802 0.019685,-0.373621 0.187007 0.0200787,-0.373621 0.324802 0.0200787,-0.373621 0.187007 0.019685]
}}
appearance Appearance{material Material{diffuseColor 0.725 0.725 0.725
transparency 0}}}
