#VRML V2.0 utf8
#kicad StepUp wrl exported

Shape { geometry IndexedFaceSet 
{ creaseAngle 0.50 coordIndex [0,1,2,-1,2,1,3,-1,3,4,5,-1,1,4,3,-1,5,6,7,-1,4,6,5,-1,7,8,9,-1,6,8,7,-1,9,10,11,-1,8,10,9,-1,11,12,13,-1,10,12,11,-1,13,14,15,-1,12,14,13,-1]
coord Coordinate { point [-0.440635 -0.564566 0.059055,-0.439648 -0.573327 0.059055,-0.440635 -0.564566 1.37685e-15,-0.439648 -0.573327 1.3987e-15,-0.436736 -0.581648 0.059055,-0.436736 -0.581648 1.3987e-15,-0.432046 -0.589113 0.059055,-0.432046 -0.589113 1.3987e-15,-0.425812 -0.595347 0.059055,-0.425812 -0.595347 1.3987e-15,-0.418347 -0.600037 0.059055,-0.418347 -0.600037 1.3987e-15,-0.410026 -0.602949 0.059055,-0.410026 -0.602949 1.3987e-15,-0.401265 -0.603936 0.059055,-0.401265 -0.603936 1.35499e-15]
}}
appearance Appearance{material Material{diffuseColor 0.2 0.2 0.2
transparency 0}}}
Shape { geometry IndexedFaceSet 
{ creaseAngle 0.50 coordIndex [0,1,2,-1,2,1,3,-1,3,4,5,-1,1,4,3,-1,5,6,7,-1,4,6,5,-1,7,8,9,-1,6,8,7,-1,9,10,11,-1,8,10,9,-1,11,12,13,-1,10,12,11,-1,13,14,15,-1,12,14,13,-1]
coord Coordinate { point [0.956527 0.559054 0.059055,0.95554 0.567814 0.059055,0.956527 0.559054 1.11459e-15,0.95554 0.567814 1.18016e-15,0.952628 0.576136 0.059055,0.952628 0.576136 1.13645e-15,0.947938 0.583601 0.059055,0.947938 0.583601 1.13645e-15,0.941704 0.589835 0.059055,0.941704 0.589835 1.13645e-15,0.934239 0.594525 0.059055,0.934239 0.594525 1.13645e-15,0.925918 0.597437 0.059055,0.925918 0.597437 1.13645e-15,0.917157 0.598424 0.059055,0.917157 0.598424 1.02717e-15]
}}
appearance Appearance{material Material{diffuseColor 0.2 0.2 0.2
transparency 0}}}
Shape { geometry IndexedFaceSet 
{ creaseAngle 0.50 coordIndex [0,1,2,-1,2,1,3,-1,3,4,5,-1,1,4,3,-1,5,6,7,-1,4,6,5,-1,7,8,9,-1,9,8,10,-1,6,8,7,-1,10,11,12,-1,8,11,10,-1,11,13,12,-1,12,14,15,-1,13,14,12,-1]
coord Coordinate { point [0.956527 -0.564566 1.37685e-15,0.95554 -0.573327 1.3987e-15,0.956527 -0.564566 0.059055,0.95554 -0.573327 0.059055,0.952628 -0.581648 1.3987e-15,0.952628 -0.581648 0.059055,0.947938 -0.589113 1.3987e-15,0.947938 -0.589113 0.059055,0.941704 -0.595347 1.3987e-15,0.941704 -0.595347 0.059055,0.934239 -0.600037 0.059055,0.934239 -0.600037 1.3987e-15,0.925918 -0.602949 0.059055,0.925918 -0.602949 1.3987e-15,0.917157 -0.603936 1.35499e-15,0.917157 -0.603936 0.059055]
}}
appearance Appearance{material Material{diffuseColor 0.2 0.2 0.2
transparency 0}}}
Shape { geometry IndexedFaceSet 
{ creaseAngle 0.50 coordIndex [0,1,2,-1,2,3,4,-1,1,3,2,-1,4,5,6,-1,3,5,4,-1,6,7,8,-1,5,7,6,-1,8,9,10,-1,7,9,8,-1,10,11,12,-1,9,11,10,-1,12,13,14,-1,11,13,12,-1,13,15,14,-1]
coord Coordinate { point [-0.440635 0.559054 0.059055,-0.440635 0.559054 1.11459e-15,-0.439648 0.567814 0.059055,-0.439648 0.567814 -2.18547e-17,-0.436736 0.576136 0.059055,-0.436736 0.576136 -6.55642e-17,-0.432046 0.583601 0.059055,-0.432046 0.583601 -8.7419e-17,-0.425812 0.589835 0.059055,-0.425812 0.589835 -8.7419e-17,-0.418347 0.594525 0.059055,-0.418347 0.594525 -8.7419e-17,-0.410026 0.597437 0.059055,-0.410026 0.597437 -8.7419e-17,-0.401265 0.598424 0.059055,-0.401265 0.598424 -1.09274e-16]
}}
appearance Appearance{material Material{diffuseColor 0.2 0.2 0.2
transparency 0}}}
Shape { geometry IndexedFaceSet 
{ creaseAngle 0.50 coordIndex [0,1,2,-1,3,1,0,-1]
coord Coordinate { point [-0.401265 0.598424 0.059055,0.917157 0.598424 1.02717e-15,0.917157 0.598424 0.059055,-0.401265 0.598424 -1.09274e-16]
}}
appearance Appearance{material Material{diffuseColor 0.2 0.2 0.2
transparency 0}}}
Shape { geometry IndexedFaceSet 
{ creaseAngle 0.50 coordIndex [0,1,2,-1,2,3,0,-1,0,4,1,-1,3,5,0,-1,0,6,4,-1,5,7,0,-1,0,8,6,-1,7,9,0,-1,9,10,11,-1,11,10,12,-1,12,10,13,-1,13,10,14,-1,14,10,15,-1,7,10,9,-1,10,16,15,-1,16,17,15,-1,16,18,17,-1,19,20,18,-1,18,20,17,-1,19,21,20,-1,21,22,20,-1,22,23,20,-1,23,24,20,-1]
coord Coordinate { point [-0.440635 0.678345 0.059055,-0.432046 0.583601 0.059055,-0.425812 0.589835 0.059055,-0.418347 0.594525 0.059055,-0.436736 0.576136 0.059055,-0.410026 0.597437 0.059055,-0.439648 0.567814 0.059055,-0.401265 0.598424 0.059055,-0.440635 0.559054 0.059055,0.877787 0.678345 0.059055,0.917157 0.598424 0.059055,0.895309 0.676371 0.059055,0.911951 0.670547 0.059055,0.926881 0.661166 0.059055,0.939349 0.648699 0.059055,0.94873 0.633769 0.059055,0.925918 0.597437 0.059055,0.954553 0.617126 0.059055,0.934239 0.594525 0.059055,0.941704 0.589835 0.059055,0.956527 0.599605 0.059055,0.947938 0.583601 0.059055,0.952628 0.576136 0.059055,0.95554 0.567814 0.059055,0.956527 0.559054 0.059055]
}}
appearance Appearance{material Material{diffuseColor 0.2 0.2 0.2
transparency 0}}}
Shape { geometry IndexedFaceSet 
{ creaseAngle 0.50 coordIndex [0,1,2,-1,3,1,0,-1,4,1,3,-1,5,1,4,-1,6,1,5,-1,7,1,6,-1,8,1,7,-1,9,10,11,-1,12,10,9,-1,13,10,12,-1,14,10,13,-1,15,10,14,-1,2,16,17,-1,1,16,2,-1,16,18,17,-1,19,20,15,-1,15,20,10,-1,17,21,19,-1,19,21,20,-1,18,22,17,-1,22,23,17,-1,17,24,21,-1,23,24,17,-1]
coord Coordinate { point [-0.410026 -0.602949 0.059055,-0.440635 -0.683857 0.059055,-0.401265 -0.603936 0.059055,-0.418347 -0.600037 0.059055,-0.425812 -0.595347 0.059055,-0.432046 -0.589113 0.059055,-0.436736 -0.581648 0.059055,-0.439648 -0.573327 0.059055,-0.440635 -0.564566 0.059055,0.95554 -0.573327 0.059055,0.956527 -0.605117 0.059055,0.956527 -0.564566 0.059055,0.952628 -0.581648 0.059055,0.947938 -0.589113 0.059055,0.941704 -0.595347 0.059055,0.934239 -0.600037 0.059055,0.877787 -0.683857 0.059055,0.917157 -0.603936 0.059055,0.895309 -0.681883 0.059055,0.925918 -0.602949 0.059055,0.954553 -0.622638 0.059055,0.94873 -0.639281 0.059055,0.911951 -0.676059 0.059055,0.926881 -0.666678 0.059055,0.939349 -0.654211 0.059055]
}}
appearance Appearance{material Material{diffuseColor 0.2 0.2 0.2
transparency 0}}}
Shape { geometry IndexedFaceSet 
{ creaseAngle 0.50 coordIndex [0,1,2,-1,3,1,0,-1]
coord Coordinate { point [0.917157 -0.603936 0.059055,-0.401265 -0.603936 1.35499e-15,-0.401265 -0.603936 0.059055,0.917157 -0.603936 1.35499e-15]
}}
appearance Appearance{material Material{diffuseColor 0.2 0.2 0.2
transparency 0}}}
Shape { geometry IndexedFaceSet 
{ creaseAngle 0.50 coordIndex [0,1,2,-1,2,1,3,-1,3,4,5,-1,1,4,3,-1,5,6,7,-1,4,6,5,-1,7,8,9,-1,6,8,7,-1,9,10,11,-1,8,10,9,-1,11,12,13,-1,10,12,11,-1,13,14,15,-1,12,14,13,-1]
coord Coordinate { point [-0.441895 0.678345 0.15,-0.459416 0.676371 0.15,-0.441895 0.678345 0.0599999,-0.459416 0.676371 0.0599999,-0.476059 0.670547 0.15,-0.476059 0.670547 0.0599999,-0.490989 0.661166 0.15,-0.490989 0.661166 0.0599999,-0.503457 0.648699 0.15,-0.503457 0.648699 0.0599999,-0.512837 0.633769 0.15,-0.512837 0.633769 0.0599999,-0.518661 0.617126 0.15,-0.518661 0.617126 0.0599999,-0.520635 0.599605 0.15,-0.520635 0.599605 0.0599999]
}}
appearance Appearance{material Material{diffuseColor 0.2 0.2 0.2
transparency 0}}}
Shape { geometry IndexedFaceSet 
{ creaseAngle 0.50 coordIndex [0,1,2,-1,3,2,4,-1,3,0,2,-1,5,4,6,-1,5,3,4,-1,7,6,8,-1,7,5,6,-1,9,8,10,-1,9,7,8,-1,11,10,12,-1,11,9,10,-1,13,12,14,-1,13,14,15,-1,13,11,12,-1,16,15,17,-1,16,13,15,-1]
coord Coordinate { point [0.956527 0.426377 0.15,0.956527 0.426377 1.18016e-15,0.958466 0.409012 7.64916e-16,0.958501 0.408856 0.15,0.964187 0.392502 7.86771e-16,0.964325 0.392213 0.15,0.973408 0.37766 8.08625e-16,0.973706 0.377283 0.15,0.985675 0.365217 8.7419e-16,0.986174 0.364816 0.15,1.00038 0.355786 8.96044e-16,1.0011 0.355435 0.15,1.01681 0.349831 1.18016e-15,1.01775 0.349611 0.15,1.02313 0.348584 0.00051314,1.02933 0.347867 0.00204718,1.03527 0.347637 0.15,1.03527 0.347637 0.00459406]
}}
appearance Appearance{material Material{diffuseColor 0.2 0.2 0.2
transparency 0}}}
Shape { geometry IndexedFaceSet 
{ creaseAngle 0.50 coordIndex [0,1,2,-1,3,2,4,-1,3,4,5,-1,3,0,2,-1,6,5,7,-1,6,3,5,-1,8,7,9,-1,8,6,7,-1,10,9,11,-1,10,8,9,-1,12,11,13,-1,12,10,11,-1,14,13,15,-1,14,12,13,-1,16,15,17,-1,16,14,15,-1]
coord Coordinate { point [1.03527 -0.353149 0.15,1.03527 -0.353149 0.00459406,1.02933 -0.353379 0.00204745,1.01775 -0.355123 0.15,1.02313 -0.354096 0.000513272,1.01681 -0.355343 1.35499e-15,1.0011 -0.360947 0.15,1.00038 -0.361298 1.66096e-15,0.986174 -0.370328 0.15,0.985675 -0.370729 1.66096e-15,0.973706 -0.382795 0.15,0.973408 -0.383172 1.68281e-15,0.964325 -0.397725 0.15,0.964187 -0.398014 1.68281e-15,0.958501 -0.414368 0.15,0.958466 -0.414524 1.70467e-15,0.956527 -0.431889 0.15,0.956527 -0.431889 1.35499e-15]
}}
appearance Appearance{material Material{diffuseColor 0.2 0.2 0.2
transparency 0}}}
Shape { geometry IndexedFaceSet 
{ creaseAngle 0.50 coordIndex [0,1,2,-1,2,1,3,-1,3,4,5,-1,1,4,3,-1,5,6,7,-1,4,6,5,-1,7,8,9,-1,6,8,7,-1,9,10,11,-1,8,10,9,-1,11,12,13,-1,10,12,11,-1,13,14,15,-1,12,14,13,-1]
coord Coordinate { point [-0.520635 -0.605117 0.15,-0.518661 -0.622638 0.15,-0.520635 -0.605117 0.0599999,-0.518661 -0.622638 0.0599999,-0.512837 -0.639281 0.15,-0.512837 -0.639281 0.0599999,-0.503457 -0.654211 0.15,-0.503457 -0.654211 0.0599999,-0.490989 -0.666678 0.15,-0.490989 -0.666678 0.0599999,-0.476059 -0.676059 0.15,-0.476059 -0.676059 0.0599999,-0.459416 -0.681883 0.15,-0.459416 -0.681883 0.0599999,-0.441895 -0.683857 0.15,-0.441895 -0.683857 0.0599999]
}}
appearance Appearance{material Material{diffuseColor 0.2 0.2 0.2
transparency 0}}}
Shape { geometry IndexedFaceSet 
{ creaseAngle 0.50 coordIndex [0,1,2,-1,3,1,0,-1,4,5,3,-1,4,3,0,-1]
coord Coordinate { point [0.88763 0.677727 0.15,0.867945 0.678345 0.130315,0.877787 0.678345 0.140157,0.867945 -0.683857 0.130315,0.88763 -0.683239 0.15,0.877787 -0.683857 0.140157]
}}
appearance Appearance{material Material{diffuseColor 0.2 0.2 0.2
transparency 0}}}
Shape { geometry IndexedFaceSet 
{ creaseAngle 0.50 coordIndex [0,1,2,-1,0,2,3,-1]
coord Coordinate { point [0.867945 -0.683857 0.130315,0.84826 -0.683857 0.15,0.84826 0.678345 0.15,0.867945 0.678345 0.130315]
}}
appearance Appearance{material Material{diffuseColor 0.2 0.2 0.2
transparency 0}}}
Shape { geometry IndexedFaceSet 
{ creaseAngle 0.50 coordIndex [0,1,2,-1,3,4,5,-1,3,5,0,-1,3,2,6,-1,3,6,7,-1,3,0,2,-1,8,9,10,-1,11,12,4,-1,11,3,13,-1,11,13,14,-1,11,14,9,-1,11,8,15,-1,11,15,16,-1,11,4,3,-1,11,9,8,-1,17,12,11,-1]
coord Coordinate { point [-0.476059 -0.676059 0.15,-0.490989 -0.666678 0.15,-0.503457 -0.654211 0.15,-0.520635 -0.605117 0.15,-0.441895 -0.683857 0.15,-0.459416 -0.681883 0.15,-0.512837 -0.639281 0.15,-0.518661 -0.622638 0.15,-0.490989 0.661166 0.15,-0.512837 0.633769 0.15,-0.503457 0.648699 0.15,-0.441895 0.678345 0.15,0.84826 -0.683857 0.15,-0.520635 0.599605 0.15,-0.518661 0.617126 0.15,-0.476059 0.670547 0.15,-0.459416 0.676371 0.15,0.84826 0.678345 0.15]
}}
appearance Appearance{material Material{diffuseColor 0.2 0.2 0.2
transparency 0}}}
Shape { geometry IndexedFaceSet 
{ creaseAngle 0.50 coordIndex [0,1,2,-1,3,1,0,-1]
coord Coordinate { point [-0.520635 -0.605117 0.15,-0.520635 0.599605 0.0599999,-0.520635 0.599605 0.15,-0.520635 -0.605117 0.0599999]
}}
appearance Appearance{material Material{diffuseColor 0.2 0.2 0.2
transparency 0}}}
Shape { geometry IndexedFaceSet 
{ creaseAngle 0.50 coordIndex [0,1,2,-1,0,2,3,-1,0,3,4,-1,0,4,5,-1,0,5,6,-1,0,6,7,-1,8,1,0,-1,9,10,11,-1,12,9,13,-1,12,10,9,-1,14,15,10,-1,14,12,16,-1,14,10,12,-1,17,15,14,-1,17,8,0,-1,17,0,15,-1]
coord Coordinate { point [-0.520635 0.599605 0.0599999,-0.441895 0.678345 0.0599999,-0.459416 0.676371 0.0599999,-0.476059 0.670547 0.0599999,-0.490989 0.661166 0.0599999,-0.503457 0.648699 0.0599999,-0.512837 0.633769 0.0599999,-0.518661 0.617126 0.0599999,-0.440635 0.678345 0.0599999,-0.503457 -0.654211 0.0599999,-0.518661 -0.622638 0.0599999,-0.512837 -0.639281 0.0599999,-0.476059 -0.676059 0.0599999,-0.490989 -0.666678 0.0599999,-0.441895 -0.683857 0.0599999,-0.520635 -0.605117 0.0599999,-0.459416 -0.681883 0.0599999,-0.440635 -0.683857 0.0599999]
}}
appearance Appearance{material Material{diffuseColor 0.2 0.2 0.2
transparency 0}}}
Shape { geometry IndexedFaceSet 
{ creaseAngle 0.50 coordIndex [0,1,2,-1,3,1,0,-1,4,5,1,-1,1,5,2,-1]
coord Coordinate { point [0.956527 -0.431889 1.35499e-15,0.956527 -0.564566 0.059055,0.956527 -0.431889 0.15,0.956527 -0.564566 1.37685e-15,0.956527 -0.605117 0.059055,0.956527 -0.605117 0.15]
}}
appearance Appearance{material Material{diffuseColor 0.2 0.2 0.2
transparency 0}}}
Shape { geometry IndexedFaceSet 
{ creaseAngle 0.50 coordIndex [0,1,2,-1,1,3,2,-1,2,4,5,-1,3,4,2,-1,5,6,7,-1,4,6,5,-1,7,8,9,-1,6,8,7,-1,9,10,11,-1,8,10,9,-1,11,12,13,-1,10,12,11,-1,13,14,15,-1,12,14,13,-1]
coord Coordinate { point [0.877787 -0.683857 0.059055,0.877787 -0.683857 0.140157,0.895309 -0.681883 0.059055,0.88763 -0.683239 0.15,0.905985 -0.678635 0.15,0.911951 -0.676059 0.059055,0.922711 -0.669784 0.15,0.926881 -0.666678 0.059055,0.936842 -0.657199 0.15,0.939349 -0.654211 0.059055,0.947563 -0.641605 0.15,0.94873 -0.639281 0.059055,0.954253 -0.623903 0.15,0.954553 -0.622638 0.059055,0.956527 -0.605117 0.15,0.956527 -0.605117 0.059055]
}}
appearance Appearance{material Material{diffuseColor 0.2 0.2 0.2
transparency 0}}}
Shape { geometry IndexedFaceSet 
{ creaseAngle 0.50 coordIndex [0,1,2,-1,3,1,0,-1,2,4,5,-1,1,6,2,-1,2,6,4,-1,4,7,5,-1]
coord Coordinate { point [0.867945 -0.683857 0.130315,0.877787 -0.683857 0.059055,0.84826 -0.683857 0.15,0.877787 -0.683857 0.140157,-0.440635 -0.683857 0.0599999,-0.441895 -0.683857 0.15,-0.440635 -0.683857 0.059055,-0.441895 -0.683857 0.0599999]
}}
appearance Appearance{material Material{diffuseColor 0.2 0.2 0.2
transparency 0}}}
Shape { geometry IndexedFaceSet 
{ creaseAngle 0.50 coordIndex [0,1,2,-1,1,3,2,-1,4,5,1,-1,1,5,3,-1]
coord Coordinate { point [0.956527 0.599605 0.059055,0.956527 0.559054 0.059055,0.956527 0.599605 0.15,0.956527 0.426377 0.15,0.956527 0.559054 1.11459e-15,0.956527 0.426377 1.18016e-15]
}}
appearance Appearance{material Material{diffuseColor 0.2 0.2 0.2
transparency 0}}}
Shape { geometry IndexedFaceSet 
{ creaseAngle 0.50 coordIndex [0,1,2,-1,2,3,4,-1,1,3,2,-1,4,5,6,-1,3,5,4,-1,6,7,8,-1,5,7,6,-1,8,9,10,-1,7,9,8,-1,10,11,12,-1,9,11,10,-1,11,13,12,-1,12,14,15,-1,13,14,12,-1]
coord Coordinate { point [0.956527 0.599605 0.059055,0.956527 0.599605 0.15,0.954553 0.617126 0.059055,0.954253 0.618391 0.15,0.94873 0.633769 0.059055,0.947563 0.636093 0.15,0.939349 0.648699 0.059055,0.936842 0.651687 0.15,0.926881 0.661166 0.059055,0.922711 0.664272 0.15,0.911951 0.670547 0.059055,0.905985 0.673123 0.15,0.895309 0.676371 0.059055,0.88763 0.677727 0.15,0.877787 0.678345 0.140157,0.877787 0.678345 0.059055]
}}
appearance Appearance{material Material{diffuseColor 0.2 0.2 0.2
transparency 0}}}
Shape { geometry IndexedFaceSet 
{ creaseAngle 0.50 coordIndex [0,1,2,-1,3,4,1,-1,1,4,2,-1,5,6,7,-1,4,6,5,-1,3,6,4,-1]
coord Coordinate { point [-0.441895 0.678345 0.0599999,-0.440635 0.678345 0.0599999,-0.441895 0.678345 0.15,-0.440635 0.678345 0.059055,0.84826 0.678345 0.15,0.867945 0.678345 0.130315,0.877787 0.678345 0.059055,0.877787 0.678345 0.140157]
}}
appearance Appearance{material Material{diffuseColor 0.2 0.2 0.2
transparency 0}}}
Shape { geometry IndexedFaceSet 
{ creaseAngle 0.50 coordIndex [0,1,2,-1,3,4,0,-1,3,0,5,-1,6,5,7,-1,2,7,5,-1,2,5,0,-1]
coord Coordinate { point [-0.440635 0.559054 0.059055,-0.440635 0.678345 0.059055,-0.440635 0.678345 0.0599999,-0.440635 -0.564566 1.37685e-15,-0.440635 0.559054 1.11459e-15,-0.440635 -0.564566 0.059055,-0.440635 -0.683857 0.059055,-0.440635 -0.683857 0.0599999]
}}
appearance Appearance{material Material{diffuseColor 0.2 0.2 0.2
transparency 0}}}
Shape { geometry IndexedFaceSet 
{ creaseAngle 0.50 coordIndex [0,1,2,-1,0,3,1,-1,0,4,3,-1,3,5,6,-1,6,5,7,-1,4,5,3,-1]
coord Coordinate { point [1.03527 0.347637 0.15,1.06598 0.347637 0.149606,1.06591 0.347637 0.15,1.05603 0.347637 0.0359387,1.03527 0.347637 0.00459406,1.04327 0.347637 0.0102123,1.05398 0.347637 0.0263829,1.04963 0.347637 0.0176275]
}}
appearance Appearance{material Material{diffuseColor 0.2 0.2 0.2
transparency 0}}}
Shape { geometry IndexedFaceSet 
{ creaseAngle 0.50 coordIndex [0,1,2,-1,0,3,1,-1,4,5,6,-1,6,7,3,-1,3,7,1,-1,5,7,6,-1]
coord Coordinate { point [1.06598 -0.353149 0.149606,1.03527 -0.353149 0.15,1.06591 -0.353149 0.15,1.05603 -0.353149 0.0359387,1.04963 -0.353149 0.0176275,1.04327 -0.353149 0.0102123,1.05398 -0.353149 0.0263829,1.03527 -0.353149 0.00459406]
}}
appearance Appearance{material Material{diffuseColor 0.2 0.2 0.2
transparency 0}}}
Shape { geometry IndexedFaceSet 
{ creaseAngle 0.50 coordIndex [0,1,2,-1,0,2,3,-1,0,3,4,-1,0,4,5,-1,6,0,5,-1,7,6,5,-1,8,7,5,-1,9,10,11,-1,12,11,13,-1,12,9,11,-1,14,13,15,-1,14,12,13,-1,16,10,9,-1,17,18,10,-1,17,10,16,-1,19,15,8,-1,19,14,15,-1,20,21,22,-1,20,22,18,-1,20,18,17,-1,23,21,20,-1,24,25,26,-1,24,26,19,-1,24,8,5,-1,24,19,8,-1,27,25,24,-1,28,27,29,-1,28,30,31,-1,28,31,25,-1,28,25,27,-1]
coord Coordinate { point [0.954253 -0.623903 0.15,0.947563 -0.641605 0.15,0.936842 -0.657199 0.15,0.922711 -0.669784 0.15,0.905985 -0.678635 0.15,0.88763 -0.683239 0.15,0.956527 -0.605117 0.15,0.956527 -0.431889 0.15,0.958501 -0.414368 0.15,0.986174 0.364816 0.15,1.0011 -0.360947 0.15,0.986174 -0.370328 0.15,0.973706 0.377283 0.15,0.973706 -0.382795 0.15,0.964325 0.392213 0.15,0.964325 -0.397725 0.15,1.0011 0.355435 0.15,1.01775 0.349611 0.15,1.01775 -0.355123 0.15,0.958501 0.408856 0.15,1.03527 0.347637 0.15,1.06591 -0.353149 0.15,1.03527 -0.353149 0.15,1.06591 0.347637 0.15,0.88763 0.677727 0.15,0.956527 0.599605 0.15,0.956527 0.426377 0.15,0.905985 0.673123 0.15,0.936842 0.651687 0.15,0.922711 0.664272 0.15,0.947563 0.636093 0.15,0.954253 0.618391 0.15]
}}
appearance Appearance{material Material{diffuseColor 0.2 0.2 0.2
transparency 0}}}
Shape { geometry IndexedFaceSet 
{ creaseAngle 0.50 coordIndex [0,1,2,-1,3,0,2,-1]
coord Coordinate { point [1.06598 -0.353149 0.149606,1.06598 -0.744243 0.149606,1.05603 -0.734298 0.0359387,1.05603 -0.353149 0.0359387]
}}
appearance Appearance{material Material{diffuseColor 0.2 0.2 0.2
transparency 0}}}
Shape { geometry IndexedFaceSet 
{ creaseAngle 0.50 coordIndex [0,1,2,-1,3,2,4,-1,3,0,2,-1,5,6,7,-1,5,4,6,-1,5,3,4,-1,8,7,9,-1,8,5,7,-1,10,9,11,-1,10,8,9,-1,12,11,13,-1,12,10,11,-1,14,12,13,-1]
coord Coordinate { point [1.01681 -0.734298 1.44241e-15,1.01681 -0.355343 1.35499e-15,1.02313 -0.354096 0.000513272,1.02645 -0.734298 0.00119732,1.02933 -0.353379 0.00204745,1.0355 -0.734298 0.00471647,1.03527 -0.353149 0.00459406,1.04327 -0.353149 0.0102123,1.04341 -0.734298 0.0103434,1.04963 -0.353149 0.0176275,1.0497 -0.734298 0.0177358,1.05398 -0.353149 0.0263829,1.054 -0.734298 0.0264442,1.05603 -0.353149 0.0359387,1.05603 -0.734298 0.0359387]
}}
appearance Appearance{material Material{diffuseColor 0.2 0.2 0.2
transparency 0}}}
Shape { geometry IndexedFaceSet 
{ creaseAngle 0.50 coordIndex [0,1,2,-1,0,3,1,-1,4,5,6,-1,0,7,3,-1,4,6,8,-1,4,8,9,-1,10,4,9,-1,11,12,13,-1,14,7,0,-1,15,9,16,-1,15,10,9,-1,17,15,16,-1,18,11,19,-1,18,19,20,-1,18,12,11,-1,21,17,16,-1,22,21,16,-1,23,22,16,-1,24,25,26,-1,24,27,25,-1,24,28,27,-1,24,29,28,-1,24,30,29,-1,24,31,30,-1,24,14,31,-1,24,26,32,-1,32,23,16,-1,24,7,14,-1,33,12,34,-1,16,24,32,-1,6,35,36,-1,37,33,34,-1,6,36,38,-1,39,33,37,-1,40,33,39,-1,41,33,40,-1,42,43,12,-1,44,33,41,-1,45,12,43,-1,46,12,18,-1,47,33,44,-1,46,42,12,-1,48,12,45,-1,49,46,18,-1,50,33,47,-1,51,33,50,-1,34,12,48,-1,5,49,18,-1,5,18,6,-1,52,38,53,-1,52,53,54,-1,52,6,38,-1,55,56,57,-1,55,58,56,-1,59,52,60,-1,8,52,59,-1,8,6,52,-1,61,51,62,-1,61,55,63,-1,61,62,58,-1,61,33,51,-1,61,58,55,-1,9,64,65,-1,9,65,66,-1,16,66,67,-1,0,68,69,-1,16,9,66,-1,0,2,68,-1]
coord Coordinate { point [0.956527 0.426377 1.18016e-15,0.985675 0.365217 8.7419e-16,0.973408 0.37766 8.08625e-16,1.00038 0.355786 8.96044e-16,-0.440635 0.559054 1.11459e-15,-0.440635 -0.564566 1.37685e-15,-0.933826 -0.188536 1.20201e-15,1.01681 0.349831 1.18016e-15,-0.933826 0.184598 1.18016e-15,-0.933826 0.538322 1.11459e-15,-0.439648 0.567814 -2.18547e-17,-0.954965 -0.539369 2.0762e-15,-0.999028 -0.734298 1.44241e-15,-0.999028 -0.539369 1.37685e-15,0.956527 0.559054 1.11459e-15,-0.436736 0.576136 -6.55642e-17,-0.999028 0.725714 1.09274e-15,-0.432046 0.583601 -8.7419e-17,-0.933826 -0.54226 2.0762e-15,-0.947841 -0.539692 2.14176e-15,-0.940775 -0.540658 2.14176e-15,-0.425812 0.589835 -8.7419e-17,-0.418347 0.594525 -8.7419e-17,-0.410026 0.597437 -8.7419e-17,1.01681 0.725714 1.09274e-15,0.925918 0.597437 1.13645e-15,0.917157 0.598424 1.02717e-15,0.934239 0.594525 1.13645e-15,0.941704 0.589835 1.13645e-15,0.947938 0.583601 1.13645e-15,0.952628 0.576136 1.13645e-15,0.95554 0.567814 1.18016e-15,-0.401265 0.598424 -1.09274e-16,1.01681 -0.734298 1.44241e-15,-0.401265 -0.603936 1.35499e-15,-0.936219 -0.18878 1.31128e-15,-0.93862 -0.188927 1.31128e-15,0.917157 -0.603936 1.35499e-15,-0.941026 -0.188976 1.20201e-15,0.925918 -0.602949 1.3987e-15,0.934239 -0.600037 1.3987e-15,0.941704 -0.595347 1.3987e-15,-0.432046 -0.589113 1.3987e-15,-0.425812 -0.595347 1.3987e-15,0.947938 -0.589113 1.3987e-15,-0.418347 -0.600037 1.3987e-15,-0.436736 -0.581648 1.3987e-15,0.952628 -0.581648 1.3987e-15,-0.410026 -0.602949 1.3987e-15,-0.439648 -0.573327 1.3987e-15,0.95554 -0.573327 1.3987e-15,0.956527 -0.564566 1.37685e-15,-0.941026 0.185039 1.18016e-15,-0.999028 -0.188976 1.20201e-15,-0.999028 0.185039 1.18016e-15,0.985675 -0.370729 1.66096e-15,0.964187 -0.398014 1.68281e-15,0.973408 -0.383172 1.68281e-15,0.958466 -0.414524 1.70467e-15,-0.936219 0.184843 1.22387e-15,-0.93862 0.18499 1.22387e-15,1.01681 -0.355343 1.35499e-15,0.956527 -0.431889 1.35499e-15,1.00038 -0.361298 1.66096e-15,-0.940775 0.536721 1.1583e-15,-0.947841 0.535755 1.1583e-15,-0.954965 0.535432 1.11459e-15,-0.999028 0.535432 1.11459e-15,0.964187 0.392502 7.86771e-16,0.958466 0.409012 7.64916e-16]
}}
appearance Appearance{material Material{diffuseColor 0.2 0.2 0.2
transparency 0}}}
Shape { geometry IndexedFaceSet 
{ creaseAngle 0.50 coordIndex [0,1,2,-1,3,1,0,-1]
coord Coordinate { point [-0.861219 0.584644 0.0481455,-0.861219 -0.588582 0.218897,-0.861219 0.584644 0.218897,-0.861219 -0.588582 0.0481455]
}}
appearance Appearance{material Material{diffuseColor 0.2 0.2 0.2
transparency 0}}}
Shape { geometry IndexedFaceSet 
{ creaseAngle 0.50 coordIndex [0,1,2,-1,0,3,1,-1,0,4,3,-1,5,2,6,-1,5,6,7,-1,5,0,2,-1,8,7,9,-1,8,5,7,-1,10,9,11,-1,10,11,12,-1,10,8,9,-1,13,12,14,-1,13,14,15,-1,13,10,12,-1,16,15,17,-1,16,13,15,-1,18,17,19,-1,18,16,17,-1,20,19,21,-1,20,18,19,-1]
coord Coordinate { point [-0.941026 -0.188976 0.18047,-0.936219 -0.18878 1.31128e-15,-0.933826 -0.188536 1.20201e-15,-0.93862 -0.188927 1.31128e-15,-0.941026 -0.188976 1.20201e-15,-0.927208 -0.187337 0.194288,-0.92507 -0.186779 0.000667275,-0.916931 -0.183827 0.00251965,-0.914158 -0.18251 0.207338,-0.909484 -0.179823 0.00533297,-0.902599 -0.174764 0.218897,-0.902806 -0.174912 0.00888304,-0.896975 -0.169237 0.0129457,-0.893896 -0.165506 0.218897,-0.892067 -0.162945 0.0172968,-0.888502 -0.156916 0.0208626,-0.887375 -0.154601 0.218897,-0.885675 -0.150507 0.0236895,-0.883338 -0.142553 0.218897,-0.882904 -0.140379 0.0264601,-0.881971 -0.129921 0.218897,-0.881971 -0.129921 0.0273935]
}}
appearance Appearance{material Material{diffuseColor 0.2 0.2 0.2
transparency 0}}}
Shape { geometry IndexedFaceSet 
{ creaseAngle 0.50 coordIndex [0,1,2,-1,3,4,5,-1,3,2,4,-1,3,0,2,-1,6,5,7,-1,6,3,5,-1,8,7,9,-1,8,6,7,-1,10,8,9,-1,11,9,12,-1,11,12,13,-1,11,10,9,-1,14,13,15,-1,14,15,16,-1,14,11,13,-1,17,18,19,-1,17,20,18,-1,17,16,20,-1,17,14,16,-1]
coord Coordinate { point [-0.881971 0.125984 0.218897,-0.881971 0.125984 0.0273935,-0.88232 0.132396 0.0270443,-0.883338 0.138616 0.218897,-0.883363 0.138732 0.026001,-0.886532 0.148742 0.022832,-0.887375 0.150664 0.218897,-0.892067 0.159008 0.0172968,-0.893896 0.161569 0.218897,-0.901569 0.169894 0.00966292,-0.902599 0.170826 0.218897,-0.914158 0.178573 0.207338,-0.912522 0.177685 0.00404956,-0.922828 0.182162 0.00105672,-0.927208 0.1834 0.194288,-0.928209 0.183631 0.000273707,-0.933826 0.184598 1.18016e-15,-0.941026 0.185039 0.18047,-0.93862 0.18499 1.22387e-15,-0.941026 0.185039 1.18016e-15,-0.936219 0.184843 1.22387e-15]
}}
appearance Appearance{material Material{diffuseColor 0.2 0.2 0.2
transparency 0}}}
Shape { geometry IndexedFaceSet 
{ creaseAngle 0.50 coordIndex [0,1,2,-1,0,3,1,-1,4,5,6,-1,6,5,7,-1,7,8,9,-1,9,8,3,-1,5,8,7,-1,1,10,11,-1,3,10,1,-1,8,10,3,-1]
coord Coordinate { point [-1.04819 -0.188976 0.149606,-0.971496 -0.188976 0.15,-1.04812 -0.188976 0.15,-1.03825 -0.188976 0.0359387,-1.01771 -0.188976 0.00471647,-1.00866 -0.188976 0.00119732,-1.02563 -0.188976 0.0103434,-1.03192 -0.188976 0.0177358,-0.999028 -0.188976 1.20201e-15,-1.03622 -0.188976 0.0264442,-0.941026 -0.188976 1.20201e-15,-0.941026 -0.188976 0.18047]
}}
appearance Appearance{material Material{diffuseColor 0.2 0.2 0.2
transparency 0}}}
Shape { geometry IndexedFaceSet 
{ creaseAngle 0.50 coordIndex [0,1,2,-1,3,4,0,-1,5,6,4,-1,4,6,0,-1,0,6,1,-1,5,7,6,-1,6,8,9,-1,7,8,6,-1,10,11,7,-1,7,11,8,-1]
coord Coordinate { point [-0.971496 0.185039 0.15,-1.04819 0.185039 0.149606,-1.04812 0.185039 0.15,-0.941026 0.185039 0.18047,-0.941026 0.185039 1.18016e-15,-0.999028 0.185039 1.18016e-15,-1.03825 0.185039 0.0359387,-1.00866 0.185039 0.00119732,-1.03192 0.185039 0.0177358,-1.03622 0.185039 0.0264442,-1.01771 0.185039 0.00471647,-1.02563 0.185039 0.0103434]
}}
appearance Appearance{material Material{diffuseColor 0.2 0.2 0.2
transparency 0}}}
Shape { geometry IndexedFaceSet 
{ creaseAngle 0.50 coordIndex [0,1,2,-1,3,1,0,-1]
coord Coordinate { point [-0.881971 0.125984 0.218897,-0.881971 -0.129921 0.0273935,-0.881971 0.125984 0.0273935,-0.881971 -0.129921 0.218897]
}}
appearance Appearance{material Material{diffuseColor 0.2 0.2 0.2
transparency 0}}}
Shape { geometry IndexedFaceSet 
{ creaseAngle 0.50 coordIndex [0,1,2,-1,0,3,1,-1,4,5,6,-1,6,5,7,-1,7,8,9,-1,9,8,3,-1,5,8,7,-1,1,10,11,-1,8,10,3,-1,3,10,1,-1]
coord Coordinate { point [-1.04819 0.535432 0.149606,-0.971496 0.535432 0.15,-1.04812 0.535432 0.15,-1.03825 0.535432 0.0359387,-1.01771 0.535432 0.00471647,-1.00866 0.535432 0.00119732,-1.02563 0.535432 0.0103434,-1.03192 0.535432 0.0177358,-0.999028 0.535432 1.11459e-15,-1.03622 0.535432 0.0264442,-0.954965 0.535432 1.11459e-15,-0.954965 0.535432 0.166531]
}}
appearance Appearance{material Material{diffuseColor 0.2 0.2 0.2
transparency 0}}}
Shape { geometry IndexedFaceSet 
{ creaseAngle 0.50 coordIndex [0,1,2,-1,3,4,0,-1,5,6,4,-1,4,6,0,-1,0,6,1,-1,6,7,8,-1,9,7,5,-1,5,7,6,-1,10,11,9,-1,9,11,7,-1]
coord Coordinate { point [-0.971496 -0.539369 0.15,-1.04819 -0.539369 0.149606,-1.04812 -0.539369 0.15,-0.954965 -0.539369 0.166531,-0.954965 -0.539369 2.0762e-15,-0.999028 -0.539369 1.37685e-15,-1.03825 -0.539369 0.0359387,-1.03192 -0.539369 0.0177358,-1.03622 -0.539369 0.0264442,-1.00866 -0.539369 0.00119732,-1.01771 -0.539369 0.00471647,-1.02563 -0.539369 0.0103434]
}}
appearance Appearance{material Material{diffuseColor 0.2 0.2 0.2
transparency 0}}}
Shape { geometry IndexedFaceSet 
{ creaseAngle 0.50 coordIndex [0,1,2,-1,0,3,1,-1,4,2,5,-1,4,5,6,-1,4,0,2,-1,7,6,8,-1,7,8,9,-1,7,4,6,-1,10,9,11,-1,10,7,9,-1,12,11,13,-1,12,10,11,-1,14,15,16,-1,14,13,15,-1,14,12,13,-1,17,14,16,-1]
coord Coordinate { point [-0.954965 0.535432 0.166531,-0.947841 0.535755 1.1583e-15,-0.940775 0.536721 1.1583e-15,-0.954965 0.535432 1.11459e-15,-0.936055 0.537736 0.185441,-0.933826 0.538322 1.11459e-15,-0.922634 0.542389 0.00105574,-0.918253 0.544514 0.203243,-0.912511 0.547894 0.00396718,-0.903554 0.554572 0.00835067,-0.902599 0.555369 0.218897,-0.897396 0.560472 0.0125806,-0.894251 0.564033 0.218897,-0.892067 0.566802 0.0172968,-0.887321 0.573868 0.218897,-0.886436 0.575393 0.0229283,-0.881971 0.584644 0.0273935,-0.881971 0.584644 0.218897]
}}
appearance Appearance{material Material{diffuseColor 0.2 0.2 0.2
transparency 0}}}
Shape { geometry IndexedFaceSet 
{ creaseAngle 0.50 coordIndex [0,1,2,-1,0,3,4,-1,0,2,3,-1,5,0,4,-1,6,4,7,-1,6,5,4,-1,8,7,9,-1,8,9,10,-1,8,6,7,-1,11,10,12,-1,11,12,13,-1,11,8,10,-1,14,15,16,-1,14,13,15,-1,14,11,13,-1]
coord Coordinate { point [-0.887321 -0.577806 0.218897,-0.881971 -0.588582 0.218897,-0.881971 -0.588582 0.0273935,-0.886436 -0.57933 0.0229283,-0.892067 -0.570739 0.0172968,-0.894251 -0.567971 0.218897,-0.902599 -0.559306 0.218897,-0.903143 -0.558857 0.00859046,-0.918253 -0.548451 0.203243,-0.91564 -0.549915 0.00284445,-0.924355 -0.545569 0.000748671,-0.936055 -0.541673 0.185441,-0.933826 -0.54226 2.0762e-15,-0.940775 -0.540658 2.14176e-15,-0.954965 -0.539369 0.166531,-0.947841 -0.539692 2.14176e-15,-0.954965 -0.539369 2.0762e-15]
}}
appearance Appearance{material Material{diffuseColor 0.2 0.2 0.2
transparency 0}}}
Shape { geometry IndexedFaceSet 
{ creaseAngle 0.50 coordIndex [0,1,2,-1,3,1,0,-1,1,4,2,-1,2,5,6,-1,6,5,7,-1,4,5,2,-1,7,8,9,-1,5,8,7,-1,9,10,11,-1,8,10,9,-1]
coord Coordinate { point [-0.933826 0.538322 1.11459e-15,-0.928209 0.183631 0.000273707,-0.922634 0.542389 0.00105574,-0.933826 0.184598 1.18016e-15,-0.922828 0.182162 0.00105672,-0.912522 0.177685 0.00404956,-0.912511 0.547894 0.00396718,-0.903554 0.554572 0.00835067,-0.901569 0.169894 0.00966292,-0.897396 0.560472 0.0125806,-0.892067 0.159008 0.0172968,-0.892067 0.566802 0.0172968]
}}
appearance Appearance{material Material{diffuseColor 0.2 0.2 0.2
transparency 0}}}
Shape { geometry IndexedFaceSet 
{ creaseAngle 0.50 coordIndex [0,1,2,-1,2,3,4,-1,1,3,2,-1,4,5,6,-1,3,5,4,-1,6,7,8,-1,8,7,9,-1,5,7,6,-1,9,10,11,-1,7,10,9,-1]
coord Coordinate { point [-0.933826 -0.188536 1.20201e-15,-0.933826 -0.54226 2.0762e-15,-0.92507 -0.186779 0.000667275,-0.924355 -0.545569 0.000748671,-0.916931 -0.183827 0.00251965,-0.91564 -0.549915 0.00284445,-0.909484 -0.179823 0.00533297,-0.903143 -0.558857 0.00859046,-0.902806 -0.174912 0.00888304,-0.896975 -0.169237 0.0129457,-0.892067 -0.570739 0.0172968,-0.892067 -0.162945 0.0172968]
}}
appearance Appearance{material Material{diffuseColor 0.2 0.2 0.2
transparency 0}}}
Shape { geometry IndexedFaceSet 
{ creaseAngle 0.50 coordIndex [0,1,2,-1,0,3,1,-1]
coord Coordinate { point [-0.971496 0.535432 0.15,-1.04812 0.185039 0.15,-1.04812 0.535432 0.15,-0.971496 0.185039 0.15]
}}
appearance Appearance{material Material{diffuseColor 0.2 0.2 0.2
transparency 0}}}
Shape { geometry IndexedFaceSet 
{ creaseAngle 0.50 coordIndex [0,1,2,-1,0,3,1,-1]
coord Coordinate { point [-0.971496 -0.188976 0.15,-1.04812 -0.539369 0.15,-1.04812 -0.188976 0.15,-0.971496 -0.539369 0.15]
}}
appearance Appearance{material Material{diffuseColor 0.2 0.2 0.2
transparency 0}}}
Shape { geometry IndexedFaceSet 
{ creaseAngle 0.50 coordIndex [0,1,2,-1,2,1,3,-1,3,4,5,-1,1,4,3,-1,5,6,7,-1,4,6,5,-1,7,8,9,-1,6,8,7,-1]
coord Coordinate { point [-0.902599 0.170826 0.218897,-0.914158 0.178573 0.207338,-0.902599 0.555369 0.218897,-0.918253 0.544514 0.203243,-0.927208 0.1834 0.194288,-0.936055 0.537736 0.185441,-0.941026 0.185039 0.18047,-0.954965 0.535432 0.166531,-0.971496 0.185039 0.15,-0.971496 0.535432 0.15]
}}
appearance Appearance{material Material{diffuseColor 0.2 0.2 0.2
transparency 0}}}
Shape { geometry IndexedFaceSet 
{ creaseAngle 0.50 coordIndex [0,1,2,-1,2,3,4,-1,1,3,2,-1,4,5,6,-1,3,5,4,-1,6,7,8,-1,5,7,6,-1,7,9,8,-1]
coord Coordinate { point [-0.902599 -0.174764 0.218897,-0.902599 -0.559306 0.218897,-0.914158 -0.18251 0.207338,-0.918253 -0.548451 0.203243,-0.927208 -0.187337 0.194288,-0.936055 -0.541673 0.185441,-0.941026 -0.188976 0.18047,-0.954965 -0.539369 0.166531,-0.971496 -0.188976 0.15,-0.971496 -0.539369 0.15]
}}
appearance Appearance{material Material{diffuseColor 0.2 0.2 0.2
transparency 0}}}
Shape { geometry IndexedFaceSet 
{ creaseAngle 0.50 coordIndex [0,1,2,-1,0,3,1,-1]
coord Coordinate { point [-0.881971 0.584644 0.218897,-0.861219 0.584644 0.0481455,-0.861219 0.584644 0.218897,-0.881971 0.584644 0.0273935]
}}
appearance Appearance{material Material{diffuseColor 0.2 0.2 0.2
transparency 0}}}
Shape { geometry IndexedFaceSet 
{ creaseAngle 0.50 coordIndex [0,1,2,-1,1,3,2,-1]
coord Coordinate { point [-0.861219 -0.588582 0.218897,-0.861219 -0.588582 0.0481455,-0.881971 -0.588582 0.218897,-0.881971 -0.588582 0.0273935]
}}
appearance Appearance{material Material{diffuseColor 0.2 0.2 0.2
transparency 0}}}
Shape { geometry IndexedFaceSet 
{ creaseAngle 0.50 coordIndex [0,1,2,-1,2,1,3,-1,3,1,4,-1,1,5,4,-1,1,6,5,-1,1,7,6,-1,1,8,7,-1,9,10,11,-1,11,10,12,-1,12,10,13,-1,14,10,9,-1,15,10,16,-1,16,10,17,-1,17,10,14,-1,1,10,18,-1,1,18,8,-1,18,10,19,-1,19,10,15,-1]
coord Coordinate { point [-0.881971 0.584644 0.218897,-0.861219 0.584644 0.218897,-0.887321 0.573868 0.218897,-0.894251 0.564033 0.218897,-0.902599 0.555369 0.218897,-0.902599 0.170826 0.218897,-0.893896 0.161569 0.218897,-0.887375 0.150664 0.218897,-0.883338 0.138616 0.218897,-0.902599 -0.559306 0.218897,-0.861219 -0.588582 0.218897,-0.894251 -0.567971 0.218897,-0.887321 -0.577806 0.218897,-0.881971 -0.588582 0.218897,-0.902599 -0.174764 0.218897,-0.883338 -0.142553 0.218897,-0.887375 -0.154601 0.218897,-0.893896 -0.165506 0.218897,-0.881971 0.125984 0.218897,-0.881971 -0.129921 0.218897]
}}
appearance Appearance{material Material{diffuseColor 0.2 0.2 0.2
transparency 0}}}
Shape { geometry IndexedFaceSet 
{ creaseAngle 0.50 coordIndex [0,1,2,-1,3,1,0,-1,3,4,1,-1,4,5,1,-1,5,6,1,-1,7,8,9,-1,10,8,7,-1,11,8,10,-1,12,8,11,-1,13,8,12,-1,14,8,13,-1,8,1,15,-1,8,15,9,-1,15,1,16,-1,16,1,17,-1,17,1,6,-1]
coord Coordinate { point [-0.886436 0.575393 0.0229283,-0.861219 0.584644 0.0481455,-0.881971 0.584644 0.0273935,-0.892067 0.566802 0.0172968,-0.892067 0.159008 0.0172968,-0.886532 0.148742 0.022832,-0.883363 0.138732 0.026001,-0.885675 -0.150507 0.0236895,-0.861219 -0.588582 0.0481455,-0.882904 -0.140379 0.0264601,-0.888502 -0.156916 0.0208626,-0.892067 -0.162945 0.0172968,-0.892067 -0.570739 0.0172968,-0.886436 -0.57933 0.0229283,-0.881971 -0.588582 0.0273935,-0.881971 -0.129921 0.0273935,-0.881971 0.125984 0.0273935,-0.88232 0.132396 0.0270443]
}}
appearance Appearance{material Material{diffuseColor 0.2 0.2 0.2
transparency 0}}}
Shape { geometry IndexedFaceSet 
{ creaseAngle 0.50 coordIndex [0,1,2,-1,0,2,3,-1,0,4,1,-1,5,4,0,-1,6,0,7,-1,8,0,6,-1,9,0,8,-1,10,5,0,-1,10,0,9,-1]
coord Coordinate { point [-1.04819 0.740754 0.149606,-1.03825 0.764934 0.0359387,-1.03825 0.535432 0.0359387,-1.04819 0.535432 0.149606,-1.04519 0.771874 0.115253,-1.04641 0.7642 0.129227,-1.04811 0.745485 0.148614,-1.04817 0.743081 0.149358,-1.048 0.747956 0.147378,-1.04779 0.751343 0.14497,-1.04733 0.75658 0.13976]
}}
appearance Appearance{material Material{diffuseColor 0.2 0.2 0.2
transparency 0}}}
Shape { geometry IndexedFaceSet 
{ creaseAngle 0.50 coordIndex [0,1,2,-1,0,2,3,-1]
coord Coordinate { point [-1.04819 -0.539369 0.149606,-1.03825 -0.539369 0.0359387,-1.03825 -0.734298 0.0359387,-1.04819 -0.744243 0.149606]
}}
appearance Appearance{material Material{diffuseColor 0.2 0.2 0.2
transparency 0}}}
Shape { geometry IndexedFaceSet 
{ creaseAngle 0.50 coordIndex [0,1,2,-1,3,2,4,-1,3,0,2,-1,5,4,6,-1,5,3,4,-1,7,6,8,-1,7,5,6,-1,9,8,10,-1,9,7,8,-1,11,9,10,-1,12,10,13,-1,12,11,10,-1,14,12,13,-1]
coord Coordinate { point [-0.999028 0.725714 1.09274e-15,-0.999028 0.535432 1.11459e-15,-1.00866 0.535432 0.00119732,-1.01158 0.738265 0.00205406,-1.01771 0.535432 0.00471647,-1.02179 0.748476 0.00724663,-1.02563 0.535432 0.0103434,-1.02935 0.75604 0.0142627,-1.03192 0.535432 0.0177358,-1.03397 0.760659 0.0212361,-1.03622 0.535432 0.0264442,-1.03685 0.763534 0.0284305,-1.03773 0.764417 0.0321505,-1.03825 0.535432 0.0359387,-1.03825 0.764934 0.0359387]
}}
appearance Appearance{material Material{diffuseColor 0.2 0.2 0.2
transparency 0}}}
Shape { geometry IndexedFaceSet 
{ creaseAngle 0.50 coordIndex [0,1,2,-1,0,2,3,-1,4,3,5,-1,4,0,3,-1,6,5,7,-1,6,4,5,-1,8,7,9,-1,8,6,7,-1,10,9,11,-1,10,8,9,-1,12,11,13,-1,12,10,11,-1]
coord Coordinate { point [-1.00866 -0.539369 0.00119732,-0.999028 -0.539369 1.37685e-15,-0.999028 -0.734298 1.44241e-15,-1.00866 -0.734298 0.00119732,-1.01771 -0.539369 0.00471647,-1.01771 -0.734298 0.00471647,-1.02563 -0.539369 0.0103434,-1.02563 -0.734298 0.0103434,-1.03192 -0.539369 0.0177358,-1.03192 -0.734298 0.0177358,-1.03622 -0.539369 0.0264442,-1.03622 -0.734298 0.0264442,-1.03825 -0.539369 0.0359387,-1.03825 -0.734298 0.0359387]
}}
appearance Appearance{material Material{diffuseColor 0.2 0.2 0.2
transparency 0}}}
Shape { geometry IndexedFaceSet 
{ creaseAngle 0.50 coordIndex [0,1,2,-1,3,4,1,-1,3,1,0,-1,5,4,3,-1]
coord Coordinate { point [-1.00897 -0.783463 0.149606,-0.965175 -0.739217 0.400537,-1.00942 -0.783461 0.149616,1.02676 -0.783463 0.149606,0.982958 -0.739217 0.400537,1.0272 -0.783461 0.149616]
}}
appearance Appearance{material Material{diffuseColor 0.2 0.2 0.2
transparency 0}}}
Shape { geometry IndexedFaceSet 
{ creaseAngle 0.50 coordIndex [0,1,2,-1,3,2,4,-1,3,0,2,-1,5,0,3,-1,6,7,8,-1,6,8,5,-1,6,5,3,-1,9,10,11,-1,12,11,6,-1,12,6,3,-1,12,9,11,-1]
coord Coordinate { point [-1.04812 -0.539369 0.15,-1.04819 -0.539369 0.149606,-1.04819 -0.744243 0.149606,-1.00395 -0.700445 0.400537,-1.04819 -0.74469 0.149616,-1.04812 -0.188976 0.15,-1.04812 0.185039 0.15,-1.04819 0.185039 0.149606,-1.04819 -0.188976 0.149606,-1.04819 0.740754 0.149606,-1.04819 0.535432 0.149606,-1.04812 0.535432 0.15,-1.00395 0.696508 0.400537]
}}
appearance Appearance{material Material{diffuseColor 0.2 0.2 0.2
transparency 0}}}
Shape { geometry IndexedFaceSet 
{ creaseAngle 0.50 coordIndex [0,1,2,-1,3,0,2,-1]
coord Coordinate { point [1.0272 0.779526 0.149606,-1.00942 0.779526 0.149606,-0.965175 0.73528 0.400537,0.982958 0.73528 0.400537]
}}
appearance Appearance{material Material{diffuseColor 0.2 0.2 0.2
transparency 0}}}
Shape { geometry IndexedFaceSet 
{ creaseAngle 0.50 coordIndex [0,1,2,-1,3,1,0,-1,4,3,0,-1,5,1,3,-1,6,1,5,-1,7,5,8,-1,7,6,5,-1]
coord Coordinate { point [1.06598 -0.744243 0.149606,1.02173 -0.700445 0.400537,1.06597 -0.74469 0.149616,1.06591 -0.353149 0.15,1.06598 -0.353149 0.149606,1.06591 0.347637 0.15,1.02173 0.696508 0.400537,1.06598 0.740754 0.149606,1.06598 0.347637 0.149606]
}}
appearance Appearance{material Material{diffuseColor 0.2 0.2 0.2
transparency 0}}}
Shape { geometry IndexedFaceSet 
{ creaseAngle 0.50 coordIndex [0,1,2,-1,3,1,0,-1]
coord Coordinate { point [-0.965175 -0.700445 0.43307,0.982958 0.696508 0.43307,-0.965175 0.696508 0.43307,0.982958 -0.700445 0.43307]
}}
appearance Appearance{material Material{diffuseColor 0.2 0.2 0.2
transparency 0}}}
Shape { geometry IndexedFaceSet 
{ creaseAngle 0.50 coordIndex [0,1,2,-1,3,1,0,-1,4,5,6,-1,4,6,7,-1,4,1,3,-1,4,3,5,-1]
coord Coordinate { point [-1.01586 0.779 0.149606,-1.02798 0.774879 0.149606,-1.0221 0.777438 0.149606,-1.00942 0.779526 0.149606,1.04576 0.774879 0.149606,1.0272 0.779526 0.149606,1.03365 0.779 0.149606,1.03989 0.777438 0.149606]
}}
appearance Appearance{material Material{diffuseColor 0.2 0.2 0.2
transparency 0}}}
Shape { geometry IndexedFaceSet 
{ creaseAngle 0.50 coordIndex [0,1,2,-1,3,4,0,-1,5,3,0,-1,6,5,0,-1,7,6,0,-1,8,7,0,-1,9,0,2,-1,9,8,0,-1]
coord Coordinate { point [1.06598 0.740754 0.149606,1.06598 0.347637 0.149606,1.05603 0.347637 0.0359387,1.06592 0.744562 0.148955,1.06596 0.742633 0.149443,1.06575 0.748609 0.146976,1.06549 0.752446 0.144018,1.06461 0.761044 0.133999,1.06297 0.771874 0.115253,1.05603 0.764934 0.0359387]
}}
appearance Appearance{material Material{diffuseColor 0.2 0.2 0.2
transparency 0}}}
Shape { geometry IndexedFaceSet 
{ creaseAngle 0.50 coordIndex [0,1,2,-1,0,2,3,-1]
coord Coordinate { point [1.01681 -0.773519 0.0359387,1.02676 -0.783463 0.149606,-1.00897 -0.783463 0.149606,-0.999028 -0.773519 0.0359387]
}}
appearance Appearance{material Material{diffuseColor 0.2 0.2 0.2
transparency 0}}}
Shape { geometry IndexedFaceSet 
{ creaseAngle 0.50 coordIndex [0,1,2,-1,0,2,3,-1]
coord Coordinate { point [-1.04819 0.185039 0.149606,-1.03825 0.185039 0.0359387,-1.03825 -0.188976 0.0359387,-1.04819 -0.188976 0.149606]
}}
appearance Appearance{material Material{diffuseColor 0.2 0.2 0.2
transparency 0}}}
Shape { geometry IndexedFaceSet 
{ creaseAngle 0.50 coordIndex [0,1,2,-1,3,1,0,-1,4,5,3,-1,4,3,0,-1]
coord Coordinate { point [-1.02798 0.774879 0.149606,-1.03825 0.764934 0.0359387,-1.04519 0.771874 0.115253,1.05603 0.764934 0.0359387,1.04576 0.774879 0.149606,1.06297 0.771874 0.115253]
}}
appearance Appearance{material Material{diffuseColor 0.2 0.2 0.2
transparency 0}}}
Shape { geometry IndexedFaceSet 
{ creaseAngle 0.50 coordIndex [0,1,2,-1,0,2,3,-1,4,3,5,-1,4,0,3,-1,6,5,7,-1,6,4,5,-1,8,7,9,-1,8,6,7,-1,10,9,11,-1,10,8,9,-1,12,11,13,-1,12,10,11,-1]
coord Coordinate { point [-0.965175 0.705587 0.432009,-0.965175 0.696508 0.43307,0.982958 0.696508 0.43307,0.982958 0.705587 0.432009,-0.965175 0.714177 0.428882,0.982958 0.714177 0.428882,-0.965175 0.721815 0.423859,0.982958 0.721815 0.423859,-0.965175 0.728088 0.41721,0.982958 0.728088 0.41721,-0.965175 0.732658 0.409294,0.982958 0.732658 0.409294,-0.965175 0.73528 0.400537,0.982958 0.73528 0.400537]
}}
appearance Appearance{material Material{diffuseColor 0.2 0.2 0.2
transparency 0}}}
Shape { geometry IndexedFaceSet 
{ creaseAngle 0.50 coordIndex [0,1,2,-1,3,2,4,-1,3,0,2,-1,5,4,6,-1,5,3,4,-1,7,6,8,-1,7,5,6,-1,9,8,10,-1,9,7,8,-1,11,10,12,-1,11,9,10,-1,13,11,12,-1]
coord Coordinate { point [0.982958 0.696508 0.43307,0.982958 -0.700445 0.43307,0.992038 -0.700445 0.432009,0.992038 0.696508 0.432009,1.00063 -0.700445 0.428882,1.00063 0.696508 0.428882,1.00826 -0.700445 0.423859,1.00826 0.696508 0.423859,1.01454 -0.700445 0.41721,1.01454 0.696508 0.41721,1.01911 -0.700445 0.409294,1.01911 0.696508 0.409294,1.02173 -0.700445 0.400537,1.02173 0.696508 0.400537]
}}
appearance Appearance{material Material{diffuseColor 0.2 0.2 0.2
transparency 0}}}
Shape { geometry IndexedFaceSet 
{ creaseAngle 0.50 coordIndex [0,1,2,-1,0,2,3,-1,4,3,5,-1,4,0,3,-1,6,5,7,-1,6,4,5,-1,8,7,9,-1,8,6,7,-1,10,9,11,-1,10,8,9,-1,12,11,13,-1,12,10,11,-1]
coord Coordinate { point [-0.974255 -0.700445 0.432009,-0.965175 -0.700445 0.43307,-0.965175 0.696508 0.43307,-0.974255 0.696508 0.432009,-0.982845 -0.700445 0.428882,-0.982845 0.696508 0.428882,-0.990482 -0.700445 0.423859,-0.990482 0.696508 0.423859,-0.996755 -0.700445 0.41721,-0.996755 0.696508 0.41721,-1.00133 -0.700445 0.409294,-1.00133 0.696508 0.409294,-1.00395 -0.700445 0.400537,-1.00395 0.696508 0.400537]
}}
appearance Appearance{material Material{diffuseColor 0.2 0.2 0.2
transparency 0}}}
Shape { geometry IndexedFaceSet 
{ creaseAngle 0.50 coordIndex [0,1,2,-1,3,2,4,-1,3,0,2,-1,5,4,6,-1,5,3,4,-1,7,6,8,-1,7,5,6,-1,9,8,10,-1,9,7,8,-1,11,10,12,-1,11,9,10,-1,13,11,12,-1]
coord Coordinate { point [0.982958 -0.700445 0.43307,-0.965175 -0.700445 0.43307,-0.965175 -0.709525 0.432009,0.982958 -0.709525 0.432009,-0.965175 -0.718115 0.428882,0.982958 -0.718115 0.428882,-0.965175 -0.725752 0.423859,0.982958 -0.725752 0.423859,-0.965175 -0.732025 0.41721,0.982958 -0.732025 0.41721,-0.965175 -0.736596 0.409294,0.982958 -0.736596 0.409294,-0.965175 -0.739217 0.400537,0.982958 -0.739217 0.400537]
}}
appearance Appearance{material Material{diffuseColor 0.2 0.2 0.2
transparency 0}}}
Shape { geometry IndexedFaceSet 
{ creaseAngle 0.50 coordIndex [0,1,2,-1,0,2,3,-1,4,0,3,-1,5,3,6,-1,5,4,3,-1,7,6,8,-1,7,5,6,-1,9,8,10,-1,9,7,8,-1,11,10,12,-1,11,12,13,-1,11,9,10,-1,14,13,15,-1,14,11,13,-1]
coord Coordinate { point [1.02313 0.348584 0.00051314,1.01681 0.349831 1.18016e-15,1.01681 0.725714 1.09274e-15,1.02936 0.738265 0.00205406,1.02933 0.347867 0.00204718,1.03527 0.347637 0.00459406,1.03957 0.748476 0.00724663,1.04327 0.347637 0.0102123,1.04714 0.75604 0.0142627,1.04963 0.347637 0.0176275,1.05176 0.760659 0.0212361,1.05398 0.347637 0.0263829,1.05463 0.763534 0.0284305,1.05551 0.764417 0.0321505,1.05603 0.347637 0.0359387,1.05603 0.764934 0.0359387]
}}
appearance Appearance{material Material{diffuseColor 0.2 0.2 0.2
transparency 0}}}
Shape { geometry IndexedFaceSet 
{ creaseAngle 0.50 coordIndex [0,1,2,-1,0,2,3,-1,4,3,5,-1,4,0,3,-1,6,5,7,-1,6,4,5,-1,8,7,9,-1,8,6,7,-1,10,9,11,-1,10,8,9,-1,12,11,13,-1,12,10,11,-1]
coord Coordinate { point [-0.999028 -0.743934 0.00119732,-0.999028 -0.734298 1.44241e-15,1.01681 -0.734298 1.44241e-15,1.01681 -0.743934 0.00119732,-0.999028 -0.752983 0.00471647,1.01681 -0.752983 0.00471647,-0.999028 -0.760896 0.0103434,1.01681 -0.760896 0.0103434,-0.999028 -0.767192 0.0177358,1.01681 -0.767192 0.0177358,-0.999028 -0.771486 0.0264442,1.01681 -0.771486 0.0264442,-0.999028 -0.773519 0.0359387,1.01681 -0.773519 0.0359387]
}}
appearance Appearance{material Material{diffuseColor 0.2 0.2 0.2
transparency 0}}}
Shape { geometry IndexedFaceSet 
{ creaseAngle 0.50 coordIndex [0,1,2,-1,3,2,4,-1,3,0,2,-1,5,4,6,-1,5,3,4,-1,7,6,8,-1,7,5,6,-1,9,8,10,-1,9,7,8,-1,11,10,12,-1,11,9,10,-1,13,12,14,-1,13,11,12,-1,15,13,14,-1]
coord Coordinate { point [1.01681 0.725714 1.09274e-15,-0.999028 0.725714 1.09274e-15,-1.01158 0.738265 0.00205406,1.02936 0.738265 0.00205406,-1.02179 0.748476 0.00724663,1.03957 0.748476 0.00724663,-1.02935 0.75604 0.0142627,1.04714 0.75604 0.0142627,-1.03397 0.760659 0.0212361,1.05176 0.760659 0.0212361,-1.03685 0.763534 0.0284305,1.05463 0.763534 0.0284305,-1.03773 0.764417 0.0321505,1.05551 0.764417 0.0321505,-1.03825 0.764934 0.0359387,1.05603 0.764934 0.0359387]
}}
appearance Appearance{material Material{diffuseColor 0.2 0.2 0.2
transparency 0}}}
Shape { geometry IndexedFaceSet 
{ creaseAngle 0.50 coordIndex [0,1,2,-1,0,2,3,-1,4,3,5,-1,4,0,3,-1,6,5,7,-1,6,4,5,-1,8,7,9,-1,8,6,7,-1,10,9,11,-1,10,8,9,-1,12,11,13,-1,12,10,11,-1]
coord Coordinate { point [-1.00866 0.185039 0.00119732,-0.999028 0.185039 1.18016e-15,-0.999028 -0.188976 1.20201e-15,-1.00866 -0.188976 0.00119732,-1.01771 0.185039 0.00471647,-1.01771 -0.188976 0.00471647,-1.02563 0.185039 0.0103434,-1.02563 -0.188976 0.0103434,-1.03192 0.185039 0.0177358,-1.03192 -0.188976 0.0177358,-1.03622 0.185039 0.0264442,-1.03622 -0.188976 0.0264442,-1.03825 0.185039 0.0359387,-1.03825 -0.188976 0.0359387]
}}
appearance Appearance{material Material{diffuseColor 0.2 0.2 0.2
transparency 0}}}
Shape { geometry IndexedFaceSet 
{ creaseAngle 0.50 coordIndex [0,1,2,-1,0,2,3,-1,4,3,5,-1,4,0,3,-1,6,5,7,-1,6,4,5,-1,8,7,9,-1,8,6,7,-1,10,9,11,-1,10,8,9,-1,12,11,13,-1,12,10,11,-1,14,12,13,-1,15,13,16,-1,15,14,13,-1,17,15,16,-1,18,17,16,-1]
coord Coordinate { point [1.03365 0.779 0.149606,1.0272 0.779526 0.149606,0.982958 0.73528 0.400537,0.991427 0.734089 0.40182,1.03989 0.777438 0.149606,0.999487 0.731086 0.402711,1.04576 0.774879 0.149606,1.00675 0.726414 0.403168,1.06297 0.771874 0.115253,1.01286 0.720299 0.403168,1.06461 0.761044 0.133999,1.01754 0.713037 0.402711,1.06549 0.752446 0.144018,1.02054 0.704977 0.40182,1.06575 0.748609 0.146976,1.06592 0.744562 0.148955,1.02173 0.696508 0.400537,1.06596 0.742633 0.149443,1.06598 0.740754 0.149606]
}}
appearance Appearance{material Material{diffuseColor 0.2 0.2 0.2
transparency 0}}}
Shape { geometry IndexedFaceSet 
{ creaseAngle 0.50 coordIndex [0,1,2,-1,3,4,5,-1,6,7,0,-1,6,0,2,-1,8,2,9,-1,8,9,10,-1,8,6,2,-1,11,10,12,-1,11,8,10,-1,13,14,7,-1,13,15,14,-1,13,6,8,-1,13,7,6,-1,16,3,17,-1,16,12,4,-1,16,17,11,-1,16,4,3,-1,16,11,12,-1,18,8,11,-1,18,13,8,-1,19,20,15,-1,19,15,13,-1,21,17,22,-1,21,22,23,-1,21,11,17,-1,21,18,11,-1,24,25,26,-1,24,26,20,-1,24,19,13,-1,24,13,18,-1,24,20,19,-1,27,23,28,-1,27,28,25,-1,27,21,23,-1,27,25,24,-1,27,18,21,-1,27,24,18,-1]
coord Coordinate { point [0.982958 0.705587 0.432009,0.982958 0.696508 0.43307,0.992038 0.696508 0.432009,1.02054 0.704977 0.40182,1.01911 0.696508 0.409294,1.02173 0.696508 0.400537,0.989382 0.709973 0.430134,0.982958 0.714177 0.428882,1.00146 0.709973 0.425739,1.00063 0.696508 0.428882,1.00826 0.696508 0.423859,1.0113 0.709973 0.41748,1.01454 0.696508 0.41721,0.993273 0.721815 0.42204,0.982958 0.721815 0.423859,0.982958 0.728088 0.41721,1.01772 0.709973 0.406353,1.01754 0.713037 0.402711,1.00234 0.721815 0.416803,0.986376 0.730604 0.413086,0.982958 0.732658 0.409294,1.00908 0.721815 0.40878,1.01286 0.720299 0.403168,1.00675 0.726414 0.403168,0.992801 0.730604 0.410748,0.991427 0.734089 0.40182,0.982958 0.73528 0.400537,0.998038 0.730604 0.406353,0.999487 0.731086 0.402711]
}}
appearance Appearance{material Material{diffuseColor 0.2 0.2 0.2
transparency 0}}}
Shape { geometry IndexedFaceSet 
{ creaseAngle 0.50 coordIndex [0,1,2,-1,3,4,5,-1,6,7,8,-1,9,8,10,-1,9,10,11,-1,9,6,8,-1,12,13,14,-1,12,11,13,-1,12,9,11,-1,15,16,17,-1,15,17,7,-1,15,6,9,-1,15,7,6,-1,18,9,12,-1,18,15,9,-1,19,2,16,-1,19,16,15,-1,19,0,2,-1,20,21,22,-1,20,14,21,-1,20,12,14,-1,20,18,12,-1,23,24,0,-1,23,25,24,-1,23,19,15,-1,23,15,18,-1,23,0,19,-1,26,27,25,-1,26,20,22,-1,26,25,23,-1,26,23,18,-1,26,18,20,-1,28,4,27,-1,28,22,5,-1,28,26,22,-1,28,27,26,-1,28,5,4,-1]
coord Coordinate { point [0.992038 -0.700445 0.432009,0.982958 -0.700445 0.43307,0.982958 -0.709525 0.432009,1.02173 -0.700445 0.400537,1.01911 -0.700445 0.409294,1.02054 -0.708914 0.40182,0.986376 -0.734541 0.413086,0.982958 -0.732025 0.41721,0.982958 -0.736596 0.409294,0.992801 -0.734541 0.410748,0.982958 -0.739217 0.400537,0.991427 -0.738027 0.40182,0.998038 -0.734541 0.406353,0.999487 -0.735023 0.402711,1.00675 -0.730351 0.403168,0.993273 -0.725752 0.42204,0.982958 -0.718115 0.428882,0.982958 -0.725752 0.423859,1.00234 -0.725752 0.416803,0.989382 -0.713911 0.430134,1.00908 -0.725752 0.40878,1.01286 -0.724236 0.403168,1.01754 -0.716974 0.402711,1.00146 -0.713911 0.425739,1.00063 -0.700445 0.428882,1.00826 -0.700445 0.423859,1.0113 -0.713911 0.41748,1.01454 -0.700445 0.41721,1.01772 -0.713911 0.406353]
}}
appearance Appearance{material Material{diffuseColor 0.2 0.2 0.2
transparency 0}}}
Shape { geometry IndexedFaceSet 
{ creaseAngle 0.50 coordIndex [0,1,2,-1,3,2,4,-1,3,0,2,-1,5,4,6,-1,5,3,4,-1,7,6,8,-1,7,5,6,-1,9,8,10,-1,9,7,8,-1,11,10,12,-1,11,9,10,-1,13,12,14,-1,13,11,12,-1,15,13,14,-1]
coord Coordinate { point [1.06597 -0.74469 0.149616,1.02173 -0.700445 0.400537,1.02054 -0.708914 0.40182,1.06485 -0.75375 0.149956,1.01754 -0.716974 0.402711,1.06168 -0.762281 0.150186,1.01286 -0.724236 0.403168,1.05663 -0.769828 0.150293,1.00675 -0.730351 0.403168,1.04996 -0.775992 0.150272,0.999487 -0.735023 0.402711,1.04204 -0.780443 0.150123,0.991427 -0.738027 0.40182,1.03478 -0.782671 0.149907,0.982958 -0.739217 0.400537,1.0272 -0.783461 0.149616]
}}
appearance Appearance{material Material{diffuseColor 0.2 0.2 0.2
transparency 0}}}
Shape { geometry IndexedFaceSet 
{ creaseAngle 0.50 coordIndex [0,1,2,-1,3,4,5,-1,6,7,8,-1,6,9,7,-1,10,11,12,-1,10,8,11,-1,10,6,8,-1,13,14,9,-1,13,15,14,-1,13,9,6,-1,16,12,17,-1,16,10,12,-1,18,13,6,-1,18,6,10,-1,19,2,15,-1,19,0,2,-1,20,21,22,-1,20,17,21,-1,20,18,10,-1,20,10,16,-1,20,16,17,-1,23,24,25,-1,23,25,0,-1,23,15,13,-1,23,19,15,-1,23,0,19,-1,23,13,18,-1,26,27,24,-1,26,23,18,-1,26,18,20,-1,26,24,23,-1,28,22,5,-1,28,4,27,-1,28,27,26,-1,28,20,22,-1,28,5,4,-1,28,26,20,-1]
coord Coordinate { point [-1.00133 -0.700445 0.409294,-1.00395 -0.700445 0.400537,-1.00276 -0.708914 0.40182,-0.965175 -0.700445 0.43307,-0.974255 -0.700445 0.432009,-0.965175 -0.709525 0.432009,-0.980255 -0.734541 0.406353,-0.981704 -0.735023 0.402711,-0.973644 -0.738027 0.40182,-0.988966 -0.730351 0.403168,-0.975018 -0.734541 0.410748,-0.965175 -0.739217 0.400537,-0.965175 -0.736596 0.409294,-0.991294 -0.725752 0.40878,-0.995081 -0.724236 0.403168,-0.999753 -0.716974 0.402711,-0.968594 -0.734541 0.413086,-0.965175 -0.732025 0.41721,-0.984561 -0.725752 0.416803,-0.99994 -0.713911 0.406353,-0.97549 -0.725752 0.42204,-0.965175 -0.725752 0.423859,-0.965175 -0.718115 0.428882,-0.993516 -0.713911 0.41748,-0.990482 -0.700445 0.423859,-0.996755 -0.700445 0.41721,-0.983673 -0.713911 0.425739,-0.982845 -0.700445 0.428882,-0.9716 -0.713911 0.430134]
}}
appearance Appearance{material Material{diffuseColor 0.2 0.2 0.2
transparency 0}}}
Shape { geometry IndexedFaceSet 
{ creaseAngle 0.50 coordIndex [0,1,2,-1,3,2,4,-1,3,0,2,-1,5,4,6,-1,5,3,4,-1,7,6,8,-1,7,5,6,-1,9,8,10,-1,9,7,8,-1,11,10,12,-1,11,9,10,-1,13,12,14,-1,13,11,12,-1,15,13,14,-1]
coord Coordinate { point [-1.00942 -0.783461 0.149616,-0.965175 -0.739217 0.400537,-0.973644 -0.738027 0.40182,-1.01848 -0.782339 0.149956,-0.981704 -0.735023 0.402711,-1.02701 -0.779166 0.150186,-0.988966 -0.730351 0.403168,-1.03456 -0.774113 0.150293,-0.995081 -0.724236 0.403168,-1.04072 -0.767448 0.150272,-0.999753 -0.716974 0.402711,-1.04517 -0.759525 0.150123,-1.00276 -0.708914 0.40182,-1.0474 -0.752264 0.149907,-1.00395 -0.700445 0.400537,-1.04819 -0.74469 0.149616]
}}
appearance Appearance{material Material{diffuseColor 0.2 0.2 0.2
transparency 0}}}
Shape { geometry IndexedFaceSet 
{ creaseAngle 0.50 coordIndex [0,1,2,-1,3,4,5,-1,6,7,0,-1,6,0,2,-1,8,9,10,-1,8,2,9,-1,8,7,6,-1,8,6,2,-1,11,10,12,-1,11,8,10,-1,13,14,7,-1,13,15,14,-1,13,7,8,-1,16,12,4,-1,16,3,17,-1,16,11,12,-1,16,4,3,-1,18,8,11,-1,18,13,8,-1,19,17,20,-1,19,20,21,-1,19,16,17,-1,19,11,16,-1,19,18,11,-1,22,23,15,-1,22,24,23,-1,22,13,18,-1,22,15,13,-1,25,26,27,-1,25,27,24,-1,25,22,18,-1,25,24,22,-1,25,18,19,-1,28,21,26,-1,28,19,21,-1,28,26,25,-1,28,25,19,-1]
coord Coordinate { point [-1.00276 0.704977 0.40182,-1.00395 0.696508 0.400537,-1.00133 0.696508 0.409294,-0.965175 0.705587 0.432009,-0.974255 0.696508 0.432009,-0.965175 0.696508 0.43307,-0.99994 0.709973 0.406353,-0.999753 0.713037 0.402711,-0.993516 0.709973 0.41748,-0.996755 0.696508 0.41721,-0.990482 0.696508 0.423859,-0.983673 0.709973 0.425739,-0.982845 0.696508 0.428882,-0.991294 0.721815 0.40878,-0.995081 0.720299 0.403168,-0.988966 0.726414 0.403168,-0.9716 0.709973 0.430134,-0.965175 0.714177 0.428882,-0.984561 0.721815 0.416803,-0.97549 0.721815 0.42204,-0.965175 0.721815 0.423859,-0.965175 0.728088 0.41721,-0.980255 0.730604 0.406353,-0.981704 0.731086 0.402711,-0.973644 0.734089 0.40182,-0.975018 0.730604 0.410748,-0.965175 0.732658 0.409294,-0.965175 0.73528 0.400537,-0.968594 0.730604 0.413086]
}}
appearance Appearance{material Material{diffuseColor 0.2 0.2 0.2
transparency 0}}}
Shape { geometry IndexedFaceSet 
{ creaseAngle 0.50 coordIndex [0,1,2,-1,3,2,4,-1,3,0,2,-1,5,3,4,-1,6,5,4,-1,7,4,8,-1,7,6,4,-1,9,8,10,-1,9,7,8,-1,11,10,12,-1,11,9,10,-1,13,12,14,-1,13,11,12,-1,15,14,16,-1,15,13,14,-1,17,16,18,-1,17,15,16,-1,19,17,18,-1]
coord Coordinate { point [-1.04817 0.743081 0.149358,-1.04819 0.740754 0.149606,-1.00395 0.696508 0.400537,-1.04811 0.745485 0.148614,-1.00276 0.704977 0.40182,-1.048 0.747956 0.147378,-1.04779 0.751343 0.14497,-1.04733 0.75658 0.13976,-0.999753 0.713037 0.402711,-1.04641 0.7642 0.129227,-0.995081 0.720299 0.403168,-1.04519 0.771874 0.115253,-0.988966 0.726414 0.403168,-1.02798 0.774879 0.149606,-0.981704 0.731086 0.402711,-1.0221 0.777438 0.149606,-0.973644 0.734089 0.40182,-1.01586 0.779 0.149606,-0.965175 0.73528 0.400537,-1.00942 0.779526 0.149606]
}}
appearance Appearance{material Material{diffuseColor 0.2 0.2 0.2
transparency 0}}}
Shape { geometry IndexedFaceSet 
{ creaseAngle 0.50 coordIndex [0,1,2,-1,0,2,3,-1,4,3,5,-1,4,0,3,-1,6,5,7,-1,6,4,5,-1,8,7,9,-1,8,6,7,-1,10,9,11,-1,10,8,9,-1,12,11,13,-1,12,10,11,-1,14,13,15,-1,14,12,13,-1,16,15,17,-1,16,14,15,-1,18,16,17,-1]
coord Coordinate { point [1.0272 -0.783461 0.149616,1.02676 -0.783463 0.149606,1.01681 -0.773519 0.0359387,1.02118 -0.773241 0.0355806,1.03478 -0.782671 0.149907,1.0255 -0.772479 0.0352697,1.04204 -0.780443 0.150123,1.03375 -0.769543 0.0348044,1.04996 -0.775992 0.150272,1.04117 -0.764856 0.0345658,1.05663 -0.769828 0.150293,1.04737 -0.758653 0.0345658,1.06168 -0.762281 0.150186,1.05206 -0.751239 0.0348044,1.06485 -0.75375 0.149956,1.05499 -0.742984 0.0352697,1.06597 -0.74469 0.149616,1.05603 -0.734298 0.0359387,1.06598 -0.744243 0.149606]
}}
appearance Appearance{material Material{diffuseColor 0.2 0.2 0.2
transparency 0}}}
Shape { geometry IndexedFaceSet 
{ creaseAngle 0.50 coordIndex [0,1,2,-1,0,3,1,-1,4,5,6,-1,4,7,5,-1,4,8,7,-1,9,10,11,-1,9,11,0,-1,9,2,8,-1,9,0,2,-1,12,6,13,-1,12,14,10,-1,12,13,14,-1,12,10,9,-1,12,4,6,-1,12,8,4,-1,12,9,8,-1,15,16,17,-1,18,14,13,-1,19,20,21,-1,19,21,22,-1,23,19,22,-1,24,25,26,-1,24,26,20,-1,24,20,19,-1,27,22,28,-1,27,23,22,-1,29,24,19,-1,29,19,23,-1,30,31,25,-1,32,33,34,-1,32,28,33,-1,32,27,28,-1,35,23,27,-1,35,29,23,-1,1,25,24,-1,1,24,29,-1,1,30,25,-1,1,31,30,-1,7,34,5,-1,7,27,32,-1,7,32,34,-1,7,35,27,-1,2,29,35,-1,2,1,29,-1,3,36,15,-1,3,17,31,-1,3,31,1,-1,3,15,17,-1,8,35,7,-1,8,2,35,-1,0,11,36,-1,0,36,3,-1]
coord Coordinate { point [1.04607 -0.745809 0.0156763,1.04493 -0.756314 0.0228043,1.03886 -0.756314 0.0153059,1.05172 -0.745809 0.0252662,1.02164 -0.756314 0.0070893,1.01681 -0.760896 0.0103434,1.01681 -0.752983 0.00471647,1.02405 -0.764895 0.0156763,1.03086 -0.756314 0.00991033,1.03786 -0.745809 0.00815697,1.0355 -0.734298 0.00471647,1.04341 -0.734298 0.0103434,1.02782 -0.745809 0.0033654,1.01681 -0.743934 0.00119732,1.02645 -0.734298 0.00119732,1.054 -0.734298 0.0264442,1.05603 -0.734298 0.0359387,1.05499 -0.742984 0.0352697,1.01681 -0.734298 1.44241e-15,1.02952 -0.770802 0.0318847,1.03375 -0.769543 0.0348044,1.0255 -0.772479 0.0352697,1.02118 -0.773241 0.0355806,1.02677 -0.770802 0.0284964,1.03978 -0.764895 0.0300886,1.04737 -0.758653 0.0345658,1.04117 -0.764856 0.0345658,1.02316 -0.770802 0.0260584,1.01681 -0.773519 0.0359387,1.03607 -0.764895 0.0237777,1.04855 -0.756314 0.0317505,1.05206 -0.751239 0.0348044,1.01899 -0.770802 0.0247837,1.01681 -0.771486 0.0264442,1.01681 -0.767192 0.0177358,1.03067 -0.764895 0.0188295,1.0497 -0.734298 0.0177358]
}}
appearance Appearance{material Material{diffuseColor 0.2 0.2 0.2
transparency 0}}}
Shape { geometry IndexedFaceSet 
{ creaseAngle 0.50 coordIndex [0,1,2,-1,3,4,5,-1,3,5,6,-1,3,6,4,-1,7,8,9,-1,7,9,0,-1,7,10,6,-1,7,0,10,-1,11,12,8,-1,11,5,13,-1,11,8,7,-1,11,6,5,-1,11,13,12,-1,11,7,6,-1,14,15,16,-1,17,12,13,-1,18,19,20,-1,18,20,21,-1,22,21,23,-1,22,18,21,-1,24,22,23,-1,25,26,19,-1,25,18,22,-1,25,19,18,-1,27,28,29,-1,27,23,28,-1,27,24,23,-1,30,22,24,-1,30,25,22,-1,31,32,26,-1,31,26,25,-1,33,30,24,-1,33,24,27,-1,2,25,30,-1,2,31,25,-1,34,35,4,-1,34,29,35,-1,34,33,27,-1,34,27,29,-1,10,2,30,-1,10,30,33,-1,1,36,14,-1,1,16,32,-1,1,32,31,-1,1,14,16,-1,1,31,2,-1,6,34,4,-1,6,33,34,-1,6,10,33,-1,0,9,36,-1,0,36,1,-1,0,2,10,-1]
coord Coordinate { point [-1.02008 -0.745809 0.00815697,-1.01004 -0.745809 0.0033654,-1.01308 -0.756314 0.00991033,-1.03077 -0.756314 0.0317505,-1.02959 -0.758653 0.0345658,-1.03427 -0.751239 0.0348044,-1.02715 -0.756314 0.0228043,-1.02829 -0.745809 0.0156763,-1.03192 -0.734298 0.0177358,-1.02563 -0.734298 0.0103434,-1.02108 -0.756314 0.0153059,-1.03394 -0.745809 0.0252662,-1.03622 -0.734298 0.0264442,-1.03721 -0.742984 0.0352697,-1.00866 -0.734298 0.00119732,-0.999028 -0.734298 1.44241e-15,-0.999028 -0.743934 0.00119732,-1.03825 -0.734298 0.0359387,-1.00121 -0.770802 0.0247837,-0.999028 -0.767192 0.0177358,-0.999028 -0.771486 0.0264442,-0.999028 -0.773519 0.0359387,-1.00538 -0.770802 0.0260584,-1.0034 -0.773241 0.0355806,-1.00899 -0.770802 0.0284964,-1.00627 -0.764895 0.0156763,-0.999028 -0.760896 0.0103434,-1.01174 -0.770802 0.0318847,-1.00771 -0.772479 0.0352697,-1.01597 -0.769543 0.0348044,-1.01288 -0.764895 0.0188295,-1.00385 -0.756314 0.0070893,-0.999028 -0.752983 0.00471647,-1.01828 -0.764895 0.0237777,-1.022 -0.764895 0.0300886,-1.02338 -0.764856 0.0345658,-1.01771 -0.734298 0.00471647]
}}
appearance Appearance{material Material{diffuseColor 0.2 0.2 0.2
transparency 0}}}
Shape { geometry IndexedFaceSet 
{ creaseAngle 0.50 coordIndex [0,1,2,-1,0,3,1,-1,4,0,2,-1,5,2,6,-1,5,4,2,-1,7,6,8,-1,7,5,6,-1,9,8,10,-1,9,7,8,-1,11,10,12,-1,11,9,10,-1,13,12,14,-1,13,14,15,-1,13,11,12,-1,16,15,17,-1,16,13,15,-1,18,16,17,-1]
coord Coordinate { point [-1.04819 -0.74469 0.149616,-1.03825 -0.734298 0.0359387,-1.03721 -0.742984 0.0352697,-1.04819 -0.744243 0.149606,-1.0474 -0.752264 0.149907,-1.04517 -0.759525 0.150123,-1.03427 -0.751239 0.0348044,-1.04072 -0.767448 0.150272,-1.02959 -0.758653 0.0345658,-1.03456 -0.774113 0.150293,-1.02338 -0.764856 0.0345658,-1.02701 -0.779166 0.150186,-1.01597 -0.769543 0.0348044,-1.01848 -0.782339 0.149956,-1.00771 -0.772479 0.0352697,-1.0034 -0.773241 0.0355806,-1.00942 -0.783461 0.149616,-0.999028 -0.773519 0.0359387,-1.00897 -0.783463 0.149606]
}}
appearance Appearance{material Material{diffuseColor 0.2 0.2 0.2
transparency 0}}}
Shape { geometry IndexedFaceSet 
{ creaseAngle 0.50 coordIndex [0,1,2,-1,1,3,2,-1,4,5,6,-1,2,3,7,-1,8,9,4,-1,10,11,12,-1,9,13,4,-1,14,11,10,-1,5,15,16,-1,12,17,10,-1,10,17,18,-1,4,15,5,-1,13,17,19,-1,13,15,4,-1,18,17,13,-1,14,20,11,-1,21,20,14,-1,22,23,24,-1,24,23,25,-1,17,26,19,-1,7,27,21,-1,23,28,29,-1,21,27,20,-1,3,30,7,-1,7,30,27,-1,22,31,23,-1,30,32,27,-1,23,31,28,-1,15,19,22,-1,26,33,19,-1,13,19,15,-1,22,19,31,-1,30,34,32,-1,34,35,32,-1,36,37,38,-1,37,39,38,-1,35,40,32,-1,39,41,38,-1,42,41,43,-1,43,41,39,-1,33,44,19,-1,41,45,38,-1,33,46,44,-1,45,47,38,-1,38,47,13,-1,47,48,13,-1,48,18,13,-1,49,50,51,-1,51,50,46,-1,46,50,44,-1,44,52,53,-1,53,52,54,-1,50,52,44,-1,55,56,40,-1,57,56,55,-1,40,56,32,-1,58,59,2,-1,58,60,59,-1,59,0,2,-1,58,61,60,-1]
coord Coordinate { point [1.25803 0.159019 8.7419e-16,1.2528 0.145494 9.61609e-16,1.03527 0.347637 3.49676e-16,1.25101 0.131102 6.55642e-16,-0.425812 0.589835 -4.37095e-16,-0.436736 0.576136 -4.37095e-16,-0.432046 0.583601 -4.37095e-16,1.01775 0.349611 4.37095e-16,-0.418347 0.594525 -4.37095e-16,-0.410026 0.597437 -4.37095e-16,0.973706 0.377283 4.37095e-16,0.986174 -0.370328 1.44241e-15,0.973706 -0.382795 1.48612e-15,-0.401265 0.598424 -6.55642e-16,0.986174 0.364816 4.80804e-16,-0.440635 0.559054 -6.11933e-16,-0.439648 0.567814 -3.49676e-16,0.964325 -0.397725 1.48612e-15,0.964325 0.392213 4.37095e-16,-0.401265 -0.603936 9.17899e-16,1.0011 -0.360947 1.44241e-15,1.0011 0.355435 4.80804e-16,-0.440635 -0.564566 8.3048e-16,-0.432046 -0.589113 1.13645e-15,-0.439648 -0.573327 1.09274e-15,-0.436736 -0.581648 1.18016e-15,0.958501 -0.414368 1.57354e-15,1.01775 -0.355123 1.44241e-15,-0.418347 -0.600037 1.13645e-15,-0.425812 -0.595347 1.13645e-15,1.25101 -0.136614 1.04903e-15,-0.410026 -0.602949 1.13645e-15,1.03527 -0.353149 1.31128e-15,0.956527 -0.431889 1.3987e-15,1.2528 -0.151007 1.35499e-15,1.25803 -0.164531 1.31128e-15,0.925918 0.597437 1.31128e-16,0.934239 0.594525 2.18547e-16,0.917157 0.598424 -5.24514e-16,0.941704 0.589835 1.74838e-16,1.2664 -0.176372 1.31128e-15,0.95554 0.567814 2.62257e-16,0.952628 0.576136 1.74838e-16,0.947938 0.583601 1.74838e-16,0.917157 -0.603936 1.09274e-15,0.956527 0.559054 0,0.956527 -0.564566 1.48612e-15,0.956527 0.426377 2.18547e-16,0.958501 0.408856 3.93385e-16,0.952628 -0.581648 1.79209e-15,0.947938 -0.589113 1.74838e-15,0.95554 -0.573327 1.70467e-15,0.941704 -0.595347 1.74838e-15,0.925918 -0.602949 1.66096e-15,0.934239 -0.600037 1.74838e-15,1.27741 -0.185815 1.35499e-15,1.29038 -0.353149 1.3987e-15,1.29038 -0.192292 1.09274e-15,1.29038 0.347637 3.49676e-16,1.2664 0.17086 8.7419e-16,1.27741 0.180303 8.3048e-16,1.29038 0.18678 5.68223e-16]
}}
appearance Appearance{material Material{diffuseColor 0.752941 0.752941 0.752941
transparency 0}}}
Shape { geometry IndexedFaceSet 
{ creaseAngle 0.50 coordIndex [0,1,2,-1,1,3,2,-1,3,4,2,-1,5,6,7,-1,7,6,8,-1,8,6,9,-1,9,6,10,-1,11,12,13,-1,10,6,14,-1,15,12,11,-1,16,12,14,-1,6,17,14,-1,13,12,16,-1,17,16,14,-1,15,18,12,-1,19,18,15,-1,19,20,18,-1,18,20,21,-1,22,20,19,-1,23,24,4,-1,25,24,23,-1,4,24,2,-1,26,27,28,-1,26,29,27,-1,27,30,28,-1,26,31,29,-1,30,32,28,-1,28,33,34,-1,32,33,28,-1,35,36,37,-1,37,36,38,-1,37,39,40,-1,38,39,37,-1,41,42,35,-1,35,42,36,-1,40,13,16,-1,39,13,40,-1,34,43,41,-1,33,43,34,-1,41,43,42,-1,33,0,43,-1,0,2,43,-1]
coord Coordinate { point [1.25101 0.131102 0.15,1.2528 0.145494 0.15,1.03527 0.347637 0.15,1.25803 0.159019 0.15,1.2664 0.17086 0.15,0.954253 -0.623903 0.15,0.956527 -0.605117 0.15,0.947563 -0.641605 0.15,0.936842 -0.657199 0.15,0.922711 -0.669784 0.15,0.905985 -0.678635 0.15,0.956527 0.426377 0.15,0.88763 0.677727 0.15,0.958501 0.408856 0.15,0.88763 -0.683239 0.15,0.956527 0.599605 0.15,0.958501 -0.414368 0.15,0.956527 -0.431889 0.15,0.905985 0.673123 0.15,0.954253 0.618391 0.15,0.936842 0.651687 0.15,0.922711 0.664272 0.15,0.947563 0.636093 0.15,1.27741 0.180303 0.15,1.29038 0.347637 0.15,1.29038 0.18678 0.15,1.29038 -0.353149 0.15,1.2664 -0.176372 0.15,1.03527 -0.353149 0.15,1.27741 -0.185815 0.15,1.25803 -0.164531 0.15,1.29038 -0.192292 0.15,1.2528 -0.151007 0.15,1.25101 -0.136614 0.15,1.01775 -0.355123 0.15,0.986174 -0.370328 0.15,0.986174 0.364816 0.15,0.973706 -0.382795 0.15,0.973706 0.377283 0.15,0.964325 0.392213 0.15,0.964325 -0.397725 0.15,1.0011 -0.360947 0.15,1.0011 0.355435 0.15,1.01775 0.349611 0.15]
}}
appearance Appearance{material Material{diffuseColor 0.752941 0.752941 0.752941
transparency 0}}}
Shape { geometry IndexedFaceSet 
{ creaseAngle 0.50 coordIndex [0,1,2,-1,0,2,3,-1]
coord Coordinate { point [1.03527 -0.353149 1.31128e-15,1.29038 -0.353149 1.3987e-15,1.29038 -0.353149 0.15,1.03527 -0.353149 0.15]
}}
appearance Appearance{material Material{diffuseColor 0.752941 0.752941 0.752941
transparency 0}}}
Shape { geometry IndexedFaceSet 
{ creaseAngle 0.50 coordIndex [0,1,2,-1,0,3,1,-1]
coord Coordinate { point [1.29038 0.347637 3.49676e-16,1.03527 0.347637 0.15,1.29038 0.347637 0.15,1.03527 0.347637 3.49676e-16]
}}
appearance Appearance{material Material{diffuseColor 0.752941 0.752941 0.752941
transparency 0}}}
Shape { geometry IndexedFaceSet 
{ creaseAngle 0.50 coordIndex [0,1,2,-1,2,1,3,-1,3,4,5,-1,1,4,3,-1,5,6,7,-1,4,6,5,-1,7,8,9,-1,6,8,7,-1,9,10,11,-1,8,10,9,-1]
coord Coordinate { point [1.25101 -0.136614 0.15,1.2528 -0.151007 0.15,1.25101 -0.136614 1.04903e-15,1.2528 -0.151007 1.35499e-15,1.25803 -0.164531 0.15,1.25803 -0.164531 1.31128e-15,1.2664 -0.176372 0.15,1.2664 -0.176372 1.31128e-15,1.27741 -0.185815 0.15,1.27741 -0.185815 1.35499e-15,1.29038 -0.192292 0.15,1.29038 -0.192292 1.09274e-15]
}}
appearance Appearance{material Material{diffuseColor 0.752941 0.752941 0.752941
transparency 0}}}
Shape { geometry IndexedFaceSet 
{ creaseAngle 0.50 coordIndex [0,1,2,-1,2,1,3,-1,3,4,5,-1,1,4,3,-1,5,6,7,-1,4,6,5,-1,7,8,9,-1,6,8,7,-1,9,10,11,-1,8,10,9,-1]
coord Coordinate { point [1.29038 0.18678 0.15,1.27741 0.180303 0.15,1.29038 0.18678 5.68223e-16,1.27741 0.180303 8.3048e-16,1.2664 0.17086 0.15,1.2664 0.17086 8.7419e-16,1.25803 0.159019 0.15,1.25803 0.159019 8.7419e-16,1.2528 0.145494 0.15,1.2528 0.145494 9.61609e-16,1.25101 0.131102 0.15,1.25101 0.131102 6.55642e-16]
}}
appearance Appearance{material Material{diffuseColor 0.752941 0.752941 0.752941
transparency 0}}}
Shape { geometry IndexedFaceSet 
{ creaseAngle 0.50 coordIndex [0,1,2,-1,3,4,1,-1,1,4,5,-1,5,6,7,-1,7,2,1,-1,7,1,5,-1]
coord Coordinate { point [-0.440635 0.678345 0.059055,-0.440635 0.559054 0.059055,-0.440635 0.678345 0.0599999,-0.440635 0.559054 -6.11933e-16,-0.440635 -0.564566 8.3048e-16,-0.440635 -0.564566 0.059055,-0.440635 -0.683857 0.059055,-0.440635 -0.683857 0.0599999]
}}
appearance Appearance{material Material{diffuseColor 0.752941 0.752941 0.752941
transparency 0}}}
Shape { geometry IndexedFaceSet 
{ creaseAngle 0.50 coordIndex [0,1,2,-1,3,4,0,-1,3,0,2,-1,5,3,6,-1,5,6,7,-1,5,4,3,-1]
coord Coordinate { point [-0.440635 0.678345 0.0599999,-0.441895 0.678345 0.0599999,-0.441895 0.678345 0.15,0.84826 0.678345 0.15,-0.440635 0.678345 0.059055,0.877787 0.678345 0.059055,0.867945 0.678345 0.130315,0.877787 0.678345 0.140157]
}}
appearance Appearance{material Material{diffuseColor 0.752941 0.752941 0.752941
transparency 0}}}
Shape { geometry IndexedFaceSet 
{ creaseAngle 0.50 coordIndex [0,1,2,-1,3,2,4,-1,3,0,2,-1,5,4,6,-1,5,3,4,-1,7,6,8,-1,7,5,6,-1,9,8,10,-1,9,7,8,-1,11,10,12,-1,11,9,10,-1,13,11,12,-1,14,12,15,-1,14,13,12,-1]
coord Coordinate { point [0.956527 0.599605 0.15,0.956527 0.599605 0.059055,0.954553 0.617126 0.059055,0.954253 0.618391 0.15,0.94873 0.633769 0.059055,0.947563 0.636093 0.15,0.939349 0.648699 0.059055,0.936842 0.651687 0.15,0.926881 0.661166 0.059055,0.922711 0.664272 0.15,0.911951 0.670547 0.059055,0.905985 0.673123 0.15,0.895309 0.676371 0.059055,0.88763 0.677727 0.15,0.877787 0.678345 0.140157,0.877787 0.678345 0.059055]
}}
appearance Appearance{material Material{diffuseColor 0.752941 0.752941 0.752941
transparency 0}}}
Shape { geometry IndexedFaceSet 
{ creaseAngle 0.50 coordIndex [0,1,2,-1,3,0,2,-1,4,5,0,-1,4,0,3,-1]
coord Coordinate { point [0.956527 0.559054 0.059055,0.956527 0.599605 0.059055,0.956527 0.599605 0.15,0.956527 0.426377 0.15,0.956527 0.426377 2.18547e-16,0.956527 0.559054 0]
}}
appearance Appearance{material Material{diffuseColor 0.752941 0.752941 0.752941
transparency 0}}}
Shape { geometry IndexedFaceSet 
{ creaseAngle 0.50 coordIndex [0,1,2,-1,0,2,3,-1,4,3,5,-1,6,0,3,-1,6,3,4,-1,7,4,5,-1]
coord Coordinate { point [0.877787 -0.683857 0.059055,0.877787 -0.683857 0.140157,0.867945 -0.683857 0.130315,0.84826 -0.683857 0.15,-0.440635 -0.683857 0.0599999,-0.441895 -0.683857 0.15,-0.440635 -0.683857 0.059055,-0.441895 -0.683857 0.0599999]
}}
appearance Appearance{material Material{diffuseColor 0.752941 0.752941 0.752941
transparency 0}}}
Shape { geometry IndexedFaceSet 
{ creaseAngle 0.50 coordIndex [0,1,2,-1,3,0,2,-1,4,2,5,-1,4,3,2,-1,6,5,7,-1,6,4,5,-1,8,7,9,-1,8,6,7,-1,10,9,11,-1,10,8,9,-1,12,11,13,-1,12,10,11,-1,14,13,15,-1,14,12,13,-1]
coord Coordinate { point [0.877787 -0.683857 0.140157,0.877787 -0.683857 0.059055,0.895309 -0.681883 0.059055,0.88763 -0.683239 0.15,0.905985 -0.678635 0.15,0.911951 -0.676059 0.059055,0.922711 -0.669784 0.15,0.926881 -0.666678 0.059055,0.936842 -0.657199 0.15,0.939349 -0.654211 0.059055,0.947563 -0.641605 0.15,0.94873 -0.639281 0.059055,0.954253 -0.623903 0.15,0.954553 -0.622638 0.059055,0.956527 -0.605117 0.15,0.956527 -0.605117 0.059055]
}}
appearance Appearance{material Material{diffuseColor 0.752941 0.752941 0.752941
transparency 0}}}
Shape { geometry IndexedFaceSet 
{ creaseAngle 0.50 coordIndex [0,1,2,-1,0,2,3,-1,4,5,0,-1,4,0,3,-1]
coord Coordinate { point [0.956527 -0.564566 0.059055,0.956527 -0.564566 1.48612e-15,0.956527 -0.431889 1.3987e-15,0.956527 -0.431889 0.15,0.956527 -0.605117 0.15,0.956527 -0.605117 0.059055]
}}
appearance Appearance{material Material{diffuseColor 0.752941 0.752941 0.752941
transparency 0}}}
Shape { geometry IndexedFaceSet 
{ creaseAngle 0.50 coordIndex [0,1,2,-1,2,1,3,-1,3,1,4,-1,4,1,5,-1,5,6,7,-1,1,6,5,-1,6,8,7,-1,9,10,11,-1,12,13,9,-1,10,13,14,-1,9,13,10,-1,12,15,13,-1,12,16,15,-1,12,17,16,-1,8,17,12,-1,8,12,7,-1]
coord Coordinate { point [-0.476059 0.670547 0.0599999,-0.459416 0.676371 0.0599999,-0.490989 0.661166 0.0599999,-0.503457 0.648699 0.0599999,-0.512837 0.633769 0.0599999,-0.518661 0.617126 0.0599999,-0.441895 0.678345 0.0599999,-0.520635 0.599605 0.0599999,-0.440635 0.678345 0.0599999,-0.518661 -0.622638 0.0599999,-0.503457 -0.654211 0.0599999,-0.512837 -0.639281 0.0599999,-0.520635 -0.605117 0.0599999,-0.476059 -0.676059 0.0599999,-0.490989 -0.666678 0.0599999,-0.459416 -0.681883 0.0599999,-0.441895 -0.683857 0.0599999,-0.440635 -0.683857 0.0599999]
}}
appearance Appearance{material Material{diffuseColor 0.752941 0.752941 0.752941
transparency 0}}}
Shape { geometry IndexedFaceSet 
{ creaseAngle 0.50 coordIndex [0,1,2,-1,2,1,3,-1]
coord Coordinate { point [-0.520635 0.599605 0.0599999,-0.520635 -0.605117 0.0599999,-0.520635 0.599605 0.15,-0.520635 -0.605117 0.15]
}}
appearance Appearance{material Material{diffuseColor 0.752941 0.752941 0.752941
transparency 0}}}
Shape { geometry IndexedFaceSet 
{ creaseAngle 0.50 coordIndex [0,1,2,-1,2,3,4,-1,5,6,1,-1,3,6,7,-1,1,6,2,-1,2,6,3,-1,6,8,7,-1,8,9,10,-1,10,9,11,-1,11,9,12,-1,12,9,13,-1,13,9,14,-1,14,9,15,-1,16,9,6,-1,6,9,8,-1,16,17,9,-1]
coord Coordinate { point [-0.490989 -0.666678 0.15,-0.476059 -0.676059 0.15,-0.503457 -0.654211 0.15,-0.518661 -0.622638 0.15,-0.512837 -0.639281 0.15,-0.459416 -0.681883 0.15,-0.441895 -0.683857 0.15,-0.520635 -0.605117 0.15,-0.520635 0.599605 0.15,-0.441895 0.678345 0.15,-0.518661 0.617126 0.15,-0.512837 0.633769 0.15,-0.503457 0.648699 0.15,-0.490989 0.661166 0.15,-0.476059 0.670547 0.15,-0.459416 0.676371 0.15,0.84826 -0.683857 0.15,0.84826 0.678345 0.15]
}}
appearance Appearance{material Material{diffuseColor 0.752941 0.752941 0.752941
transparency 0}}}
Shape { geometry IndexedFaceSet 
{ creaseAngle 0.50 coordIndex [0,1,2,-1,3,1,0,-1]
coord Coordinate { point [0.84826 0.678345 0.15,0.867945 -0.683857 0.130315,0.867945 0.678345 0.130315,0.84826 -0.683857 0.15]
}}
appearance Appearance{material Material{diffuseColor 0.752941 0.752941 0.752941
transparency 0}}}
Shape { geometry IndexedFaceSet 
{ creaseAngle 0.50 coordIndex [0,1,2,-1,0,3,1,-1,4,5,3,-1,3,5,1,-1]
coord Coordinate { point [0.867945 0.678345 0.130315,0.88763 0.677727 0.15,0.877787 0.678345 0.140157,0.867945 -0.683857 0.130315,0.877787 -0.683857 0.140157,0.88763 -0.683239 0.15]
}}
appearance Appearance{material Material{diffuseColor 0.752941 0.752941 0.752941
transparency 0}}}
Shape { geometry IndexedFaceSet 
{ creaseAngle 0.50 coordIndex [0,1,2,-1,0,3,1,-1,4,2,5,-1,4,0,2,-1,6,5,7,-1,6,4,5,-1,8,7,9,-1,8,6,7,-1,10,9,11,-1,10,8,9,-1,12,11,13,-1,12,10,11,-1,14,13,15,-1,14,12,13,-1]
coord Coordinate { point [-0.518661 -0.622638 0.15,-0.520635 -0.605117 0.0599999,-0.518661 -0.622638 0.0599999,-0.520635 -0.605117 0.15,-0.512837 -0.639281 0.15,-0.512837 -0.639281 0.0599999,-0.503457 -0.654211 0.15,-0.503457 -0.654211 0.0599999,-0.490989 -0.666678 0.15,-0.490989 -0.666678 0.0599999,-0.476059 -0.676059 0.15,-0.476059 -0.676059 0.0599999,-0.459416 -0.681883 0.15,-0.459416 -0.681883 0.0599999,-0.441895 -0.683857 0.15,-0.441895 -0.683857 0.0599999]
}}
appearance Appearance{material Material{diffuseColor 0.752941 0.752941 0.752941
transparency 0}}}
Shape { geometry IndexedFaceSet 
{ creaseAngle 0.50 coordIndex [0,1,2,-1,2,1,3,-1,3,4,5,-1,1,4,3,-1,5,6,7,-1,4,6,5,-1,7,8,9,-1,6,8,7,-1,9,10,11,-1,8,10,9,-1,11,12,13,-1,10,12,11,-1,13,14,15,-1,12,14,13,-1]
coord Coordinate { point [1.03527 -0.353149 0.15,1.01775 -0.355123 0.15,1.03527 -0.353149 1.31128e-15,1.01775 -0.355123 1.44241e-15,1.0011 -0.360947 0.15,1.0011 -0.360947 1.44241e-15,0.986174 -0.370328 0.15,0.986174 -0.370328 1.44241e-15,0.973706 -0.382795 0.15,0.973706 -0.382795 1.48612e-15,0.964325 -0.397725 0.15,0.964325 -0.397725 1.48612e-15,0.958501 -0.414368 0.15,0.958501 -0.414368 1.57354e-15,0.956527 -0.431889 0.15,0.956527 -0.431889 1.3987e-15]
}}
appearance Appearance{material Material{diffuseColor 0.752941 0.752941 0.752941
transparency 0}}}
Shape { geometry IndexedFaceSet 
{ creaseAngle 0.50 coordIndex [0,1,2,-1,2,1,3,-1,3,4,5,-1,1,4,3,-1,5,6,7,-1,4,6,5,-1,7,8,9,-1,6,8,7,-1,9,10,11,-1,8,10,9,-1,11,12,13,-1,10,12,11,-1,13,14,15,-1,12,14,13,-1]
coord Coordinate { point [0.956527 0.426377 0.15,0.958501 0.408856 0.15,0.956527 0.426377 2.18547e-16,0.958501 0.408856 3.93385e-16,0.964325 0.392213 0.15,0.964325 0.392213 4.37095e-16,0.973706 0.377283 0.15,0.973706 0.377283 4.37095e-16,0.986174 0.364816 0.15,0.986174 0.364816 4.80804e-16,1.0011 0.355435 0.15,1.0011 0.355435 4.80804e-16,1.01775 0.349611 0.15,1.01775 0.349611 4.37095e-16,1.03527 0.347637 0.15,1.03527 0.347637 3.49676e-16]
}}
appearance Appearance{material Material{diffuseColor 0.752941 0.752941 0.752941
transparency 0}}}
Shape { geometry IndexedFaceSet 
{ creaseAngle 0.50 coordIndex [0,1,2,-1,0,3,1,-1,4,2,5,-1,4,0,2,-1,6,5,7,-1,6,4,5,-1,8,7,9,-1,8,6,7,-1,10,9,11,-1,10,8,9,-1,12,11,13,-1,12,10,11,-1,14,13,15,-1,14,12,13,-1]
coord Coordinate { point [-0.459416 0.676371 0.15,-0.441895 0.678345 0.0599999,-0.459416 0.676371 0.0599999,-0.441895 0.678345 0.15,-0.476059 0.670547 0.15,-0.476059 0.670547 0.0599999,-0.490989 0.661166 0.15,-0.490989 0.661166 0.0599999,-0.503457 0.648699 0.15,-0.503457 0.648699 0.0599999,-0.512837 0.633769 0.15,-0.512837 0.633769 0.0599999,-0.518661 0.617126 0.15,-0.518661 0.617126 0.0599999,-0.520635 0.599605 0.15,-0.520635 0.599605 0.0599999]
}}
appearance Appearance{material Material{diffuseColor 0.752941 0.752941 0.752941
transparency 0}}}
Shape { geometry IndexedFaceSet 
{ creaseAngle 0.50 coordIndex [0,1,2,-1,0,2,3,-1]
coord Coordinate { point [1.25101 -0.136614 0.15,1.25101 -0.136614 1.04903e-15,1.25101 0.131102 6.55642e-16,1.25101 0.131102 0.15]
}}
appearance Appearance{material Material{diffuseColor 0.752941 0.752941 0.752941
transparency 0}}}
Shape { geometry IndexedFaceSet 
{ creaseAngle 0.50 coordIndex [0,1,2,-1,0,3,1,-1]
coord Coordinate { point [-0.401265 -0.603936 9.17899e-16,0.917157 -0.603936 0.059055,-0.401265 -0.603936 0.059055,0.917157 -0.603936 1.09274e-15]
}}
appearance Appearance{material Material{diffuseColor 0.752941 0.752941 0.752941
transparency 0}}}
Shape { geometry IndexedFaceSet 
{ creaseAngle 0.50 coordIndex [0,1,2,-1,0,3,1,-1,0,4,3,-1,0,5,4,-1,0,6,5,-1,0,7,6,-1,0,8,7,-1,9,2,10,-1,9,0,2,-1,11,12,13,-1,11,14,12,-1,11,15,14,-1,11,16,15,-1,11,17,16,-1,18,19,17,-1,18,17,11,-1,20,9,10,-1,21,20,10,-1,22,10,19,-1,22,19,18,-1,23,10,22,-1,24,21,10,-1,24,10,23,-1]
coord Coordinate { point [-0.440635 -0.683857 0.059055,-0.410026 -0.602949 0.059055,-0.401265 -0.603936 0.059055,-0.418347 -0.600037 0.059055,-0.425812 -0.595347 0.059055,-0.432046 -0.589113 0.059055,-0.436736 -0.581648 0.059055,-0.439648 -0.573327 0.059055,-0.440635 -0.564566 0.059055,0.877787 -0.683857 0.059055,0.917157 -0.603936 0.059055,0.956527 -0.605117 0.059055,0.95554 -0.573327 0.059055,0.956527 -0.564566 0.059055,0.952628 -0.581648 0.059055,0.947938 -0.589113 0.059055,0.941704 -0.595347 0.059055,0.934239 -0.600037 0.059055,0.954553 -0.622638 0.059055,0.925918 -0.602949 0.059055,0.895309 -0.681883 0.059055,0.911951 -0.676059 0.059055,0.94873 -0.639281 0.059055,0.939349 -0.654211 0.059055,0.926881 -0.666678 0.059055]
}}
appearance Appearance{material Material{diffuseColor 0.752941 0.752941 0.752941
transparency 0}}}
Shape { geometry IndexedFaceSet 
{ creaseAngle 0.50 coordIndex [0,1,2,-1,3,2,1,-1,4,0,2,-1,5,4,2,-1,6,2,3,-1,7,2,6,-1,8,5,2,-1,9,8,2,-1,10,9,11,-1,10,11,12,-1,10,12,13,-1,10,13,14,-1,10,14,15,-1,10,8,9,-1,16,10,15,-1,17,16,15,-1,18,16,17,-1,19,20,18,-1,19,18,17,-1,21,20,19,-1,22,21,19,-1,23,22,19,-1,24,23,19,-1]
coord Coordinate { point [-0.425812 0.589835 0.059055,-0.432046 0.583601 0.059055,-0.440635 0.678345 0.059055,-0.436736 0.576136 0.059055,-0.418347 0.594525 0.059055,-0.410026 0.597437 0.059055,-0.439648 0.567814 0.059055,-0.440635 0.559054 0.059055,-0.401265 0.598424 0.059055,0.877787 0.678345 0.059055,0.917157 0.598424 0.059055,0.895309 0.676371 0.059055,0.911951 0.670547 0.059055,0.926881 0.661166 0.059055,0.939349 0.648699 0.059055,0.94873 0.633769 0.059055,0.925918 0.597437 0.059055,0.954553 0.617126 0.059055,0.934239 0.594525 0.059055,0.956527 0.599605 0.059055,0.941704 0.589835 0.059055,0.947938 0.583601 0.059055,0.952628 0.576136 0.059055,0.95554 0.567814 0.059055,0.956527 0.559054 0.059055]
}}
appearance Appearance{material Material{diffuseColor 0.752941 0.752941 0.752941
transparency 0}}}
Shape { geometry IndexedFaceSet 
{ creaseAngle 0.50 coordIndex [0,1,2,-1,0,3,1,-1]
coord Coordinate { point [0.917157 0.598424 -5.24514e-16,-0.401265 0.598424 0.059055,0.917157 0.598424 0.059055,-0.401265 0.598424 -6.55642e-16]
}}
appearance Appearance{material Material{diffuseColor 0.752941 0.752941 0.752941
transparency 0}}}
Shape { geometry IndexedFaceSet 
{ creaseAngle 0.50 coordIndex [0,1,2,-1,0,2,3,-1,4,3,5,-1,4,0,3,-1,6,5,7,-1,6,4,5,-1,8,7,9,-1,8,6,7,-1,10,9,11,-1,10,8,9,-1,12,11,13,-1,12,10,11,-1,14,13,15,-1,14,12,13,-1]
coord Coordinate { point [-0.439648 0.567814 -3.49676e-16,-0.440635 0.559054 -6.11933e-16,-0.440635 0.559054 0.059055,-0.439648 0.567814 0.059055,-0.436736 0.576136 -4.37095e-16,-0.436736 0.576136 0.059055,-0.432046 0.583601 -4.37095e-16,-0.432046 0.583601 0.059055,-0.425812 0.589835 -4.37095e-16,-0.425812 0.589835 0.059055,-0.418347 0.594525 -4.37095e-16,-0.418347 0.594525 0.059055,-0.410026 0.597437 -4.37095e-16,-0.410026 0.597437 0.059055,-0.401265 0.598424 -6.55642e-16,-0.401265 0.598424 0.059055]
}}
appearance Appearance{material Material{diffuseColor 0.752941 0.752941 0.752941
transparency 0}}}
Shape { geometry IndexedFaceSet 
{ creaseAngle 0.50 coordIndex [0,1,2,-1,3,2,4,-1,3,0,2,-1,5,4,6,-1,5,3,4,-1,7,6,8,-1,7,5,6,-1,9,8,10,-1,9,7,8,-1,11,10,12,-1,11,9,10,-1,13,12,14,-1,13,11,12,-1,15,13,14,-1]
coord Coordinate { point [0.956527 -0.564566 1.48612e-15,0.956527 -0.564566 0.059055,0.95554 -0.573327 0.059055,0.95554 -0.573327 1.70467e-15,0.952628 -0.581648 0.059055,0.952628 -0.581648 1.79209e-15,0.947938 -0.589113 0.059055,0.947938 -0.589113 1.74838e-15,0.941704 -0.595347 0.059055,0.941704 -0.595347 1.74838e-15,0.934239 -0.600037 0.059055,0.934239 -0.600037 1.74838e-15,0.925918 -0.602949 0.059055,0.925918 -0.602949 1.66096e-15,0.917157 -0.603936 0.059055,0.917157 -0.603936 1.09274e-15]
}}
appearance Appearance{material Material{diffuseColor 0.752941 0.752941 0.752941
transparency 0}}}
Shape { geometry IndexedFaceSet 
{ creaseAngle 0.50 coordIndex [0,1,2,-1,0,3,1,-1,4,2,5,-1,4,0,2,-1,6,5,7,-1,6,4,5,-1,8,7,9,-1,8,6,7,-1,10,9,11,-1,10,8,9,-1,12,11,13,-1,12,10,11,-1,14,13,15,-1,14,12,13,-1]
coord Coordinate { point [0.95554 0.567814 0.059055,0.956527 0.559054 0,0.95554 0.567814 2.62257e-16,0.956527 0.559054 0.059055,0.952628 0.576136 0.059055,0.952628 0.576136 1.74838e-16,0.947938 0.583601 0.059055,0.947938 0.583601 1.74838e-16,0.941704 0.589835 0.059055,0.941704 0.589835 1.74838e-16,0.934239 0.594525 0.059055,0.934239 0.594525 2.18547e-16,0.925918 0.597437 0.059055,0.925918 0.597437 1.31128e-16,0.917157 0.598424 0.059055,0.917157 0.598424 -5.24514e-16]
}}
appearance Appearance{material Material{diffuseColor 0.752941 0.752941 0.752941
transparency 0}}}
Shape { geometry IndexedFaceSet 
{ creaseAngle 0.50 coordIndex [0,1,2,-1,0,2,3,-1,4,3,5,-1,4,0,3,-1,6,5,7,-1,6,4,5,-1,8,7,9,-1,8,6,7,-1,10,9,11,-1,10,8,9,-1,12,11,13,-1,12,10,11,-1,14,13,15,-1,14,12,13,-1]
coord Coordinate { point [-0.439648 -0.573327 0.059055,-0.440635 -0.564566 0.059055,-0.440635 -0.564566 8.3048e-16,-0.439648 -0.573327 1.09274e-15,-0.436736 -0.581648 0.059055,-0.436736 -0.581648 1.18016e-15,-0.432046 -0.589113 0.059055,-0.432046 -0.589113 1.13645e-15,-0.425812 -0.595347 0.059055,-0.425812 -0.595347 1.13645e-15,-0.418347 -0.600037 0.059055,-0.418347 -0.600037 1.13645e-15,-0.410026 -0.602949 0.059055,-0.410026 -0.602949 1.13645e-15,-0.401265 -0.603936 0.059055,-0.401265 -0.603936 9.17899e-16]
}}
appearance Appearance{material Material{diffuseColor 0.752941 0.752941 0.752941
transparency 0}}}
Shape { geometry IndexedFaceSet 
{ creaseAngle 0.50 coordIndex [0,1,2,-1,0,2,3,-1]
coord Coordinate { point [1.29038 0.18678 5.68223e-16,1.29038 0.347637 3.49676e-16,1.29038 0.347637 0.15,1.29038 0.18678 0.15]
}}
appearance Appearance{material Material{diffuseColor 0.752941 0.752941 0.752941
transparency 0}}}
Shape { geometry IndexedFaceSet 
{ creaseAngle 0.50 coordIndex [0,1,2,-1,0,2,3,-1]
coord Coordinate { point [1.29038 -0.353149 1.3987e-15,1.29038 -0.192292 1.09274e-15,1.29038 -0.192292 0.15,1.29038 -0.353149 0.15]
}}
appearance Appearance{material Material{diffuseColor 0.752941 0.752941 0.752941
transparency 0}}}
Shape { geometry IndexedFaceSet 
{ creaseAngle 0.50 coordIndex [0,1,2,-1,0,3,1,-1,4,3,0,-1,5,4,0,-1,6,5,0,-1,7,8,9,-1,7,10,8,-1,7,9,11,-1,7,12,13,-1,7,14,12,-1,7,11,14,-1,0,7,15,-1,15,7,13,-1,0,15,16,-1,0,16,17,-1,0,17,6,-1]
coord Coordinate { point [-0.861219 0.584644 0.0481455,-0.886436 0.575393 0.0229283,-0.881971 0.584644 0.0273935,-0.892067 0.566802 0.0172968,-0.892067 0.159008 0.0172968,-0.886532 0.148742 0.022832,-0.883363 0.138732 0.026001,-0.861219 -0.588582 0.0481455,-0.886436 -0.57933 0.0229283,-0.892067 -0.570739 0.0172968,-0.881971 -0.588582 0.0273935,-0.892067 -0.162945 0.0172968,-0.885675 -0.150507 0.0236895,-0.882904 -0.140379 0.0264601,-0.888502 -0.156916 0.0208626,-0.881971 -0.129921 0.0273935,-0.881971 0.125984 0.0273935,-0.88232 0.132396 0.0270443]
}}
appearance Appearance{material Material{diffuseColor 0.752941 0.752941 0.752941
transparency 0}}}
Shape { geometry IndexedFaceSet 
{ creaseAngle 0.50 coordIndex [0,1,2,-1,0,2,3,-1,0,3,4,-1,5,0,4,-1,6,0,5,-1,7,0,6,-1,8,0,7,-1,9,10,11,-1,9,11,12,-1,9,12,13,-1,9,13,14,-1,9,14,15,-1,9,15,16,-1,9,16,17,-1,9,0,18,-1,18,0,8,-1,9,18,19,-1,9,19,10,-1]
coord Coordinate { point [-0.861219 0.584644 0.218897,-0.881971 0.584644 0.218897,-0.887321 0.573868 0.218897,-0.894251 0.564033 0.218897,-0.902599 0.555369 0.218897,-0.902599 0.170826 0.218897,-0.893896 0.161569 0.218897,-0.887375 0.150664 0.218897,-0.883338 0.138616 0.218897,-0.861219 -0.588582 0.218897,-0.883338 -0.142553 0.218897,-0.887375 -0.154601 0.218897,-0.893896 -0.165506 0.218897,-0.902599 -0.174764 0.218897,-0.902599 -0.559306 0.218897,-0.894251 -0.567971 0.218897,-0.887321 -0.577806 0.218897,-0.881971 -0.588582 0.218897,-0.881971 0.125984 0.218897,-0.881971 -0.129921 0.218897]
}}
appearance Appearance{material Material{diffuseColor 0.752941 0.752941 0.752941
transparency 0}}}
Shape { geometry IndexedFaceSet 
{ creaseAngle 0.50 coordIndex [0,1,2,-1,3,0,2,-1]
coord Coordinate { point [-0.861219 -0.588582 0.0481455,-0.861219 -0.588582 0.218897,-0.881971 -0.588582 0.218897,-0.881971 -0.588582 0.0273935]
}}
appearance Appearance{material Material{diffuseColor 0.752941 0.752941 0.752941
transparency 0}}}
Shape { geometry IndexedFaceSet 
{ creaseAngle 0.50 coordIndex [0,1,2,-1,3,1,0,-1]
coord Coordinate { point [-0.861219 0.584644 0.0481455,-0.881971 0.584644 0.218897,-0.861219 0.584644 0.218897,-0.881971 0.584644 0.0273935]
}}
appearance Appearance{material Material{diffuseColor 0.752941 0.752941 0.752941
transparency 0}}}
Shape { geometry IndexedFaceSet 
{ creaseAngle 0.50 coordIndex [0,1,2,-1,3,2,4,-1,3,0,2,-1,5,4,6,-1,5,3,4,-1,7,6,8,-1,7,5,6,-1,9,7,8,-1]
coord Coordinate { point [-0.902599 -0.559306 0.218897,-0.902599 -0.174764 0.218897,-0.914158 -0.18251 0.207338,-0.918253 -0.548451 0.203243,-0.927208 -0.187337 0.194288,-0.936055 -0.541673 0.185441,-0.941026 -0.188976 0.18047,-0.954965 -0.539369 0.166531,-0.971496 -0.188976 0.15,-0.971496 -0.539369 0.15]
}}
appearance Appearance{material Material{diffuseColor 0.752941 0.752941 0.752941
transparency 0}}}
Shape { geometry IndexedFaceSet 
{ creaseAngle 0.50 coordIndex [0,1,2,-1,0,2,3,-1,4,3,5,-1,4,0,3,-1,6,5,7,-1,6,4,5,-1,8,7,9,-1,8,6,7,-1]
coord Coordinate { point [-0.914158 0.178573 0.207338,-0.902599 0.170826 0.218897,-0.902599 0.555369 0.218897,-0.918253 0.544514 0.203243,-0.927208 0.1834 0.194288,-0.936055 0.537736 0.185441,-0.941026 0.185039 0.18047,-0.954965 0.535432 0.166531,-0.971496 0.185039 0.15,-0.971496 0.535432 0.15]
}}
appearance Appearance{material Material{diffuseColor 0.752941 0.752941 0.752941
transparency 0}}}
Shape { geometry IndexedFaceSet 
{ creaseAngle 0.50 coordIndex [0,1,2,-1,3,1,0,-1]
coord Coordinate { point [-1.27165 -0.539369 0.15,-0.971496 -0.188976 0.15,-1.27165 -0.188976 0.15,-0.971496 -0.539369 0.15]
}}
appearance Appearance{material Material{diffuseColor 0.752941 0.752941 0.752941
transparency 0}}}
Shape { geometry IndexedFaceSet 
{ creaseAngle 0.50 coordIndex [0,1,2,-1,3,1,0,-1]
coord Coordinate { point [-1.27165 0.185039 0.15,-0.971496 0.535432 0.15,-1.27165 0.535432 0.15,-0.971496 0.185039 0.15]
}}
appearance Appearance{material Material{diffuseColor 0.752941 0.752941 0.752941
transparency 0}}}
Shape { geometry IndexedFaceSet 
{ creaseAngle 0.50 coordIndex [0,1,2,-1,0,2,3,-1]
coord Coordinate { point [-1.27165 -0.188976 1.35499e-15,-1.27165 -0.539369 1.79209e-15,-1.27165 -0.539369 0.15,-1.27165 -0.188976 0.15]
}}
appearance Appearance{material Material{diffuseColor 0.752941 0.752941 0.752941
transparency 0}}}
Shape { geometry IndexedFaceSet 
{ creaseAngle 0.50 coordIndex [0,1,2,-1,0,3,1,-1]
coord Coordinate { point [-1.27165 0.535432 8.7419e-17,-1.27165 0.185039 0.15,-1.27165 0.535432 0.15,-1.27165 0.185039 6.99352e-16]
}}
appearance Appearance{material Material{diffuseColor 0.752941 0.752941 0.752941
transparency 0}}}
Shape { geometry IndexedFaceSet 
{ creaseAngle 0.50 coordIndex [0,1,2,-1,3,4,1,-1,3,1,0,-1,5,4,3,-1,6,7,4,-1,6,4,5,-1,8,9,7,-1,8,7,6,-1]
coord Coordinate { point [-1.27165 -0.188976 1.35499e-15,-0.954965 -0.539369 1.92322e-15,-1.27165 -0.539369 1.79209e-15,-0.941026 -0.188976 1.31128e-15,-0.947841 -0.539692 2.36031e-15,-0.93862 -0.188927 1.8358e-15,-0.936219 -0.18878 1.8358e-15,-0.940775 -0.540658 2.36031e-15,-0.933826 -0.188536 1.26757e-15,-0.933826 -0.54226 1.92322e-15]
}}
appearance Appearance{material Material{diffuseColor 0.752941 0.752941 0.752941
transparency 0}}}
Shape { geometry IndexedFaceSet 
{ creaseAngle 0.50 coordIndex [0,1,2,-1,0,2,3,-1,4,5,1,-1,4,6,5,-1,4,1,0,-1,7,8,6,-1,7,6,4,-1,9,8,7,-1]
coord Coordinate { point [-0.954965 0.535432 2.62257e-16,-0.941026 0.185039 7.86771e-16,-1.27165 0.185039 6.99352e-16,-1.27165 0.535432 8.7419e-17,-0.947841 0.535755 6.99352e-16,-0.93862 0.18499 1.18016e-15,-0.936219 0.184843 1.18016e-15,-0.940775 0.536721 6.99352e-16,-0.933826 0.184598 7.86771e-16,-0.933826 0.538322 2.62257e-16]
}}
appearance Appearance{material Material{diffuseColor 0.752941 0.752941 0.752941
transparency 0}}}
Shape { geometry IndexedFaceSet 
{ creaseAngle 0.50 coordIndex [0,1,2,-1,3,2,4,-1,3,0,2,-1,5,4,6,-1,5,3,4,-1,7,6,8,-1,7,8,9,-1,7,5,6,-1,10,9,11,-1,10,7,9,-1]
coord Coordinate { point [-0.933826 -0.54226 1.92322e-15,-0.933826 -0.188536 1.26757e-15,-0.92507 -0.186779 0.000667275,-0.924355 -0.545569 0.000748671,-0.916931 -0.183827 0.00251965,-0.91564 -0.549915 0.00284445,-0.909484 -0.179823 0.00533297,-0.903143 -0.558857 0.00859046,-0.902806 -0.174912 0.00888304,-0.896975 -0.169237 0.0129457,-0.892067 -0.570739 0.0172968,-0.892067 -0.162945 0.0172968]
}}
appearance Appearance{material Material{diffuseColor 0.752941 0.752941 0.752941
transparency 0}}}
Shape { geometry IndexedFaceSet 
{ creaseAngle 0.50 coordIndex [0,1,2,-1,0,2,3,-1,4,0,3,-1,5,3,6,-1,5,6,7,-1,5,4,3,-1,8,7,9,-1,8,5,7,-1,10,9,11,-1,10,8,9,-1]
coord Coordinate { point [-0.928209 0.183631 0.000273707,-0.933826 0.184598 7.86771e-16,-0.933826 0.538322 2.62257e-16,-0.922634 0.542389 0.00105574,-0.922828 0.182162 0.00105672,-0.912522 0.177685 0.00404956,-0.912511 0.547894 0.00396718,-0.903554 0.554572 0.00835067,-0.901569 0.169894 0.00966292,-0.897396 0.560472 0.0125806,-0.892067 0.159008 0.0172968,-0.892067 0.566802 0.0172968]
}}
appearance Appearance{material Material{diffuseColor 0.752941 0.752941 0.752941
transparency 0}}}
Shape { geometry IndexedFaceSet 
{ creaseAngle 0.50 coordIndex [0,1,2,-1,3,1,4,-1,2,1,3,-1,1,5,4,-1,4,6,7,-1,5,6,4,-1,7,8,9,-1,9,8,10,-1,6,8,7,-1,10,11,12,-1,12,11,13,-1,8,11,10,-1,14,15,16,-1,13,15,14,-1,11,15,13,-1]
coord Coordinate { point [-0.881971 -0.588582 0.218897,-0.887321 -0.577806 0.218897,-0.881971 -0.588582 0.0273935,-0.886436 -0.57933 0.0229283,-0.892067 -0.570739 0.0172968,-0.894251 -0.567971 0.218897,-0.902599 -0.559306 0.218897,-0.903143 -0.558857 0.00859046,-0.918253 -0.548451 0.203243,-0.91564 -0.549915 0.00284445,-0.924355 -0.545569 0.000748671,-0.936055 -0.541673 0.185441,-0.933826 -0.54226 1.92322e-15,-0.940775 -0.540658 2.36031e-15,-0.947841 -0.539692 2.36031e-15,-0.954965 -0.539369 0.166531,-0.954965 -0.539369 1.92322e-15]
}}
appearance Appearance{material Material{diffuseColor 0.752941 0.752941 0.752941
transparency 0}}}
Shape { geometry IndexedFaceSet 
{ creaseAngle 0.50 coordIndex [0,1,2,-1,3,1,0,-1,2,4,5,-1,5,4,6,-1,1,4,2,-1,6,7,8,-1,8,7,9,-1,4,7,6,-1,9,10,11,-1,7,10,9,-1,11,12,13,-1,10,12,11,-1,14,15,16,-1,13,15,14,-1,12,15,13,-1,15,17,16,-1]
coord Coordinate { point [-0.947841 0.535755 6.99352e-16,-0.954965 0.535432 0.166531,-0.940775 0.536721 6.99352e-16,-0.954965 0.535432 2.62257e-16,-0.936055 0.537736 0.185441,-0.933826 0.538322 2.62257e-16,-0.922634 0.542389 0.00105574,-0.918253 0.544514 0.203243,-0.912511 0.547894 0.00396718,-0.903554 0.554572 0.00835067,-0.902599 0.555369 0.218897,-0.897396 0.560472 0.0125806,-0.894251 0.564033 0.218897,-0.892067 0.566802 0.0172968,-0.886436 0.575393 0.0229283,-0.887321 0.573868 0.218897,-0.881971 0.584644 0.0273935,-0.881971 0.584644 0.218897]
}}
appearance Appearance{material Material{diffuseColor 0.752941 0.752941 0.752941
transparency 0}}}
Shape { geometry IndexedFaceSet 
{ creaseAngle 0.50 coordIndex [0,1,2,-1,3,2,4,-1,3,0,2,-1]
coord Coordinate { point [-0.954965 -0.539369 1.92322e-15,-0.954965 -0.539369 0.166531,-0.971496 -0.539369 0.15,-1.27165 -0.539369 1.79209e-15,-1.27165 -0.539369 0.15]
}}
appearance Appearance{material Material{diffuseColor 0.752941 0.752941 0.752941
transparency 0}}}
Shape { geometry IndexedFaceSet 
{ creaseAngle 0.50 coordIndex [0,1,2,-1,3,0,4,-1,3,1,0,-1]
coord Coordinate { point [-0.971496 0.535432 0.15,-1.27165 0.535432 8.7419e-17,-1.27165 0.535432 0.15,-0.954965 0.535432 2.62257e-16,-0.954965 0.535432 0.166531]
}}
appearance Appearance{material Material{diffuseColor 0.752941 0.752941 0.752941
transparency 0}}}
Shape { geometry IndexedFaceSet 
{ creaseAngle 0.50 coordIndex [0,1,2,-1,0,2,3,-1]
coord Coordinate { point [-0.881971 -0.129921 0.0273935,-0.881971 -0.129921 0.218897,-0.881971 0.125984 0.218897,-0.881971 0.125984 0.0273935]
}}
appearance Appearance{material Material{diffuseColor 0.752941 0.752941 0.752941
transparency 0}}}
Shape { geometry IndexedFaceSet 
{ creaseAngle 0.50 coordIndex [0,1,2,-1,3,2,4,-1,3,0,2,-1]
coord Coordinate { point [-0.941026 0.185039 7.86771e-16,-0.941026 0.185039 0.18047,-0.971496 0.185039 0.15,-1.27165 0.185039 6.99352e-16,-1.27165 0.185039 0.15]
}}
appearance Appearance{material Material{diffuseColor 0.752941 0.752941 0.752941
transparency 0}}}
Shape { geometry IndexedFaceSet 
{ creaseAngle 0.50 coordIndex [0,1,2,-1,3,0,4,-1,3,1,0,-1]
coord Coordinate { point [-0.971496 -0.188976 0.15,-1.27165 -0.188976 1.35499e-15,-1.27165 -0.188976 0.15,-0.941026 -0.188976 1.31128e-15,-0.941026 -0.188976 0.18047]
}}
appearance Appearance{material Material{diffuseColor 0.752941 0.752941 0.752941
transparency 0}}}
Shape { geometry IndexedFaceSet 
{ creaseAngle 0.50 coordIndex [0,1,2,-1,3,4,5,-1,2,4,3,-1,1,4,2,-1,5,6,7,-1,4,6,5,-1,7,8,9,-1,6,8,7,-1,8,10,9,-1,9,11,12,-1,12,11,13,-1,10,11,9,-1,13,14,15,-1,15,14,16,-1,11,14,13,-1,17,18,19,-1,20,18,17,-1,16,18,20,-1,14,18,16,-1]
coord Coordinate { point [-0.881971 0.125984 0.0273935,-0.881971 0.125984 0.218897,-0.88232 0.132396 0.0270443,-0.883363 0.138732 0.026001,-0.883338 0.138616 0.218897,-0.886532 0.148742 0.022832,-0.887375 0.150664 0.218897,-0.892067 0.159008 0.0172968,-0.893896 0.161569 0.218897,-0.901569 0.169894 0.00966292,-0.902599 0.170826 0.218897,-0.914158 0.178573 0.207338,-0.912522 0.177685 0.00404956,-0.922828 0.182162 0.00105672,-0.927208 0.1834 0.194288,-0.928209 0.183631 0.000273707,-0.933826 0.184598 7.86771e-16,-0.93862 0.18499 1.18016e-15,-0.941026 0.185039 0.18047,-0.941026 0.185039 7.86771e-16,-0.936219 0.184843 1.18016e-15]
}}
appearance Appearance{material Material{diffuseColor 0.752941 0.752941 0.752941
transparency 0}}}
Shape { geometry IndexedFaceSet 
{ creaseAngle 0.50 coordIndex [0,1,2,-1,3,1,0,-1,4,1,3,-1,2,5,6,-1,6,5,7,-1,1,5,2,-1,7,8,9,-1,5,8,7,-1,9,10,11,-1,11,10,12,-1,8,10,9,-1,12,13,14,-1,14,13,15,-1,10,13,12,-1,15,16,17,-1,13,16,15,-1,17,18,19,-1,16,18,17,-1,19,20,21,-1,18,20,19,-1]
coord Coordinate { point [-0.936219 -0.18878 1.8358e-15,-0.941026 -0.188976 0.18047,-0.933826 -0.188536 1.26757e-15,-0.93862 -0.188927 1.8358e-15,-0.941026 -0.188976 1.31128e-15,-0.927208 -0.187337 0.194288,-0.92507 -0.186779 0.000667275,-0.916931 -0.183827 0.00251965,-0.914158 -0.18251 0.207338,-0.909484 -0.179823 0.00533297,-0.902599 -0.174764 0.218897,-0.902806 -0.174912 0.00888304,-0.896975 -0.169237 0.0129457,-0.893896 -0.165506 0.218897,-0.892067 -0.162945 0.0172968,-0.888502 -0.156916 0.0208626,-0.887375 -0.154601 0.218897,-0.885675 -0.150507 0.0236895,-0.883338 -0.142553 0.218897,-0.882904 -0.140379 0.0264601,-0.881971 -0.129921 0.218897,-0.881971 -0.129921 0.0273935]
}}
appearance Appearance{material Material{diffuseColor 0.752941 0.752941 0.752941
transparency 0}}}
Shape { geometry IndexedFaceSet 
{ creaseAngle 0.50 coordIndex [0,1,2,-1,0,3,1,-1]
coord Coordinate { point [-0.861219 -0.588582 0.218897,-0.861219 0.584644 0.0481455,-0.861219 0.584644 0.218897,-0.861219 -0.588582 0.0481455]
}}
appearance Appearance{material Material{diffuseColor 0.752941 0.752941 0.752941
transparency 0}}}
