#VRML V2.0 utf8
#kicad StepUp wrl exported

Shape { geometry IndexedFaceSet 
{ creaseAngle 0.50 coordIndex [0,1,2,-1,1,3,2,-1,4,1,0,-1]
coord Coordinate { point [0.384639 0.294941 0.03937,0.3937 0.295275 0.03937,0.389263 0.293945 0.03937,0.3937 0.292306 0.03937,0.37992 0.295275 0.03937]
}}
appearance Appearance{material Material{diffuseColor 0.827451 0.329412 0.070588
transparency 0}}}
Shape { geometry IndexedFaceSet 
{ creaseAngle 0.50 coordIndex [0,1,2,-1,3,1,0,-1,1,4,2,-1]
coord Coordinate { point [0.389263 0.178495 0.03937,0.3937 0.177165 0.03937,0.384639 0.177499 0.03937,0.3937 0.180134 0.03937,0.37992 0.177165 0.03937]
}}
appearance Appearance{material Material{diffuseColor 0.827451 0.329412 0.070588
transparency 0}}}
Shape { geometry IndexedFaceSet 
{ creaseAngle 0.50 coordIndex [0,1,2,-1,3,4,5,-1,2,4,3,-1,4,6,7,-1,1,6,2,-1,2,6,4,-1]
coord Coordinate { point [0.3937 0.295275 0.03937,0.3937 0.295275 0.07874,0.3937 0.292306 0.03937,0.3937 0.292306 0,0.3937 0.180134 0.03937,0.3937 0.180134 0,0.3937 0.177165 0.07874,0.3937 0.177165 0.03937]
}}
appearance Appearance{material Material{diffuseColor 0.827451 0.329412 0.070588
transparency 0}}}
Shape { geometry IndexedFaceSet 
{ creaseAngle 0.50 coordIndex [0,1,2,-1,3,4,1,-1,4,5,1,-1,1,6,2,-1,6,7,8,-1,8,7,9,-1,5,7,1,-1,1,7,6,-1]
coord Coordinate { point [-0.11811 0.295275 0,0.37992 0.295275 0,-0.11811 0.177165 0,0.384639 0.294941 0,0.389263 0.293945 0,0.3937 0.292306 0,0.37992 0.177165 0,0.3937 0.180134 0,0.384639 0.177499 0,0.389263 0.178495 0]
}}
appearance Appearance{material Material{diffuseColor 0.827451 0.329412 0.070588
transparency 0}}}
Shape { geometry IndexedFaceSet 
{ creaseAngle 0.50 coordIndex [0,1,2,-1,0,3,1,-1,4,2,5,-1,4,0,2,-1,6,5,7,-1,6,4,5,-1]
coord Coordinate { point [0.389263 0.293945 0.03937,0.3937 0.292306 0,0.389263 0.293945 0,0.3937 0.292306 0.03937,0.384639 0.294941 0.03937,0.384639 0.294941 0,0.37992 0.295275 0.03937,0.37992 0.295275 0]
}}
appearance Appearance{material Material{diffuseColor 0.827451 0.329412 0.070588
transparency 0}}}
Shape { geometry IndexedFaceSet 
{ creaseAngle 0.50 coordIndex [0,1,2,-1,3,4,1,-1,5,1,0,-1,5,3,1,-1,6,0,2,-1,7,0,6,-1]
coord Coordinate { point [0.374015 0.295275 0.03937,0.37992 0.295275 0.03937,0.37992 0.295275 0,0.3937 0.295275 0.07874,0.3937 0.295275 0.03937,0.374015 0.295275 0.07874,-0.11811 0.295275 0,-0.11811 0.295275 0.03937]
}}
appearance Appearance{material Material{diffuseColor 0.827451 0.329412 0.070588
transparency 0}}}
Shape { geometry IndexedFaceSet 
{ creaseAngle 0.50 coordIndex [0,1,2,-1,0,3,1,-1]
coord Coordinate { point [0.374015 0.177165 0.03937,-0.11811 0.295275 0.03937,-0.11811 0.177165 0.03937,0.374015 0.295275 0.03937]
}}
appearance Appearance{material Material{diffuseColor 0.827451 0.329412 0.070588
transparency 0}}}
Shape { geometry IndexedFaceSet 
{ creaseAngle 0.50 coordIndex [0,1,2,-1,0,3,1,-1,4,0,2,-1,5,0,4,-1,6,4,7,-1,6,5,4,-1]
coord Coordinate { point [0.374015 0.177165 0.03937,-0.11811 0.177165 0,0.37992 0.177165 0,-0.11811 0.177165 0.03937,0.37992 0.177165 0.03937,0.374015 0.177165 0.07874,0.3937 0.177165 0.07874,0.3937 0.177165 0.03937]
}}
appearance Appearance{material Material{diffuseColor 0.827451 0.329412 0.070588
transparency 0}}}
Shape { geometry IndexedFaceSet 
{ creaseAngle 0.50 coordIndex [0,1,2,-1,2,1,3,-1]
coord Coordinate { point [0.374015 0.177165 0.07874,0.374015 0.295275 0.07874,0.374015 0.177165 0.03937,0.374015 0.295275 0.03937]
}}
appearance Appearance{material Material{diffuseColor 0.827451 0.329412 0.070588
transparency 0}}}
Shape { geometry IndexedFaceSet 
{ creaseAngle 0.50 coordIndex [0,1,2,-1,0,3,1,-1]
coord Coordinate { point [0.3937 0.177165 0.07874,0.374015 0.295275 0.07874,0.374015 0.177165 0.07874,0.3937 0.295275 0.07874]
}}
appearance Appearance{material Material{diffuseColor 0.827451 0.329412 0.070588
transparency 0}}}
Shape { geometry IndexedFaceSet 
{ creaseAngle 0.50 coordIndex [0,1,2,-1,0,2,3,-1,4,3,5,-1,4,0,3,-1,6,5,7,-1,6,4,5,-1]
coord Coordinate { point [0.384639 0.177499 0.03937,0.37992 0.177165 0.03937,0.37992 0.177165 0,0.384639 0.177499 0,0.389263 0.178495 0.03937,0.389263 0.178495 0,0.3937 0.180134 0.03937,0.3937 0.180134 0]
}}
appearance Appearance{material Material{diffuseColor 0.827451 0.329412 0.070588
transparency 0}}}
Shape { geometry IndexedFaceSet 
{ creaseAngle 0.50 coordIndex [0,1,2,-1,0,3,1,-1]
coord Coordinate { point [-0.11811 0.177165 0.03937,-0.11811 0.295275 0,-0.11811 0.177165 0,-0.11811 0.295275 0.03937]
}}
appearance Appearance{material Material{diffuseColor 0.827451 0.329412 0.070588
transparency 0}}}
Shape { geometry IndexedFaceSet 
{ creaseAngle 0.50 coordIndex [0,1,2,-1,1,3,2,-1,4,1,0,-1]
coord Coordinate { point [0.384639 0.0587207 0.03937,0.3937 0.059055 0.03937,0.389263 0.0577245 0.03937,0.3937 0.0560864 0.03937,0.37992 0.059055 0.03937]
}}
appearance Appearance{material Material{diffuseColor 0.827451 0.329412 0.070588
transparency 0}}}
Shape { geometry IndexedFaceSet 
{ creaseAngle 0.50 coordIndex [0,1,2,-1,3,1,0,-1,1,4,2,-1]
coord Coordinate { point [0.389263 -0.0577245 0.03937,0.3937 -0.059055 0.03937,0.384639 -0.0587207 0.03937,0.3937 -0.0560864 0.03937,0.37992 -0.059055 0.03937]
}}
appearance Appearance{material Material{diffuseColor 0.827451 0.329412 0.070588
transparency 0}}}
Shape { geometry IndexedFaceSet 
{ creaseAngle 0.50 coordIndex [0,1,2,-1,3,4,5,-1,2,4,3,-1,4,6,7,-1,1,6,2,-1,2,6,4,-1]
coord Coordinate { point [0.3937 0.059055 0.03937,0.3937 0.059055 0.07874,0.3937 0.0560864 0.03937,0.3937 0.0560864 0,0.3937 -0.0560864 0.03937,0.3937 -0.0560864 0,0.3937 -0.059055 0.07874,0.3937 -0.059055 0.03937]
}}
appearance Appearance{material Material{diffuseColor 0.827451 0.329412 0.070588
transparency 0}}}
Shape { geometry IndexedFaceSet 
{ creaseAngle 0.50 coordIndex [0,1,2,-1,2,1,3,-1,3,4,5,-1,5,4,6,-1,1,4,3,-1,4,7,8,-1,1,9,4,-1,4,9,7,-1]
coord Coordinate { point [0.389263 0.0577245 0,0.3937 0.0560864 0,0.384639 0.0587207 0,0.379921 0.059055 0,0.379921 -0.059055 0,-0.11811 0.059055 0,-0.11811 -0.059055 0,0.389263 -0.0577245 0,0.384639 -0.0587207 0,0.3937 -0.0560864 0]
}}
appearance Appearance{material Material{diffuseColor 0.827451 0.329412 0.070588
transparency 0}}}
Shape { geometry IndexedFaceSet 
{ creaseAngle 0.50 coordIndex [0,1,2,-1,3,2,4,-1,3,0,2,-1,5,4,6,-1,5,3,4,-1,7,5,6,-1]
coord Coordinate { point [0.3937 0.0560864 0.03937,0.3937 0.0560864 0,0.389263 0.0577245 0,0.389263 0.0577245 0.03937,0.384639 0.0587207 0,0.384639 0.0587207 0.03937,0.379921 0.059055 0,0.37992 0.059055 0.03937]
}}
appearance Appearance{material Material{diffuseColor 0.827451 0.329412 0.070588
transparency 0}}}
Shape { geometry IndexedFaceSet 
{ creaseAngle 0.50 coordIndex [0,1,2,-1,3,4,1,-1,5,1,0,-1,5,3,1,-1,6,0,2,-1,7,0,6,-1]
coord Coordinate { point [0.374015 0.059055 0.03937,0.37992 0.059055 0.03937,0.379921 0.059055 0,0.3937 0.059055 0.07874,0.3937 0.059055 0.03937,0.374015 0.059055 0.07874,-0.11811 0.059055 0,-0.11811 0.059055 0.03937]
}}
appearance Appearance{material Material{diffuseColor 0.827451 0.329412 0.070588
transparency 0}}}
Shape { geometry IndexedFaceSet 
{ creaseAngle 0.50 coordIndex [0,1,2,-1,0,2,3,-1]
coord Coordinate { point [0.374015 -0.059055 0.03937,0.374015 0.059055 0.03937,-0.11811 0.059055 0.03937,-0.11811 -0.059055 0.03937]
}}
appearance Appearance{material Material{diffuseColor 0.827451 0.329412 0.070588
transparency 0}}}
Shape { geometry IndexedFaceSet 
{ creaseAngle 0.50 coordIndex [0,1,2,-1,2,1,3,-1]
coord Coordinate { point [0.374015 -0.059055 0.07874,0.374015 0.059055 0.07874,0.374015 -0.059055 0.03937,0.374015 0.059055 0.03937]
}}
appearance Appearance{material Material{diffuseColor 0.827451 0.329412 0.070588
transparency 0}}}
Shape { geometry IndexedFaceSet 
{ creaseAngle 0.50 coordIndex [0,1,2,-1,0,3,1,-1]
coord Coordinate { point [0.3937 -0.059055 0.07874,0.374015 0.059055 0.07874,0.374015 -0.059055 0.07874,0.3937 0.059055 0.07874]
}}
appearance Appearance{material Material{diffuseColor 0.827451 0.329412 0.070588
transparency 0}}}
Shape { geometry IndexedFaceSet 
{ creaseAngle 0.50 coordIndex [0,1,2,-1,0,3,1,-1,4,0,2,-1,5,0,4,-1,6,4,7,-1,6,5,4,-1]
coord Coordinate { point [0.374015 -0.059055 0.03937,-0.11811 -0.059055 0,0.379921 -0.059055 0,-0.11811 -0.059055 0.03937,0.37992 -0.059055 0.03937,0.374015 -0.059055 0.07874,0.3937 -0.059055 0.07874,0.3937 -0.059055 0.03937]
}}
appearance Appearance{material Material{diffuseColor 0.827451 0.329412 0.070588
transparency 0}}}
Shape { geometry IndexedFaceSet 
{ creaseAngle 0.50 coordIndex [0,1,2,-1,3,2,4,-1,3,0,2,-1,5,4,6,-1,5,3,4,-1,7,5,6,-1]
coord Coordinate { point [0.37992 -0.059055 0.03937,0.379921 -0.059055 0,0.384639 -0.0587207 0,0.384639 -0.0587207 0.03937,0.389263 -0.0577245 0,0.389263 -0.0577245 0.03937,0.3937 -0.0560864 0,0.3937 -0.0560864 0.03937]
}}
appearance Appearance{material Material{diffuseColor 0.827451 0.329412 0.070588
transparency 0}}}
Shape { geometry IndexedFaceSet 
{ creaseAngle 0.50 coordIndex [0,1,2,-1,0,3,1,-1]
coord Coordinate { point [-0.11811 -0.059055 0.03937,-0.11811 0.059055 0,-0.11811 -0.059055 0,-0.11811 0.059055 0.03937]
}}
appearance Appearance{material Material{diffuseColor 0.827451 0.329412 0.070588
transparency 0}}}
Shape { geometry IndexedFaceSet 
{ creaseAngle 0.50 coordIndex [0,1,2,-1,1,3,2,-1,4,1,0,-1]
coord Coordinate { point [0.384639 -0.177499 0.03937,0.3937 -0.177165 0.03937,0.389263 -0.178495 0.03937,0.3937 -0.180134 0.03937,0.37992 -0.177165 0.03937]
}}
appearance Appearance{material Material{diffuseColor 0.827451 0.329412 0.070588
transparency 0}}}
Shape { geometry IndexedFaceSet 
{ creaseAngle 0.50 coordIndex [0,1,2,-1,3,1,0,-1,1,4,2,-1]
coord Coordinate { point [0.389263 -0.293945 0.03937,0.3937 -0.295275 0.03937,0.384639 -0.294941 0.03937,0.3937 -0.292306 0.03937,0.37992 -0.295275 0.03937]
}}
appearance Appearance{material Material{diffuseColor 0.827451 0.329412 0.070588
transparency 0}}}
Shape { geometry IndexedFaceSet 
{ creaseAngle 0.50 coordIndex [0,1,2,-1,3,4,5,-1,2,4,3,-1,4,6,7,-1,1,6,2,-1,2,6,4,-1]
coord Coordinate { point [0.3937 -0.177165 0.03937,0.3937 -0.177165 0.07874,0.3937 -0.180134 0.03937,0.3937 -0.180134 0,0.3937 -0.292306 0.03937,0.3937 -0.292306 0,0.3937 -0.295275 0.07874,0.3937 -0.295275 0.03937]
}}
appearance Appearance{material Material{diffuseColor 0.827451 0.329412 0.070588
transparency 0}}}
Shape { geometry IndexedFaceSet 
{ creaseAngle 0.50 coordIndex [0,1,2,-1,3,4,5,-1,5,4,1,-1,1,6,2,-1,4,6,1,-1,6,7,8,-1,8,7,9,-1,4,7,6,-1]
coord Coordinate { point [-0.11811 -0.177165 0,0.37992 -0.177165 0,-0.11811 -0.295275 0,0.389263 -0.178495 0,0.3937 -0.180134 0,0.384639 -0.177499 0,0.37992 -0.295275 0,0.3937 -0.292306 0,0.384639 -0.294941 0,0.389263 -0.293945 0]
}}
appearance Appearance{material Material{diffuseColor 0.827451 0.329412 0.070588
transparency 0}}}
Shape { geometry IndexedFaceSet 
{ creaseAngle 0.50 coordIndex [0,1,2,-1,0,3,1,-1,4,2,5,-1,4,0,2,-1,6,5,7,-1,6,4,5,-1]
coord Coordinate { point [0.389263 -0.178495 0.03937,0.3937 -0.180134 0,0.389263 -0.178495 0,0.3937 -0.180134 0.03937,0.384639 -0.177499 0.03937,0.384639 -0.177499 0,0.37992 -0.177165 0.03937,0.37992 -0.177165 0]
}}
appearance Appearance{material Material{diffuseColor 0.827451 0.329412 0.070588
transparency 0}}}
Shape { geometry IndexedFaceSet 
{ creaseAngle 0.50 coordIndex [0,1,2,-1,3,4,1,-1,5,1,0,-1,5,3,1,-1,6,0,2,-1,7,0,6,-1]
coord Coordinate { point [0.374015 -0.177165 0.03937,0.37992 -0.177165 0.03937,0.37992 -0.177165 0,0.3937 -0.177165 0.07874,0.3937 -0.177165 0.03937,0.374015 -0.177165 0.07874,-0.11811 -0.177165 0,-0.11811 -0.177165 0.03937]
}}
appearance Appearance{material Material{diffuseColor 0.827451 0.329412 0.070588
transparency 0}}}
Shape { geometry IndexedFaceSet 
{ creaseAngle 0.50 coordIndex [0,1,2,-1,0,2,3,-1]
coord Coordinate { point [0.374015 -0.295275 0.03937,0.374015 -0.177165 0.03937,-0.11811 -0.177165 0.03937,-0.11811 -0.295275 0.03937]
}}
appearance Appearance{material Material{diffuseColor 0.827451 0.329412 0.070588
transparency 0}}}
Shape { geometry IndexedFaceSet 
{ creaseAngle 0.50 coordIndex [0,1,2,-1,2,1,3,-1]
coord Coordinate { point [0.374015 -0.295275 0.07874,0.374015 -0.177165 0.07874,0.374015 -0.295275 0.03937,0.374015 -0.177165 0.03937]
}}
appearance Appearance{material Material{diffuseColor 0.827451 0.329412 0.070588
transparency 0}}}
Shape { geometry IndexedFaceSet 
{ creaseAngle 0.50 coordIndex [0,1,2,-1,0,3,1,-1]
coord Coordinate { point [0.3937 -0.295275 0.07874,0.374015 -0.177165 0.07874,0.374015 -0.295275 0.07874,0.3937 -0.177165 0.07874]
}}
appearance Appearance{material Material{diffuseColor 0.827451 0.329412 0.070588
transparency 0}}}
Shape { geometry IndexedFaceSet 
{ creaseAngle 0.50 coordIndex [0,1,2,-1,0,3,1,-1,4,0,2,-1,5,0,4,-1,6,4,7,-1,6,5,4,-1]
coord Coordinate { point [0.374015 -0.295275 0.03937,-0.11811 -0.295275 0,0.37992 -0.295275 0,-0.11811 -0.295275 0.03937,0.37992 -0.295275 0.03937,0.374015 -0.295275 0.07874,0.3937 -0.295275 0.07874,0.3937 -0.295275 0.03937]
}}
appearance Appearance{material Material{diffuseColor 0.827451 0.329412 0.070588
transparency 0}}}
Shape { geometry IndexedFaceSet 
{ creaseAngle 0.50 coordIndex [0,1,2,-1,0,2,3,-1,4,3,5,-1,4,0,3,-1,6,5,7,-1,6,4,5,-1]
coord Coordinate { point [0.384639 -0.294941 0.03937,0.37992 -0.295275 0.03937,0.37992 -0.295275 0,0.384639 -0.294941 0,0.389263 -0.293945 0.03937,0.389263 -0.293945 0,0.3937 -0.292306 0.03937,0.3937 -0.292306 0]
}}
appearance Appearance{material Material{diffuseColor 0.827451 0.329412 0.070588
transparency 0}}}
Shape { geometry IndexedFaceSet 
{ creaseAngle 0.50 coordIndex [0,1,2,-1,0,3,1,-1]
coord Coordinate { point [-0.11811 -0.295275 0.03937,-0.11811 -0.177165 0,-0.11811 -0.295275 0,-0.11811 -0.177165 0.03937]
}}
appearance Appearance{material Material{diffuseColor 0.827451 0.329412 0.070588
transparency 0}}}
Shape { geometry IndexedFaceSet 
{ creaseAngle 0.50 coordIndex [0,1,2,-1,1,3,2,-1,4,2,3,-1]
coord Coordinate { point [-0.3937 -0.341519 0.03937,-0.389263 -0.343157 0.03937,-0.3937 -0.344487 0.03937,-0.384639 -0.344153 0.03937,-0.37992 -0.344488 0.03937]
}}
appearance Appearance{material Material{diffuseColor 0.827451 0.329412 0.070588
transparency 0}}}
Shape { geometry IndexedFaceSet 
{ creaseAngle 0.50 coordIndex [0,1,2,-1,0,3,1,-1,0,4,3,-1]
coord Coordinate { point [-0.3937 -0.246062 0.03937,-0.389263 -0.247393 0.03937,-0.3937 -0.249031 0.03937,-0.384639 -0.246397 0.03937,-0.37992 -0.246062 0.03937]
}}
appearance Appearance{material Material{diffuseColor 0.827451 0.329412 0.070588
transparency 0}}}
Shape { geometry IndexedFaceSet 
{ creaseAngle 0.50 coordIndex [0,1,2,-1,3,4,5,-1,2,4,3,-1,1,4,2,-1,4,6,7,-1,1,6,4,-1]
coord Coordinate { point [-0.3937 -0.344487 0.03937,-0.3937 -0.344487 0.07874,-0.3937 -0.341519 0.03937,-0.3937 -0.341519 0,-0.3937 -0.249031 0.03937,-0.3937 -0.249031 0,-0.3937 -0.246062 0.07874,-0.3937 -0.246062 0.03937]
}}
appearance Appearance{material Material{diffuseColor 0.827451 0.329412 0.070588
transparency 0}}}
Shape { geometry IndexedFaceSet 
{ creaseAngle 0.50 coordIndex [0,1,2,-1,1,3,2,-1,4,5,6,-1,2,7,4,-1,3,7,2,-1,4,7,5,-1,8,9,10,-1,10,9,11,-1,11,9,12,-1,12,9,13,-1,14,9,15,-1,15,9,16,-1,16,9,17,-1,17,9,18,-1,18,9,19,-1,19,9,20,-1,20,9,21,-1,21,9,22,-1,22,9,23,-1,23,9,24,-1,24,9,25,-1,25,9,26,-1,26,9,27,-1,27,9,28,-1,28,9,29,-1,29,9,30,-1,30,9,31,-1,31,9,8,-1,31,32,3,-1,3,32,7,-1,31,8,32,-1]
coord Coordinate { point [-0.389263 -0.247393 0,-0.384639 -0.246397 0,-0.3937 -0.249031 0,-0.37992 -0.246062 0,-0.3937 -0.341519 0,-0.384639 -0.344153 0,-0.389263 -0.343157 0,-0.379921 -0.344488 0,-0.279009 -0.344066 0,-0.250634 -0.330073 0,-0.272696 -0.342811 0,-0.2666 -0.340741 0,-0.260826 -0.337894 0,-0.255474 -0.334318 0,-0.24639 -0.325234 0,-0.242813 -0.319881 0,-0.239966 -0.314108 0,-0.237897 -0.308012 0,-0.236641 -0.301699 0,-0.23622 -0.295275 0,-0.236641 -0.288851 0,-0.237897 -0.282538 0,-0.239966 -0.276442 0,-0.242813 -0.270669 0,-0.24639 -0.265316 0,-0.250634 -0.260477 0,-0.255474 -0.256232 0,-0.260826 -0.252656 0,-0.2666 -0.249809 0,-0.272696 -0.247739 0,-0.279009 -0.246484 0,-0.285433 -0.246062 0,-0.285433 -0.344487 0]
}}
appearance Appearance{material Material{diffuseColor 0.827451 0.329412 0.070588
transparency 0}}}
Shape { geometry IndexedFaceSet 
{ creaseAngle 0.50 coordIndex [0,1,2,-1,3,2,4,-1,3,0,2,-1,5,4,6,-1,5,3,4,-1,7,5,6,-1]
coord Coordinate { point [-0.3937 -0.341519 0.03937,-0.3937 -0.341519 0,-0.389263 -0.343157 0,-0.389263 -0.343157 0.03937,-0.384639 -0.344153 0,-0.384639 -0.344153 0.03937,-0.379921 -0.344488 0,-0.37992 -0.344488 0.03937]
}}
appearance Appearance{material Material{diffuseColor 0.827451 0.329412 0.070588
transparency 0}}}
Shape { geometry IndexedFaceSet 
{ creaseAngle 0.50 coordIndex [0,1,2,-1,3,4,1,-1,5,1,0,-1,5,3,1,-1,6,0,2,-1,7,0,6,-1]
coord Coordinate { point [-0.374015 -0.344487 0.03937,-0.37992 -0.344488 0.03937,-0.379921 -0.344488 0,-0.3937 -0.344487 0.07874,-0.3937 -0.344487 0.03937,-0.374015 -0.344487 0.07874,-0.285433 -0.344487 0,-0.285433 -0.344487 0.03937]
}}
appearance Appearance{material Material{diffuseColor 0.827451 0.329412 0.070588
transparency 0}}}
Shape { geometry IndexedFaceSet 
{ creaseAngle 0.50 coordIndex [0,1,2,-1,0,2,3,-1,0,3,4,-1,0,4,5,-1,0,5,6,-1,0,7,8,-1,0,8,9,-1,0,9,10,-1,0,10,11,-1,0,11,12,-1,0,12,13,-1,0,13,14,-1,0,14,15,-1,0,15,16,-1,0,16,17,-1,0,17,18,-1,0,18,19,-1,0,19,20,-1,0,20,21,-1,0,21,22,-1,0,22,23,-1,0,23,24,-1,0,24,1,-1,1,25,26,-1,1,24,25,-1]
coord Coordinate { point [-0.250634 -0.330073 0.03937,-0.285433 -0.344487 0.03937,-0.279009 -0.344066 0.03937,-0.272696 -0.342811 0.03937,-0.2666 -0.340741 0.03937,-0.260826 -0.337894 0.03937,-0.255474 -0.334318 0.03937,-0.24639 -0.325234 0.03937,-0.242813 -0.319881 0.03937,-0.239966 -0.314108 0.03937,-0.237897 -0.308012 0.03937,-0.236641 -0.301699 0.03937,-0.23622 -0.295275 0.03937,-0.236641 -0.288851 0.03937,-0.237897 -0.282538 0.03937,-0.239966 -0.276442 0.03937,-0.242813 -0.270669 0.03937,-0.24639 -0.265316 0.03937,-0.250634 -0.260477 0.03937,-0.255474 -0.256232 0.03937,-0.260826 -0.252656 0.03937,-0.2666 -0.249809 0.03937,-0.272696 -0.247739 0.03937,-0.279009 -0.246484 0.03937,-0.285433 -0.246062 0.03937,-0.374015 -0.246062 0.03937,-0.374015 -0.344487 0.03937]
}}
appearance Appearance{material Material{diffuseColor 0.827451 0.329412 0.070588
transparency 0}}}
Shape { geometry IndexedFaceSet 
{ creaseAngle 0.50 coordIndex [0,1,2,-1,2,1,3,-1]
coord Coordinate { point [-0.374015 -0.246062 0.07874,-0.374015 -0.344487 0.07874,-0.374015 -0.246062 0.03937,-0.374015 -0.344487 0.03937]
}}
appearance Appearance{material Material{diffuseColor 0.827451 0.329412 0.070588
transparency 0}}}
Shape { geometry IndexedFaceSet 
{ creaseAngle 0.50 coordIndex [0,1,2,-1,0,3,1,-1]
coord Coordinate { point [-0.374015 -0.344487 0.07874,-0.3937 -0.246062 0.07874,-0.3937 -0.344487 0.07874,-0.374015 -0.246062 0.07874]
}}
appearance Appearance{material Material{diffuseColor 0.827451 0.329412 0.070588
transparency 0}}}
Shape { geometry IndexedFaceSet 
{ creaseAngle 0.50 coordIndex [0,1,2,-1,0,3,1,-1,4,0,2,-1,5,0,4,-1,6,4,7,-1,6,5,4,-1]
coord Coordinate { point [-0.374015 -0.246062 0.03937,-0.285433 -0.246062 0,-0.37992 -0.246062 0,-0.285433 -0.246062 0.03937,-0.37992 -0.246062 0.03937,-0.374015 -0.246062 0.07874,-0.3937 -0.246062 0.07874,-0.3937 -0.246062 0.03937]
}}
appearance Appearance{material Material{diffuseColor 0.827451 0.329412 0.070588
transparency 0}}}
Shape { geometry IndexedFaceSet 
{ creaseAngle 0.50 coordIndex [0,1,2,-1,3,2,4,-1,3,0,2,-1,5,4,6,-1,5,3,4,-1,7,5,6,-1]
coord Coordinate { point [-0.37992 -0.246062 0.03937,-0.37992 -0.246062 0,-0.384639 -0.246397 0,-0.384639 -0.246397 0.03937,-0.389263 -0.247393 0,-0.389263 -0.247393 0.03937,-0.3937 -0.249031 0,-0.3937 -0.249031 0.03937]
}}
appearance Appearance{material Material{diffuseColor 0.827451 0.329412 0.070588
transparency 0}}}
Shape { geometry IndexedFaceSet 
{ creaseAngle 0.50 coordIndex [0,1,2,-1,3,4,5,-1,3,0,4,-1,6,5,7,-1,6,3,5,-1,8,9,10,-1,8,10,11,-1,12,7,13,-1,12,6,7,-1,14,11,15,-1,14,8,11,-1,16,13,17,-1,16,12,13,-1,18,15,19,-1,18,14,15,-1,20,17,21,-1,20,16,17,-1,22,19,23,-1,22,18,19,-1,24,23,25,-1,24,22,23,-1,26,25,27,-1,26,24,25,-1,28,27,29,-1,28,26,27,-1,30,29,31,-1,30,28,29,-1,32,31,33,-1,32,30,31,-1,34,33,35,-1,34,32,33,-1,36,35,37,-1,36,34,35,-1,38,36,37,-1,38,37,39,-1,40,38,39,-1,40,39,41,-1,42,40,41,-1,42,41,43,-1,44,42,43,-1,44,43,45,-1,46,44,45,-1,46,45,47,-1,48,47,49,-1,48,46,47,-1,1,49,2,-1,1,48,49,-1,0,2,4,-1]
coord Coordinate { point [-0.255474 -0.256232 0.03937,-0.250634 -0.260477 0.03937,-0.250634 -0.260477 0,-0.260826 -0.252656 0.03937,-0.255474 -0.256232 0,-0.260826 -0.252656 0,-0.2666 -0.249809 0.03937,-0.2666 -0.249809 0,-0.279009 -0.344066 0.03937,-0.285433 -0.344487 0.03937,-0.285433 -0.344487 0,-0.279009 -0.344066 0,-0.272696 -0.247739 0.03937,-0.272696 -0.247739 0,-0.272696 -0.342811 0.03937,-0.272696 -0.342811 0,-0.279009 -0.246484 0.03937,-0.279009 -0.246484 0,-0.2666 -0.340741 0.03937,-0.2666 -0.340741 0,-0.285433 -0.246062 0.03937,-0.285433 -0.246062 0,-0.260826 -0.337894 0.03937,-0.260826 -0.337894 0,-0.255474 -0.334318 0.03937,-0.255474 -0.334318 0,-0.250634 -0.330073 0.03937,-0.250634 -0.330073 0,-0.24639 -0.325234 0.03937,-0.24639 -0.325234 0,-0.242813 -0.319881 0.03937,-0.242813 -0.319881 0,-0.239966 -0.314108 0.03937,-0.239966 -0.314108 0,-0.237897 -0.308012 0.03937,-0.237897 -0.308012 0,-0.236641 -0.301699 0.03937,-0.236641 -0.301699 0,-0.23622 -0.295275 0.03937,-0.23622 -0.295275 0,-0.236641 -0.288851 0.03937,-0.236641 -0.288851 0,-0.237897 -0.282538 0.03937,-0.237897 -0.282538 0,-0.239966 -0.276442 0.03937,-0.239966 -0.276442 0,-0.242813 -0.270669 0.03937,-0.242813 -0.270669 0,-0.24639 -0.265316 0.03937,-0.24639 -0.265316 0]
}}
appearance Appearance{material Material{diffuseColor 0.827451 0.329412 0.070588
transparency 0}}}
Shape { geometry IndexedFaceSet 
{ creaseAngle 0.50 coordIndex [0,1,2,-1,1,3,2,-1,4,2,3,-1]
coord Coordinate { point [-0.3937 -0.144669 0.03937,-0.389263 -0.146307 0.03937,-0.3937 -0.147638 0.03937,-0.384639 -0.147303 0.03937,-0.37992 -0.147638 0.03937]
}}
appearance Appearance{material Material{diffuseColor 0.827451 0.329412 0.070588
transparency 0}}}
Shape { geometry IndexedFaceSet 
{ creaseAngle 0.50 coordIndex [0,1,2,-1,0,3,1,-1,0,4,3,-1]
coord Coordinate { point [-0.3937 -0.0492125 0.03937,-0.389263 -0.050543 0.03937,-0.3937 -0.0521811 0.03937,-0.384639 -0.0495468 0.03937,-0.37992 -0.0492125 0.03937]
}}
appearance Appearance{material Material{diffuseColor 0.827451 0.329412 0.070588
transparency 0}}}
Shape { geometry IndexedFaceSet 
{ creaseAngle 0.50 coordIndex [0,1,2,-1,3,4,5,-1,2,4,3,-1,1,4,2,-1,4,6,7,-1,1,6,4,-1]
coord Coordinate { point [-0.3937 -0.147638 0.03937,-0.3937 -0.147638 0.07874,-0.3937 -0.144669 0.03937,-0.3937 -0.144669 0,-0.3937 -0.0521811 0.03937,-0.3937 -0.0521811 0,-0.3937 -0.0492125 0.07874,-0.3937 -0.0492125 0.03937]
}}
appearance Appearance{material Material{diffuseColor 0.827451 0.329412 0.070588
transparency 0}}}
Shape { geometry IndexedFaceSet 
{ creaseAngle 0.50 coordIndex [0,1,2,-1,2,1,3,-1,4,5,6,-1,5,7,6,-1,6,8,9,-1,9,8,10,-1,10,8,11,-1,7,8,6,-1,12,2,13,-1,13,2,14,-1,14,2,15,-1,15,2,16,-1,16,2,17,-1,17,2,18,-1,18,2,19,-1,19,2,20,-1,20,2,21,-1,21,2,22,-1,22,2,23,-1,23,2,7,-1,7,2,8,-1,12,24,2,-1,24,25,2,-1,25,26,2,-1,2,27,28,-1,26,29,2,-1,2,30,27,-1,29,31,2,-1,2,32,30,-1,31,0,2,-1,2,3,32,-1]
coord Coordinate { point [-0.24639 -0.128384 0,-0.250634 -0.133223 0,-0.285433 -0.147638 0,-0.255474 -0.137468 0,-0.389263 -0.050543 0,-0.384639 -0.0495468 0,-0.3937 -0.0521811 0,-0.37992 -0.0492125 0,-0.379921 -0.147638 0,-0.3937 -0.144669 0,-0.389263 -0.146307 0,-0.384639 -0.147303 0,-0.236641 -0.0920015 0,-0.237897 -0.0856879 0,-0.239966 -0.0795922 0,-0.242813 -0.0738187 0,-0.24639 -0.0684663 0,-0.250634 -0.0636265 0,-0.255474 -0.0593821 0,-0.260826 -0.0558057 0,-0.2666 -0.0529586 0,-0.272696 -0.0508894 0,-0.279009 -0.0496335 0,-0.285433 -0.0492125 0,-0.23622 -0.098425 0,-0.236641 -0.104849 0,-0.237897 -0.111162 0,-0.272696 -0.145961 0,-0.279009 -0.147216 0,-0.239966 -0.117258 0,-0.2666 -0.143891 0,-0.242813 -0.123031 0,-0.260826 -0.141044 0]
}}
appearance Appearance{material Material{diffuseColor 0.827451 0.329412 0.070588
transparency 0}}}
Shape { geometry IndexedFaceSet 
{ creaseAngle 0.50 coordIndex [0,1,2,-1,3,2,4,-1,3,0,2,-1,5,4,6,-1,5,3,4,-1,7,5,6,-1]
coord Coordinate { point [-0.3937 -0.144669 0.03937,-0.3937 -0.144669 0,-0.389263 -0.146307 0,-0.389263 -0.146307 0.03937,-0.384639 -0.147303 0,-0.384639 -0.147303 0.03937,-0.379921 -0.147638 0,-0.37992 -0.147638 0.03937]
}}
appearance Appearance{material Material{diffuseColor 0.827451 0.329412 0.070588
transparency 0}}}
Shape { geometry IndexedFaceSet 
{ creaseAngle 0.50 coordIndex [0,1,2,-1,3,4,1,-1,5,1,0,-1,5,3,1,-1,6,0,2,-1,7,0,6,-1]
coord Coordinate { point [-0.374015 -0.147638 0.03937,-0.37992 -0.147638 0.03937,-0.379921 -0.147638 0,-0.3937 -0.147638 0.07874,-0.3937 -0.147638 0.03937,-0.374015 -0.147638 0.07874,-0.285433 -0.147638 0,-0.285433 -0.147638 0.03937]
}}
appearance Appearance{material Material{diffuseColor 0.827451 0.329412 0.070588
transparency 0}}}
Shape { geometry IndexedFaceSet 
{ creaseAngle 0.50 coordIndex [0,1,2,-1,0,2,3,-1,0,3,4,-1,0,4,5,-1,0,5,6,-1,0,7,8,-1,0,8,9,-1,0,9,10,-1,0,10,11,-1,0,11,12,-1,0,12,13,-1,0,13,14,-1,0,14,15,-1,0,15,16,-1,0,16,17,-1,0,17,18,-1,0,18,19,-1,0,19,20,-1,0,20,21,-1,0,21,22,-1,0,22,23,-1,0,23,24,-1,0,24,1,-1,1,25,26,-1,1,24,25,-1]
coord Coordinate { point [-0.250634 -0.133223 0.03937,-0.285433 -0.147638 0.03937,-0.279009 -0.147216 0.03937,-0.272696 -0.145961 0.03937,-0.2666 -0.143891 0.03937,-0.260826 -0.141044 0.03937,-0.255474 -0.137468 0.03937,-0.24639 -0.128384 0.03937,-0.242813 -0.123031 0.03937,-0.239966 -0.117258 0.03937,-0.237897 -0.111162 0.03937,-0.236641 -0.104849 0.03937,-0.23622 -0.098425 0.03937,-0.236641 -0.0920015 0.03937,-0.237897 -0.0856879 0.03937,-0.239966 -0.0795922 0.03937,-0.242813 -0.0738187 0.03937,-0.24639 -0.0684663 0.03937,-0.250634 -0.0636265 0.03937,-0.255474 -0.0593821 0.03937,-0.260826 -0.0558057 0.03937,-0.2666 -0.0529586 0.03937,-0.272696 -0.0508894 0.03937,-0.279009 -0.0496335 0.03937,-0.285433 -0.0492125 0.03937,-0.374015 -0.0492125 0.03937,-0.374015 -0.147638 0.03937]
}}
appearance Appearance{material Material{diffuseColor 0.827451 0.329412 0.070588
transparency 0}}}
Shape { geometry IndexedFaceSet 
{ creaseAngle 0.50 coordIndex [0,1,2,-1,2,1,3,-1]
coord Coordinate { point [-0.374015 -0.0492125 0.07874,-0.374015 -0.147638 0.07874,-0.374015 -0.0492125 0.03937,-0.374015 -0.147638 0.03937]
}}
appearance Appearance{material Material{diffuseColor 0.827451 0.329412 0.070588
transparency 0}}}
Shape { geometry IndexedFaceSet 
{ creaseAngle 0.50 coordIndex [0,1,2,-1,0,3,1,-1]
coord Coordinate { point [-0.374015 -0.147638 0.07874,-0.3937 -0.0492125 0.07874,-0.3937 -0.147638 0.07874,-0.374015 -0.0492125 0.07874]
}}
appearance Appearance{material Material{diffuseColor 0.827451 0.329412 0.070588
transparency 0}}}
Shape { geometry IndexedFaceSet 
{ creaseAngle 0.50 coordIndex [0,1,2,-1,0,3,1,-1,4,0,2,-1,5,0,4,-1,6,4,7,-1,6,5,4,-1]
coord Coordinate { point [-0.374015 -0.0492125 0.03937,-0.285433 -0.0492125 0,-0.37992 -0.0492125 0,-0.285433 -0.0492125 0.03937,-0.37992 -0.0492125 0.03937,-0.374015 -0.0492125 0.07874,-0.3937 -0.0492125 0.07874,-0.3937 -0.0492125 0.03937]
}}
appearance Appearance{material Material{diffuseColor 0.827451 0.329412 0.070588
transparency 0}}}
Shape { geometry IndexedFaceSet 
{ creaseAngle 0.50 coordIndex [0,1,2,-1,3,2,4,-1,3,0,2,-1,5,4,6,-1,5,3,4,-1,7,5,6,-1]
coord Coordinate { point [-0.37992 -0.0492125 0.03937,-0.37992 -0.0492125 0,-0.384639 -0.0495468 0,-0.384639 -0.0495468 0.03937,-0.389263 -0.050543 0,-0.389263 -0.050543 0.03937,-0.3937 -0.0521811 0,-0.3937 -0.0521811 0.03937]
}}
appearance Appearance{material Material{diffuseColor 0.827451 0.329412 0.070588
transparency 0}}}
Shape { geometry IndexedFaceSet 
{ creaseAngle 0.50 coordIndex [0,1,2,-1,3,4,5,-1,3,0,4,-1,6,5,7,-1,6,3,5,-1,8,9,10,-1,8,10,11,-1,12,7,13,-1,12,6,7,-1,14,11,15,-1,14,8,11,-1,16,13,17,-1,16,12,13,-1,18,15,19,-1,18,14,15,-1,20,17,21,-1,20,16,17,-1,22,19,23,-1,22,18,19,-1,24,23,25,-1,24,22,23,-1,26,25,27,-1,26,24,25,-1,28,27,29,-1,28,26,27,-1,30,29,31,-1,30,28,29,-1,32,31,33,-1,32,30,31,-1,34,33,35,-1,34,32,33,-1,36,35,37,-1,36,34,35,-1,38,36,37,-1,38,37,39,-1,40,38,39,-1,40,39,41,-1,42,40,41,-1,42,41,43,-1,44,42,43,-1,44,43,45,-1,46,44,45,-1,46,45,47,-1,48,47,49,-1,48,46,47,-1,1,49,2,-1,1,48,49,-1,0,2,4,-1]
coord Coordinate { point [-0.255474 -0.0593821 0.03937,-0.250634 -0.0636265 0.03937,-0.250634 -0.0636265 0,-0.260826 -0.0558057 0.03937,-0.255474 -0.0593821 0,-0.260826 -0.0558057 0,-0.2666 -0.0529586 0.03937,-0.2666 -0.0529586 0,-0.279009 -0.147216 0.03937,-0.285433 -0.147638 0.03937,-0.285433 -0.147638 0,-0.279009 -0.147216 0,-0.272696 -0.0508894 0.03937,-0.272696 -0.0508894 0,-0.272696 -0.145961 0.03937,-0.272696 -0.145961 0,-0.279009 -0.0496335 0.03937,-0.279009 -0.0496335 0,-0.2666 -0.143891 0.03937,-0.2666 -0.143891 0,-0.285433 -0.0492125 0.03937,-0.285433 -0.0492125 0,-0.260826 -0.141044 0.03937,-0.260826 -0.141044 0,-0.255474 -0.137468 0.03937,-0.255474 -0.137468 0,-0.250634 -0.133223 0.03937,-0.250634 -0.133223 0,-0.24639 -0.128384 0.03937,-0.24639 -0.128384 0,-0.242813 -0.123031 0.03937,-0.242813 -0.123031 0,-0.239966 -0.117258 0.03937,-0.239966 -0.117258 0,-0.237897 -0.111162 0.03937,-0.237897 -0.111162 0,-0.236641 -0.104849 0.03937,-0.236641 -0.104849 0,-0.23622 -0.098425 0.03937,-0.23622 -0.098425 0,-0.236641 -0.0920015 0.03937,-0.236641 -0.0920015 0,-0.237897 -0.0856879 0.03937,-0.237897 -0.0856879 0,-0.239966 -0.0795922 0.03937,-0.239966 -0.0795922 0,-0.242813 -0.0738187 0.03937,-0.242813 -0.0738187 0,-0.24639 -0.0684663 0.03937,-0.24639 -0.0684663 0]
}}
appearance Appearance{material Material{diffuseColor 0.827451 0.329412 0.070588
transparency 0}}}
Shape { geometry IndexedFaceSet 
{ creaseAngle 0.50 coordIndex [0,1,2,-1,1,3,2,-1,4,2,3,-1]
coord Coordinate { point [-0.3937 0.0521811 0.03937,-0.389263 0.050543 0.03937,-0.3937 0.0492125 0.03937,-0.384639 0.0495468 0.03937,-0.37992 0.0492125 0.03937]
}}
appearance Appearance{material Material{diffuseColor 0.827451 0.329412 0.070588
transparency 0}}}
Shape { geometry IndexedFaceSet 
{ creaseAngle 0.50 coordIndex [0,1,2,-1,0,3,1,-1,0,4,3,-1]
coord Coordinate { point [-0.3937 0.147638 0.03937,-0.389263 0.146307 0.03937,-0.3937 0.144669 0.03937,-0.384639 0.147303 0.03937,-0.37992 0.147638 0.03937]
}}
appearance Appearance{material Material{diffuseColor 0.827451 0.329412 0.070588
transparency 0}}}
Shape { geometry IndexedFaceSet 
{ creaseAngle 0.50 coordIndex [0,1,2,-1,3,4,5,-1,2,4,3,-1,4,6,7,-1,1,6,2,-1,2,6,4,-1]
coord Coordinate { point [-0.3937 0.0492125 0.03937,-0.3937 0.0492125 0.07874,-0.3937 0.0521811 0.03937,-0.3937 0.0521811 0,-0.3937 0.144669 0.03937,-0.3937 0.144669 0,-0.3937 0.147638 0.07874,-0.3937 0.147638 0.03937]
}}
appearance Appearance{material Material{diffuseColor 0.827451 0.329412 0.070588
transparency 0}}}
Shape { geometry IndexedFaceSet 
{ creaseAngle 0.50 coordIndex [0,1,2,-1,2,1,3,-1,1,4,3,-1,4,5,6,-1,6,5,7,-1,8,5,1,-1,1,5,4,-1,9,10,11,-1,11,10,12,-1,12,10,13,-1,13,10,14,-1,15,10,16,-1,16,10,17,-1,17,10,18,-1,18,10,19,-1,19,10,20,-1,20,10,21,-1,21,10,22,-1,22,10,23,-1,23,10,24,-1,24,10,25,-1,25,10,26,-1,26,10,27,-1,27,10,28,-1,28,10,29,-1,29,10,30,-1,30,10,31,-1,31,10,8,-1,8,10,9,-1,8,32,5,-1,8,9,32,-1]
coord Coordinate { point [-0.384639 0.147303 0,-0.379921 0.147638 0,-0.389263 0.146307 0,-0.3937 0.144669 0,-0.3937 0.0521811 0,-0.37992 0.0492125 0,-0.389263 0.050543 0,-0.384639 0.0495468 0,-0.285433 0.147638 0,-0.279009 0.0496335 0,-0.250634 0.0636265 0,-0.272696 0.0508894 0,-0.2666 0.0529586 0,-0.260826 0.0558057 0,-0.255474 0.0593821 0,-0.24639 0.0684663 0,-0.242813 0.0738188 0,-0.239966 0.0795922 0,-0.237897 0.0856879 0,-0.236641 0.0920015 0,-0.23622 0.098425 0,-0.236641 0.104849 0,-0.237897 0.111162 0,-0.239966 0.117258 0,-0.242813 0.123031 0,-0.24639 0.128384 0,-0.250634 0.133223 0,-0.255474 0.137468 0,-0.260826 0.141044 0,-0.2666 0.143891 0,-0.272696 0.145961 0,-0.279009 0.147216 0,-0.285433 0.0492125 0]
}}
appearance Appearance{material Material{diffuseColor 0.827451 0.329412 0.070588
transparency 0}}}
Shape { geometry IndexedFaceSet 
{ creaseAngle 0.50 coordIndex [0,1,2,-1,0,3,1,-1,4,2,5,-1,4,0,2,-1,6,5,7,-1,6,4,5,-1]
coord Coordinate { point [-0.389263 0.050543 0.03937,-0.3937 0.0521811 0,-0.389263 0.050543 0,-0.3937 0.0521811 0.03937,-0.384639 0.0495468 0.03937,-0.384639 0.0495468 0,-0.37992 0.0492125 0.03937,-0.37992 0.0492125 0]
}}
appearance Appearance{material Material{diffuseColor 0.827451 0.329412 0.070588
transparency 0}}}
Shape { geometry IndexedFaceSet 
{ creaseAngle 0.50 coordIndex [0,1,2,-1,3,4,1,-1,5,1,0,-1,5,3,1,-1,6,0,2,-1,7,0,6,-1]
coord Coordinate { point [-0.374015 0.0492125 0.03937,-0.37992 0.0492125 0.03937,-0.37992 0.0492125 0,-0.3937 0.0492125 0.07874,-0.3937 0.0492125 0.03937,-0.374015 0.0492125 0.07874,-0.285433 0.0492125 0,-0.285433 0.0492125 0.03937]
}}
appearance Appearance{material Material{diffuseColor 0.827451 0.329412 0.070588
transparency 0}}}
Shape { geometry IndexedFaceSet 
{ creaseAngle 0.50 coordIndex [0,1,2,-1,0,2,3,-1,0,3,4,-1,0,4,5,-1,0,5,6,-1,0,7,8,-1,0,8,9,-1,0,9,10,-1,0,10,11,-1,0,11,12,-1,0,12,13,-1,0,13,14,-1,0,14,15,-1,0,15,16,-1,0,16,17,-1,0,17,18,-1,0,18,19,-1,0,19,20,-1,0,20,21,-1,0,21,22,-1,0,22,23,-1,0,23,24,-1,0,24,1,-1,1,25,26,-1,1,24,25,-1]
coord Coordinate { point [-0.250634 0.0636265 0.03937,-0.285433 0.0492125 0.03937,-0.279009 0.0496335 0.03937,-0.272696 0.0508894 0.03937,-0.2666 0.0529586 0.03937,-0.260826 0.0558057 0.03937,-0.255474 0.0593821 0.03937,-0.24639 0.0684663 0.03937,-0.242813 0.0738188 0.03937,-0.239966 0.0795922 0.03937,-0.237897 0.0856879 0.03937,-0.236641 0.0920015 0.03937,-0.23622 0.098425 0.03937,-0.236641 0.104849 0.03937,-0.237897 0.111162 0.03937,-0.239966 0.117258 0.03937,-0.242813 0.123031 0.03937,-0.24639 0.128384 0.03937,-0.250634 0.133223 0.03937,-0.255474 0.137468 0.03937,-0.260826 0.141044 0.03937,-0.2666 0.143891 0.03937,-0.272696 0.145961 0.03937,-0.279009 0.147216 0.03937,-0.285433 0.147638 0.03937,-0.374015 0.147638 0.03937,-0.374015 0.0492125 0.03937]
}}
appearance Appearance{material Material{diffuseColor 0.827451 0.329412 0.070588
transparency 0}}}
Shape { geometry IndexedFaceSet 
{ creaseAngle 0.50 coordIndex [0,1,2,-1,2,1,3,-1]
coord Coordinate { point [-0.374015 0.147638 0.07874,-0.374015 0.0492125 0.07874,-0.374015 0.147638 0.03937,-0.374015 0.0492125 0.03937]
}}
appearance Appearance{material Material{diffuseColor 0.827451 0.329412 0.070588
transparency 0}}}
Shape { geometry IndexedFaceSet 
{ creaseAngle 0.50 coordIndex [0,1,2,-1,0,3,1,-1]
coord Coordinate { point [-0.374015 0.0492125 0.07874,-0.3937 0.147638 0.07874,-0.3937 0.0492125 0.07874,-0.374015 0.147638 0.07874]
}}
appearance Appearance{material Material{diffuseColor 0.827451 0.329412 0.070588
transparency 0}}}
Shape { geometry IndexedFaceSet 
{ creaseAngle 0.50 coordIndex [0,1,2,-1,0,3,1,-1,4,0,2,-1,5,0,4,-1,6,4,7,-1,6,5,4,-1]
coord Coordinate { point [-0.374015 0.147638 0.03937,-0.285433 0.147638 0,-0.379921 0.147638 0,-0.285433 0.147638 0.03937,-0.37992 0.147638 0.03937,-0.374015 0.147638 0.07874,-0.3937 0.147638 0.07874,-0.3937 0.147638 0.03937]
}}
appearance Appearance{material Material{diffuseColor 0.827451 0.329412 0.070588
transparency 0}}}
Shape { geometry IndexedFaceSet 
{ creaseAngle 0.50 coordIndex [0,1,2,-1,0,2,3,-1,4,3,5,-1,4,0,3,-1,6,5,7,-1,6,4,5,-1]
coord Coordinate { point [-0.384639 0.147303 0.03937,-0.37992 0.147638 0.03937,-0.379921 0.147638 0,-0.384639 0.147303 0,-0.389263 0.146307 0.03937,-0.389263 0.146307 0,-0.3937 0.144669 0.03937,-0.3937 0.144669 0]
}}
appearance Appearance{material Material{diffuseColor 0.827451 0.329412 0.070588
transparency 0}}}
Shape { geometry IndexedFaceSet 
{ creaseAngle 0.50 coordIndex [0,1,2,-1,3,4,5,-1,3,0,4,-1,6,5,7,-1,6,3,5,-1,8,9,10,-1,8,10,11,-1,12,7,13,-1,12,6,7,-1,14,11,15,-1,14,8,11,-1,16,13,17,-1,16,12,13,-1,18,15,19,-1,18,14,15,-1,20,17,21,-1,20,16,17,-1,22,19,23,-1,22,18,19,-1,24,23,25,-1,24,22,23,-1,26,25,27,-1,26,24,25,-1,28,27,29,-1,28,26,27,-1,30,29,31,-1,30,28,29,-1,32,31,33,-1,32,30,31,-1,34,33,35,-1,34,32,33,-1,36,35,37,-1,36,34,35,-1,38,36,37,-1,38,37,39,-1,40,38,39,-1,40,39,41,-1,42,40,41,-1,42,41,43,-1,44,42,43,-1,44,43,45,-1,46,44,45,-1,46,45,47,-1,48,47,49,-1,48,46,47,-1,1,49,2,-1,1,48,49,-1,0,2,4,-1]
coord Coordinate { point [-0.255474 0.137468 0.03937,-0.250634 0.133223 0.03937,-0.250634 0.133223 0,-0.260826 0.141044 0.03937,-0.255474 0.137468 0,-0.260826 0.141044 0,-0.2666 0.143891 0.03937,-0.2666 0.143891 0,-0.279009 0.0496335 0.03937,-0.285433 0.0492125 0.03937,-0.285433 0.0492125 0,-0.279009 0.0496335 0,-0.272696 0.145961 0.03937,-0.272696 0.145961 0,-0.272696 0.0508894 0.03937,-0.272696 0.0508894 0,-0.279009 0.147216 0.03937,-0.279009 0.147216 0,-0.2666 0.0529586 0.03937,-0.2666 0.0529586 0,-0.285433 0.147638 0.03937,-0.285433 0.147638 0,-0.260826 0.0558057 0.03937,-0.260826 0.0558057 0,-0.255474 0.0593821 0.03937,-0.255474 0.0593821 0,-0.250634 0.0636265 0.03937,-0.250634 0.0636265 0,-0.24639 0.0684663 0.03937,-0.24639 0.0684663 0,-0.242813 0.0738188 0.03937,-0.242813 0.0738188 0,-0.239966 0.0795922 0.03937,-0.239966 0.0795922 0,-0.237897 0.0856879 0.03937,-0.237897 0.0856879 0,-0.236641 0.0920015 0.03937,-0.236641 0.0920015 0,-0.23622 0.098425 0.03937,-0.23622 0.098425 0,-0.236641 0.104849 0.03937,-0.236641 0.104849 0,-0.237897 0.111162 0.03937,-0.237897 0.111162 0,-0.239966 0.117258 0.03937,-0.239966 0.117258 0,-0.242813 0.123031 0.03937,-0.242813 0.123031 0,-0.24639 0.128384 0.03937,-0.24639 0.128384 0]
}}
appearance Appearance{material Material{diffuseColor 0.827451 0.329412 0.070588
transparency 0}}}
Shape { geometry IndexedFaceSet 
{ creaseAngle 0.50 coordIndex [0,1,2,-1,1,3,2,-1,4,2,3,-1]
coord Coordinate { point [-0.3937 0.249031 0.03937,-0.389263 0.247393 0.03937,-0.3937 0.246062 0.03937,-0.384639 0.246397 0.03937,-0.37992 0.246062 0.03937]
}}
appearance Appearance{material Material{diffuseColor 0.827451 0.329412 0.070588
transparency 0}}}
Shape { geometry IndexedFaceSet 
{ creaseAngle 0.50 coordIndex [0,1,2,-1,0,3,1,-1,0,4,3,-1]
coord Coordinate { point [-0.3937 0.344487 0.03937,-0.389263 0.343157 0.03937,-0.3937 0.341519 0.03937,-0.384639 0.344153 0.03937,-0.37992 0.344487 0.03937]
}}
appearance Appearance{material Material{diffuseColor 0.827451 0.329412 0.070588
transparency 0}}}
Shape { geometry IndexedFaceSet 
{ creaseAngle 0.50 coordIndex [0,1,2,-1,3,4,5,-1,2,4,3,-1,4,6,7,-1,1,6,2,-1,2,6,4,-1]
coord Coordinate { point [-0.3937 0.246062 0.03937,-0.3937 0.246062 0.07874,-0.3937 0.249031 0.03937,-0.3937 0.249031 0,-0.3937 0.341519 0.03937,-0.3937 0.341519 0,-0.3937 0.344487 0.07874,-0.3937 0.344487 0.03937]
}}
appearance Appearance{material Material{diffuseColor 0.827451 0.329412 0.070588
transparency 0}}}
Shape { geometry IndexedFaceSet 
{ creaseAngle 0.50 coordIndex [0,1,2,-1,2,1,3,-1,1,4,3,-1,4,5,6,-1,6,5,7,-1,1,5,4,-1,1,8,5,-1,8,9,5,-1]
coord Coordinate { point [-0.384639 0.344153 0,-0.37992 0.344487 0,-0.389263 0.343157 0,-0.3937 0.341519 0,-0.3937 0.249031 0,-0.37992 0.246062 0,-0.389263 0.247393 0,-0.384639 0.246397 0,-0.23622 0.344487 0,-0.23622 0.246062 0]
}}
appearance Appearance{material Material{diffuseColor 0.827451 0.329412 0.070588
transparency 0}}}
Shape { geometry IndexedFaceSet 
{ creaseAngle 0.50 coordIndex [0,1,2,-1,0,3,1,-1,4,2,5,-1,4,0,2,-1,6,5,7,-1,6,4,5,-1]
coord Coordinate { point [-0.389263 0.247393 0.03937,-0.3937 0.249031 0,-0.389263 0.247393 0,-0.3937 0.249031 0.03937,-0.384639 0.246397 0.03937,-0.384639 0.246397 0,-0.37992 0.246062 0.03937,-0.37992 0.246062 0]
}}
appearance Appearance{material Material{diffuseColor 0.827451 0.329412 0.070588
transparency 0}}}
Shape { geometry IndexedFaceSet 
{ creaseAngle 0.50 coordIndex [0,1,2,-1,3,4,1,-1,5,1,0,-1,5,3,1,-1,6,0,2,-1,7,0,6,-1]
coord Coordinate { point [-0.374015 0.246062 0.03937,-0.37992 0.246062 0.03937,-0.37992 0.246062 0,-0.3937 0.246062 0.07874,-0.3937 0.246062 0.03937,-0.374015 0.246062 0.07874,-0.23622 0.246062 0,-0.23622 0.246062 0.03937]
}}
appearance Appearance{material Material{diffuseColor 0.827451 0.329412 0.070588
transparency 0}}}
Shape { geometry IndexedFaceSet 
{ creaseAngle 0.50 coordIndex [0,1,2,-1,0,3,1,-1]
coord Coordinate { point [-0.23622 0.246062 0.03937,-0.374015 0.344487 0.03937,-0.374015 0.246062 0.03937,-0.23622 0.344487 0.03937]
}}
appearance Appearance{material Material{diffuseColor 0.827451 0.329412 0.070588
transparency 0}}}
Shape { geometry IndexedFaceSet 
{ creaseAngle 0.50 coordIndex [0,1,2,-1,0,3,1,-1]
coord Coordinate { point [-0.23622 0.344487 0.03937,-0.23622 0.246062 0,-0.23622 0.344487 0,-0.23622 0.246062 0.03937]
}}
appearance Appearance{material Material{diffuseColor 0.827451 0.329412 0.070588
transparency 0}}}
Shape { geometry IndexedFaceSet 
{ creaseAngle 0.50 coordIndex [0,1,2,-1,0,3,1,-1,4,0,2,-1,5,0,4,-1,6,4,7,-1,6,5,4,-1]
coord Coordinate { point [-0.374015 0.344487 0.03937,-0.23622 0.344487 0,-0.37992 0.344487 0,-0.23622 0.344487 0.03937,-0.37992 0.344487 0.03937,-0.374015 0.344487 0.07874,-0.3937 0.344487 0.07874,-0.3937 0.344487 0.03937]
}}
appearance Appearance{material Material{diffuseColor 0.827451 0.329412 0.070588
transparency 0}}}
Shape { geometry IndexedFaceSet 
{ creaseAngle 0.50 coordIndex [0,1,2,-1,2,1,3,-1]
coord Coordinate { point [-0.374015 0.344487 0.07874,-0.374015 0.246062 0.07874,-0.374015 0.344487 0.03937,-0.374015 0.246062 0.03937]
}}
appearance Appearance{material Material{diffuseColor 0.827451 0.329412 0.070588
transparency 0}}}
Shape { geometry IndexedFaceSet 
{ creaseAngle 0.50 coordIndex [0,1,2,-1,0,3,1,-1]
coord Coordinate { point [-0.374015 0.246062 0.07874,-0.3937 0.344487 0.07874,-0.3937 0.246062 0.07874,-0.374015 0.344487 0.07874]
}}
appearance Appearance{material Material{diffuseColor 0.827451 0.329412 0.070588
transparency 0}}}
Shape { geometry IndexedFaceSet 
{ creaseAngle 0.50 coordIndex [0,1,2,-1,3,2,4,-1,3,0,2,-1,5,4,6,-1,5,3,4,-1,7,5,6,-1]
coord Coordinate { point [-0.37992 0.344487 0.03937,-0.37992 0.344487 0,-0.384639 0.344153 0,-0.384639 0.344153 0.03937,-0.389263 0.343157 0,-0.389263 0.343157 0.03937,-0.3937 0.341519 0,-0.3937 0.341519 0.03937]
}}
appearance Appearance{material Material{diffuseColor 0.827451 0.329412 0.070588
transparency 0}}}
Shape { geometry IndexedFaceSet 
{ creaseAngle 0.50 coordIndex [0,1,2,-1,0,2,3,-1]
coord Coordinate { point [0.15748 -0.3937 0.07874,0.15748 -0.374015 0.07874,0.07874 -0.374015 0.07874,0.07874 -0.3937 0.07874]
}}
appearance Appearance{material Material{diffuseColor 0.827451 0.329412 0.070588
transparency 0}}}
Shape { geometry IndexedFaceSet 
{ creaseAngle 0.50 coordIndex [0,1,2,-1,2,1,3,-1]
coord Coordinate { point [0.07874 -0.374015 0.07874,0.15748 -0.374015 0.07874,0.07874 -0.374015 0.03937,0.15748 -0.374015 0.03937]
}}
appearance Appearance{material Material{diffuseColor 0.827451 0.329412 0.070588
transparency 0}}}
Shape { geometry IndexedFaceSet 
{ creaseAngle 0.50 coordIndex [0,1,2,-1,0,2,3,-1]
coord Coordinate { point [0.07874 -0.3937 0.07874,0.07874 -0.374015 0.07874,0.07874 -0.374015 0.03937,0.07874 -0.3937 0.03937]
}}
appearance Appearance{material Material{diffuseColor 0.827451 0.329412 0.070588
transparency 0}}}
Shape { geometry IndexedFaceSet 
{ creaseAngle 0.50 coordIndex [0,1,2,-1,2,1,3,-1]
coord Coordinate { point [0.15748 -0.3937 0.07874,0.07874 -0.3937 0.07874,0.15748 -0.3937 0.03937,0.07874 -0.3937 0.03937]
}}
appearance Appearance{material Material{diffuseColor 0.827451 0.329412 0.070588
transparency 0}}}
Shape { geometry IndexedFaceSet 
{ creaseAngle 0.50 coordIndex [0,1,2,-1,0,3,1,-1]
coord Coordinate { point [0.15748 -0.374015 0.07874,0.15748 -0.3937 0.03937,0.15748 -0.374015 0.03937,0.15748 -0.3937 0.07874]
}}
appearance Appearance{material Material{diffuseColor 0.827451 0.329412 0.070588
transparency 0}}}
Shape { geometry IndexedFaceSet 
{ creaseAngle 0.50 coordIndex [0,1,2,-1,2,1,3,-1]
coord Coordinate { point [0.15748 -0.374015 0.03937,0.15748 -0.3937 0.03937,0.07874 -0.374015 0.03937,0.07874 -0.3937 0.03937]
}}
appearance Appearance{material Material{diffuseColor 0.827451 0.329412 0.070588
transparency 0}}}
Shape { geometry IndexedFaceSet 
{ creaseAngle 0.50 coordIndex [0,1,2,-1,0,2,3,-1]
coord Coordinate { point [-0.23622 -0.3937 0.07874,-0.23622 -0.374015 0.07874,-0.31496 -0.374015 0.07874,-0.31496 -0.3937 0.07874]
}}
appearance Appearance{material Material{diffuseColor 0.827451 0.329412 0.070588
transparency 0}}}
Shape { geometry IndexedFaceSet 
{ creaseAngle 0.50 coordIndex [0,1,2,-1,2,1,3,-1]
coord Coordinate { point [-0.31496 -0.374015 0.07874,-0.23622 -0.374015 0.07874,-0.31496 -0.374015 0.03937,-0.23622 -0.374015 0.03937]
}}
appearance Appearance{material Material{diffuseColor 0.827451 0.329412 0.070588
transparency 0}}}
Shape { geometry IndexedFaceSet 
{ creaseAngle 0.50 coordIndex [0,1,2,-1,0,2,3,-1]
coord Coordinate { point [-0.31496 -0.3937 0.07874,-0.31496 -0.374015 0.07874,-0.31496 -0.374015 0.03937,-0.31496 -0.3937 0.03937]
}}
appearance Appearance{material Material{diffuseColor 0.827451 0.329412 0.070588
transparency 0}}}
Shape { geometry IndexedFaceSet 
{ creaseAngle 0.50 coordIndex [0,1,2,-1,2,1,3,-1]
coord Coordinate { point [-0.23622 -0.3937 0.07874,-0.31496 -0.3937 0.07874,-0.23622 -0.3937 0.03937,-0.31496 -0.3937 0.03937]
}}
appearance Appearance{material Material{diffuseColor 0.827451 0.329412 0.070588
transparency 0}}}
Shape { geometry IndexedFaceSet 
{ creaseAngle 0.50 coordIndex [0,1,2,-1,0,3,1,-1]
coord Coordinate { point [-0.23622 -0.374015 0.07874,-0.23622 -0.3937 0.03937,-0.23622 -0.374015 0.03937,-0.23622 -0.3937 0.07874]
}}
appearance Appearance{material Material{diffuseColor 0.827451 0.329412 0.070588
transparency 0}}}
Shape { geometry IndexedFaceSet 
{ creaseAngle 0.50 coordIndex [0,1,2,-1,2,1,3,-1]
coord Coordinate { point [-0.23622 -0.374015 0.03937,-0.23622 -0.3937 0.03937,-0.31496 -0.374015 0.03937,-0.31496 -0.3937 0.03937]
}}
appearance Appearance{material Material{diffuseColor 0.827451 0.329412 0.070588
transparency 0}}}
Shape { geometry IndexedFaceSet 
{ creaseAngle 0.50 coordIndex [0,1,2,-1,0,3,1,-1]
coord Coordinate { point [-0.23622 0.374015 0.07874,-0.31496 0.3937 0.07874,-0.31496 0.374015 0.07874,-0.23622 0.3937 0.07874]
}}
appearance Appearance{material Material{diffuseColor 0.827451 0.329412 0.070588
transparency 0}}}
Shape { geometry IndexedFaceSet 
{ creaseAngle 0.50 coordIndex [0,1,2,-1,2,1,3,-1]
coord Coordinate { point [-0.23622 0.374015 0.07874,-0.31496 0.374015 0.07874,-0.23622 0.374015 0.03937,-0.31496 0.374015 0.03937]
}}
appearance Appearance{material Material{diffuseColor 0.827451 0.329412 0.070588
transparency 0}}}
Shape { geometry IndexedFaceSet 
{ creaseAngle 0.50 coordIndex [0,1,2,-1,0,2,3,-1]
coord Coordinate { point [-0.23622 0.3937 0.07874,-0.23622 0.374015 0.07874,-0.23622 0.374015 0.03937,-0.23622 0.3937 0.03937]
}}
appearance Appearance{material Material{diffuseColor 0.827451 0.329412 0.070588
transparency 0}}}
Shape { geometry IndexedFaceSet 
{ creaseAngle 0.50 coordIndex [0,1,2,-1,2,1,3,-1]
coord Coordinate { point [-0.31496 0.3937 0.07874,-0.23622 0.3937 0.07874,-0.31496 0.3937 0.03937,-0.23622 0.3937 0.03937]
}}
appearance Appearance{material Material{diffuseColor 0.827451 0.329412 0.070588
transparency 0}}}
Shape { geometry IndexedFaceSet 
{ creaseAngle 0.50 coordIndex [0,1,2,-1,0,3,1,-1]
coord Coordinate { point [-0.31496 0.374015 0.07874,-0.31496 0.3937 0.03937,-0.31496 0.374015 0.03937,-0.31496 0.3937 0.07874]
}}
appearance Appearance{material Material{diffuseColor 0.827451 0.329412 0.070588
transparency 0}}}
Shape { geometry IndexedFaceSet 
{ creaseAngle 0.50 coordIndex [0,1,2,-1,2,1,3,-1]
coord Coordinate { point [-0.23622 0.3937 0.03937,-0.23622 0.374015 0.03937,-0.31496 0.3937 0.03937,-0.31496 0.374015 0.03937]
}}
appearance Appearance{material Material{diffuseColor 0.827451 0.329412 0.070588
transparency 0}}}
Shape { geometry IndexedFaceSet 
{ creaseAngle 0.50 coordIndex [0,1,2,-1,0,3,1,-1]
coord Coordinate { point [0.15748 0.374015 0.07874,0.07874 0.3937 0.07874,0.07874 0.374015 0.07874,0.15748 0.3937 0.07874]
}}
appearance Appearance{material Material{diffuseColor 0.827451 0.329412 0.070588
transparency 0}}}
Shape { geometry IndexedFaceSet 
{ creaseAngle 0.50 coordIndex [0,1,2,-1,2,1,3,-1]
coord Coordinate { point [0.15748 0.374015 0.07874,0.07874 0.374015 0.07874,0.15748 0.374015 0.03937,0.07874 0.374015 0.03937]
}}
appearance Appearance{material Material{diffuseColor 0.827451 0.329412 0.070588
transparency 0}}}
Shape { geometry IndexedFaceSet 
{ creaseAngle 0.50 coordIndex [0,1,2,-1,0,2,3,-1]
coord Coordinate { point [0.15748 0.3937 0.07874,0.15748 0.374015 0.07874,0.15748 0.374015 0.03937,0.15748 0.3937 0.03937]
}}
appearance Appearance{material Material{diffuseColor 0.827451 0.329412 0.070588
transparency 0}}}
Shape { geometry IndexedFaceSet 
{ creaseAngle 0.50 coordIndex [0,1,2,-1,2,1,3,-1]
coord Coordinate { point [0.07874 0.3937 0.07874,0.15748 0.3937 0.07874,0.07874 0.3937 0.03937,0.15748 0.3937 0.03937]
}}
appearance Appearance{material Material{diffuseColor 0.827451 0.329412 0.070588
transparency 0}}}
Shape { geometry IndexedFaceSet 
{ creaseAngle 0.50 coordIndex [0,1,2,-1,0,3,1,-1]
coord Coordinate { point [0.07874 0.374015 0.07874,0.07874 0.3937 0.03937,0.07874 0.374015 0.03937,0.07874 0.3937 0.07874]
}}
appearance Appearance{material Material{diffuseColor 0.827451 0.329412 0.070588
transparency 0}}}
Shape { geometry IndexedFaceSet 
{ creaseAngle 0.50 coordIndex [0,1,2,-1,2,1,3,-1]
coord Coordinate { point [0.15748 0.3937 0.03937,0.15748 0.374015 0.03937,0.07874 0.3937 0.03937,0.07874 0.374015 0.03937]
}}
appearance Appearance{material Material{diffuseColor 0.827451 0.329412 0.070588
transparency 0}}}
Shape { geometry IndexedFaceSet 
{ creaseAngle 0.50 coordIndex [0,1,2,-1,0,3,1,-1,0,4,3,-1,0,5,4,-1,6,7,8,-1,8,7,9,-1,6,10,7,-1,11,10,6,-1,12,13,11,-1,11,13,10,-1,14,15,12,-1,12,15,13,-1,14,16,15,-1,5,17,14,-1,14,18,16,-1,14,19,18,-1,20,21,22,-1,20,23,21,-1,24,25,20,-1,20,25,23,-1,26,25,24,-1,26,27,25,-1,28,29,30,-1,31,29,28,-1,19,29,31,-1,17,29,14,-1,14,29,19,-1,32,33,34,-1,34,33,26,-1,26,33,27,-1,32,35,33,-1,36,37,32,-1,32,37,35,-1,36,38,37,-1,39,38,36,-1,40,41,39,-1,42,41,40,-1,43,41,42,-1,30,41,43,-1,29,41,30,-1,44,45,46,-1,44,47,45,-1,48,47,44,-1,48,49,47,-1,50,49,48,-1,50,51,49,-1,52,51,50,-1,39,53,38,-1,41,53,39,-1,54,53,55,-1,56,53,54,-1,57,53,56,-1,38,53,57,-1,52,58,51,-1,52,59,58,-1,60,59,52,-1,60,61,59,-1,62,61,60,-1,63,64,65,-1,66,64,63,-1,67,64,66,-1,0,68,5,-1,5,68,17,-1,69,70,62,-1,62,70,61,-1,67,71,64,-1,53,72,55,-1,69,72,70,-1,73,72,69,-1,74,72,73,-1,55,72,74,-1,75,72,76,-1,70,72,75,-1,71,77,64,-1,68,78,17,-1,68,79,78,-1,68,80,79,-1,68,81,80,-1,82,83,84,-1,72,83,76,-1,85,83,82,-1,86,83,85,-1,87,83,86,-1,88,83,87,-1,76,83,88,-1,29,89,41,-1,90,91,89,-1,89,91,41,-1,92,93,90,-1,90,93,91,-1,94,95,92,-1,92,95,93,-1,94,96,95,-1,97,98,53,-1,53,98,72,-1,97,99,98,-1,100,99,97,-1,100,101,99,-1,102,101,100,-1,102,103,101,-1,104,103,102,-1,77,105,64,-1,84,105,77,-1,83,105,84,-1,106,105,107,-1,108,105,106,-1,109,105,108,-1,107,105,83,-1]
coord Coordinate { point [-0.3937 0.3937 0.0098425,-0.389263 0.343157 0.0098425,-0.3937 0.341519 0.0098425,-0.384639 0.344153 0.0098425,-0.37992 0.344487 0.0098425,-0.23622 0.344487 0.0098425,-0.389263 0.247393 0.0098425,-0.389263 0.146307 0.0098425,-0.3937 0.249031 0.0098425,-0.3937 0.144669 0.0098425,-0.384639 0.147303 0.0098425,-0.384639 0.246397 0.0098425,-0.37992 0.246062 0.0098425,-0.379921 0.147638 0.0098425,-0.23622 0.246062 0.0098425,-0.285433 0.147638 0.0098425,-0.273655 0.146207 0.0098425,-0.11811 0.295275 0.0098425,-0.262562 0.142001 0.0098425,-0.252799 0.135261 0.0098425,-0.389263 0.050543 0.0098425,-0.3937 -0.0521811 0.0098425,-0.3937 0.0521811 0.0098425,-0.389263 -0.050543 0.0098425,-0.384639 0.0495468 0.0098425,-0.384639 -0.0495468 0.0098425,-0.37992 0.0492125 0.0098425,-0.37992 -0.0492125 0.0098425,-0.239418 0.115876 0.0098425,-0.11811 0.177165 0.0098425,-0.236579 0.104357 0.0098425,-0.244932 0.126381 0.0098425,-0.273655 0.0506425 0.0098425,-0.285433 -0.0492125 0.0098425,-0.285433 0.0492125 0.0098425,-0.273655 -0.0506425 0.0098425,-0.262562 0.0548495 0.0098425,-0.262562 -0.0548495 0.0098425,-0.252799 -0.0615889 0.0098425,-0.252799 0.0615889 0.0098425,-0.244932 0.0704691 0.0098425,-0.11811 0.059055 0.0098425,-0.239418 0.080974 0.0098425,-0.236579 0.0924931 0.0098425,-0.389263 -0.146307 0.0098425,-0.3937 -0.249031 0.0098425,-0.3937 -0.144669 0.0098425,-0.389263 -0.247393 0.0098425,-0.384639 -0.147303 0.0098425,-0.384639 -0.246397 0.0098425,-0.379921 -0.147638 0.0098425,-0.37992 -0.246062 0.0098425,-0.285433 -0.147638 0.0098425,-0.11811 -0.059055 0.0098425,-0.236579 -0.0924931 0.0098425,-0.236579 -0.104357 0.0098425,-0.239418 -0.080974 0.0098425,-0.244932 -0.0704691 0.0098425,-0.285433 -0.246062 0.0098425,-0.273655 -0.247493 0.0098425,-0.273655 -0.146207 0.0098425,-0.262562 -0.251699 0.0098425,-0.262562 -0.142001 0.0098425,-0.389263 -0.343157 0.0098425,-0.3937 -0.3937 0.0098425,-0.3937 -0.341519 0.0098425,-0.384639 -0.344153 0.0098425,-0.379921 -0.344488 0.0098425,0.3937 0.3937 0.0098425,-0.252799 -0.135261 0.0098425,-0.252799 -0.258439 0.0098425,-0.285433 -0.344487 0.0098425,-0.11811 -0.177165 0.0098425,-0.244932 -0.126381 0.0098425,-0.239418 -0.115876 0.0098425,-0.244932 -0.267319 0.0098425,-0.239418 -0.277824 0.0098425,-0.273655 -0.343057 0.0098425,0.37992 0.295275 0.0098425,0.384639 0.294941 0.0098425,0.389263 0.293945 0.0098425,0.3937 0.292306 0.0098425,-0.252799 -0.332111 0.0098425,-0.11811 -0.295275 0.0098425,-0.262562 -0.338851 0.0098425,-0.244932 -0.323231 0.0098425,-0.239418 -0.312726 0.0098425,-0.236579 -0.301207 0.0098425,-0.236579 -0.289343 0.0098425,0.37992 0.177165 0.0098425,0.384639 0.177499 0.0098425,0.379921 0.059055 0.0098425,0.389263 0.178495 0.0098425,0.384639 0.0587207 0.0098425,0.3937 0.180134 0.0098425,0.389263 0.0577245 0.0098425,0.3937 0.0560864 0.0098425,0.379921 -0.059055 0.0098425,0.37992 -0.177165 0.0098425,0.384639 -0.177499 0.0098425,0.384639 -0.0587207 0.0098425,0.389263 -0.178495 0.0098425,0.389263 -0.0577245 0.0098425,0.3937 -0.180134 0.0098425,0.3937 -0.0560864 0.0098425,0.3937 -0.3937 0.0098425,0.384639 -0.294941 0.0098425,0.37992 -0.295275 0.0098425,0.389263 -0.293945 0.0098425,0.3937 -0.292306 0.0098425]
}}
appearance Appearance{material Material{diffuseColor 0.27451 0.27451 0.27451
transparency 0}}}
Shape { geometry IndexedFaceSet 
{ creaseAngle 0.50 coordIndex [0,1,2,-1,3,1,0,-1,1,4,2,-1,1,5,4,-1,4,6,7,-1,5,6,4,-1]
coord Coordinate { point [-0.11811 0.177165 0.0098425,0.374015 0.177165 0.03937,0.37992 0.177165 0.0098425,-0.11811 0.177165 0.03937,0.37992 0.177165 0.03937,0.374015 0.177165 0.07874,0.3937 0.177165 0.07874,0.3937 0.177165 0.03937]
}}
appearance Appearance{material Material{diffuseColor 0.27451 0.27451 0.27451
transparency 0}}}
Shape { geometry IndexedFaceSet 
{ creaseAngle 0.50 coordIndex [0,1,2,-1,3,1,0,-1,2,4,5,-1,1,4,2,-1,5,6,7,-1,4,6,5,-1]
coord Coordinate { point [0.37992 0.177165 0.0098425,0.384639 0.177499 0.03937,0.384639 0.177499 0.0098425,0.37992 0.177165 0.03937,0.389263 0.178495 0.03937,0.389263 0.178495 0.0098425,0.3937 0.180134 0.03937,0.3937 0.180134 0.0098425]
}}
appearance Appearance{material Material{diffuseColor 0.27451 0.27451 0.27451
transparency 0}}}
Shape { geometry IndexedFaceSet 
{ creaseAngle 0.50 coordIndex [0,1,2,-1,3,0,2,-1,4,1,0,-1,5,6,7,-1,8,5,7,-1,9,5,8,-1,10,9,8,-1,11,4,12,-1,11,1,4,-1,13,12,5,-1,13,11,12,-1,13,5,9,-1,14,15,16,-1,17,16,18,-1,17,14,16,-1,19,17,18,-1,20,21,14,-1,20,14,17,-1,22,23,24,-1,25,26,22,-1,25,22,24,-1,27,20,26,-1,27,13,21,-1,27,11,13,-1,27,21,20,-1,27,26,25,-1]
coord Coordinate { point [0.3937 -0.295275 0.03937,0.3937 -0.3937 0.0098425,0.3937 -0.292306 0.0098425,0.3937 -0.292306 0.03937,0.3937 -0.295275 0.07874,0.3937 -0.177165 0.03937,0.3937 -0.180134 0.03937,0.3937 -0.180134 0.0098425,0.3937 -0.0560864 0.0098425,0.3937 -0.059055 0.03937,0.3937 -0.0560864 0.03937,0.3937 -0.3937 0.3937,0.3937 -0.177165 0.07874,0.3937 -0.059055 0.07874,0.3937 0.059055 0.03937,0.3937 0.0560864 0.03937,0.3937 0.0560864 0.0098425,0.3937 0.177165 0.03937,0.3937 0.180134 0.0098425,0.3937 0.180134 0.03937,0.3937 0.177165 0.07874,0.3937 0.059055 0.07874,0.3937 0.295275 0.03937,0.3937 0.292306 0.03937,0.3937 0.292306 0.0098425,0.3937 0.3937 0.0098425,0.3937 0.295275 0.07874,0.3937 0.3937 0.3937]
}}
appearance Appearance{material Material{diffuseColor 0.27451 0.27451 0.27451
transparency 0}}}
Shape { geometry IndexedFaceSet 
{ creaseAngle 0.50 coordIndex [0,1,2,-1,2,1,3,-1]
coord Coordinate { point [0.15748 0.3937 0.07874,0.15748 0.374015 0.07874,0.07874 0.3937 0.07874,0.07874 0.374015 0.07874]
}}
appearance Appearance{material Material{diffuseColor 0.27451 0.27451 0.27451
transparency 0}}}
Shape { geometry IndexedFaceSet 
{ creaseAngle 0.50 coordIndex [0,1,2,-1,2,1,3,-1]
coord Coordinate { point [-0.23622 0.3937 0.07874,-0.23622 0.374015 0.07874,-0.31496 0.3937 0.07874,-0.31496 0.374015 0.07874]
}}
appearance Appearance{material Material{diffuseColor 0.27451 0.27451 0.27451
transparency 0}}}
Shape { geometry IndexedFaceSet 
{ creaseAngle 0.50 coordIndex [0,1,2,-1,3,1,0,-1]
coord Coordinate { point [-0.3937 0.344487 0.07874,-0.374015 0.246062 0.07874,-0.3937 0.246062 0.07874,-0.374015 0.344487 0.07874]
}}
appearance Appearance{material Material{diffuseColor 0.27451 0.27451 0.27451
transparency 0}}}
Shape { geometry IndexedFaceSet 
{ creaseAngle 0.50 coordIndex [0,1,2,-1,3,1,0,-1]
coord Coordinate { point [-0.3937 0.147638 0.07874,-0.374015 0.0492125 0.07874,-0.3937 0.0492125 0.07874,-0.374015 0.147638 0.07874]
}}
appearance Appearance{material Material{diffuseColor 0.27451 0.27451 0.27451
transparency 0}}}
Shape { geometry IndexedFaceSet 
{ creaseAngle 0.50 coordIndex [0,1,2,-1,3,1,0,-1]
coord Coordinate { point [-0.3937 -0.0492125 0.07874,-0.374015 -0.147638 0.07874,-0.3937 -0.147638 0.07874,-0.374015 -0.0492125 0.07874]
}}
appearance Appearance{material Material{diffuseColor 0.27451 0.27451 0.27451
transparency 0}}}
Shape { geometry IndexedFaceSet 
{ creaseAngle 0.50 coordIndex [0,1,2,-1,3,1,0,-1]
coord Coordinate { point [-0.3937 -0.246062 0.07874,-0.374015 -0.344487 0.07874,-0.3937 -0.344487 0.07874,-0.374015 -0.246062 0.07874]
}}
appearance Appearance{material Material{diffuseColor 0.27451 0.27451 0.27451
transparency 0}}}
Shape { geometry IndexedFaceSet 
{ creaseAngle 0.50 coordIndex [0,1,2,-1,2,1,3,-1]
coord Coordinate { point [-0.23622 -0.374015 0.07874,-0.23622 -0.3937 0.07874,-0.31496 -0.374015 0.07874,-0.31496 -0.3937 0.07874]
}}
appearance Appearance{material Material{diffuseColor 0.27451 0.27451 0.27451
transparency 0}}}
Shape { geometry IndexedFaceSet 
{ creaseAngle 0.50 coordIndex [0,1,2,-1,2,1,3,-1]
coord Coordinate { point [0.15748 -0.374015 0.07874,0.15748 -0.3937 0.07874,0.07874 -0.374015 0.07874,0.07874 -0.3937 0.07874]
}}
appearance Appearance{material Material{diffuseColor 0.27451 0.27451 0.27451
transparency 0}}}
Shape { geometry IndexedFaceSet 
{ creaseAngle 0.50 coordIndex [0,1,2,-1,2,1,3,-1]
coord Coordinate { point [0.3937 -0.177165 0.07874,0.3937 -0.295275 0.07874,0.374015 -0.177165 0.07874,0.374015 -0.295275 0.07874]
}}
appearance Appearance{material Material{diffuseColor 0.27451 0.27451 0.27451
transparency 0}}}
Shape { geometry IndexedFaceSet 
{ creaseAngle 0.50 coordIndex [0,1,2,-1,2,1,3,-1]
coord Coordinate { point [0.3937 0.059055 0.07874,0.3937 -0.059055 0.07874,0.374015 0.059055 0.07874,0.374015 -0.059055 0.07874]
}}
appearance Appearance{material Material{diffuseColor 0.27451 0.27451 0.27451
transparency 0}}}
Shape { geometry IndexedFaceSet 
{ creaseAngle 0.50 coordIndex [0,1,2,-1,2,1,3,-1]
coord Coordinate { point [0.3937 0.295275 0.07874,0.3937 0.177165 0.07874,0.374015 0.295275 0.07874,0.374015 0.177165 0.07874]
}}
appearance Appearance{material Material{diffuseColor 0.27451 0.27451 0.27451
transparency 0}}}
Shape { geometry IndexedFaceSet 
{ creaseAngle 0.50 coordIndex [0,1,2,-1,3,2,1,-1,4,1,0,-1,5,4,0,-1,6,5,3,-1,6,3,7,-1,8,9,7,-1,8,10,9,-1,8,3,1,-1,8,7,3,-1,11,6,10,-1,11,4,5,-1,11,10,8,-1,11,5,6,-1]
coord Coordinate { point [0.15748 0.3937 0.07874,0.3937 0.3937 0.0098425,0.15748 0.3937 0.03937,0.07874 0.3937 0.03937,0.3937 0.3937 0.3937,0.07874 0.3937 0.07874,-0.23622 0.3937 0.07874,-0.23622 0.3937 0.03937,-0.3937 0.3937 0.0098425,-0.31496 0.3937 0.03937,-0.31496 0.3937 0.07874,-0.3937 0.3937 0.3937]
}}
appearance Appearance{material Material{diffuseColor 0.27451 0.27451 0.27451
transparency 0}}}
Shape { geometry IndexedFaceSet 
{ creaseAngle 0.50 coordIndex [0,1,2,-1,0,2,3,-1]
coord Coordinate { point [0.3937 -0.3937 0.3937,0.3937 0.3937 0.3937,-0.3937 0.3937 0.3937,-0.3937 -0.3937 0.3937]
}}
appearance Appearance{material Material{diffuseColor 0.27451 0.27451 0.27451
transparency 0}}}
Shape { geometry IndexedFaceSet 
{ creaseAngle 0.50 coordIndex [0,1,2,-1,3,2,1,-1,4,0,5,-1,4,1,0,-1,6,3,1,-1,7,5,3,-1,7,3,6,-1,7,4,5,-1,8,9,6,-1,8,10,9,-1,8,6,1,-1,11,7,10,-1,11,10,8,-1,11,4,7,-1]
coord Coordinate { point [-0.31496 -0.3937 0.07874,-0.3937 -0.3937 0.0098425,-0.31496 -0.3937 0.03937,-0.23622 -0.3937 0.03937,-0.3937 -0.3937 0.3937,-0.23622 -0.3937 0.07874,0.07874 -0.3937 0.03937,0.07874 -0.3937 0.07874,0.3937 -0.3937 0.0098425,0.15748 -0.3937 0.03937,0.15748 -0.3937 0.07874,0.3937 -0.3937 0.3937]
}}
appearance Appearance{material Material{diffuseColor 0.27451 0.27451 0.27451
transparency 0}}}
Shape { geometry IndexedFaceSet 
{ creaseAngle 0.50 coordIndex [0,1,2,-1,0,2,3,-1,0,4,5,-1,6,7,8,-1,9,6,8,-1,10,7,6,-1,11,12,13,-1,14,11,13,-1,15,11,14,-1,16,15,14,-1,17,18,11,-1,17,11,15,-1,19,20,21,-1,1,10,18,-1,1,7,10,-1,1,18,17,-1,2,1,17,-1,22,21,23,-1,22,19,21,-1,24,22,23,-1,3,2,19,-1,3,19,22,-1,25,26,27,-1,28,27,29,-1,28,25,27,-1,30,28,29,-1,5,4,25,-1,5,25,28,-1,31,32,33,-1,34,31,33,-1,35,31,34,-1,0,35,34,-1,0,5,35,-1,0,3,4,-1]
coord Coordinate { point [-0.3937 -0.3937 0.3937,-0.3937 0.3937 0.3937,-0.3937 0.0492125 0.07874,-0.3937 -0.0492125 0.07874,-0.3937 -0.147638 0.07874,-0.3937 -0.246062 0.07874,-0.3937 0.344487 0.03937,-0.3937 0.3937 0.0098425,-0.3937 0.341519 0.0098425,-0.3937 0.341519 0.03937,-0.3937 0.344487 0.07874,-0.3937 0.246062 0.03937,-0.3937 0.249031 0.03937,-0.3937 0.249031 0.0098425,-0.3937 0.144669 0.0098425,-0.3937 0.147638 0.03937,-0.3937 0.144669 0.03937,-0.3937 0.147638 0.07874,-0.3937 0.246062 0.07874,-0.3937 0.0492125 0.03937,-0.3937 0.0521811 0.03937,-0.3937 0.0521811 0.0098425,-0.3937 -0.0492125 0.03937,-0.3937 -0.0521811 0.0098425,-0.3937 -0.0521811 0.03937,-0.3937 -0.147638 0.03937,-0.3937 -0.144669 0.03937,-0.3937 -0.144669 0.0098425,-0.3937 -0.246062 0.03937,-0.3937 -0.249031 0.0098425,-0.3937 -0.249031 0.03937,-0.3937 -0.344487 0.03937,-0.3937 -0.341519 0.03937,-0.3937 -0.341519 0.0098425,-0.3937 -0.3937 0.0098425,-0.3937 -0.344487 0.07874]
}}
appearance Appearance{material Material{diffuseColor 0.27451 0.27451 0.27451
transparency 0}}}
Shape { geometry IndexedFaceSet 
{ creaseAngle 0.50 coordIndex [0,1,2,-1,3,1,0,-1,1,4,2,-1,1,5,4,-1,4,6,7,-1,5,6,4,-1]
coord Coordinate { point [-0.23622 0.344487 0.0098425,-0.374015 0.344487 0.03937,-0.37992 0.344487 0.0098425,-0.23622 0.344487 0.03937,-0.37992 0.344487 0.03937,-0.374015 0.344487 0.07874,-0.3937 0.344487 0.07874,-0.3937 0.344487 0.03937]
}}
appearance Appearance{material Material{diffuseColor 0.27451 0.27451 0.27451
transparency 0}}}
Shape { geometry IndexedFaceSet 
{ creaseAngle 0.50 coordIndex [0,1,2,-1,3,1,0,-1,2,4,5,-1,1,4,2,-1,5,6,7,-1,4,6,5,-1]
coord Coordinate { point [-0.37992 0.344487 0.0098425,-0.384639 0.344153 0.03937,-0.384639 0.344153 0.0098425,-0.37992 0.344487 0.03937,-0.389263 0.343157 0.03937,-0.389263 0.343157 0.0098425,-0.3937 0.341519 0.03937,-0.3937 0.341519 0.0098425]
}}
appearance Appearance{material Material{diffuseColor 0.27451 0.27451 0.27451
transparency 0}}}
Shape { geometry IndexedFaceSet 
{ creaseAngle 0.50 coordIndex [0,1,2,-1,0,2,3,-1]
coord Coordinate { point [0.15748 0.374015 0.03937,0.15748 0.3937 0.03937,0.07874 0.3937 0.03937,0.07874 0.374015 0.03937]
}}
appearance Appearance{material Material{diffuseColor 0.27451 0.27451 0.27451
transparency 0}}}
Shape { geometry IndexedFaceSet 
{ creaseAngle 0.50 coordIndex [0,1,2,-1,0,2,3,-1]
coord Coordinate { point [-0.23622 0.374015 0.03937,-0.23622 0.3937 0.03937,-0.31496 0.3937 0.03937,-0.31496 0.374015 0.03937]
}}
appearance Appearance{material Material{diffuseColor 0.27451 0.27451 0.27451
transparency 0}}}
Shape { geometry IndexedFaceSet 
{ creaseAngle 0.50 coordIndex [0,1,2,-1,3,1,0,-1,4,1,3,-1]
coord Coordinate { point [-0.389263 0.343157 0.03937,-0.3937 0.344487 0.03937,-0.3937 0.341519 0.03937,-0.384639 0.344153 0.03937,-0.37992 0.344487 0.03937]
}}
appearance Appearance{material Material{diffuseColor 0.27451 0.27451 0.27451
transparency 0}}}
Shape { geometry IndexedFaceSet 
{ creaseAngle 0.50 coordIndex [0,1,2,-1,3,0,2,-1,2,4,3,-1]
coord Coordinate { point [-0.389263 0.247393 0.03937,-0.3937 0.249031 0.03937,-0.3937 0.246062 0.03937,-0.384639 0.246397 0.03937,-0.37992 0.246062 0.03937]
}}
appearance Appearance{material Material{diffuseColor 0.27451 0.27451 0.27451
transparency 0}}}
Shape { geometry IndexedFaceSet 
{ creaseAngle 0.50 coordIndex [0,1,2,-1,3,1,0,-1,4,1,3,-1]
coord Coordinate { point [-0.389263 0.146307 0.03937,-0.3937 0.147638 0.03937,-0.3937 0.144669 0.03937,-0.384639 0.147303 0.03937,-0.37992 0.147638 0.03937]
}}
appearance Appearance{material Material{diffuseColor 0.27451 0.27451 0.27451
transparency 0}}}
Shape { geometry IndexedFaceSet 
{ creaseAngle 0.50 coordIndex [0,1,2,-1,3,0,2,-1,2,4,3,-1]
coord Coordinate { point [-0.389263 0.050543 0.03937,-0.3937 0.0521811 0.03937,-0.3937 0.0492125 0.03937,-0.384639 0.0495468 0.03937,-0.37992 0.0492125 0.03937]
}}
appearance Appearance{material Material{diffuseColor 0.27451 0.27451 0.27451
transparency 0}}}
Shape { geometry IndexedFaceSet 
{ creaseAngle 0.50 coordIndex [0,1,2,-1,3,1,0,-1,4,1,3,-1]
coord Coordinate { point [-0.389263 -0.050543 0.03937,-0.3937 -0.0492125 0.03937,-0.3937 -0.0521811 0.03937,-0.384639 -0.0495468 0.03937,-0.37992 -0.0492125 0.03937]
}}
appearance Appearance{material Material{diffuseColor 0.27451 0.27451 0.27451
transparency 0}}}
Shape { geometry IndexedFaceSet 
{ creaseAngle 0.50 coordIndex [0,1,2,-1,3,0,2,-1,2,4,3,-1]
coord Coordinate { point [-0.389263 -0.146307 0.03937,-0.3937 -0.144669 0.03937,-0.3937 -0.147638 0.03937,-0.384639 -0.147303 0.03937,-0.37992 -0.147638 0.03937]
}}
appearance Appearance{material Material{diffuseColor 0.27451 0.27451 0.27451
transparency 0}}}
Shape { geometry IndexedFaceSet 
{ creaseAngle 0.50 coordIndex [0,1,2,-1,3,1,0,-1,4,1,3,-1]
coord Coordinate { point [-0.389263 -0.247393 0.03937,-0.3937 -0.246062 0.03937,-0.3937 -0.249031 0.03937,-0.384639 -0.246397 0.03937,-0.37992 -0.246062 0.03937]
}}
appearance Appearance{material Material{diffuseColor 0.27451 0.27451 0.27451
transparency 0}}}
Shape { geometry IndexedFaceSet 
{ creaseAngle 0.50 coordIndex [0,1,2,-1,3,0,2,-1,2,4,3,-1]
coord Coordinate { point [-0.389263 -0.343157 0.03937,-0.3937 -0.341519 0.03937,-0.3937 -0.344487 0.03937,-0.384639 -0.344153 0.03937,-0.37992 -0.344488 0.03937]
}}
appearance Appearance{material Material{diffuseColor 0.27451 0.27451 0.27451
transparency 0}}}
Shape { geometry IndexedFaceSet 
{ creaseAngle 0.50 coordIndex [0,1,2,-1,0,3,1,-1]
coord Coordinate { point [-0.23622 -0.3937 0.03937,-0.31496 -0.374015 0.03937,-0.31496 -0.3937 0.03937,-0.23622 -0.374015 0.03937]
}}
appearance Appearance{material Material{diffuseColor 0.27451 0.27451 0.27451
transparency 0}}}
Shape { geometry IndexedFaceSet 
{ creaseAngle 0.50 coordIndex [0,1,2,-1,0,3,1,-1]
coord Coordinate { point [0.15748 -0.3937 0.03937,0.07874 -0.374015 0.03937,0.07874 -0.3937 0.03937,0.15748 -0.374015 0.03937]
}}
appearance Appearance{material Material{diffuseColor 0.27451 0.27451 0.27451
transparency 0}}}
Shape { geometry IndexedFaceSet 
{ creaseAngle 0.50 coordIndex [0,1,2,-1,0,3,1,-1,4,0,2,-1]
coord Coordinate { point [0.3937 -0.295275 0.03937,0.389263 -0.293945 0.03937,0.384639 -0.294941 0.03937,0.3937 -0.292306 0.03937,0.37992 -0.295275 0.03937]
}}
appearance Appearance{material Material{diffuseColor 0.27451 0.27451 0.27451
transparency 0}}}
Shape { geometry IndexedFaceSet 
{ creaseAngle 0.50 coordIndex [0,1,2,-1,3,0,2,-1,0,4,1,-1]
coord Coordinate { point [0.3937 -0.177165 0.03937,0.384639 -0.177499 0.03937,0.389263 -0.178495 0.03937,0.3937 -0.180134 0.03937,0.37992 -0.177165 0.03937]
}}
appearance Appearance{material Material{diffuseColor 0.27451 0.27451 0.27451
transparency 0}}}
Shape { geometry IndexedFaceSet 
{ creaseAngle 0.50 coordIndex [0,1,2,-1,0,3,1,-1,4,0,2,-1]
coord Coordinate { point [0.3937 -0.059055 0.03937,0.389263 -0.0577245 0.03937,0.384639 -0.0587207 0.03937,0.3937 -0.0560864 0.03937,0.37992 -0.059055 0.03937]
}}
appearance Appearance{material Material{diffuseColor 0.27451 0.27451 0.27451
transparency 0}}}
Shape { geometry IndexedFaceSet 
{ creaseAngle 0.50 coordIndex [0,1,2,-1,3,0,2,-1,0,4,1,-1]
coord Coordinate { point [0.3937 0.059055 0.03937,0.384639 0.0587207 0.03937,0.389263 0.0577245 0.03937,0.3937 0.0560864 0.03937,0.37992 0.059055 0.03937]
}}
appearance Appearance{material Material{diffuseColor 0.27451 0.27451 0.27451
transparency 0}}}
Shape { geometry IndexedFaceSet 
{ creaseAngle 0.50 coordIndex [0,1,2,-1,0,3,1,-1,4,0,2,-1]
coord Coordinate { point [0.3937 0.177165 0.03937,0.389263 0.178495 0.03937,0.384639 0.177499 0.03937,0.3937 0.180134 0.03937,0.37992 0.177165 0.03937]
}}
appearance Appearance{material Material{diffuseColor 0.27451 0.27451 0.27451
transparency 0}}}
Shape { geometry IndexedFaceSet 
{ creaseAngle 0.50 coordIndex [0,1,2,-1,3,0,2,-1,0,4,1,-1]
coord Coordinate { point [0.3937 0.295275 0.03937,0.384639 0.294941 0.03937,0.389263 0.293945 0.03937,0.3937 0.292306 0.03937,0.37992 0.295275 0.03937]
}}
appearance Appearance{material Material{diffuseColor 0.27451 0.27451 0.27451
transparency 0}}}
Shape { geometry IndexedFaceSet 
{ creaseAngle 0.50 coordIndex [0,1,2,-1,2,1,3,-1]
coord Coordinate { point [0.15748 0.374015 0.07874,0.15748 0.3937 0.07874,0.15748 0.374015 0.03937,0.15748 0.3937 0.03937]
}}
appearance Appearance{material Material{diffuseColor 0.27451 0.27451 0.27451
transparency 0}}}
Shape { geometry IndexedFaceSet 
{ creaseAngle 0.50 coordIndex [0,1,2,-1,0,3,1,-1]
coord Coordinate { point [0.07874 0.374015 0.07874,0.15748 0.374015 0.03937,0.07874 0.374015 0.03937,0.15748 0.374015 0.07874]
}}
appearance Appearance{material Material{diffuseColor 0.27451 0.27451 0.27451
transparency 0}}}
Shape { geometry IndexedFaceSet 
{ creaseAngle 0.50 coordIndex [0,1,2,-1,0,3,1,-1]
coord Coordinate { point [-0.31496 0.374015 0.07874,-0.23622 0.374015 0.03937,-0.31496 0.374015 0.03937,-0.23622 0.374015 0.07874]
}}
appearance Appearance{material Material{diffuseColor 0.27451 0.27451 0.27451
transparency 0}}}
Shape { geometry IndexedFaceSet 
{ creaseAngle 0.50 coordIndex [0,1,2,-1,2,1,3,-1]
coord Coordinate { point [0.07874 0.3937 0.07874,0.07874 0.374015 0.07874,0.07874 0.3937 0.03937,0.07874 0.374015 0.03937]
}}
appearance Appearance{material Material{diffuseColor 0.27451 0.27451 0.27451
transparency 0}}}
Shape { geometry IndexedFaceSet 
{ creaseAngle 0.50 coordIndex [0,1,2,-1,2,1,3,-1]
coord Coordinate { point [-0.31496 0.3937 0.07874,-0.31496 0.374015 0.07874,-0.31496 0.3937 0.03937,-0.31496 0.374015 0.03937]
}}
appearance Appearance{material Material{diffuseColor 0.27451 0.27451 0.27451
transparency 0}}}
Shape { geometry IndexedFaceSet 
{ creaseAngle 0.50 coordIndex [0,1,2,-1,2,1,3,-1]
coord Coordinate { point [-0.23622 0.374015 0.07874,-0.23622 0.3937 0.07874,-0.23622 0.374015 0.03937,-0.23622 0.3937 0.03937]
}}
appearance Appearance{material Material{diffuseColor 0.27451 0.27451 0.27451
transparency 0}}}
Shape { geometry IndexedFaceSet 
{ creaseAngle 0.50 coordIndex [0,1,2,-1,3,1,0,-1,2,4,5,-1,1,4,2,-1,5,6,7,-1,4,6,5,-1]
coord Coordinate { point [-0.3937 0.249031 0.0098425,-0.389263 0.247393 0.03937,-0.389263 0.247393 0.0098425,-0.3937 0.249031 0.03937,-0.384639 0.246397 0.03937,-0.384639 0.246397 0.0098425,-0.37992 0.246062 0.03937,-0.37992 0.246062 0.0098425]
}}
appearance Appearance{material Material{diffuseColor 0.27451 0.27451 0.27451
transparency 0}}}
Shape { geometry IndexedFaceSet 
{ creaseAngle 0.50 coordIndex [0,1,2,-1,3,4,0,-1,0,5,1,-1,4,5,0,-1,1,6,2,-1,1,7,6,-1]
coord Coordinate { point [-0.37992 0.246062 0.03937,-0.374015 0.246062 0.03937,-0.37992 0.246062 0.0098425,-0.3937 0.246062 0.03937,-0.3937 0.246062 0.07874,-0.374015 0.246062 0.07874,-0.23622 0.246062 0.0098425,-0.23622 0.246062 0.03937]
}}
appearance Appearance{material Material{diffuseColor 0.27451 0.27451 0.27451
transparency 0}}}
Shape { geometry IndexedFaceSet 
{ creaseAngle 0.50 coordIndex [0,1,2,-1,3,1,0,-1]
coord Coordinate { point [-0.23622 0.246062 0.0098425,-0.23622 0.344487 0.03937,-0.23622 0.344487 0.0098425,-0.23622 0.246062 0.03937]
}}
appearance Appearance{material Material{diffuseColor 0.27451 0.27451 0.27451
transparency 0}}}
Shape { geometry IndexedFaceSet 
{ creaseAngle 0.50 coordIndex [0,1,2,-1,2,1,3,-1]
coord Coordinate { point [0.374015 0.295275 0.03937,0.374015 0.177165 0.03937,-0.11811 0.295275 0.03937,-0.11811 0.177165 0.03937]
}}
appearance Appearance{material Material{diffuseColor 0.27451 0.27451 0.27451
transparency 0}}}
Shape { geometry IndexedFaceSet 
{ creaseAngle 0.50 coordIndex [0,1,2,-1,2,1,3,-1]
coord Coordinate { point [0.374015 0.059055 0.03937,0.374015 -0.059055 0.03937,-0.11811 0.059055 0.03937,-0.11811 -0.059055 0.03937]
}}
appearance Appearance{material Material{diffuseColor 0.27451 0.27451 0.27451
transparency 0}}}
Shape { geometry IndexedFaceSet 
{ creaseAngle 0.50 coordIndex [0,1,2,-1,2,1,3,-1]
coord Coordinate { point [0.374015 -0.177165 0.03937,0.374015 -0.295275 0.03937,-0.11811 -0.177165 0.03937,-0.11811 -0.295275 0.03937]
}}
appearance Appearance{material Material{diffuseColor 0.27451 0.27451 0.27451
transparency 0}}}
Shape { geometry IndexedFaceSet 
{ creaseAngle 0.50 coordIndex [0,1,2,-1,2,1,3,-1,1,4,5,-1,5,4,6,-1,7,4,8,-1,8,4,9,-1,9,4,10,-1,10,4,11,-1,11,4,12,-1,12,4,13,-1,13,4,14,-1,14,4,15,-1,15,4,0,-1,0,4,1,-1]
coord Coordinate { point [-0.285433 -0.246062 0.03937,-0.285433 -0.344487 0.03937,-0.374015 -0.246062 0.03937,-0.374015 -0.344487 0.03937,-0.252799 -0.332111 0.03937,-0.273655 -0.343057 0.03937,-0.262562 -0.338851 0.03937,-0.244932 -0.323231 0.03937,-0.239418 -0.312726 0.03937,-0.236579 -0.301207 0.03937,-0.236579 -0.289343 0.03937,-0.239418 -0.277824 0.03937,-0.244932 -0.267319 0.03937,-0.252799 -0.258439 0.03937,-0.262562 -0.251699 0.03937,-0.273655 -0.247493 0.03937]
}}
appearance Appearance{material Material{diffuseColor 0.27451 0.27451 0.27451
transparency 0}}}
Shape { geometry IndexedFaceSet 
{ creaseAngle 0.50 coordIndex [0,1,2,-1,2,1,3,-1,1,4,5,-1,5,4,6,-1,7,4,8,-1,8,4,9,-1,9,4,10,-1,10,4,11,-1,11,4,12,-1,12,4,13,-1,13,4,14,-1,14,4,15,-1,15,4,0,-1,0,4,1,-1]
coord Coordinate { point [-0.285433 -0.0492125 0.03937,-0.285433 -0.147638 0.03937,-0.374015 -0.0492125 0.03937,-0.374015 -0.147638 0.03937,-0.252799 -0.135261 0.03937,-0.273655 -0.146207 0.03937,-0.262562 -0.142001 0.03937,-0.244932 -0.126381 0.03937,-0.239418 -0.115876 0.03937,-0.236579 -0.104357 0.03937,-0.236579 -0.0924931 0.03937,-0.239418 -0.080974 0.03937,-0.244932 -0.0704691 0.03937,-0.252799 -0.0615889 0.03937,-0.262562 -0.0548495 0.03937,-0.273655 -0.0506425 0.03937]
}}
appearance Appearance{material Material{diffuseColor 0.27451 0.27451 0.27451
transparency 0}}}
Shape { geometry IndexedFaceSet 
{ creaseAngle 0.50 coordIndex [0,1,2,-1,2,1,3,-1,1,4,5,-1,5,4,6,-1,7,4,8,-1,8,4,9,-1,9,4,10,-1,10,4,11,-1,11,4,12,-1,12,4,13,-1,13,4,14,-1,14,4,15,-1,15,4,0,-1,0,4,1,-1]
coord Coordinate { point [-0.285433 0.147638 0.03937,-0.285433 0.0492125 0.03937,-0.374015 0.147638 0.03937,-0.374015 0.0492125 0.03937,-0.252799 0.0615889 0.03937,-0.273655 0.0506425 0.03937,-0.262562 0.0548495 0.03937,-0.244932 0.0704691 0.03937,-0.239418 0.080974 0.03937,-0.236579 0.0924931 0.03937,-0.236579 0.104357 0.03937,-0.239418 0.115876 0.03937,-0.244932 0.126381 0.03937,-0.252799 0.135261 0.03937,-0.262562 0.142001 0.03937,-0.273655 0.146207 0.03937]
}}
appearance Appearance{material Material{diffuseColor 0.27451 0.27451 0.27451
transparency 0}}}
Shape { geometry IndexedFaceSet 
{ creaseAngle 0.50 coordIndex [0,1,2,-1,2,1,3,-1]
coord Coordinate { point [-0.23622 0.344487 0.03937,-0.23622 0.246062 0.03937,-0.374015 0.344487 0.03937,-0.374015 0.246062 0.03937]
}}
appearance Appearance{material Material{diffuseColor 0.27451 0.27451 0.27451
transparency 0}}}
Shape { geometry IndexedFaceSet 
{ creaseAngle 0.50 coordIndex [0,1,2,-1,0,3,1,-1]
coord Coordinate { point [0.374015 -0.177165 0.07874,0.374015 -0.295275 0.03937,0.374015 -0.177165 0.03937,0.374015 -0.295275 0.07874]
}}
appearance Appearance{material Material{diffuseColor 0.27451 0.27451 0.27451
transparency 0}}}
Shape { geometry IndexedFaceSet 
{ creaseAngle 0.50 coordIndex [0,1,2,-1,0,3,1,-1]
coord Coordinate { point [0.374015 0.059055 0.07874,0.374015 -0.059055 0.03937,0.374015 0.059055 0.03937,0.374015 -0.059055 0.07874]
}}
appearance Appearance{material Material{diffuseColor 0.27451 0.27451 0.27451
transparency 0}}}
Shape { geometry IndexedFaceSet 
{ creaseAngle 0.50 coordIndex [0,1,2,-1,0,3,1,-1]
coord Coordinate { point [0.374015 0.295275 0.07874,0.374015 0.177165 0.03937,0.374015 0.295275 0.03937,0.374015 0.177165 0.07874]
}}
appearance Appearance{material Material{diffuseColor 0.27451 0.27451 0.27451
transparency 0}}}
Shape { geometry IndexedFaceSet 
{ creaseAngle 0.50 coordIndex [0,1,2,-1,3,4,0,-1,0,5,1,-1,4,5,0,-1,1,6,2,-1,1,7,6,-1]
coord Coordinate { point [0.37992 -0.177165 0.03937,0.374015 -0.177165 0.03937,0.37992 -0.177165 0.0098425,0.3937 -0.177165 0.03937,0.3937 -0.177165 0.07874,0.374015 -0.177165 0.07874,-0.11811 -0.177165 0.0098425,-0.11811 -0.177165 0.03937]
}}
appearance Appearance{material Material{diffuseColor 0.27451 0.27451 0.27451
transparency 0}}}
Shape { geometry IndexedFaceSet 
{ creaseAngle 0.50 coordIndex [0,1,2,-1,3,1,0,-1]
coord Coordinate { point [-0.11811 -0.177165 0.0098425,-0.11811 -0.295275 0.03937,-0.11811 -0.295275 0.0098425,-0.11811 -0.177165 0.03937]
}}
appearance Appearance{material Material{diffuseColor 0.27451 0.27451 0.27451
transparency 0}}}
Shape { geometry IndexedFaceSet 
{ creaseAngle 0.50 coordIndex [0,1,2,-1,3,1,0,-1,1,4,2,-1,1,5,4,-1,4,6,7,-1,5,6,4,-1]
coord Coordinate { point [-0.11811 -0.295275 0.0098425,0.374015 -0.295275 0.03937,0.37992 -0.295275 0.0098425,-0.11811 -0.295275 0.03937,0.37992 -0.295275 0.03937,0.374015 -0.295275 0.07874,0.3937 -0.295275 0.07874,0.3937 -0.295275 0.03937]
}}
appearance Appearance{material Material{diffuseColor 0.27451 0.27451 0.27451
transparency 0}}}
Shape { geometry IndexedFaceSet 
{ creaseAngle 0.50 coordIndex [0,1,2,-1,3,1,0,-1,2,4,5,-1,1,4,2,-1,5,6,7,-1,4,6,5,-1]
coord Coordinate { point [0.37992 -0.295275 0.0098425,0.384639 -0.294941 0.03937,0.384639 -0.294941 0.0098425,0.37992 -0.295275 0.03937,0.389263 -0.293945 0.03937,0.389263 -0.293945 0.0098425,0.3937 -0.292306 0.03937,0.3937 -0.292306 0.0098425]
}}
appearance Appearance{material Material{diffuseColor 0.27451 0.27451 0.27451
transparency 0}}}
Shape { geometry IndexedFaceSet 
{ creaseAngle 0.50 coordIndex [0,1,2,-1,3,1,0,-1,2,4,5,-1,1,4,2,-1,5,6,7,-1,4,6,5,-1]
coord Coordinate { point [0.3937 -0.180134 0.0098425,0.389263 -0.178495 0.03937,0.389263 -0.178495 0.0098425,0.3937 -0.180134 0.03937,0.384639 -0.177499 0.03937,0.384639 -0.177499 0.0098425,0.37992 -0.177165 0.03937,0.37992 -0.177165 0.0098425]
}}
appearance Appearance{material Material{diffuseColor 0.27451 0.27451 0.27451
transparency 0}}}
Shape { geometry IndexedFaceSet 
{ creaseAngle 0.50 coordIndex [0,1,2,-1,3,4,0,-1,0,5,1,-1,4,5,0,-1,1,6,2,-1,1,7,6,-1]
coord Coordinate { point [0.37992 0.059055 0.03937,0.374015 0.059055 0.03937,0.379921 0.059055 0.0098425,0.3937 0.059055 0.03937,0.3937 0.059055 0.07874,0.374015 0.059055 0.07874,-0.11811 0.059055 0.0098425,-0.11811 0.059055 0.03937]
}}
appearance Appearance{material Material{diffuseColor 0.27451 0.27451 0.27451
transparency 0}}}
Shape { geometry IndexedFaceSet 
{ creaseAngle 0.50 coordIndex [0,1,2,-1,3,1,0,-1]
coord Coordinate { point [-0.11811 0.059055 0.0098425,-0.11811 -0.059055 0.03937,-0.11811 -0.059055 0.0098425,-0.11811 0.059055 0.03937]
}}
appearance Appearance{material Material{diffuseColor 0.27451 0.27451 0.27451
transparency 0}}}
Shape { geometry IndexedFaceSet 
{ creaseAngle 0.50 coordIndex [0,1,2,-1,3,1,0,-1,1,4,2,-1,1,5,4,-1,4,6,7,-1,5,6,4,-1]
coord Coordinate { point [-0.11811 -0.059055 0.0098425,0.374015 -0.059055 0.03937,0.379921 -0.059055 0.0098425,-0.11811 -0.059055 0.03937,0.37992 -0.059055 0.03937,0.374015 -0.059055 0.07874,0.3937 -0.059055 0.07874,0.3937 -0.059055 0.03937]
}}
appearance Appearance{material Material{diffuseColor 0.27451 0.27451 0.27451
transparency 0}}}
Shape { geometry IndexedFaceSet 
{ creaseAngle 0.50 coordIndex [0,1,2,-1,2,3,4,-1,1,3,2,-1,4,5,6,-1,3,5,4,-1,5,7,6,-1]
coord Coordinate { point [0.379921 -0.059055 0.0098425,0.37992 -0.059055 0.03937,0.384639 -0.0587207 0.0098425,0.384639 -0.0587207 0.03937,0.389263 -0.0577245 0.0098425,0.389263 -0.0577245 0.03937,0.3937 -0.0560864 0.0098425,0.3937 -0.0560864 0.03937]
}}
appearance Appearance{material Material{diffuseColor 0.27451 0.27451 0.27451
transparency 0}}}
Shape { geometry IndexedFaceSet 
{ creaseAngle 0.50 coordIndex [0,1,2,-1,2,3,4,-1,1,3,2,-1,4,5,6,-1,3,5,4,-1,5,7,6,-1]
coord Coordinate { point [0.3937 0.0560864 0.0098425,0.3937 0.0560864 0.03937,0.389263 0.0577245 0.0098425,0.389263 0.0577245 0.03937,0.384639 0.0587207 0.0098425,0.384639 0.0587207 0.03937,0.379921 0.059055 0.0098425,0.37992 0.059055 0.03937]
}}
appearance Appearance{material Material{diffuseColor 0.27451 0.27451 0.27451
transparency 0}}}
Shape { geometry IndexedFaceSet 
{ creaseAngle 0.50 coordIndex [0,1,2,-1,3,4,0,-1,0,5,1,-1,4,5,0,-1,1,6,2,-1,1,7,6,-1]
coord Coordinate { point [0.37992 0.295275 0.03937,0.374015 0.295275 0.03937,0.37992 0.295275 0.0098425,0.3937 0.295275 0.03937,0.3937 0.295275 0.07874,0.374015 0.295275 0.07874,-0.11811 0.295275 0.0098425,-0.11811 0.295275 0.03937]
}}
appearance Appearance{material Material{diffuseColor 0.27451 0.27451 0.27451
transparency 0}}}
Shape { geometry IndexedFaceSet 
{ creaseAngle 0.50 coordIndex [0,1,2,-1,3,1,0,-1]
coord Coordinate { point [-0.11811 0.295275 0.0098425,-0.11811 0.177165 0.03937,-0.11811 0.177165 0.0098425,-0.11811 0.295275 0.03937]
}}
appearance Appearance{material Material{diffuseColor 0.27451 0.27451 0.27451
transparency 0}}}
Shape { geometry IndexedFaceSet 
{ creaseAngle 0.50 coordIndex [0,1,2,-1,3,1,0,-1,2,4,5,-1,1,4,2,-1,5,6,7,-1,4,6,5,-1]
coord Coordinate { point [0.3937 0.292306 0.0098425,0.389263 0.293945 0.03937,0.389263 0.293945 0.0098425,0.3937 0.292306 0.03937,0.384639 0.294941 0.03937,0.384639 0.294941 0.0098425,0.37992 0.295275 0.03937,0.37992 0.295275 0.0098425]
}}
appearance Appearance{material Material{diffuseColor 0.27451 0.27451 0.27451
transparency 0}}}
Shape { geometry IndexedFaceSet 
{ creaseAngle 0.50 coordIndex [0,1,2,-1,3,4,0,-1,0,5,1,-1,4,5,0,-1,1,6,2,-1,1,7,6,-1]
coord Coordinate { point [-0.37992 -0.344488 0.03937,-0.374015 -0.344487 0.03937,-0.379921 -0.344488 0.0098425,-0.3937 -0.344487 0.03937,-0.3937 -0.344487 0.07874,-0.374015 -0.344487 0.07874,-0.285433 -0.344487 0.0098425,-0.285433 -0.344487 0.03937]
}}
appearance Appearance{material Material{diffuseColor 0.27451 0.27451 0.27451
transparency 0}}}
Shape { geometry IndexedFaceSet 
{ creaseAngle 0.50 coordIndex [0,1,2,-1,3,1,0,-1,2,4,5,-1,1,4,2,-1,5,6,7,-1,4,6,5,-1,7,8,9,-1,6,8,7,-1,9,10,11,-1,8,10,9,-1,11,12,13,-1,10,12,11,-1,13,14,15,-1,12,14,13,-1,15,16,17,-1,14,16,15,-1,17,18,19,-1,16,18,17,-1,19,20,21,-1,18,20,19,-1,21,22,23,-1,20,22,21,-1,23,24,25,-1,22,24,23,-1,25,26,27,-1,24,26,25,-1]
coord Coordinate { point [-0.285433 -0.344487 0.0098425,-0.273655 -0.343057 0.03937,-0.273655 -0.343057 0.0098425,-0.285433 -0.344487 0.03937,-0.262562 -0.338851 0.03937,-0.262562 -0.338851 0.0098425,-0.252799 -0.332111 0.03937,-0.252799 -0.332111 0.0098425,-0.244932 -0.323231 0.03937,-0.244932 -0.323231 0.0098425,-0.239418 -0.312726 0.03937,-0.239418 -0.312726 0.0098425,-0.236579 -0.301207 0.03937,-0.236579 -0.301207 0.0098425,-0.236579 -0.289343 0.03937,-0.236579 -0.289343 0.0098425,-0.239418 -0.277824 0.03937,-0.239418 -0.277824 0.0098425,-0.244932 -0.267319 0.03937,-0.244932 -0.267319 0.0098425,-0.252799 -0.258439 0.03937,-0.252799 -0.258439 0.0098425,-0.262562 -0.251699 0.03937,-0.262562 -0.251699 0.0098425,-0.273655 -0.247493 0.03937,-0.273655 -0.247493 0.0098425,-0.285433 -0.246062 0.03937,-0.285433 -0.246062 0.0098425]
}}
appearance Appearance{material Material{diffuseColor 0.27451 0.27451 0.27451
transparency 0}}}
Shape { geometry IndexedFaceSet 
{ creaseAngle 0.50 coordIndex [0,1,2,-1,3,1,0,-1,1,4,2,-1,1,5,4,-1,4,6,7,-1,5,6,4,-1]
coord Coordinate { point [-0.285433 -0.246062 0.0098425,-0.374015 -0.246062 0.03937,-0.37992 -0.246062 0.0098425,-0.285433 -0.246062 0.03937,-0.37992 -0.246062 0.03937,-0.374015 -0.246062 0.07874,-0.3937 -0.246062 0.07874,-0.3937 -0.246062 0.03937]
}}
appearance Appearance{material Material{diffuseColor 0.27451 0.27451 0.27451
transparency 0}}}
Shape { geometry IndexedFaceSet 
{ creaseAngle 0.50 coordIndex [0,1,2,-1,2,3,4,-1,1,3,2,-1,4,5,6,-1,3,5,4,-1,5,7,6,-1]
coord Coordinate { point [-0.37992 -0.246062 0.0098425,-0.37992 -0.246062 0.03937,-0.384639 -0.246397 0.0098425,-0.384639 -0.246397 0.03937,-0.389263 -0.247393 0.0098425,-0.389263 -0.247393 0.03937,-0.3937 -0.249031 0.0098425,-0.3937 -0.249031 0.03937]
}}
appearance Appearance{material Material{diffuseColor 0.27451 0.27451 0.27451
transparency 0}}}
Shape { geometry IndexedFaceSet 
{ creaseAngle 0.50 coordIndex [0,1,2,-1,0,3,1,-1]
coord Coordinate { point [-0.374015 0.246062 0.07874,-0.374015 0.344487 0.03937,-0.374015 0.246062 0.03937,-0.374015 0.344487 0.07874]
}}
appearance Appearance{material Material{diffuseColor 0.27451 0.27451 0.27451
transparency 0}}}
Shape { geometry IndexedFaceSet 
{ creaseAngle 0.50 coordIndex [0,1,2,-1,0,3,1,-1]
coord Coordinate { point [-0.374015 0.0492125 0.07874,-0.374015 0.147638 0.03937,-0.374015 0.0492125 0.03937,-0.374015 0.147638 0.07874]
}}
appearance Appearance{material Material{diffuseColor 0.27451 0.27451 0.27451
transparency 0}}}
Shape { geometry IndexedFaceSet 
{ creaseAngle 0.50 coordIndex [0,1,2,-1,0,3,1,-1]
coord Coordinate { point [-0.374015 -0.147638 0.07874,-0.374015 -0.0492125 0.03937,-0.374015 -0.147638 0.03937,-0.374015 -0.0492125 0.07874]
}}
appearance Appearance{material Material{diffuseColor 0.27451 0.27451 0.27451
transparency 0}}}
Shape { geometry IndexedFaceSet 
{ creaseAngle 0.50 coordIndex [0,1,2,-1,0,3,1,-1]
coord Coordinate { point [-0.374015 -0.344487 0.07874,-0.374015 -0.246062 0.03937,-0.374015 -0.344487 0.03937,-0.374015 -0.246062 0.07874]
}}
appearance Appearance{material Material{diffuseColor 0.27451 0.27451 0.27451
transparency 0}}}
Shape { geometry IndexedFaceSet 
{ creaseAngle 0.50 coordIndex [0,1,2,-1,3,4,0,-1,0,5,1,-1,4,5,0,-1,1,6,2,-1,1,7,6,-1]
coord Coordinate { point [-0.37992 0.0492125 0.03937,-0.374015 0.0492125 0.03937,-0.37992 0.0492125 0.0098425,-0.3937 0.0492125 0.03937,-0.3937 0.0492125 0.07874,-0.374015 0.0492125 0.07874,-0.285433 0.0492125 0.0098425,-0.285433 0.0492125 0.03937]
}}
appearance Appearance{material Material{diffuseColor 0.27451 0.27451 0.27451
transparency 0}}}
Shape { geometry IndexedFaceSet 
{ creaseAngle 0.50 coordIndex [0,1,2,-1,3,1,0,-1,2,4,5,-1,1,4,2,-1,5,6,7,-1,4,6,5,-1,7,8,9,-1,6,8,7,-1,9,10,11,-1,8,10,9,-1,11,12,13,-1,10,12,11,-1,13,14,15,-1,12,14,13,-1,15,16,17,-1,14,16,15,-1,17,18,19,-1,16,18,17,-1,19,20,21,-1,18,20,19,-1,21,22,23,-1,20,22,21,-1,23,24,25,-1,22,24,23,-1,25,26,27,-1,24,26,25,-1]
coord Coordinate { point [-0.285433 0.0492125 0.0098425,-0.273655 0.0506425 0.03937,-0.273655 0.0506425 0.0098425,-0.285433 0.0492125 0.03937,-0.262562 0.0548495 0.03937,-0.262562 0.0548495 0.0098425,-0.252799 0.0615889 0.03937,-0.252799 0.0615889 0.0098425,-0.244932 0.0704691 0.03937,-0.244932 0.0704691 0.0098425,-0.239418 0.080974 0.03937,-0.239418 0.080974 0.0098425,-0.236579 0.0924931 0.03937,-0.236579 0.0924931 0.0098425,-0.236579 0.104357 0.03937,-0.236579 0.104357 0.0098425,-0.239418 0.115876 0.03937,-0.239418 0.115876 0.0098425,-0.244932 0.126381 0.03937,-0.244932 0.126381 0.0098425,-0.252799 0.135261 0.03937,-0.252799 0.135261 0.0098425,-0.262562 0.142001 0.03937,-0.262562 0.142001 0.0098425,-0.273655 0.146207 0.03937,-0.273655 0.146207 0.0098425,-0.285433 0.147638 0.03937,-0.285433 0.147638 0.0098425]
}}
appearance Appearance{material Material{diffuseColor 0.27451 0.27451 0.27451
transparency 0}}}
Shape { geometry IndexedFaceSet 
{ creaseAngle 0.50 coordIndex [0,1,2,-1,3,1,0,-1,1,4,2,-1,1,5,4,-1,4,6,7,-1,5,6,4,-1]
coord Coordinate { point [-0.285433 0.147638 0.0098425,-0.374015 0.147638 0.03937,-0.379921 0.147638 0.0098425,-0.285433 0.147638 0.03937,-0.37992 0.147638 0.03937,-0.374015 0.147638 0.07874,-0.3937 0.147638 0.07874,-0.3937 0.147638 0.03937]
}}
appearance Appearance{material Material{diffuseColor 0.27451 0.27451 0.27451
transparency 0}}}
Shape { geometry IndexedFaceSet 
{ creaseAngle 0.50 coordIndex [0,1,2,-1,3,1,0,-1,2,4,5,-1,1,4,2,-1,5,6,7,-1,4,6,5,-1]
coord Coordinate { point [-0.379921 0.147638 0.0098425,-0.384639 0.147303 0.03937,-0.384639 0.147303 0.0098425,-0.37992 0.147638 0.03937,-0.389263 0.146307 0.03937,-0.389263 0.146307 0.0098425,-0.3937 0.144669 0.03937,-0.3937 0.144669 0.0098425]
}}
appearance Appearance{material Material{diffuseColor 0.27451 0.27451 0.27451
transparency 0}}}
Shape { geometry IndexedFaceSet 
{ creaseAngle 0.50 coordIndex [0,1,2,-1,3,1,0,-1,2,4,5,-1,1,4,2,-1,5,6,7,-1,4,6,5,-1]
coord Coordinate { point [-0.3937 0.0521811 0.0098425,-0.389263 0.050543 0.03937,-0.389263 0.050543 0.0098425,-0.3937 0.0521811 0.03937,-0.384639 0.0495468 0.03937,-0.384639 0.0495468 0.0098425,-0.37992 0.0492125 0.03937,-0.37992 0.0492125 0.0098425]
}}
appearance Appearance{material Material{diffuseColor 0.27451 0.27451 0.27451
transparency 0}}}
Shape { geometry IndexedFaceSet 
{ creaseAngle 0.50 coordIndex [0,1,2,-1,3,4,0,-1,0,5,1,-1,4,5,0,-1,1,6,2,-1,1,7,6,-1]
coord Coordinate { point [-0.37992 -0.147638 0.03937,-0.374015 -0.147638 0.03937,-0.379921 -0.147638 0.0098425,-0.3937 -0.147638 0.03937,-0.3937 -0.147638 0.07874,-0.374015 -0.147638 0.07874,-0.285433 -0.147638 0.0098425,-0.285433 -0.147638 0.03937]
}}
appearance Appearance{material Material{diffuseColor 0.27451 0.27451 0.27451
transparency 0}}}
Shape { geometry IndexedFaceSet 
{ creaseAngle 0.50 coordIndex [0,1,2,-1,3,1,0,-1,2,4,5,-1,1,4,2,-1,5,6,7,-1,4,6,5,-1,7,8,9,-1,6,8,7,-1,9,10,11,-1,8,10,9,-1,11,12,13,-1,10,12,11,-1,13,14,15,-1,12,14,13,-1,15,16,17,-1,14,16,15,-1,17,18,19,-1,16,18,17,-1,19,20,21,-1,18,20,19,-1,21,22,23,-1,20,22,21,-1,23,24,25,-1,22,24,23,-1,25,26,27,-1,24,26,25,-1]
coord Coordinate { point [-0.285433 -0.147638 0.0098425,-0.273655 -0.146207 0.03937,-0.273655 -0.146207 0.0098425,-0.285433 -0.147638 0.03937,-0.262562 -0.142001 0.03937,-0.262562 -0.142001 0.0098425,-0.252799 -0.135261 0.03937,-0.252799 -0.135261 0.0098425,-0.244932 -0.126381 0.03937,-0.244932 -0.126381 0.0098425,-0.239418 -0.115876 0.03937,-0.239418 -0.115876 0.0098425,-0.236579 -0.104357 0.03937,-0.236579 -0.104357 0.0098425,-0.236579 -0.0924931 0.03937,-0.236579 -0.0924931 0.0098425,-0.239418 -0.080974 0.03937,-0.239418 -0.080974 0.0098425,-0.244932 -0.0704691 0.03937,-0.244932 -0.0704691 0.0098425,-0.252799 -0.0615889 0.03937,-0.252799 -0.0615889 0.0098425,-0.262562 -0.0548495 0.03937,-0.262562 -0.0548495 0.0098425,-0.273655 -0.0506425 0.03937,-0.273655 -0.0506425 0.0098425,-0.285433 -0.0492125 0.03937,-0.285433 -0.0492125 0.0098425]
}}
appearance Appearance{material Material{diffuseColor 0.27451 0.27451 0.27451
transparency 0}}}
Shape { geometry IndexedFaceSet 
{ creaseAngle 0.50 coordIndex [0,1,2,-1,3,1,0,-1,1,4,2,-1,1,5,4,-1,4,6,7,-1,5,6,4,-1]
coord Coordinate { point [-0.285433 -0.0492125 0.0098425,-0.374015 -0.0492125 0.03937,-0.37992 -0.0492125 0.0098425,-0.285433 -0.0492125 0.03937,-0.37992 -0.0492125 0.03937,-0.374015 -0.0492125 0.07874,-0.3937 -0.0492125 0.07874,-0.3937 -0.0492125 0.03937]
}}
appearance Appearance{material Material{diffuseColor 0.27451 0.27451 0.27451
transparency 0}}}
Shape { geometry IndexedFaceSet 
{ creaseAngle 0.50 coordIndex [0,1,2,-1,2,3,4,-1,1,3,2,-1,4,5,6,-1,3,5,4,-1,5,7,6,-1]
coord Coordinate { point [-0.37992 -0.0492125 0.0098425,-0.37992 -0.0492125 0.03937,-0.384639 -0.0495468 0.0098425,-0.384639 -0.0495468 0.03937,-0.389263 -0.050543 0.0098425,-0.389263 -0.050543 0.03937,-0.3937 -0.0521811 0.0098425,-0.3937 -0.0521811 0.03937]
}}
appearance Appearance{material Material{diffuseColor 0.27451 0.27451 0.27451
transparency 0}}}
Shape { geometry IndexedFaceSet 
{ creaseAngle 0.50 coordIndex [0,1,2,-1,2,3,4,-1,1,3,2,-1,4,5,6,-1,3,5,4,-1,5,7,6,-1]
coord Coordinate { point [-0.3937 -0.144669 0.0098425,-0.3937 -0.144669 0.03937,-0.389263 -0.146307 0.0098425,-0.389263 -0.146307 0.03937,-0.384639 -0.147303 0.0098425,-0.384639 -0.147303 0.03937,-0.379921 -0.147638 0.0098425,-0.37992 -0.147638 0.03937]
}}
appearance Appearance{material Material{diffuseColor 0.27451 0.27451 0.27451
transparency 0}}}
Shape { geometry IndexedFaceSet 
{ creaseAngle 0.50 coordIndex [0,1,2,-1,2,3,4,-1,1,3,2,-1,4,5,6,-1,3,5,4,-1,5,7,6,-1]
coord Coordinate { point [-0.3937 -0.341519 0.0098425,-0.3937 -0.341519 0.03937,-0.389263 -0.343157 0.0098425,-0.389263 -0.343157 0.03937,-0.384639 -0.344153 0.0098425,-0.384639 -0.344153 0.03937,-0.379921 -0.344488 0.0098425,-0.37992 -0.344488 0.03937]
}}
appearance Appearance{material Material{diffuseColor 0.27451 0.27451 0.27451
transparency 0}}}
Shape { geometry IndexedFaceSet 
{ creaseAngle 0.50 coordIndex [0,1,2,-1,2,1,3,-1]
coord Coordinate { point [-0.31496 -0.374015 0.07874,-0.31496 -0.3937 0.07874,-0.31496 -0.374015 0.03937,-0.31496 -0.3937 0.03937]
}}
appearance Appearance{material Material{diffuseColor 0.27451 0.27451 0.27451
transparency 0}}}
Shape { geometry IndexedFaceSet 
{ creaseAngle 0.50 coordIndex [0,1,2,-1,0,3,1,-1]
coord Coordinate { point [-0.23622 -0.374015 0.07874,-0.31496 -0.374015 0.03937,-0.23622 -0.374015 0.03937,-0.31496 -0.374015 0.07874]
}}
appearance Appearance{material Material{diffuseColor 0.27451 0.27451 0.27451
transparency 0}}}
Shape { geometry IndexedFaceSet 
{ creaseAngle 0.50 coordIndex [0,1,2,-1,0,3,1,-1]
coord Coordinate { point [0.15748 -0.374015 0.07874,0.07874 -0.374015 0.03937,0.15748 -0.374015 0.03937,0.07874 -0.374015 0.07874]
}}
appearance Appearance{material Material{diffuseColor 0.27451 0.27451 0.27451
transparency 0}}}
Shape { geometry IndexedFaceSet 
{ creaseAngle 0.50 coordIndex [0,1,2,-1,2,1,3,-1]
coord Coordinate { point [-0.23622 -0.3937 0.07874,-0.23622 -0.374015 0.07874,-0.23622 -0.3937 0.03937,-0.23622 -0.374015 0.03937]
}}
appearance Appearance{material Material{diffuseColor 0.27451 0.27451 0.27451
transparency 0}}}
Shape { geometry IndexedFaceSet 
{ creaseAngle 0.50 coordIndex [0,1,2,-1,2,1,3,-1]
coord Coordinate { point [0.15748 -0.3937 0.07874,0.15748 -0.374015 0.07874,0.15748 -0.3937 0.03937,0.15748 -0.374015 0.03937]
}}
appearance Appearance{material Material{diffuseColor 0.27451 0.27451 0.27451
transparency 0}}}
Shape { geometry IndexedFaceSet 
{ creaseAngle 0.50 coordIndex [0,1,2,-1,2,1,3,-1]
coord Coordinate { point [0.07874 -0.374015 0.07874,0.07874 -0.3937 0.07874,0.07874 -0.374015 0.03937,0.07874 -0.3937 0.03937]
}}
appearance Appearance{material Material{diffuseColor 0.27451 0.27451 0.27451
transparency 0}}}
